<?xml version="1.0" encoding="UTF-8" standalone="no"?>
<svg
   xmlns:dc="http://purl.org/dc/elements/1.1/"
   xmlns:cc="http://creativecommons.org/ns#"
   xmlns:rdf="http://www.w3.org/1999/02/22-rdf-syntax-ns#"
   xmlns:svg="http://www.w3.org/2000/svg"
   xmlns="http://www.w3.org/2000/svg"
   xmlns:xlink="http://www.w3.org/1999/xlink"
   xmlns:sodipodi="http://sodipodi.sourceforge.net/DTD/sodipodi-0.dtd"
   xmlns:inkscape="http://www.inkscape.org/namespaces/inkscape"
   inkscape:export-ydpi="96"
   inkscape:export-xdpi="96"
   inkscape:export-filename="C:\Users\Zander\Desktop\ages_of_war\smallcard.png"
   sodipodi:docname="cardfightercommon.svg"
   inkscape:version="1.0 (4035a4fb49, 2020-05-01)"
   id="svg8"
   version="1.1"
   viewBox="0 0 317.5 317.5"
   height="1200"
   width="1200">
  <defs
     id="defs2">
    <linearGradient
       inkscape:collect="always"
       id="linearGradient884">
      <stop
         id="stop882"
         offset="0"
         style="stop-color:#ff0000;stop-opacity:0;" />
      <stop
         id="stop880"
         offset="1"
         style="stop-color:#ff0000;stop-opacity:1;" />
    </linearGradient>
    <linearGradient
       inkscape:collect="always"
       id="linearGradient876">
      <stop
         style="stop-color:#00ff00;stop-opacity:1;"
         offset="0"
         id="stop872" />
      <stop
         style="stop-color:#00ff00;stop-opacity:0;"
         offset="1"
         id="stop874" />
    </linearGradient>
    <marker
       inkscape:stockid="Arrow2Lstart"
       orient="auto"
       refY="0"
       refX="0"
       id="Arrow2Lstart"
       style="overflow:visible"
       inkscape:isstock="true">
      <path
         id="path2865"
         style="fill:#000000;fill-opacity:1;fill-rule:evenodd;stroke:#000000;stroke-width:0.625;stroke-linejoin:round;stroke-opacity:1"
         d="M 8.7185878,4.0337352 -2.2072895,0.01601326 8.7185884,-4.0017078 c -1.7454984,2.3720609 -1.7354408,5.6174519 -6e-7,8.035443 z"
         transform="matrix(1.1,0,0,1.1,1.1,0)" />
    </marker>
    <linearGradient
       inkscape:collect="always"
       xlink:href="#linearGradient876"
       id="linearGradient878"
       x1="11.906251"
       y1="277.8125"
       x2="128.59248"
       y2="277.8125"
       gradientUnits="userSpaceOnUse" />
    <linearGradient
       inkscape:collect="always"
       xlink:href="#linearGradient884"
       id="linearGradient886"
       x1="188.90752"
       y1="277.8125"
       x2="305.59375"
       y2="277.8125"
       gradientUnits="userSpaceOnUse" />
  </defs>
  <sodipodi:namedview
     inkscape:window-maximized="1"
     inkscape:window-y="-9"
     inkscape:window-x="-9"
     inkscape:window-height="1001"
     inkscape:window-width="1920"
     units="px"
     showgrid="false"
     inkscape:document-rotation="0"
     inkscape:current-layer="layer1"
     inkscape:document-units="px"
     inkscape:cy="600"
     inkscape:cx="600"
     inkscape:zoom="0.47199378"
     inkscape:pageshadow="2"
     inkscape:pageopacity="0.0"
     borderopacity="1.0"
     bordercolor="#666666"
     pagecolor="#ffffff"
     id="base" />
  <metadata
     id="metadata5">
    <rdf:RDF>
      <cc:Work
         rdf:about="">
        <dc:format>image/svg+xml</dc:format>
        <dc:type
           rdf:resource="http://purl.org/dc/dcmitype/StillImage" />
        <dc:title />
      </cc:Work>
    </rdf:RDF>
  </metadata>
  <g
     id="layer1"
     inkscape:groupmode="layer"
     inkscape:label="Layer 1">
    <path
       sodipodi:nodetypes="ccccc"
       id="path852"
       d="m 13.229167,251.35417 c 0,52.91666 0,52.91666 52.916666,52.91666 H 125.67708 L 79.375,251.35417 Z"
       style="fill:url(#linearGradient878);fill-opacity:1;fill-rule:nonzero;stroke:#006400;stroke-width:2.64583;stroke-linecap:butt;stroke-linejoin:miter;stroke-miterlimit:4;stroke-dasharray:none;stroke-opacity:1" />
    <path
       style="fill:url(#linearGradient886);fill-opacity:1;stroke:#640000;stroke-width:2.64583;stroke-linecap:butt;stroke-linejoin:miter;stroke-miterlimit:4;stroke-dasharray:none;stroke-opacity:1"
       d="m 304.27083,251.35417 c 0,52.91666 0,52.91666 -52.91666,52.91666 H 191.82292 L 238.125,251.35417 Z"
       id="path852-3"
       sodipodi:nodetypes="ccccc" />
    <path
       transform="scale(0.26458333)"
       d="M 200 0 C -1.2598424e-06 -3.7895613e-14 0 -1.2598425e-06 0 200 L 0 1000 C -3.7895613e-14 1200 -1.2598425e-06 1200 200 1200 L 1000 1200 C 1200 1200 1200 1200 1200 1000 L 1200 200 C 1200 -1.2598424e-06 1200 0 1000 0 L 200 0 z M 250 50 L 950 50 C 1150 50.000008 1150 50.000003 1150 250 L 1150 950 C 1150 1150 1150 1150 950 1150 L 250 1150 C 50.000003 1150 50.000008 1150 50 950 L 50 250 C 50.000008 50.000003 50.000003 50.000008 250 50 z "
       style="fill:#c8c8c8;fill-opacity:1;stroke:#000000;stroke-width:10.00000013;stroke-linecap:butt;stroke-linejoin:miter;stroke-opacity:1;stroke-miterlimit:4;stroke-dasharray:none"
       id="path833-5" />
  </g>
</svg>
