<?xml version="1.0" encoding="UTF-8" standalone="no"?>
<svg
   xmlns:dc="http://purl.org/dc/elements/1.1/"
   xmlns:cc="http://creativecommons.org/ns#"
   xmlns:rdf="http://www.w3.org/1999/02/22-rdf-syntax-ns#"
   xmlns:svg="http://www.w3.org/2000/svg"
   xmlns="http://www.w3.org/2000/svg"
   xmlns:sodipodi="http://sodipodi.sourceforge.net/DTD/sodipodi-0.dtd"
   xmlns:inkscape="http://www.inkscape.org/namespaces/inkscape"
   inkscape:export-ydpi="96"
   inkscape:export-xdpi="96"
   inkscape:export-filename="C:\Users\Zander\Desktop\ages_of_war\holo_admiral.png"
   width="1500"
   height="1500"
   viewBox="0 0 396.875 396.875"
   version="1.1"
   id="svg8"
   inkscape:version="1.0 (4035a4fb49, 2020-05-01)"
   sodipodi:docname="holo_admiral.svg">
  <defs
     id="defs2" />
  <sodipodi:namedview
     id="base"
     pagecolor="#ffffff"
     bordercolor="#666666"
     borderopacity="1.0"
     inkscape:pageopacity="0.0"
     inkscape:pageshadow="2"
     inkscape:zoom="0.49497475"
     inkscape:cx="741.53486"
     inkscape:cy="750"
     inkscape:document-units="px"
     inkscape:current-layer="layer1"
     inkscape:document-rotation="0"
     showgrid="false"
     units="px"
     inkscape:lockguides="false"
     inkscape:window-width="1920"
     inkscape:window-height="1001"
     inkscape:window-x="-9"
     inkscape:window-y="-9"
     inkscape:window-maximized="1" />
  <metadata
     id="metadata5">
    <rdf:RDF>
      <cc:Work
         rdf:about="">
        <dc:format>image/svg+xml</dc:format>
        <dc:type
           rdf:resource="http://purl.org/dc/dcmitype/StillImage" />
        <dc:title />
      </cc:Work>
    </rdf:RDF>
  </metadata>
  <g
     inkscape:label="Layer 1"
     inkscape:groupmode="layer"
     id="layer1">
    <path
       transform="scale(0.26458333)"
       id="path845"
       d="m 817.33074,610.49054 c -13.89464,19.45293 -35.14864,31.9128 -54.30525,45.57478 -21.56321,14.22916 -45.18451,25.66912 -66.78571,39.97209 -12.90983,10.33984 -27.11339,19.95479 -38.06994,32.13906 0.0467,44.03578 7.88245,88.22507 8.38893,132.36865 2.72038,86.89536 4.75167,173.94648 7.79176,260.74618 0.57602,19.0722 -2.72273,38.4357 -0.92279,57.2568 10.82441,7.1567 25.19807,0.9014 37.1778,-0.835 25.45543,-5.4986 51.07057,-10.365 77.13257,-11.8626 6.54903,-0.1663 14.85669,-2.4288 14.44475,-10.5469 0.71582,-3.5486 1.1937,-13.8073 1.5245,-14.2807 1.71165,8.364 -3.29628,21.4496 6.52795,25.952 9.51749,1.8992 19.87965,5.5145 29.47825,2.6842 9.97368,-6.4719 6.86084,-20.6568 8.11663,-30.7813 -0.0775,-10.5696 0.63488,0.6272 1.00445,5.0781 1.33146,8.4625 -0.86108,17.2121 0.81753,25.4158 7.40263,3.7911 16.64466,0.1247 24.71262,-0.6055 7.16724,-5.2169 3.96984,-16.2809 6.54202,-23.9084 12.98928,-98.5917 26.52046,-197.14175 37.2667,-296.00626 2.8529,-30.67232 4.07429,-61.5089 8.70802,-91.99939 -3.98664,-10.31114 -14.3574,-17.21412 -20.51616,-26.48181 -14.17818,-18.67291 -30.21317,-35.98549 -49.21041,-49.824 -18.1735,-17.98664 -27.42257,-43.0208 -30.98215,-67.94085 -1.33415,-4.00112 -5.85371,-5.05006 -8.84207,-2.11495 z"
       style="fill:#89ffff;fill-opacity:1;stroke:none;stroke-width:14.2857;stroke-linejoin:round;paint-order:stroke fill markers" />
    <path
       transform="scale(0.26458333)"
       id="path847"
       d="m 1074.0104,312.96822 c -12.7225,1.70284 -20.0147,14.38772 -28.0887,23.06361 -4.3149,5.92923 -7.4019,14.00723 -13.2868,17.91853 -8.7099,-5.65504 -26.4214,-3.55681 -24.4671,10.08092 0.9554,6.79428 -1.234,14.54871 -9.24387,15.3683 -27.37683,9.77162 -57.46897,2.88321 -85.851,1.08538 -7.44293,-1.86522 -18.9773,0.12861 -23.17523,-7.73996 -2.40009,-11.43693 1.18909,-23.61827 -2.03962,-34.8577 -6.57281,-5.82873 -14.5404,2.90137 -21.23325,4.90235 -13.0198,7.03978 -23.39163,18.3113 -33.11327,29.04926 -1.52871,8.08802 5.07849,16.04174 5.23938,24.53891 4.74376,17.73439 11.10877,35.63352 11.36719,54.09877 -9.72475,43.83093 -2.27188,90.25175 -17.18192,132.86552 -2.5208,8.8555 -9.90318,15.53004 -12.07868,24.27734 9.79681,18.21321 12.61091,39.7262 26.09096,56.0491 21.26109,28.23323 46.77788,52.95139 71.76339,77.82366 8.7406,4.28338 9.36219,-7.72495 9.34713,-13.34447 2.39386,-41.84989 5.80507,-83.9018 15.24162,-124.92716 7.55304,-41.8247 11.47124,-84.26122 21.17143,-125.70339 1.5759,-12.69171 5.09595,-26.41993 1.04506,-38.84306 -4.26822,-3.76809 -1.09558,-1.86964 2.39955,-1.96428 6.56503,0.39996 5.11302,-9.26036 8.53516,-10.73103 3.64296,6.52054 13.4146,9.16135 19.21597,3.92857 -0.8048,10.60548 11.9992,7.95977 12.6674,-0.0586 1.7578,11.68671 16.9734,10.24871 25.7394,9.51451 19.8826,-3.33752 29.432,-23.77635 41.0733,-37.8481 15.5014,-21.50433 31.7829,-43.63191 39.6549,-69.19431 0,-8.4657 -10.9718,-7.11496 -16.2069,-10.90154 -8.0108,-3.12762 -15.7488,-8.26937 -24.5855,-8.45114 z"
       style="fill:#89ffff;fill-opacity:1;stroke:none;stroke-width:14.2857;stroke-linejoin:round;paint-order:stroke fill markers" />
    <path
       transform="scale(0.26458333)"
       id="path849"
       d="m 774.03554,348.47045 c -7.7384,3.1774 -6.92637,14.11004 -14.02623,18.53516 -20.47924,16.12752 -47.84337,19.73512 -73.11942,21.31975 -12.2312,2.2542 -22.29644,-5.11766 -33.08315,-9.28571 -10.36566,-2.48913 -16.91854,9.27749 -24.30095,14.53998 -25.54655,23.14374 -60.33196,33.5516 -84.67784,58.07441 -9.55811,14.05647 -4.90215,33.15231 2.07782,47.36602 15.30204,38.04558 43.65669,69.15926 74.74412,95.13926 7.15628,4.56939 12.37598,14.1401 21.13286,15.2291 8.03375,-4.08691 4.75663,-15.53361 6.23074,-22.94788 0.87202,-18.19315 0.3584,-36.41535 1.0293,-54.6135 0.63686,39.39014 0.11582,79.03511 2.77065,118.24218 0.0309,18.5707 -0.73659,37.59606 2.88505,55.84543 4.92934,7.8633 13.99472,-1.46416 20.22133,-2.54124 36.37511,-15.17522 68.62695,-38.1324 101.62298,-59.27796 18.17386,-10.93946 34.77263,-25.2191 47.81529,-41.9587 9.93981,-17.18093 11.64711,-37.43971 16.57924,-56.2528 2.59694,-32.561 3.06893,-65.10641 6.5597,-97.2991 -7.43483,-25.96943 -9.94987,-55.59421 -30.24553,-75.58036 -11.45119,-11.5847 -26.85984,-18.62188 -41.81083,-24.48382 -0.79157,-0.14892 -1.60348,-0.19901 -2.40513,-0.0502 z m 37.37165,58.51562 c 10.99204,-1.53891 9.95001,18.86967 -0.34319,16.74666 -8.92214,-3.13733 -0.83027,-11.99859 0.34319,-16.74666 z m 6.90291,50.0865 c 7.14043,0.9806 2.03691,9.08751 -1.93639,11.024 -3.25437,2.89537 -6.83482,1.61935 -5.23717,-3.07478 -0.0606,-4.05879 2.71327,-8.35186 7.17356,-7.94922 z m -172.78182,9.48103 c 1.09508,6.18477 2.10485,12.39208 2.75391,18.64118 -0.62363,-6.09269 -4.22861,-13.49124 -4.6875,-18.44029 0.62017,-0.004 1.37088,-0.15894 1.93359,-0.20089 z m 166.36161,44.84932 c 8.32014,1.4504 4.18384,13.18546 -3.39565,9.45313 -0.27944,-3.32314 1.09859,-7.10484 3.39565,-9.45313 z m -0.30692,65.56642 c 6.03952,-0.52412 7.66634,12.09345 0.0335,9.83537 -4.11749,-0.19837 -11.29177,0.88605 -13.76116,-1.16072 3.20151,-4.41973 7.98689,-8.6318 13.72767,-8.67465 z"
       style="fill:#89ffff;fill-opacity:1;stroke:none;stroke-width:14.2857;stroke-linejoin:round;paint-order:stroke fill markers" />
    <path
       transform="scale(0.26458333)"
       id="path851"
       d="m 975.00652,334.58094 c -17.54927,4.41537 -35.63138,6.99828 -53.81138,6.81083 -8.46247,-0.0919 -19.9766,4.06808 -18.73326,14.47823 -1.20891,7.52723 0.0545,17.55992 10.19498,15.64748 23.11186,2.46504 46.66283,2.52221 69.70552,1.31754 6.97431,-4.13774 2.35382,-14.58191 3.41528,-21.57634 0.061,-7.05475 -1.43821,-17.17957 -10.77114,-16.67774 z"
       style="fill:#89ffff;fill-opacity:1;stroke:none;stroke-width:14.2857;stroke-linejoin:round;paint-order:stroke fill markers" />
    <path
       transform="scale(0.26458333)"
       id="path853"
       d="m 720.8659,339.60884 c -16.56635,0.98239 -33.57456,0.33503 -49.74052,4.34989 -7.21681,5.65698 -1.60449,16.26162 -0.0921,23.54632 1.83618,10.78487 14.41413,9.63549 22.60379,9.12778 17.15853,-1.23449 36.50668,-3.95511 49.23773,-16.54129 4.0052,-7.01944 -0.98787,-18.17073 -7.72322,-20.89564 -4.7619,0.13764 -9.52381,0.27529 -14.28571,0.41294 z"
       style="fill:#89ffff;fill-opacity:1;stroke:none;stroke-width:14.2857;stroke-linejoin:round;paint-order:stroke fill markers" />
    <path
       transform="scale(0.26458333)"
       id="path855"
       d="m 747.82181,336.99444 c -9.35909,3.02055 -3.51153,14.64439 -1.25558,20.96541 1.40193,5.65693 7.03021,16.40351 13.41797,9.30803 4.20184,-4.95555 10.53422,-12.30836 3.05145,-17.58217 -4.50197,-4.30134 -8.23066,-12.42923 -15.21384,-12.69127 z"
       style="fill:#89ffff;fill-opacity:1;stroke:none;stroke-width:14.2857;stroke-linejoin:round;paint-order:stroke fill markers" />
    <path
       transform="scale(0.26458333)"
       id="path859"
       d="m 812.40805,509.48508 c -6.32311,-0.32446 -11.85941,8.9502 -6.2809,13.34802 5.65145,3.81625 15.23117,-1.60258 13.22175,-8.66817 -0.87209,-2.96818 -3.93257,-4.79068 -6.94085,-4.67985 z"
       style="fill:#89ffff;fill-opacity:1;stroke:none;stroke-width:5.05076;stroke-linejoin:round;paint-order:stroke fill markers" />
    <path
       transform="scale(0.26458333)"
       id="path861"
       d="m 819.52647,454.43868 c -5.24741,1.07251 -12.0178,3.3082 -13.11225,9.36166 -1.28644,4.92493 4.2295,9.29601 8.7826,7.20129 4.68259,-1.89998 9.26791,-5.9275 10.15427,-11.0704 0.18311,-3.15704 -2.71453,-5.77224 -5.82462,-5.49255 z"
       style="fill:#89ffff;fill-opacity:1;stroke:none;stroke-width:5.05076;stroke-linejoin:round;paint-order:stroke fill markers" />
    <path
       transform="scale(0.26458333)"
       id="path863"
       d="m 814.58323,406.52548 c -4.27945,1.38832 -7.02428,5.51796 -9.57968,8.99569 -2.72319,3.80493 -0.0939,9.46179 4.54174,9.91015 5.82796,0.69423 9.1044,-5.66013 10.61746,-10.36689 1.92213,-4.02662 -0.63842,-9.41272 -5.57952,-8.53895 z"
       style="fill:#89ffff;fill-opacity:1;stroke:none;stroke-width:5.05076;stroke-linejoin:round;paint-order:stroke fill markers" />
    <path
       transform="scale(0.26458333)"
       id="path865"
       d="m 810.223,574.17529 c -5.19752,0.81125 -8.23147,6.01929 -10.21793,10.40635 -1.36727,4.09208 2.7748,7.64414 6.70903,7.11743 6.85417,1.11953 13.70914,-6.88739 10.0384,-13.25924 -1.30293,-2.36893 -3.61897,-4.56095 -6.5295,-4.26454 z"
       style="fill:#89ffff;fill-opacity:1;stroke:none;stroke-width:5.05076;stroke-linejoin:round;paint-order:stroke fill markers" />
    <path
       transform="scale(0.26458333)"
       id="path867"
       d="m 996.45311,349.65307 c -4.91829,-0.18319 -7.64879,4.95551 -7.28316,9.3301 -0.31003,4.02471 0.59706,8.92589 -2.16137,12.22542 -4.21661,2.01034 -3.85492,8.96579 0.89161,9.9562 4.87086,0.45495 9.53036,-2.19893 13.73491,-4.38951 4.6458,-2.33707 6.6357,-7.6432 6.0481,-12.61211 -0.048,-6.17216 -2.9603,-14.19621 -10.18048,-14.49037 -0.3494,-0.0199 -0.69971,-0.027 -1.04961,-0.0197 z"
       style="fill:#89ffff;fill-opacity:1;stroke:none;stroke-width:5.05076;stroke-linejoin:round;paint-order:stroke fill markers" />
    <path
       transform="scale(0.26458333)"
       id="path869"
       d="m 895.48718,346.15207 c -5.60696,0.51296 -7.11843,7.27893 -5.91092,11.88134 1.08417,4.15515 1.31546,9.08988 4.26466,12.33327 3.42939,2.90471 8.51743,-0.53012 8.17652,-4.7165 0.3178,-5.31497 1.84542,-11.29978 -1.01586,-16.15494 -1.27109,-1.84366 -3.13987,-3.437 -5.5144,-3.34317 z"
       style="fill:#89ffff;fill-opacity:1;stroke:none;stroke-width:5.05076;stroke-linejoin:round;paint-order:stroke fill markers" />
    <path
       transform="scale(0.26458333)"
       id="path871"
       d="m 771.1595,290.68443 c -5.47361,0.44401 -5.89401,6.78457 -6.74304,10.94776 -1.48496,8.2241 -2.56289,16.84176 -7.45829,23.88968 -2.78081,3.85799 -1.7039,9.90841 2.99199,11.67693 6.23648,2.35109 12.65642,4.28118 18.53407,7.52541 12.52926,6.37579 24.83393,13.20464 37.13776,19.99533 4.19941,2.36702 6.67111,7.35458 11.30811,8.85841 4.74539,0.8249 7.64233,-4.07047 10.98583,-6.55915 10.14086,-9.76677 20.67196,-19.15777 32.15467,-27.33013 4.47767,-3.12777 7.6497,-8.9483 5.18788,-14.31872 -2.13824,-7.13786 -2.41055,-14.93204 -5.57853,-21.83073 -2.96928,-4.97693 -9.47867,-4.07062 -14.04447,-2.19393 -8.4734,3.06242 -17.02719,6.74987 -26.24621,6.24933 -13.67331,0.19954 -27.38869,-2.60977 -39.59943,-8.85421 -6.01538,-2.43822 -11.34661,-6.76316 -17.77014,-8.054 -0.28614,-0.0199 -0.57397,-0.0182 -0.8602,-0.002 z"
       style="fill:#89ffff;fill-opacity:1;stroke:none;stroke-width:5.05076;stroke-linejoin:round;paint-order:stroke fill markers" />
    <path
       transform="scale(0.26458333)"
       id="path873"
       d="m 658.04806,350.15914 c -5.0436,-0.0136 -7.21647,5.78209 -6.00074,10.0305 1.24305,9.44973 6.44496,18.5881 15.06351,23.08257 13.97858,7.44134 30.53608,5.07929 45.45448,2.40927 12.22216,-2.62654 24.67454,-5.42285 35.82531,-11.25205 4.10454,-1.89512 7.69445,-7.25312 4.48354,-11.45102 -3.75784,-4.5327 -10.05251,-1.49197 -14.35036,0.45054 -13.28503,6.52827 -28.08437,9.20555 -42.72721,10.42142 -6.52648,0.14284 -12.86474,0.77229 -19.3093,-0.30482 -3.87803,-0.83602 -7.0445,-3.58671 -7.92437,-7.54951 -2.15516,-4.88073 -2.25908,-11.18956 -6.64195,-14.76658 -1.13281,-0.76512 -2.51245,-1.1187 -3.87291,-1.07032 z"
       style="fill:#89ffff;fill-opacity:1;stroke:none;stroke-width:5.05076;stroke-linejoin:round;paint-order:stroke fill markers" />
    <path
       transform="scale(0.26458333)"
       id="path875"
       d="m 837.40538,191.17257 c -12.79072,1.11782 -25.3963,4.1267 -37.67751,7.80501 -3.77091,1.47554 -7.64174,3.52033 -11.79333,2.10119 -5.88854,-1.30642 -11.75621,1.67996 -15.19964,6.41506 -3.14801,2.52838 -2.90896,8.20339 1.21435,9.55305 1.97282,0.79608 4.17563,-0.25355 6.0116,-0.40446 2.81124,1.14184 0.0321,2.17019 -1.11078,3.34416 -2.94363,2.90804 -6.80387,5.24267 -8.79576,8.91715 -2.03592,4.89026 3.53903,7.77919 6.5683,10.47403 2.27382,1.95378 4.68197,4.04684 6.09544,6.65971 -2.58234,1.40592 -6.04219,1.98859 -8.40676,-0.10161 -4.8501,-2.27418 -9.20391,2.09595 -11.27493,6.0757 -1.40452,0.57187 -4.1695,-0.17505 -5.48414,1.68467 -3.55336,4.07573 -0.91428,9.87341 0.23753,14.41861 1.76927,5.96311 5.40819,12.79353 12.37538,13.33518 1.79932,0.0531 4.04606,0.44653 4.26651,2.66152 3.55624,11.75758 15.43167,17.93192 26.17546,21.84225 11.03213,3.73828 22.74544,6.80257 34.4771,5.90439 3.84461,-0.47125 5.84471,-5.53995 3.22972,-8.45115 12.55237,-0.39703 24.98108,-3.49132 36.65518,-8.03722 6.28232,-2.77784 12.81579,-5.78421 17.7372,-10.62594 1.93063,-3.88175 -1.85958,-8.11885 -5.94451,-7.32065 -16.231,-0.26589 -32.66623,0.0708 -48.42894,4.39056 -10.84868,2.9012 -22.76305,4.89921 -33.63017,1.09031 -6.07991,-2.66235 -11.38601,-9.27942 -9.51951,-16.24629 1.60042,-9.82943 10.52031,-17.83423 20.57002,-17.87694 12.33422,-0.35249 25.11454,0.89488 37.61635,1.31793 3.76848,0.15948 9.43924,1.66501 10.79475,-3.1364 1.49902,-4.0041 -2.88008,-6.56223 -6.0734,-7.68569 -2.2851,-1.01012 -4.86027,-2.13662 -0.89203,-1.52093 7.9388,0.38736 17.13969,3.28159 24.15901,-2.02304 4.26417,-2.96751 5.86078,-8.86689 3.27178,-13.45431 -1.26768,-2.83382 -2.82913,-5.52387 -4.23853,-8.28765 4.57974,5.86018 11.02354,9.77047 16.03913,15.17005 1.41421,1.53568 3.2059,4.59626 0.29989,5.6387 -3.69606,3.02595 -9.09597,1.86991 -12.55095,5.3615 -3.7303,2.22662 -3.92289,8.57089 0.53458,10.04129 4.66775,0.9363 9.40406,-1.19634 14.04062,-1.7608 6.34116,-0.39775 9.36301,-6.65177 11.58814,-11.73217 4.73375,-11.96928 11.61699,-23.06604 15.38017,-35.40565 1.32868,-4.38951 -2.89577,-8.09979 -7.08784,-7.90957 -17.73435,-0.94635 -35.68064,-2.43082 -53.33191,0.28903 -6.6783,0.83423 -12.1583,5.41194 -18.77858,6.29077 -0.61446,-4.48737 -4.08126,-9.34632 -9.11899,-8.80135 z"
       style="fill:#89ffff;fill-opacity:1;stroke:none;stroke-width:5.05076;stroke-linejoin:round;paint-order:stroke fill markers" />
    <path
       transform="scale(0.26458333)"
       id="path877"
       d="m 811.08518,254.77173 c -5.66903,0.4448 -8.68756,6.37753 -10.71511,11.00317 -2.91661,7.21953 4.79469,16.7085 12.50261,13.48021 7.22257,-2.88556 7.92051,-12.25238 5.32796,-18.602 -0.99716,-3.10512 -3.62027,-6.00083 -7.11546,-5.88138 z"
       style="fill:#89ffff;fill-opacity:1;stroke:none;stroke-width:5.05076;stroke-linejoin:round;paint-order:stroke fill markers" />
    <path
       transform="scale(0.26458333)"
       id="path879"
       d="m 862.43329,263.36198 c -11.11354,0.41912 -22.4589,-0.52443 -33.37745,1.96506 -5.83307,1.65536 -10.33893,7.07314 -11.58618,12.87353 -0.5344,4.73589 4.76716,7.53222 8.89309,6.28879 14.18401,-2.39334 28.28863,-5.36898 42.65231,-6.54429 3.30607,-0.25187 6.57672,-1.28628 9.37943,-2.87361 4.06969,-0.60164 8.67513,1.97634 12.27514,-0.60002 3.652,-2.56259 1.66221,-8.30534 -2.36795,-9.18287 -8.28813,-2.54483 -17.31343,-1.67447 -25.86839,-1.92659 z"
       style="fill:#89ffff;fill-opacity:1;stroke:none;stroke-width:5.05076;stroke-linejoin:round;paint-order:stroke fill markers" />
    <path
       transform="scale(0.26458333)"
       id="path881"
       d="m 832.93467,248.94659 c -3.8277,1.8378 -3.52792,7.18163 -0.25057,9.42875 3.3142,4.55685 8.4517,9.27651 14.56447,8.00033 15.96182,-1.04062 32.05818,-0.16526 47.92972,-2.57896 3.98786,-0.33612 9.02446,-3.22832 7.65222,-7.93196 -1.93526,-5.22769 -8.55255,-4.71743 -13.09548,-5.32204 -15.5726,-0.65989 -31.43515,-0.48941 -46.76789,-1.40277 -3.35879,0.0448 -6.72531,-1.04236 -10.03247,-0.19335 z"
       style="fill:#89ffff;fill-opacity:1;stroke:none;stroke-width:5.05076;stroke-linejoin:round;paint-order:stroke fill markers" />
    <path
       transform="scale(0.26458333)"
       id="path883"
       d="m 828.27652,248.65952 c -4.77967,-0.25659 -11.17427,1.99428 -11.09787,7.70735 0.42022,4.91381 4.43047,8.92911 8.42748,11.40071 4.87561,2.33355 9.89912,-1.94218 11.08307,-6.6163 1.67478,-3.84931 -1.57001,-7.12649 -2.94562,-10.40634 -1.32731,-1.61953 -3.44568,-2.19506 -5.46706,-2.08542 z"
       style="fill:#89ffff;fill-opacity:1;stroke:none;stroke-width:5.05076;stroke-linejoin:round;paint-order:stroke fill markers" />
    <path
       transform="scale(0.26458333)"
       id="path885"
       d="m 763.84082,174.509 c -9.35917,0.40885 -16.68894,8.68329 -17.87998,17.66092 -2.40762,12.66645 -3.29694,25.71208 -2.32109,38.57222 0.22525,4.62534 4.14556,10.58243 9.41493,8.49949 5.6208,-2.96729 5.78768,-10.24792 7.11415,-15.70761 1.74011,-8.43835 1.80581,-17.06326 5.1231,-25.11874 2.91257,-5.25624 10.74244,-6.04064 12.60041,-12.00435 0.99514,-3.9103 -2.92711,-6.62565 -6.25637,-6.96363 -1.26381,-3.08618 -4.45552,-5.13327 -7.79515,-4.9383 z"
       style="fill:#89ffff;fill-opacity:1;stroke:none;stroke-width:5.05076;stroke-linejoin:round;paint-order:stroke fill markers" />
    <path
       transform="scale(0.26458333)"
       id="path887"
       d="m 790.28334,174.57312 c -7.61331,0.42977 -9.30411,11.68512 -3.69731,15.83098 4.63624,4.18703 11.51898,-1.28797 11.06827,-6.7327 0.17287,-4.25732 -2.61182,-9.22955 -7.37096,-9.09828 z"
       style="fill:#89ffff;fill-opacity:1;stroke:none;stroke-width:5.05076;stroke-linejoin:round;paint-order:stroke fill markers" />
    <path
       transform="scale(0.26458333)"
       id="path889"
       d="m 798.92981,175.22913 c -3.69723,1.34444 -6.87085,4.65717 -6.25722,8.85462 -0.59903,4.44228 3.34232,8.71109 7.88491,7.70438 5.72472,-1.16649 10.13384,-8.73134 5.89815,-13.69427 -1.61347,-2.5251 -4.5777,-4.32318 -7.52584,-2.86473 z"
       style="fill:#89ffff;fill-opacity:1;stroke:none;stroke-width:5.05076;stroke-linejoin:round;paint-order:stroke fill markers" />
    <path
       transform="scale(0.26458333)"
       id="path891"
       d="m 814.12156,175.76281 c -5.35435,-0.24362 -10.11619,3.57808 -11.50627,8.67705 -1.91868,3.2505 -0.76817,8.50653 3.45857,8.9021 4.42027,0.77253 6.17732,-4.41328 9.61324,-5.83613 3.54966,0.14966 8.8577,1.3644 10.08147,-3.18019 1.54591,-4.54814 -3.67337,-7.12847 -7.34597,-8.08241 -1.40433,-0.349 -2.85455,-0.50782 -4.30104,-0.48042 z"
       style="fill:#89ffff;fill-opacity:1;stroke:none;stroke-width:5.05076;stroke-linejoin:round;paint-order:stroke fill markers" />
    <path
       transform="scale(0.26458333)"
       id="path893"
       d="m 886.60691,160.59277 c -10.42633,0.33352 -21.21447,0.4512 -31.11276,4.08873 -3.96339,1.54162 -8.7787,5.50645 -6.55587,10.24675 2.81897,2.21183 -1.13749,2.76499 -1.39981,5.41675 -0.55484,4.24972 3.8485,6.42404 7.52357,6.05227 2.07483,-0.0258 4.00892,0.40356 4.90407,2.43636 3.72229,3.30273 10.26441,2.74988 13.79687,-0.61753 1.27559,-0.98009 1.47937,-3.08722 2.12783,-4.08599 2.73655,0.13895 4.34283,3.03461 7.2003,3.15673 11.87257,1.81141 23.77625,1.51887 35.62496,3.55076 4.85372,0.60196 9.74595,2.71974 14.65282,1.6825 2.83163,5.28096 10.50892,5.51742 15.13439,2.72552 3.9367,-3.15648 1.12767,-8.28468 -1.4125,-11.32464 -3.76111,-5.6734 -10.1353,-9.03336 -16.81943,-9.74048 -5.26743,-6.42092 -14.74127,-4.70761 -21.22011,-8.92466 -5.18298,-5.13623 -13.18338,-4.14609 -19.8637,-4.65124 -0.8602,-0.0101 -1.72038,-0.0173 -2.58063,-0.0118 z m 16.16935,16.70796 c 0.15009,5.92031 -1.20835,-1.22229 0,0 z"
       style="fill:#89ffff;fill-opacity:1;stroke:none;stroke-width:5.05076;stroke-linejoin:round;paint-order:stroke fill markers" />
    <path
       transform="scale(0.26458333)"
       id="path895"
       d="m 896.31385,117.83849 c -2.84739,3.23616 -4.57912,7.3347 -7.66099,10.44877 -3.22199,3.29793 -2.30569,8.99453 1.73719,11.20145 4.98425,3.42942 13.34442,5.28776 17.51293,-0.30187 2.89436,-4.9519 -0.41498,-10.64408 -2.16631,-15.42356 -1.55414,-3.79279 -4.72987,-8.57125 -9.42282,-5.92479 z"
       style="fill:#89ffff;fill-opacity:1;stroke:none;stroke-width:5.05076;stroke-linejoin:round;paint-order:stroke fill markers" />
    <path
       transform="scale(0.26458333)"
       id="path897"
       d="m 919.28594,124.93916 c -5.60498,1.07296 -5.35234,8.03945 -4.38983,12.35562 0.8833,4.85078 8.36718,5.53257 9.9654,0.8099 1.62088,-4.39614 1.68055,-11.75446 -3.94493,-13.13396 -0.54227,0.003 -1.08959,-0.0544 -1.63064,-0.0316 z"
       style="fill:#89ffff;fill-opacity:1;stroke:none;stroke-width:5.05076;stroke-linejoin:round;paint-order:stroke fill markers" />
    <path
       transform="scale(0.26458333)"
       id="path899"
       d="m 925.47016,93.85329 c -4.95722,-0.440424 -9.82621,5.221469 -6.857,9.79769 2.88869,4.09753 9.68055,4.20544 13.42595,1.27453 4.0041,-3.6157 0.63039,-10.012439 -4.11163,-10.776277 -0.79965,-0.213292 -1.62972,-0.315683 -2.45732,-0.295943 z"
       style="fill:#89ffff;fill-opacity:1;stroke:none;stroke-width:5.05076;stroke-linejoin:round;paint-order:stroke fill markers" />
    <path
       transform="scale(0.26458333)"
       id="path901"
       d="m 909.37776,137.89357 c -6.09778,0.80708 -10.60203,5.6882 -14.67582,9.88352 -2.78824,3.57549 0.84347,9.06366 5.22537,7.92634 5.50765,-1.72542 11.80979,-2.01238 16.55309,-5.53512 4.92185,-4.78491 -1.24794,-12.93361 -7.10264,-12.27474 z"
       style="fill:#89ffff;fill-opacity:1;stroke:none;stroke-width:5.05076;stroke-linejoin:round;paint-order:stroke fill markers" />
    <path
       transform="scale(0.26458333)"
       id="path903"
       d="m 883.45314,134.27222 c -6.48294,-0.0738 -11.35674,5.23804 -13.85309,10.68453 -4.65531,-0.82088 -8.30136,4.53208 -6.01751,8.59419 2.59524,5.49547 9.6456,5.4176 14.64622,3.7713 5.74824,-1.80155 12.14477,-3.75609 16.0125,-8.64943 2.43988,-4.46126 -1.25792,-9.51177 -4.39279,-12.55687 -1.83218,-1.32379 -4.15527,-1.89216 -6.39533,-1.84372 z"
       style="fill:#89ffff;fill-opacity:1;stroke:none;stroke-width:5.05076;stroke-linejoin:round;paint-order:stroke fill markers" />
    <path
       transform="scale(0.26458333)"
       id="path905"
       d="m 874.08457,121.64136 c -3.18194,0.10344 -5.80174,2.46074 -7.11743,5.22439 -4.7901,-0.099 -6.91608,5.17179 -6.60151,9.26893 -0.6375,3.81292 1.51028,8.80531 6.0333,8.24969 3.81562,-0.70102 6.09358,-4.43793 9.77105,-5.60494 4.50756,-2.0963 8.46293,-8.046 4.90871,-12.66045 -1.57725,-2.32444 -3.94801,-4.71302 -6.99412,-4.47762 z"
       style="fill:#89ffff;fill-opacity:1;stroke:none;stroke-width:5.05076;stroke-linejoin:round;paint-order:stroke fill markers" />
    <path
       transform="scale(0.26458333)"
       id="path907"
       d="m 879.74596,110.54152 c -5.36704,0.42646 -6.57858,7.06138 -4.31879,11.05348 1.49635,4.39976 7.23375,8.07498 11.31193,4.53779 5.199,-4.9252 0.43272,-14.07963 -5.67791,-15.5428 -0.43068,-0.0968 -0.87813,-0.0567 -1.31523,-0.0485 z"
       style="fill:#89ffff;fill-opacity:1;stroke:none;stroke-width:5.05076;stroke-linejoin:round;paint-order:stroke fill markers" />
    <path
       transform="scale(0.26458333)"
       id="path909"
       d="m 895.70618,106.00274 c -6.54237,0.10927 -12.1596,8.77337 -7.23581,14.11156 5.15321,5.49351 15.13794,0.38701 14.57322,-6.84813 -0.009,-3.90042 -3.3168,-7.53166 -7.33741,-7.26343 z"
       style="fill:#89ffff;fill-opacity:1;stroke:none;stroke-width:5.05076;stroke-linejoin:round;paint-order:stroke fill markers" />
    <path
       transform="scale(0.26458333)"
       id="path911"
       d="m 874.3598,102.99991 c -4.97561,-0.027 -12.01196,0.0898 -13.5976,6.01159 -1.39237,5.13696 0.2353,12.72512 6.4555,13.5098 3.69485,0.30484 6.33939,-2.89803 7.85729,-5.76793 3.13359,-2.74043 9.57117,-3.79603 8.74169,-9.19988 -0.50226,-4.66259 -5.89006,-4.70696 -9.45688,-4.55358 z"
       style="fill:#89ffff;fill-opacity:1;stroke:none;stroke-width:5.05076;stroke-linejoin:round;paint-order:stroke fill markers" />
    <path
       transform="scale(0.26458333)"
       id="path913"
       d="m 847.83442,102.95058 c -6.11339,0.37721 -11.58983,5.59886 -12.96231,11.46089 -1.0551,4.91679 3.93628,8.66423 8.49948,8.01118 2.7744,-0.0495 5.52344,-1.40551 7.18945,-3.54836 7.06471,-0.22732 8.12842,-10.90365 2.85585,-14.35126 -1.59862,-1.1713 -3.61829,-1.66825 -5.58247,-1.57245 z"
       style="fill:#89ffff;fill-opacity:1;stroke:none;stroke-width:5.05076;stroke-linejoin:round;paint-order:stroke fill markers" />
    <path
       transform="scale(0.26458333)"
       id="path915"
       d="m 831.61969,114.06127 c -4.33678,2.0544 -6.44422,7.28084 -7.12236,11.78939 -0.6692,4.83262 5.42538,8.15547 9.14267,5.00341 4.43973,-2.97505 6.77407,-9.78236 4.02778,-14.57618 -1.27216,-1.97213 -3.80218,-2.88635 -6.04809,-2.21662 z"
       style="fill:#89ffff;fill-opacity:1;stroke:none;stroke-width:5.05076;stroke-linejoin:round;paint-order:stroke fill markers" />
    <path
       transform="scale(0.26458333)"
       id="path917"
       d="m 850.21281,118.33173 c -5.48824,1.34282 -9.08677,6.315 -12.79066,10.24457 -3.41278,4.36379 -6.83272,10.41446 -4.58811,16.00855 2.90521,5.30341 10.89423,3.3363 13.18328,-1.53595 0.42296,-2.26231 1.91701,-1.32912 3.66279,-1.32385 5.80176,-0.46272 12.05258,-7.33619 8.462,-13.03925 -1.05525,-1.29905 -2.5957,-1.89194 -1.64544,-3.78216 0.53205,-3.62684 -2.55391,-7.11124 -6.28386,-6.57191 z"
       style="fill:#89ffff;fill-opacity:1;stroke:none;stroke-width:5.05076;stroke-linejoin:round;paint-order:stroke fill markers" />
    <path
       transform="scale(0.26458333)"
       id="path919"
       d="m 854.68649,136.51546 c -3.13848,1.67928 -4.44269,6.11693 -8.2943,6.32826 -6.40364,2.10341 -7.47349,13.78302 -0.14304,15.26178 8.42132,1.27389 15.87847,-7.18003 15.48442,-15.31112 0.91173,-4.2052 -2.86745,-8.0093 -7.04708,-6.27892 z"
       style="fill:#89ffff;fill-opacity:1;stroke:none;stroke-width:5.05076;stroke-linejoin:round;paint-order:stroke fill markers" />
    <path
       transform="scale(0.26458333)"
       id="path921"
       d="m 826.45055,139.5479 c -5.09322,0.36743 -9.78236,4.43519 -11.39578,9.1693 -0.66303,2.23997 0.82187,4.54292 2.20675,5.8577 -2.50065,4.36609 2.37386,9.6504 6.97636,7.94509 7.32782,-2.14311 13.85801,-10.83165 10.06108,-18.38892 -1.50186,-2.82506 -4.64921,-4.66807 -7.84841,-4.58317 z"
       style="fill:#89ffff;fill-opacity:1;stroke:none;stroke-width:5.05076;stroke-linejoin:round;paint-order:stroke fill markers" />
    <path
       transform="scale(0.26458333)"
       id="path923"
       d="m 811.02698,155.98951 c -5.15691,0.1543 -10.06616,4.31015 -11.26261,9.26203 -0.39117,4.46494 4.58514,6.65847 8.36434,5.65646 5.94077,0.0876 12.07483,-6.91256 8.41465,-12.47301 -1.25033,-1.73012 -3.43511,-2.51796 -5.51638,-2.44548 z"
       style="fill:#89ffff;fill-opacity:1;stroke:none;stroke-width:5.05076;stroke-linejoin:round;paint-order:stroke fill markers" />
    <path
       transform="scale(0.26458333)"
       id="path925"
       d="m 803.51693,141.291 c -6.276,0.75582 -9.43767,7.22467 -14.40059,10.3955 -4.18961,3.39069 -10.083,6.399 -11.07912,12.19483 -0.14865,5.81576 7.02302,9.09562 11.89099,6.65576 8.83014,-3.20263 16.15599,-10.39569 20.00181,-18.89893 2.13136,-4.68481 -0.97091,-10.56955 -6.41309,-10.34716 z"
       style="fill:#89ffff;fill-opacity:1;stroke:none;stroke-width:5.05076;stroke-linejoin:round;paint-order:stroke fill markers" />
    <path
       transform="scale(0.26458333)"
       id="path927"
       d="m 779.47057,138.80705 c -8.4138,0.58983 -15.85245,11.33194 -10.56715,18.91767 2.30434,3.89541 7.97479,3.96645 10.7891,0.61063 4.26197,-3.77698 9.68055,-9.50657 7.04444,-15.63961 -1.29992,-2.69723 -4.37558,-4.04365 -7.26639,-3.88869 z"
       style="fill:#89ffff;fill-opacity:1;stroke:none;stroke-width:5.05076;stroke-linejoin:round;paint-order:stroke fill markers" />
    <path
       transform="scale(0.26458333)"
       id="path929"
       d="m 753.28749,142.64445 c -4.08502,2.54539 -2.96299,7.94334 -3.29582,12.08829 0.26235,5.82959 0.83417,13.38497 6.75342,16.27194 3.8014,1.69199 7.77123,-0.86008 10.23372,-3.51186 4.44683,1.20309 7.98579,-3.382 7.08981,-7.53767 0.1272,-5.41332 -5.05273,-9.05727 -10.08906,-9.09413 -2.54469,-0.017 -2.43565,-3.67885 -3.72743,-5.13777 -1.18814,-2.80205 -4.07106,-4.1796 -6.96464,-3.0788 z"
       style="fill:#89ffff;fill-opacity:1;stroke:none;stroke-width:5.05076;stroke-linejoin:round;paint-order:stroke fill markers" />
    <path
       transform="scale(0.26458333)"
       id="path931"
       d="m 772.49025,122.35261 c -5.96959,0.70256 -9.71318,6.63393 -11.77755,11.7598 -2.16979,4.62637 1.64901,11.18181 7.07206,9.95651 5.59026,-1.4028 11.16793,-5.84104 12.14748,-11.74302 0.0738,-4.32049 -2.3238,-10.15862 -7.44199,-9.97329 z"
       style="fill:#89ffff;fill-opacity:1;stroke:none;stroke-width:5.05076;stroke-linejoin:round;paint-order:stroke fill markers" />
    <path
       transform="scale(0.26458333)"
       id="path933"
       d="m 766.36325,110.51686 c -5.2268,-0.30104 -10.1237,3.04527 -11.66806,8.06051 -1.80703,4.05088 -1.26868,10.80261 4.16787,11.41452 5.54734,-0.0472 8.93986,-5.43658 12.29742,-9.12886 3.18542,-2.80223 2.82461,-8.78514 -1.66912,-9.9792 -1.0088,-0.31557 -2.07701,-0.38546 -3.12811,-0.36697 z"
       style="fill:#89ffff;fill-opacity:1;stroke:none;stroke-width:5.05076;stroke-linejoin:round;paint-order:stroke fill markers" />
    <path
       transform="scale(0.26458333)"
       id="path935"
       d="m 789.20512,106.95962 c -5.54349,0.26775 -9.91689,4.83567 -12.56673,9.34687 -2.44454,4.87622 -1.05788,12.5784 5.0409,13.74163 4.81525,0.23969 8.03999,-4.27074 11.01796,-7.4331 3.21546,-3.68191 5.94448,-10.13325 1.57836,-13.99022 -1.38616,-1.20365 -3.25652,-1.72723 -5.07049,-1.66518 z"
       style="fill:#89ffff;fill-opacity:1;stroke:none;stroke-width:5.05076;stroke-linejoin:round;paint-order:stroke fill markers" />
    <path
       transform="scale(0.26458333)"
       id="path937"
       d="m 795.54324,123.6597 c -5.84333,0.82678 -10.29268,6.46718 -11.4017,12.02416 -0.81089,6.36914 7.0206,12.30681 12.63282,8.34955 4.3413,-3.21743 5.67693,-9.23691 5.61306,-14.37396 -0.26609,-3.45858 -3.30706,-6.33441 -6.84418,-5.99975 z"
       style="fill:#89ffff;fill-opacity:1;stroke:none;stroke-width:5.05076;stroke-linejoin:round;paint-order:stroke fill markers" />
    <path
       transform="scale(0.26458333)"
       id="path939"
       d="m 809.18227,114.06621 c -6.3194,0.38211 -11.02696,9.90289 -5.33881,14.11254 5.99288,3.7306 13.61499,-4.22298 11.56348,-10.29192 -0.90703,-2.52253 -3.60141,-4.03439 -6.22467,-3.82062 z"
       style="fill:#89ffff;fill-opacity:1;stroke:none;stroke-width:5.05076;stroke-linejoin:round;paint-order:stroke fill markers" />
    <path
       transform="scale(0.26458333)"
       id="path941"
       d="m 802.03722,103.19621 c -4.53766,-0.50776 -8.91763,4.20351 -6.8432,8.62872 1.59583,3.79518 6.29582,7.65803 10.17256,4.38884 3.01728,-2.57917 6.07116,-7.44339 2.67015,-10.98107 -1.49372,-1.67198 -3.86093,-2.09113 -5.99951,-2.03649 z"
       style="fill:#89ffff;fill-opacity:1;stroke:none;stroke-width:5.05076;stroke-linejoin:round;paint-order:stroke fill markers" />
    <path
       transform="scale(0.26458333)"
       id="path943"
       d="m 823.95476,100.25454 c -6.65274,0.74308 -8.55974,9.09584 -6.99708,14.59 0.61599,4.80584 7.60405,5.99017 9.87957,1.79045 2.53923,-3.99762 6.23608,-9.73483 2.39112,-14.08447 -1.28855,-1.51202 -3.28102,-2.41357 -5.27361,-2.29598 z"
       style="fill:#89ffff;fill-opacity:1;stroke:none;stroke-width:5.05076;stroke-linejoin:round;paint-order:stroke fill markers" />
    <path
       transform="scale(0.26458333)"
       id="path945"
       d="m 1137.5521,226.38057 c -3.9206,0.0861 -5.5657,4.67956 -4.4588,7.7103 -3.8335,3.04104 -2.4385,9.16438 1.7894,11.10083 3.5947,2.89519 10.3443,4.00566 12.5608,-1.12656 1.5479,-5.47718 -1.4143,-11.23481 -4.6956,-15.48966 -1.3342,-1.3829 -3.2512,-2.29237 -5.1958,-2.19491 z"
       style="fill:#89ffff;fill-opacity:1;stroke:none;stroke-width:5.05076;stroke-linejoin:round;paint-order:stroke fill markers" />
    <path
       transform="scale(0.26458333)"
       id="path947"
       d="m 1137.6439,221.6001 c -5.5755,0.17868 -10.0817,5.5468 -9.5373,11.04854 -4.5804,5.82184 -0.6976,14.36192 5.3763,17.40442 5.9844,3.99703 16.2954,2.77199 18.4856,-4.97184 1.9377,-7.65885 -1.8085,-16.01436 -7.5317,-21.10667 -1.9186,-1.51011 -4.3263,-2.47535 -6.7929,-2.37445 z"
       style="fill:#89ffff;fill-opacity:1;stroke:none;stroke-width:5.05076;stroke-linejoin:round;paint-order:stroke fill markers" />
    <path
       transform="scale(0.26458333)"
       id="path949"
       d="m 1133.5214,208.05676 c -8.1118,0.682 -10.8089,12.78522 -5.2708,17.99531 2.3648,2.90736 6.2366,1.9791 9.0717,0.47647 4.5624,-0.37421 6.5658,-5.49348 5.104,-9.42184 -1.0068,-4.24089 -4.0162,-9.07039 -8.9049,-9.04994 z"
       style="fill:#89ffff;fill-opacity:1;stroke:none;stroke-width:5.05076;stroke-linejoin:round;paint-order:stroke fill markers" />
    <path
       transform="scale(0.26458333)"
       id="path951"
       d="m 1120.6459,179.10563 c -5.1364,0.47816 -6.448,6.4398 -8.7037,10.16268 -3.1338,7.12709 -6.8703,14.49223 -6.928,22.42756 0.078,5.03395 6.8879,7.81984 10.2228,3.84825 7.0911,-7.6082 10.2559,-18.14382 11.2567,-28.30302 0.4125,-3.70437 -1.5362,-8.239 -5.8478,-8.13547 z"
       style="fill:#89ffff;fill-opacity:1;stroke:none;stroke-width:5.05076;stroke-linejoin:round;paint-order:stroke fill markers" />
    <path
       transform="scale(0.26458333)"
       id="path953"
       d="m 1093.5109,222.13773 c -5.862,-0.21481 -9.5443,5.93629 -8.7116,11.27543 0.7012,5.61851 2.202,11.37504 5.0488,16.27885 2.8777,3.7932 8.9413,1.83982 10.1982,-2.43265 0.6816,-1.43112 1.1594,-3.66444 3.2672,-2.96042 6.6537,-0.7694 12.0383,-5.5412 16.9288,-9.65958 3.3677,-3.32305 -0.3598,-9.01692 -4.7623,-8.30549 -6.0816,-0.28167 -12.2101,-1.0125 -17.7934,-3.57367 -1.353,-0.40034 -2.7609,-0.65156 -4.1757,-0.62247 z"
       style="fill:#89ffff;fill-opacity:1;stroke:none;stroke-width:5.05076;stroke-linejoin:round;paint-order:stroke fill markers" />
    <path
       transform="scale(0.26458333)"
       id="path955"
       d="m 1122.9197,249.76402 c -6.5274,0.0303 -15.0903,0.64077 -17.9667,7.65506 -2.4461,5.93087 3.2154,11.17246 8.5192,12.61409 2.5938,0.14235 1.8173,3.46 3.938,4.56936 2.1847,2.15726 5.4874,1.16864 7.9175,2.57076 2.2043,2.33684 3.8928,5.56533 7.3266,6.37264 3.9267,1.16773 10.3403,0.7742 10.6914,-4.39313 -0.9175,-6.34683 4.0606,-12.36241 1.5241,-18.67662 -2.6365,-8.04494 -12.0393,-11.11768 -19.7857,-10.71412 -0.7215,-0.01 -1.4429,-5.7e-4 -2.1644,0.002 z"
       style="fill:#89ffff;fill-opacity:1;stroke:none;stroke-width:5.05076;stroke-linejoin:round;paint-order:stroke fill markers" />
    <path
       transform="scale(0.26458333)"
       id="path957"
       d="m 1099.63,268.16182 c -5.5364,5.58972 -12.0018,10.73371 -15.7343,17.79605 -2.3046,4.42168 2.7033,9.62979 7.1993,7.60573 2.2238,-1.64205 5.8846,-0.092 6.6409,2.27679 -0.9747,3.64733 0.3197,8.9201 4.8723,8.95388 4.5809,0.0918 6.8977,-4.74197 9.0627,-8.0473 -2.2615,7.0021 -7.3717,13.92557 -5.5943,21.60187 1.5198,4.29143 5.8801,9.94216 11.015,7.63632 1.7779,-1.17385 2.922,-2.79931 5.0794,-3.30963 5.868,-4.44426 8.1884,-11.91551 11.5062,-18.20976 2.6843,-5.83419 6.2789,-13.54287 1.4719,-19.29511 -4.9545,-5.22319 -12.0724,-7.61858 -18.2219,-11.11817 -4.9869,-2.12226 -9.5032,-5.59934 -14.8448,-6.70057 -0.8175,0.26997 -1.635,0.53993 -2.4524,0.8099 z"
       style="fill:#89ffff;fill-opacity:1;stroke:none;stroke-width:5.05076;stroke-linejoin:round;paint-order:stroke fill markers" />
    <path
       transform="scale(0.26458333)"
       id="path959"
       d="m 1099.4485,299.17666 c -3.888,0.35223 -6.5271,4.01041 -10.58,3.99425 -3.6347,0.0141 -7.3431,2.93521 -6.3805,6.87574 1.7496,4.52416 7.3057,4.46474 11.3188,5.56472 5.09,1.41104 11.2082,-1.57075 11.7115,-7.18846 1.112,-4.20305 -1.0158,-9.57897 -6.0698,-9.24625 z"
       style="fill:#89ffff;fill-opacity:1;stroke:none;stroke-width:5.05076;stroke-linejoin:round;paint-order:stroke fill markers" />
    <path
       transform="scale(0.26458333)"
       id="path961"
       d="m 1079.9873,293.12068 c -5.2273,1.07233 -5.0485,7.31139 -5.4444,11.50627 -0.5284,5.20565 5.7243,10.11772 10.3097,6.63208 3.9671,-2.64546 5.3814,-8.10136 2.9101,-12.25007 -1.4025,-3.02419 -3.9934,-6.47254 -7.7754,-5.88828 z"
       style="fill:#89ffff;fill-opacity:1;stroke:none;stroke-width:5.05076;stroke-linejoin:round;paint-order:stroke fill markers" />
    <path
       transform="scale(0.26458333)"
       id="path963"
       d="m 796.67005,1178.9988 c -17.67528,0.4049 -35.38947,0.029 -53.03639,1.1514 -10.79786,1.0215 -22.00644,1.3641 -32.20016,5.4048 -4.82809,1.801 -6.0088,8.9315 -1.58231,11.8485 6.3225,3.9304 14.23234,3.3296 21.37748,4.0651 33.8232,1.3668 67.68801,1.2545 101.53263,1.5735 7.88884,-0.095 16.28916,0.6867 23.41305,-3.4476 4.1253,-1.4762 7.57433,-6.0609 5.45719,-10.4537 -3.31335,-5.1705 -9.8397,-6.8101 -15.15413,-9.1933 -5.8882,-2.7568 -12.58925,-0.8614 -18.85768,-1.3048 -10.31656,0.1187 -20.63312,0.2374 -30.94968,0.3561 z"
       style="fill:#89ffff;fill-opacity:1;stroke:none;stroke-width:5.05076;stroke-linejoin:round;paint-order:stroke fill markers" />
    <path
       transform="scale(0.26458333)"
       id="path965"
       d="m 916.88314,1276.7212 c -27.86092,14.7398 -58.80656,23.0329 -89.80037,26.4488 -20.99679,2.4566 -41.83911,1.9295 -62.86276,1.2594 -33.87639,-1.5498 -67.38022,-7.2342 -101.35735,-8.9214 -19.38019,-0.7162 -40.07895,-1.1143 -57.56621,8.5673 -10.03477,5.6126 -18.3352,14.8932 -21.80903,25.9256 -1.23058,6.9763 5.67221,11.7458 11.16582,14.3463 16.52455,7.4127 34.62137,10.2542 52.30289,13.5393 25.06689,4.0176 50.22968,7.7126 75.54763,9.7097 42.26193,2.6686 84.89274,-0.7039 126.18049,-10.1386 27.07262,-6.0295 53.53101,-14.6155 79.39264,-24.5801 17.06039,-7.7034 33.95195,-16.1776 49.1399,-27.1989 3.47172,-2.9245 9.03017,-6.5307 7.33571,-11.842 -2.21147,-4.4956 -8.09803,-4.1135 -12.17125,-5.6655 -15.22478,-4.3216 -30.40404,-9.1651 -46.22532,-10.7854 -3.09144,-0.2849 -6.1727,-1.3524 -9.27279,-0.6645 z"
       style="fill:#323232;fill-opacity:1;stroke:none;stroke-width:5.05076;stroke-linejoin:round;paint-order:stroke fill markers" />
    <path
       transform="scale(0.26458333)"
       id="path967"
       d="m 885.0653,1184.5448 c -6.49904,0.6209 -10.25261,6.8485 -15.73826,9.705 -17.16805,10.317 -37.2898,13.2924 -56.88245,15.6448 -18.18544,1.5919 -36.36883,1.2397 -54.45551,0.9032 -19.11248,-1.034 -38.22977,-3.1138 -56.99694,-6.9333 -5.29701,-0.9513 -10.35414,-2.8098 -14.77694,-5.9026 -2.90606,-2.1825 -6.61696,-2.386 -9.73555,-0.511 -15.07833,6.253 -26.41896,19.0605 -34.9933,32.5823 -8.26835,13.6382 -14.59993,29.7715 -11.4382,45.958 0.7998,7.2706 5.45216,13.5704 11.745,17.1282 9.44405,6.2054 21.30686,5.2883 32.08771,6.1196 41.88224,0.8869 83.6022,6.1056 125.42407,6.7905 18.22405,-0.6749 35.87536,-5.8779 52.73016,-12.547 21.33221,-7.9931 42.05016,-18.4691 64.36171,-23.1349 5.96382,-1.6246 12.4433,-5.3216 13.97937,-11.7055 -0.37055,-9.8749 0.78436,-19.8935 -0.90559,-29.6733 -2.74727,-13.6223 -11.94948,-25.0586 -23.33221,-32.652 -6.34447,-4.1624 -12.42222,-9.1889 -19.65254,-11.6921 -0.46835,-0.086 -0.94602,-0.098 -1.42053,-0.08 z"
       style="fill:#323232;fill-opacity:1;stroke:none;stroke-width:5.05076;stroke-linejoin:round;paint-order:stroke fill markers" />
    <path
       style="fill:#000000;stroke-width:0.679093"
       d="m 187.94895,365.26464 c -3.63105,-0.28842 -7.42975,-0.73218 -8.44157,-0.98612 -1.01182,-0.25396 -4.22359,-0.73363 -7.13727,-1.06593 -2.91368,-0.33232 -6.60197,-1.04662 -8.1962,-1.58736 -1.59423,-0.54072 -3.81537,-1.1316 -4.93588,-1.31306 -1.1205,-0.18145 -3.87082,-0.99723 -6.11183,-1.81284 -2.241,-0.81562 -4.38015,-1.54612 -4.75365,-1.62334 -1.61319,-0.33354 -2.37682,-1.32604 -2.37682,-3.0892 0,-1.36437 0.47985,-2.10683 1.72968,-2.67629 0.95133,-0.43346 2.01039,-0.7881 2.35346,-0.7881 1.08002,0 12.48511,-7.65145 14.03652,-9.41682 1.22355,-1.39231 1.41674,-2.23633 1.1082,-4.84154 -0.28638,-7.2723 3.27262,-13.7838 7.01668,-17.46218 3.06059,-2.99155 4.31462,-4.71859 4.31462,-5.94206 0.31655,-2.70207 4.66254,-0.64794 6.45138,-1.13798 1.49401,-0.42008 3.48035,-0.85798 4.4141,-0.97312 15.44936,-2.72657 5.90579,-1.79745 15.44936,-2.72657 2.89463,-0.28182 5.92499,-0.46622 6.73414,-0.4098 1.351,0.0942 1.50214,-0.29857 1.85039,-4.80852 0.30884,-3.99966 1.01162,-23.27421 1.07665,-29.52822 0.009,-0.84038 0.27626,-1.52796 0.59451,-1.52796 0.31824,0 0.54743,8.1018 0.50932,18.00401 -0.0622,16.1565 0.0454,18.04044 1.04878,18.35894 0.61495,0.19522 1.37892,0.28617 1.69773,0.20212 0.31881,-0.084 1.57081,0.082 2.78223,0.36908 3.33745,0.79079 4.26775,-0.56059 4.24339,-6.16406 -0.086,-19.78142 0.10971,-29.10876 0.62149,-29.62054 0.34534,-0.34534 0.57098,1.51134 0.53338,4.38892 0.51004,28.17456 -0.19212,4.97515 1.40451,28.51613 l -0.33412,3.15588 c 9.83262,-1.22833 4.30044,0.0418 9.99479,3.23785 4.84189,2.54434 10.11483,7.46993 10.29792,9.61955 0.0564,0.66198 0.2113,2.12036 0.34425,3.24087 0.13295,1.1205 0.4185,3.92626 0.63455,6.23503 0.31573,3.374 0.6169,4.18088 1.5347,4.11174 1.37715,-0.10374 7.34409,1.39454 9.3522,2.3483 0.79325,0.37676 3.11706,0.51443 5.16403,0.30593 3.44427,-0.35083 3.86038,-0.2344 5.58115,1.56169 4.9048,8.47077 -17.00715,14.97556 -21.78343,17.37122 -4.20235,2.14366 -7.76812,3.39319 -11.79544,4.13337 -3.17476,0.5835 -6.68906,1.36699 -7.80956,1.74109 -4.58535,1.53092 -7.80245,2.05164 -14.26095,2.30826 -3.73501,0.1484 -9.38845,0.39271 -12.56321,0.5429 -3.17476,0.15019 -8.74314,0.0371 -12.37418,-0.25132 z m -3.92404,-5.41188 c 20.14095,2.74381 39.86173,-0.46277 57.21354,-6.95181 5.23289,-1.28187 20.98037,-9.96355 17.65608,-10.39123 -0.65345,-0.0636 -3.32722,-0.79432 -5.94173,-1.62379 -2.61451,-0.82948 -6.56464,-1.60038 -8.77807,-1.71311 -7.80034,-1.81438 -1.77834,-3.8218 -1.74786,-4.31111 0,0 3.05886,-0.84329 2.40434,-3.00443 1.09363,-10.24177 -3.17975,-12.74832 -9.75348,-16.93601 -0.66847,-0.54775 -1.27551,-0.39054 -2.37682,0.61556 -4.52837,4.13686 -13.91192,6.29285 -27.21254,6.25243 -8.92966,-0.0272 -22.07096,-1.75344 -23.55421,-3.09417 -0.58966,-0.533 -1.38309,-0.9691 -1.76317,-0.9691 -6.23636,1.92559 -12.39061,11.11122 -12.4443,17.36793 0.13584,5.12487 1.63554,5.18588 3.73501,6.58706 0.87547,0.5315 4.90879,0.86612 11.34828,0.94153 10.01793,0.4816 19.70421,1.5557 26.54872,1.59711 11.49625,0.87695 22.7189,-7.51617 33.06817,-9.35791 2.28687,-0.27085 0.95126,3.44101 0.95126,3.96896 -37.87976,19.8988 -79.07668,-7.26024 -87.8056,13.15234 -0.93675,4.43101 22.54222,7.09241 28.45238,7.86975 z m 38.71052,-46.76682 -18.731,0.15833 c -9.85092,0.0833 -15.11591,1.03799 -15.62429,1.86057 -0.8347,1.35058 3.35578,1.65879 13.26683,1.75863 l 22.01985,0.22182 c 4.60322,-1.27012 4.29276,-2.16227 -0.93139,-3.99935 z m -33.80186,-9.11161 c -0.0334,-3.08138 -0.22856,-7.89445 -0.43379,-10.69571 -0.20523,-2.80126 -0.51621,-10.28825 -0.69107,-16.63777 -0.80136,-29.09878 -1.12814,-38.99981 -1.41201,-42.78283 -0.2038,-2.71593 -0.11731,-3.50279 0.25938,-2.35979 0.62217,1.88783 1.65374,21.32591 1.53075,28.8444 -0.0428,2.61451 0.25498,7.45348 0.66165,10.75327 0.64507,5.23421 1.05859,14.42849 1.3642,30.33183 0.1243,6.46849 -0.009,8.14911 -0.6472,8.14911 -0.3142,0 -0.59856,-2.52113 -0.63191,-5.60251 z m -12.91686,-9.1563 c -0.75655,-15.71097 -0.21891,-25.56355 -0.50052,-26.0192 -0.37123,-9.56445 -1.61598,-14.44786 -1.02319,-21.87007 -0.47727,-3.51698 -1.6103,-10.19502 -0.76186,-11.04348 1.6113,-0.85631 3.19456,1.01537 3.78619,0.80464 1.62508,10.23861 0.23453,14.53478 0.92621,26.02953 0.16878,2.80126 0.42454,10.44105 0.56835,16.97732 0.14381,6.53626 0.29246,12.4953 0.33033,13.2423 0.95581,3.14473 -0.44488,8.83729 -0.009,12.94082 -1.02535,16.51415 -2.77794,6.77991 -3.31612,-11.06186 z m 20.58336,7.79811 c -0.15674,-0.46687 -0.4478,-2.83521 -0.6468,-5.26296 -0.19901,-2.42776 -0.48824,-5.63647 -0.64275,-7.13048 -0.15452,-1.494 -0.44361,-8.06422 -0.64242,-14.60049 -0.38934,-12.79967 0.47426,-13.24659 1.19513,-0.61849 0.23923,4.19066 0.5523,7.80925 0.69573,8.04133 0.44297,0.71674 1.13703,20.41996 0.71931,20.41996 -0.21628,0 -0.52147,-0.38199 -0.6782,-0.84887 z m 3.05687,-6.62115 c -0.3843,-1.03477 -0.66768,-4.70352 -0.99663,-12.90276 -0.28497,-7.10319 -0.2035,-8.64084 0.36175,-6.828 0.40126,1.28686 0.57632,3.12041 0.38903,4.07455 -0.18729,0.95415 0.0678,3.89005 0.56693,6.52422 0.56438,2.97867 0.69906,5.6745 0.35624,7.13047 -0.30317,1.28759 -0.60796,2.18827 -0.67732,2.00152 z m -1.60166,-24.229 c -0.49403,-2.63073 -0.17493,-14.97924 0.402,-15.55615 0.25718,-0.25719 0.43081,0.41468 0.38583,1.49304 -0.045,1.07836 0.001,4.95409 0.10228,8.61273 0.18393,6.64677 -0.21115,9.06591 -0.89011,5.45038 z m 37.57164,40.22997 c -0.53661,-0.53662 -4.59352,-2.091 -4.59352,-2.091 0,0 10.91228,-82.01833 11.05976,-87.65312 0.27115,-10.35896 2.10987,-26.2973 3.4193,-26.29843 0.85746,-6.8e-4 -0.34086,5.22153 -1.15179,3.94998 -0.2382,-0.3735 0.53636,-3.50776 1.02837,-3.9622 0.73285,-0.67695 0.36777,2.57758 0.55017,6.87095 -4.02707,31.06942 -6.92501,70.96241 -10.31229,109.18382 z m -11.10459,-43.62282 c -0.20468,-0.68177 -0.37611,-4.14271 -0.38096,-7.69096 -0.005,-3.54826 -0.0945,-7.21536 -0.19918,-8.14911 -0.1047,-0.93376 0.11522,-1.69774 0.48873,-1.69774 0.3735,0 0.64229,0.61119 0.59733,1.35819 0.4489,3.81037 0.70458,6.40162 0.51046,10.49406 -0.14232,6.59162 -0.36701,7.84857 -1.01638,5.68556 z m -10.82613,-14.6856 c 0.0719,-7.91823 0.14832,-18.4968 0.16977,-23.50794 0.0215,-5.01113 0.20197,-8.9482 0.40114,-8.74903 0.57128,0.57129 0.39038,45.56165 -0.18552,46.13758 -0.28389,0.2839 -0.45731,-5.96237 -0.38539,-13.88061 z m -10.43102,0.8828 c -0.43612,-1.68075 -0.7797,-3.6671 -0.76351,-4.4141 0.0162,-0.747 -0.62111,-7.5964 -1.41621,-15.22088 -1.32454,-12.70142 -1.39711,-15.1808 -0.4156,-14.19928 0.32307,0.32307 1.41911,10.32754 2.06996,18.89423 0.15607,2.05425 0.60683,6.02389 1.00169,8.82142 0.39485,2.79753 0.62763,6.00624 0.51727,7.13047 -0.18598,1.89467 -0.25859,1.82073 -0.9936,-1.01186 z m -29.53404,-18.68506 c -0.33584,-0.5434 -0.46738,-20.38694 -0.95212,-37.00053 -0.14712,-5.04226 -0.32265,-9.62614 -0.39007,-10.18639 0.47082,-0.73524 0.33059,-2.76571 1.11003,-2.37236 0.4001,0.19531 1.72277,2.70369 1.59335,6.10557 0.50523,17.54125 3.20933,26.26985 2.425,44.25835 -1.49858,5.7056 1.34009,4.97766 -3.78619,-0.80464 z m 70.62953,-35.98189 c -5.42129,-4.42643 -9.68377,-13.14575 -15.43524,-16.66692 -4.87167,-2.79541 -10.03341,-11.24931 -10.74433,-17.11794 -0.3265,-2.69527 -1.53062,-5.68254 -0.60044,-5.68254 0.64922,0 2.43615,3.00626 2.43615,3.77496 0.46114,1.71575 1.34497,3.08386 1.35819,4.71738 3.85108,8.00125 11.22249,15.4501 16.63777,20.44908 1.91917,1.51122 5.36021,6.85735 7.37627,6.56378 z m 0,0 c -0.82693,-2.0997 1.47995,-28.89751 2.59194,-33.25991 1.50812,-5.91647 3.01659,-14.94995 4.29889,-25.74391 0.39429,-3.31903 0.84448,-6.24105 1.00042,-6.49336 0.67196,-1.08726 3.12836,-14.66963 2.94254,-16.27045 -0.12472,-1.07445 -0.73238,-1.90471 -1.559,-2.13008 -0.74504,-0.20313 -1.45199,-0.87493 -1.571,-1.4929 -0.18541,-0.96275 0.10505,-1.03139 2.02923,-0.47954 2.74747,0.78796 2.76338,0.78821 2.29829,0.0356 -0.20679,-0.33459 0.22822,-1.32777 0.96668,-2.20705 l 1.34268,-1.59869 0.43062,1.52796 c 0.50072,1.77667 3.47213,2.14865 4.0997,0.51321 0.56617,-1.47539 1.73682,-0.46959 1.24757,1.0719 -0.22763,0.71721 -0.0935,1.30103 0.29899,1.30103 0.39155,0 0.90366,-0.76398 1.13802,-1.69773 0.5981,-2.38303 2.42434,-2.24029 2.17207,0.16977 -0.18813,1.79731 -0.0648,1.87511 3.27921,2.06963 4.19723,0.24415 6.32278,-1.25984 10.52418,-7.44668 1.49634,-2.20345 3.57997,-4.98915 4.63029,-6.19043 2.35209,-2.690142 8.27534,-14.068243 7.3237,-14.068243 -0.38008,0 -2.24948,-0.739518 -4.15421,-1.64337 -5.26879,-2.500208 -6.10363,-2.616999 -7.5823,-1.060743 -0.72247,0.76038 -2.15396,2.18877 -3.18109,3.174201 -1.02713,0.985432 -1.86751,2.067165 -1.86751,2.403846 0,0.33668 -0.80353,1.665644 -1.78564,2.953237 -1.47469,1.933438 -1.91813,2.173389 -2.54659,1.377974 -0.49396,-0.625193 -1.51845,-0.842265 -2.91986,-0.61866 -2.04488,0.32627 -2.15247,0.491718 -2.03727,3.132695 0.10729,2.45968 -0.1113,2.902073 -1.85499,3.754333 -1.08712,0.53137 -3.07347,1.1072 -4.4141,1.27964 -1.34062,0.17245 -2.68006,0.54288 -2.97652,0.82319 -0.29646,0.28031 -2.13001,0.24986 -4.07455,-0.0676 -1.94455,-0.31752 -5.77262,-0.71267 -8.50683,-0.87809 -9.37081,-0.56697 -10.78475,-0.95736 -11.72968,-3.238604 -0.6292,-1.519035 -0.67218,-2.919249 -0.1655,-5.392667 0.3764,-1.837482 0.42905,-3.498678 0.117,-3.691541 -3.80548,1.227017 -6.83847,2.97188 -9.74683,5.853201 -2.96932,3.014648 -3.25986,3.561433 -2.52107,4.744431 0.45927,0.73541 0.83503,1.97252 0.83503,2.74915 0,0.77662 0.2787,1.93279 0.61934,2.56927 0.63626,1.18887 2.97127,11.45845 2.88191,12.67488 -0.0274,0.3735 -0.37178,2.05426 -0.76521,3.73501 -0.39343,1.68075 -0.86968,7.3342 -1.05834,12.56321 -0.49088,13.60574 -1.78048,19.6006 -5.25902,24.44734 -1.07227,1.494 -2.49052,3.63314 -3.15169,4.75364 -1.38446,2.34629 -12.58694,10.55263 -19.47545,14.26667 -2.57964,1.39085 -5.5014,3.10451 -6.49281,3.80814 -0.99141,0.70362 -2.0148,1.27931 -2.27419,1.27931 -1.1111,0 -10.84679,8.08197 -12.26678,9.45592 -1.50283,1.45409 -0.0136,-0.97835 -0.93806,-0.78979 l -2.16393,-3.2334 c 1.87116,-3.00239 9.25896,-4.54644 11.59454,-6.05109 0.95653,-0.66394 3.82263,-2.32038 6.36911,-3.68101 2.54648,-1.36061 6.36638,-3.81009 8.48866,-5.44328 2.12228,-1.63318 5.23386,-3.61927 6.91461,-4.41352 2.73147,-1.29076 5.56588,-3.59692 7.95274,-6.47055 0.45224,-0.54448 1.38786,-1.39766 2.07916,-1.89597 1.89902,-1.36887 4.07589,-6.54232 4.59976,-10.9316 0.25691,-2.15256 0.73699,-4.08054 1.06683,-4.2844 0.32985,-0.20385 0.59973,-3.66553 0.59973,-7.69261 0,-4.02708 0.34104,-9.85608 0.75787,-12.95334 0.54173,-4.02539 0.55112,-6.33179 0.0329,-8.08732 -0.39871,-1.35077 -1.21368,-4.60061 -1.81105,-7.22186 -1.58417,-6.95132 -5.49953,-11.763291 -11.86313,-14.579766 l -4.39474,-1.945064 -0.84686,2.01408 c -1.04575,2.487115 -1.85561,3.266999 -5.3037,5.10738 -3.81144,2.0343 -10.67458,3.59745 -16.47734,3.75285 -4.13103,0.11064 -5.25791,-0.10828 -6.9332,-1.34688 -2.7348,-2.02192 -3.79139,-1.86943 -6.22108,0.89784 -7.22743,7.63439 -17.60854,10.05588 -24.0541,16.6791 -1.44207,1.59347 -1.54651,5.70795 -0.2305,9.08062 1.95359,5.00665 4.62873,10.33682 5.81705,11.59038 0.70813,0.747 3.23857,3.95571 5.6232,7.13047 2.38464,3.17475 10.70173,8.87132 5.09018,6.05524 0.73574,-1.2186 4.72965,3.04752 7.82161,5.80748 1.38093,1.24972 1.38194,1.2457 1.54215,-6.15496 0.0882,-4.07302 0.16457,-9.54464 0.16977,-12.15914 0.005,-2.61451 0.2298,-5.09213 0.4991,-5.50583 0.2693,-0.4137 0.19291,-1.78685 -0.16977,-3.05144 -0.36268,-1.26458 -0.6613,-3.21804 -0.6636,-4.34101 -0.002,-1.12297 -0.46069,-2.91707 -1.01864,-3.98689 -1.31085,-2.51343 -1.28299,-2.6976 0.34373,-2.2722 0.747,0.19534 1.35818,0.0272 1.35818,-0.37353 0,-0.40078 0.16136,-0.56734 0.35857,-0.37013 0.3848,0.3848 0.87453,3.58016 1.38482,9.03555 0.64273,6.87139 0.81126,32.63239 0.22074,33.74364 -0.24443,3.26377 1.07467,5.51034 0.94255,6.62985 -0.53559,2.52004 0.30188,18.61229 0.52408,20.92231 -1.52823,0.0471 -1.69039,1.46696 -2.16393,-3.2334 -0.16673,-1.68075 -0.90723,-13.92484 -1.25937,-17.24904 -0.35214,-3.32421 -0.50864,-6.25696 -0.34778,-6.51724 0.16086,-0.26027 -0.63926,-1.36036 -1.77804,-2.44465 -1.13877,-1.08428 -3.60106,-2.14769 -4.91739,-3.93384 -2.80832,-3.59329 -3.9654,-3.66663 -6.74038,-6.51461 -1.76041,-1.82036 -3.20074,-3.50942 -3.20074,-3.75345 0,-0.48262 -4.55252,-6.36097 -5.77992,-7.4632 -0.41591,-0.37351 -1.40897,-1.90146 -2.20679,-3.39547 -3.27426,-6.13141 -4.23695,-9.12526 -4.23695,-13.17645 0,-3.79545 0.17947,-4.26962 2.54659,-6.72813 2.95718,-3.07135 10.25649,-8.52885 13.88656,-10.38261 1.38146,-0.70547 3.24739,-1.97203 4.14649,-2.8146 0.89911,-0.84256 2.24441,-1.99032 2.98956,-2.55057 4.42904,-3.330051 5.63177,-4.748492 5.63177,-6.64183 0,-4.082582 4.97163,-6.361983 13.43888,-6.161481 6.66202,0.157753 7.90542,-0.13533 12.45781,-2.936444 2.91669,-1.794652 3.30016,-2.333451 4.05206,-5.693271 -0.96649,-4.134924 -0.22384,-10.916895 -2.88997,-13.605089 -0.46795,-0.289203 -0.60037,-0.18739 -0.32847,0.252545 0.25055,0.405402 0.16697,0.915443 -0.18573,1.133425 -0.82463,0.509647 -1.20275,-0.915187 -1.76385,-6.646521 -0.25018,-2.555469 -0.86646,-5.631387 -1.36952,-6.835374 -0.98791,-2.364392 -0.55898,-5.745025 1.05728,-8.333065 0.74054,-1.185805 0.76744,-2.276905 0.13938,-5.654129 -0.6954,-3.739356 -0.62733,-4.594377 0.63957,-8.032998 1.80824,-4.907911 2.24075,-5.417884 5.04041,-5.943104 13.82143,-1.718983 32.55066,-5.249372 46.02595,-1.742496 1.60277,3.752666 -0.86987,17.176713 3.64935,17.67836 5.61648,3.718611 3.34177,1.542722 5.61648,3.718611 1.12819,1.064828 2.3613,2.515396 2.74027,3.223485 -0.29452,2.476709 -4.26408,3.647441 -6.48925,3.638188 -2.241,-0.01434 -4.60934,-0.276227 -5.26297,-0.581975 -0.87577,-0.40966 -1.18841,-0.261695 -1.18841,0.562443 0,0.615091 -0.64642,2.38544 -1.43649,3.934109 -0.79008,1.548669 -1.42046,3.977354 -1.40087,5.397077 0.025,1.812258 -0.35661,2.856048 -1.2809,3.503445 -0.72409,0.507171 -1.42317,1.838118 -1.55353,2.95766 -0.67885,3.11572 -3.48169,7.757445 -6.05611,9.04019 -3.28662,1.527869 -3.23096,5.516269 0.12155,8.709831 1.50324,1.431975 2.07157,1.590394 7.80437,2.175493 7.4962,-0.803097 12.81121,-1.423171 17.51644,-1.378028 1.42729,0 2.85758,0.639115 4.17932,1.867505 3.90785,0.809793 8.33274,5.33762 11.4208,-1.030401 1.2355,-1.2355 3.24779,-6.926683 2.83213,-8.009876 -0.21204,-0.552571 0.29941,-1.270063 1.232,-1.728303 0.87701,-0.43093 3.22398,-2.60155 5.21551,-4.8236 3.00783,-3.355999 3.45857,-4.174654 2.66194,-4.834791 -0.52745,-0.437058 -1.37155,-2.169835 -1.87577,-3.850589 -0.50422,-1.680754 -1.19785,-3.429622 -1.5414,-3.886373 -0.42799,-0.568999 0.11022,-1.531109 1.70948,-3.055917 1.5352,-1.463729 2.60799,-3.330501 3.13426,-5.453933 0.85981,-3.469196 3.85379,-10.433089 4.68617,-10.899857 0.27891,-0.156409 1.32671,-0.480032 2.32844,-0.719162 1.44481,-0.344902 1.91051,-0.153734 2.25281,0.924749 0.23732,0.747742 0.84397,1.35953 1.3481,1.35953 0.82024,0 2.38734,5.118278 2.38734,7.797228 0,0.516698 0.68758,1.154028 1.52796,1.416289 0.84037,0.26226 1.68075,0.664843 1.8675,0.894628 0.18675,0.229785 1.79111,1.175387 3.56524,2.101338 6.80661,2.014896 2.78511,8.510365 0.84886,10.758186 -1.28459,2.430139 -3.724,3.311656 -4.9425,4.399207 -1.41969,1.2848 -1.86394,4.590424 -0.71255,5.30202 0.5881,0.363474 0.27167,2.064438 -1.18544,6.372103 -1.7737,5.243573 -2.19257,5.91749 -3.89035,6.259149 -1.38291,0.278292 -2.36637,1.238929 -3.60023,3.51666 -3.13953,5.795621 -6.70341,11.344883 -9.23535,14.380223 -4.51751,6.20491 -6.57829,10.12368 -13.15308,10.14497 -19.64202,-0.70884 -15.16962,8.40797 -17.3012,15.95867 -2.39556,12.24969 -5.55241,23.48262 -6.48555,33.27554 -0.17534,1.86751 -0.6099,4.46308 -0.96569,5.76794 -0.3558,1.30486 -0.9702,7.11111 -1.36535,12.90276 -0.87448,12.81705 -1.22048,18.19271 -1.22048,18.19271 z M 192.98842,99.675864 c 4.19114,-1.211413 5.92483,-2.253963 5.10746,-3.071346 -0.1793,-0.179287 -1.61664,0.346752 -3.19411,1.168977 -3.53715,1.843662 -13.1422,3.163425 -16.34271,2.245525 -1.6319,-0.468021 -2.40408,-1.190174 -2.85363,-2.66877 -0.33898,-1.114913 -0.74275,-2.428475 -0.89727,-2.919025 -0.15453,-0.490549 -0.55389,-0.723227 -0.88748,-0.517054 -0.34214,0.211456 -0.23472,1.488279 0.24643,2.929184 1.67009,5.001425 8.01426,5.956195 18.82131,2.832509 z m 70.83165,-0.742105 c 1.42476,-0.649159 1.72436,-1.202395 1.55992,-2.880582 -0.12946,-1.32125 -0.62909,-2.157701 -1.37299,-2.298586 -0.94639,-0.179233 -1.15166,0.252208 -1.07612,2.261779 0.056,1.489365 -0.29133,2.72676 -0.8678,3.091664 -1.38147,0.874447 -0.31184,0.768353 1.75699,-0.174275 z M 187.895,98.07656 c 2.37215,-0.3057 7.07977,-2.311149 7.76409,-3.307507 0.72264,-1.052145 -0.50247,-4.221416 -1.52478,-3.944536 -0.51791,0.140267 -4.17447,0.319106 -8.12569,0.397425 -6.94477,0.137652 -9.14912,0.569032 -8.47569,1.658664 0.1766,0.285755 0.50361,1.555522 0.72668,2.821711 0.22307,1.266188 0.71965,2.496263 1.10352,2.73351 0.6563,0.405616 3.53821,0.284262 8.53187,-0.359267 z m 72.07971,-1.333045 c 0.13137,-0.682169 0.038,-2.579587 -0.20745,-4.216492 -0.3834,-2.556716 -0.67406,-2.976178 -2.06235,-2.976178 -5.35537,2.237601 -9.6551,1.580871 -14.43942,1.766845 -1.395,0.256494 -2.76087,0.804263 -3.03528,1.21726 -0.65555,0.986668 -0.66346,4.462433 -0.0104,4.569139 1.25031,0.204278 15.0081,0.932632 17.14315,0.90758 1.74443,-0.02044 2.43615,-0.35634 2.61175,-1.268144 z M 222.57364,94.55556 c 1.7685,-1.729418 4.37507,-3.918194 5.79239,-4.86396 1.78163,-1.188873 2.44809,-2.052278 2.15948,-2.797664 -0.22958,-0.592957 -0.57526,-1.994875 -0.76818,-3.115378 -0.66563,-3.866225 -0.60779,-3.836319 -4.45573,-2.303441 -2.94419,1.172847 -4.49742,1.362443 -8.66673,1.057877 -3.48171,-0.203386 -7.27721,-1.659514 -9.9857,-3.246001 -1.2776,-0.789606 -2.48534,-1.273231 -2.68385,-1.074723 -0.1985,0.198509 -0.53271,1.684927 -0.74266,3.303151 -0.20996,1.61823 -0.79545,3.545013 -1.30109,4.281746 -1.29226,1.882853 -1.17117,2.229753 0.94816,2.716418 1.02713,0.235863 4.00664,1.632308 6.62115,3.103216 2.61451,1.470914 5.37739,2.951132 6.13974,3.289382 0.76235,0.338256 1.79294,1.10523 2.2902,1.704386 0.49726,0.599164 1.02409,1.089387 1.17073,1.089387 0.14664,0 1.71358,-1.414978 3.48209,-3.144396 z m -20.91475,-0.251067 c 0.0316,-0.516633 -3.13099,-4.074555 -3.62182,-4.074555 -0.72969,0 -0.47946,1.75377 0.62864,4.405837 0.99308,2.376769 1.11847,2.45585 2.01568,1.271343 0.5262,-0.694692 0.96608,-1.415875 0.9775,-1.602625 z m 35.72588,-1.193906 c -0.80017,-0.800168 -1.11852,0.417724 -0.60176,2.302185 l 0.53408,1.947638 0.22916,-1.929588 c 0.12604,-1.061272 0.0534,-2.105377 -0.16148,-2.320235 z M 296.0259,84.4272 c 0.2826,0.174649 1.1416,-0.969411 1.9089,-2.542366 2.68259,-5.499301 2.69178,-5.4639 -2.01967,-7.78048 l -4.25406,-2.091686 -1.8675,1.765668 c -1.78582,1.688443 -2.59672,3.400585 -1.20245,2.538878 1.05757,-0.653614 3.55814,1.001286 3.14393,2.080684 -0.72874,1.899081 0.79616,0.927273 1.60354,-1.021923 1.01284,-2.445222 2.73658,-3.304298 2.73658,-1.363857 0,0.747276 -0.50716,2.494837 -1.12702,3.883469 -1.42619,3.194982 -1.48984,3.67506 -0.63719,4.806299 0.46642,0.61883 0.77924,0.673422 0.94853,0.165543 0.13893,-0.41678 0.48381,-0.614885 0.76641,-0.440229 z m -4.70437,-3.540911 c 0,-0.866737 -0.1811,-0.933286 -0.81491,-0.299466 -0.4482,0.448201 -1.44138,0.845375 -2.20705,0.882603 -1.17922,0.05732 -1.13249,0.144844 0.30559,0.572115 2.04697,0.608195 2.71637,0.323506 2.71637,-1.155252 z m -71.13494,-0.18481 c -2.35701,-0.947402 -1.91877,-2.26405 0.58679,-1.762939 2.53745,0.507492 9.64284,-1.206163 12.48574,-3.011274 l 2.03728,-1.293577 -4.55075,-0.01144 c -2.50291,-0.0063 -6.3228,0.500207 -8.48865,1.125554 -6.75615,1.950705 -11.21287,0.981967 -12.95212,-2.815347 -0.95167,-2.077794 0.51534,-5.79781 2.87645,-7.294026 1.79451,-1.13717 2.94756,-1.262648 8.85412,-0.963528 l 6.79093,0.343906 -2.54314,-1.14606 c -2.32574,-1.048091 -3.30307,-2.104343 -2.04074,-2.205522 3.62926,-0.728139 7.60606,1.270518 9.28915,-0.347356 0.9703,-0.9703 0.91203,-1.332153 -0.64122,-3.982582 -1.50646,-2.570585 -1.58678,-3.016321 -0.67922,-3.769529 0.5661,-0.469817 1.02927,-0.549615 1.02927,-0.177327 0,0.372288 1.06957,1.844587 2.37682,3.271774 1.6296,1.831938 4.198,2.58918 4.39251,5.169855 0.0181,0.959563 -1.76138,2.09219 -3.48705,2.219432 -0.249,0.01836 -0.70739,0.307697 -1.01864,0.64297 -0.3301,0.355581 0.14151,0.430186 1.13182,0.179046 0.93375,-0.236799 2.04265,-0.434715 2.46421,-0.439815 0.42156,-0.0051 1.13362,-1.002446 1.58233,-2.216324 0.44873,-1.213878 1.62486,-3.792848 2.61364,-5.731046 0.98878,-1.938197 1.62441,-3.697362 1.41251,-3.909256 -0.21189,-0.211893 -3.56649,-0.421631 -7.45466,-0.466083 -5.34397,-0.0611 -7.56665,0.187596 -9.10668,1.018929 -2.52768,1.364471 -4.41411,1.41984 -4.41411,0.129558 0,-0.538209 -0.27419,-1.148019 -0.60931,-1.355134 -0.73229,-0.452584 -10.33915,1.58988 -11.20406,2.382041 -0.3346,0.306448 -1.42129,0.394592 -2.41487,0.195876 -1.23515,-0.24703 -2.11665,0.0196 -2.7871,0.843024 -0.87208,1.071032 -0.85393,1.156894 0.16393,0.775782 0.6295,-0.2357 1.25529,-0.0963 1.39064,0.309779 0.17331,0.519903 0.69268,0.499326 1.75565,-0.06955 1.5515,-0.830341 2.83964,-0.512608 2.83964,0.700426 0,0.377435 -0.67844,0.588594 -1.50765,0.469241 -0.93101,-0.134005 -2.29464,0.513327 -3.56524,1.692462 l -2.05758,1.909466 1.86751,1.511506 c 1.02712,0.831329 1.8675,1.999187 1.8675,2.595242 0,1.247196 -2.99508,2.049908 -3.97866,1.066323 -0.41811,-0.418109 -1.03181,0.04581 -1.70551,1.289267 -0.57881,1.068318 -1.06461,1.509474 -1.07956,0.980348 -0.0149,-0.529126 -0.20804,-0.781199 -0.42908,-0.560161 -0.22104,0.221038 -0.007,1.494337 0.47597,2.829552 0.65727,1.817658 1.26692,2.427666 2.42623,2.427666 1.08705,0 1.67587,0.50805 1.97636,1.705255 0.5414,2.157111 3.06937,3.956455 7.40744,5.272423 3.84483,1.16634 9.31996,1.555962 6.62116,0.471178 z m 66.63595,0.158509 c 0.18415,-0.297956 0.0541,-0.985537 -0.28907,-1.527956 -0.34314,-0.542418 -0.65195,-0.833419 -0.68624,-0.646668 -0.0343,0.18675 -0.16473,0.874331 -0.28986,1.527958 -0.22973,1.200079 0.64638,1.647893 1.26517,0.646666 z m -58.15065,-8.445075 c 1.58554,-0.09951 2.8843,-0.402483 2.88614,-0.673271 0.002,-0.270788 0.99653,-0.339032 2.21041,-0.151654 1.65531,0.25552 1.86751,0.190946 0.84886,-0.258307 -0.747,-0.329448 -4.50324,-0.531379 -8.3472,-0.448735 -5.94208,0.127752 -7.13412,0.341923 -7.95773,1.429742 -1.53274,2.024415 -1.26608,2.121394 3.2324,1.175555 2.33438,-0.490821 5.54159,-0.973819 7.12712,-1.07333 z m 72.65302,1.10743 c -0.22516,-0.225155 -0.11461,-1.184668 0.24566,-2.132252 1.0254,-2.696996 -0.83342,-4.295808 -4.74441,-4.080784 -2.31249,0.127139 -3.16813,0.46978 -3.3342,1.335178 -0.14932,0.778094 0.35301,1.308819 1.51476,1.6004 0.95599,0.239937 1.56944,0.709243 1.36323,1.042902 -0.20621,0.333658 0.22159,0.606651 0.95067,0.606651 0.72909,0 1.50151,0.458387 1.7165,1.018639 0.21499,0.560251 0.9098,1.018639 1.54402,1.018639 0.63423,0 0.96892,-0.184218 0.74377,-0.409373 z m -85.82163,-3.499431 c -0.49542,-1.894479 -1.02296,-1.922053 -2.15302,-0.112538 -0.69626,1.114876 -0.70716,1.621388 -0.0519,2.410907 1.16922,1.408818 2.74488,-0.233617 2.20494,-2.298369 z m 4.78503,-1.69371 c 0.42656,-1.516039 0.43815,-1.517364 1.48533,-0.169773 0.58047,0.747001 1.41583,1.250147 1.85634,1.118102 0.44051,-0.132046 3.63189,-0.25863 7.09195,-0.281297 3.64534,-0.02388 6.54863,-0.351301 6.90362,-0.778556 0.4331,-0.521297 -1.31071,-0.751119 -5.95147,-0.784362 -3.61024,-0.02586 -8.14236,-0.178657 -10.07139,-0.339547 -3.88678,-0.324175 -4.9291,0.171176 -3.63678,1.728341 1.18735,1.430657 1.8189,1.296616 2.3224,-0.492908 z m 71.17692,-4.92416 c 0.48122,0.173904 1.63891,-0.282778 2.57267,-1.014849 l 1.69773,-1.331036 -1.91215,-0.0151 c -1.05168,-0.0083 -2.44331,-0.299369 -3.09251,-0.646809 -2.18094,-1.167204 -3.0736,0.136706 -2.10429,3.073738 0.78495,2.378437 0.90692,2.474411 1.41141,1.110637 0.30372,-0.821022 0.94593,-1.350483 1.42714,-1.17658 z m 9.70314,1.69847 c -0.23084,-0.373501 -0.72529,-0.679093 -1.09879,-0.679093 -0.3735,0 -0.49023,0.305592 -0.2594,0.679093 0.23084,0.373501 0.72529,0.679093 1.0988,0.679093 0.3735,0 0.49023,-0.305592 0.25939,-0.679093 z m 1.21263,-2.047861 c -0.19686,-0.752822 -0.67385,-1.564018 -1.05999,-1.802656 -0.38975,-0.240888 -0.4994,-0.106017 -0.24649,0.303204 0.25055,0.405402 0.11235,0.949205 -0.30712,1.208452 -0.54038,0.333967 -0.49412,0.641522 0.1587,1.055163 1.44965,0.91855 1.84117,0.712912 1.4549,-0.764163 z m -102.39296,-4.58912 c 0.83213,-6.322348 1.10721,-7.021349 3.28604,-8.34991 1.44767,-0.882729 1.75693,-1.307077 0.95383,-1.308793 -0.65362,-0.0014 -1.18841,-0.30813 -1.18841,-0.681631 0,-1.362534 -2.71534,-0.632866 -3.7989,1.020839 -1.05715,1.613422 -1.83057,10.287207 -1.10454,12.387339 0.55132,1.594762 1.42984,0.139469 1.85198,-3.067844 z m 101.03737,-0.833714 c -0.19524,-0.74663 -0.63453,-1.357509 -0.9762,-1.357509 -1.07486,0 -1.49831,2.147944 -0.54018,2.7401 1.28969,0.797069 1.93299,0.210524 1.51638,-1.382591 z m -5.36716,-3.66719 c 0.60281,-1.270325 1.09602,-3.16849 1.09602,-4.218144 0,-1.876711 -0.0214,-1.866556 -1.28417,0.610352 -1.61717,3.171981 -2.32356,5.917473 -1.52252,5.917473 0.33806,0 1.10786,-1.039356 1.71067,-2.309681 z m -46.23899,-4.79945 c -0.67105,-0.922015 -1.90769,-1.685994 -2.74807,-1.697732 -0.84037,-0.01173 -1.52795,-0.300071 -1.52795,-0.640742 0,-0.340671 -1.19843,-0.821875 -2.66317,-1.069342 -1.46475,-0.247467 -2.81299,-0.840353 -2.9961,-1.317524 -0.42863,-1.116981 -10.50871,-0.870124 -12.71645,0.311419 -1.45971,0.781213 -1.47289,0.856428 -0.26827,1.53057 1.22679,0.686545 1.22486,0.725423 -0.0612,1.228447 -1.23266,0.482143 -1.21829,0.522893 0.19989,0.567194 0.84038,0.02625 1.52796,0.33433 1.52796,0.684618 0,0.350288 0.57761,0.593378 1.28357,0.540199 0.74992,-0.05649 1.14322,-0.462446 0.94598,-0.976434 -0.38063,-0.991908 2.21156,-1.255751 2.81083,-0.286099 0.2018,0.326506 2.12977,0.613628 4.28441,0.638048 2.15463,0.02442 5.13988,0.354934 6.63388,0.734472 1.70989,0.434385 2.80025,0.449593 2.94273,0.04104 0.12451,-0.356964 0.49691,-0.649026 0.82757,-0.649026 0.33065,0 0.42528,0.458387 0.2103,1.018639 -0.2729,0.711137 0.0506,1.018639 1.07165,1.018639 1.43186,0 1.43695,-0.03517 0.24242,-1.676391 z m -6.3133,-1.03998 c 0,-0.85085 0.72068,-0.85085 2.03728,0 0.82371,0.532323 0.72625,0.660285 -0.50932,0.668694 -0.84038,0.0057 -1.52796,-0.295193 -1.52796,-0.668694 z M 237.85592,46.9765 c 0.66073,-0.172179 1.57751,-0.160856 2.03727,0.02516 0.45977,0.186019 -0.0808,0.326894 -1.20133,0.313054 -1.1205,-0.01384 -1.49668,-0.166037 -0.83594,-0.338217 z m -21.11467,1.431231 1.57783,0.404717 -1.51179,-0.779235 c -1.61012,-0.829912 -3.60435,0.124737 -3.55981,1.704094 0.0119,0.421143 0.44783,0.203213 0.96877,-0.484289 0.64938,-0.856999 1.44325,-1.122759 2.525,-0.845287 z m -6.91082,0.05801 c 0,-0.560252 -0.3056,-1.018639 -0.6791,-1.018639 -0.3735,0 -0.67909,0.458387 -0.67909,1.018639 0,0.560251 0.30559,1.018639 0.67909,1.018639 0.3735,0 0.6791,-0.458388 0.6791,-1.018639 z m 2.71637,-0.05659 c 0,-0.591377 -0.36289,-0.954267 -0.80643,-0.806423 -1.25918,0.419728 -1.46803,1.881651 -0.2688,1.881651 0.59137,0 1.07523,-0.483854 1.07523,-1.07523 z M 202.02771,43.36147 c 0.2346,-0.379593 0.7404,-0.496198 1.124,-0.259121 0.4089,0.252715 0.59001,-0.09389 0.43777,-0.837789 -0.15557,-0.760156 -0.73026,-1.187917 -1.43349,-1.066993 -0.70776,0.121704 -1.42236,-0.417545 -1.79983,-1.358186 -0.55986,-1.395117 -0.63058,-1.302791 -0.66907,0.873387 -0.0541,3.061151 1.20505,4.486094 2.34062,2.648702 z m 9.3734,-1.214494 c 1.83699,-1.917414 2.37543,-3.528079 1.17943,-3.528079 -0.35494,0 -0.88973,0.389326 -1.18841,0.865169 -0.29869,0.475843 -1.38344,1.399662 -2.41057,2.052933 -1.02713,0.65327 -1.8675,1.486311 -1.8675,1.851201 0,1.338213 2.51281,0.610681 4.28705,-1.241226 z m 3.49351,1.272495 c 0.65804,-1.064735 -0.59388,-1.323364 -1.52573,-0.315194 -0.71922,0.778121 -0.69605,0.947361 0.1297,0.947361 0.55293,0 1.18114,-0.284476 1.39603,-0.632169 z m 4.7524,-3.268903 c 0.61288,-1.597138 -0.70272,-2.614144 -1.99466,-1.541935 -1.45378,1.206536 -0.68536,1.795029 0.82008,0.62806 1.15021,-0.891603 1.15096,-0.870479 0.0164,0.46602 -0.65363,0.769975 -1.18842,1.595495 -1.18842,1.834489 0,0.830031 1.93466,-0.313194 2.34658,-1.386634 z m -13.5031,0.21457 c 1.14457,-1.144565 1.27264,-2.425333 0.24254,-2.425333 -1.11423,0 -2.47178,1.606911 -2.15652,2.55266 0.36203,1.086091 0.72469,1.061964 1.91398,-0.127329 z m 19.84891,-0.523874 c 0.4482,-0.448201 0.80519,-1.288578 0.79331,-1.867505 -0.0183,-0.89026 -0.15954,-0.870941 -0.91601,0.125263 -0.49193,0.647822 -1.05564,1.016631 -1.2527,0.819578 -0.19705,-0.197053 -0.53923,0.113288 -0.7604,0.689648 -0.4796,1.249812 0.96175,1.407064 2.1358,0.233016 z m 7.80469,-0.03395 c 2.00584,-0.931542 2.08985,-1.098327 1.23371,-2.449495 -0.8097,-1.277876 -3.235,-0.389409 -3.69036,1.351902 -0.20194,0.772211 -0.69332,1.202443 -1.09196,0.95607 -0.39864,-0.246374 -0.7248,-0.124325 -0.7248,0.271218 0,0.969847 2.03908,0.907962 4.27341,-0.129695 z m 7.90498,-0.955716 c 0.16185,-0.140433 -0.0129,-0.562501 -0.38832,-0.937928 -0.4574,-0.457399 -1.22576,-0.21151 -2.329,0.745317 l -1.64639,1.427914 2.03472,-0.489986 c 1.11909,-0.269492 2.16714,-0.604884 2.32899,-0.745317 z M 222.97841,36.33876 c -0.0519,-0.613427 0.34815,-1.115322 0.88895,-1.115322 0.54079,0 0.79655,0.302092 0.56836,0.671315 -0.23791,0.38495 0.0347,0.498798 0.63902,0.26689 1.15711,-0.444025 1.44448,-1.617297 0.39612,-1.617297 -0.36177,0 -0.48187,-0.458388 -0.26689,-1.018639 0.59439,-1.548932 -0.43113,-1.219534 -2.22314,0.714081 -1.70696,1.841843 -2.1749,4.013953 -0.75697,3.513749 0.46688,-0.1647 0.80643,-0.80135 0.75455,-1.414777 z m -17.90163,-1.365579 c 0,-1.529081 -0.85064,-1.810299 -1.77876,-0.588053 -1.42726,1.879567 -1.20047,3.06405 0.42057,2.196495 0.74701,-0.399783 1.35819,-1.123582 1.35819,-1.608442 z m 5.78853,0.878173 c 0.24602,-0.775149 0.25934,-1.597336 0.0296,-1.827083 -0.65851,-0.658497 -2.63611,1.66259 -2.1234,2.492186 0.71744,1.160827 1.60362,0.879328 2.0938,-0.665103 z m 20.18676,-0.146817 c 1.31665,-0.485787 1.55824,-1.530558 0.50452,-2.181794 -0.37614,-0.232467 -0.86655,0.05334 -1.0898,0.635113 -0.22324,0.58178 -0.67948,0.888706 -1.01384,0.682057 -0.33436,-0.206648 -0.60325,0.329893 -0.59754,1.192313 0.006,0.878596 0.22977,1.247671 0.50932,0.839409 0.27441,-0.400744 1.03371,-0.925938 1.68734,-1.167098 z m 8.18431,0.367767 c 0.15682,-0.280126 -0.11695,-1.426094 -0.60838,-2.546597 -0.49144,-1.120503 -0.90731,-1.677116 -0.92415,-1.236919 -0.0168,0.440198 -0.53858,1.308308 -1.15941,1.929133 -0.95414,0.954145 -0.98041,1.22269 -0.16977,1.735839 1.17817,0.745807 2.48035,0.799749 2.86171,0.118544 z m 4.31933,-1.697731 c -0.18839,-0.466877 -0.34253,-0.08489 -0.34253,0.848865 0,0.933753 0.15414,1.315742 0.34253,0.848866 0.18839,-0.466876 0.18839,-1.230855 0,-1.697731 z m -22.8702,-2.416903 c -0.009,-0.989624 -0.10138,-1.007549 -0.6687,-0.129695 -0.85946,1.329916 -0.85946,2.228906 0,1.697732 0.3735,-0.230837 0.67442,-0.936453 0.6687,-1.568037 z m -18.14313,-0.129695 c 1.10343,-1.288703 1.09783,-1.358185 -0.10942,-1.358185 -0.70121,0 -1.43176,0.609656 -1.6275,1.358185 -0.19535,0.747002 -0.14611,1.358186 0.10942,1.358186 0.25553,0 0.9879,-0.611184 1.6275,-1.358186 z m 6.13897,-0.03169 c 0.65453,-0.764433 1.01388,-1.674951 0.79854,-2.023371 -0.5912,-0.95657 -3.04493,0.831126 -3.04493,2.218418 0,1.578784 0.78603,1.510535 2.24639,-0.195047 z m 5.90272,-0.04846 c 0,-0.373501 -0.30559,-0.490226 -0.67909,-0.25939 -0.3735,0.230837 -0.67909,0.725294 -0.67909,1.098795 0,0.373501 0.30559,0.490227 0.67909,0.25939 0.3735,-0.230836 0.67909,-0.725294 0.67909,-1.098795 z m 19.26017,-0.25939 c -0.21499,-0.560251 -0.65419,-1.018639 -0.97601,-1.018639 -0.32182,0 -0.40923,0.458388 -0.19424,1.018639 0.215,0.560251 0.6542,1.018639 0.97601,1.018639 0.32183,0 0.40923,-0.458388 0.19424,-1.018639 z m -9.75287,-1.058717 c 0,-0.395543 0.30559,-0.530305 0.67909,-0.299468 0.3735,0.230836 0.67909,-0.05672 0.67909,-0.639015 0,-1.25659 -1.43243,-1.391924 -2.58055,-0.243805 -1.1091,1.109098 -1.0242,1.901459 0.20373,1.901459 0.56025,0 1.01864,-0.323627 1.01864,-0.719171 z m 6.11183,0.143853 c 0,-0.316425 0.68758,-0.906925 1.52796,-1.312223 1.4412,-0.695067 1.40264,-0.739517 -0.67909,-0.782869 -1.76964,-0.03685 -2.20705,0.223213 -2.20705,1.312225 0,0.747001 0.30559,1.358185 0.67909,1.358185 0.3735,0 0.67909,-0.258893 0.67909,-0.575318 z m 7.47002,-0.499912 c 0,-0.591377 -0.36289,-0.954267 -0.80642,-0.806422 -1.25919,0.419729 -1.46804,1.881652 -0.26881,1.881652 0.59138,0 1.07523,-0.483854 1.07523,-1.07523 z m -19.02499,-1.810914 c 0.006,-0.280125 -0.29519,-0.509319 -0.66869,-0.509319 -0.3735,0 -0.67442,0.687581 -0.6687,1.527958 0.008,1.235567 0.13638,1.333031 0.6687,0.50932 0.36206,-0.560252 0.66297,-1.247833 0.66869,-1.527959 z m -5.76189,0.848866 c 0.23084,-0.373501 -0.0747,-0.679093 -0.67909,-0.679093 -0.60434,0 -0.90993,0.305592 -0.67909,0.679093 0.23083,0.373501 0.53643,0.679093 0.67909,0.679093 0.14266,0 0.44826,-0.305592 0.67909,-0.679093 z m 32.93599,-2.336746 c 0,-0.716765 -1.30325,-1.017899 -1.69089,-0.390702 -0.2346,0.379594 0.0499,0.69017 0.63217,0.69017 0.58229,0 1.05872,-0.13476 1.05872,-0.299468 z M 210.32292,156.05552 c -1.1146,-0.66494 -1.06369,-0.86899 0.67688,-2.71314 2.96237,-3.13863 6.71345,-2.20814 6.183,1.53375 -0.18456,1.30193 -0.67899,1.59336 -2.93827,1.73187 -1.49401,0.0916 -3.25873,-0.15702 -3.92161,-0.55248 z m 4.63727,-1.37096 c 0.25095,-0.40605 0.18494,-1.0096 -0.1467,-1.34123 -0.35123,-0.35123 -0.95267,-0.043 -1.44058,0.73826 -0.68943,1.10395 -0.66348,1.34124 0.14669,1.34124 0.54138,0 1.18964,-0.33222 1.44059,-0.73827 z m -2.05455,-16.20782 c -0.61328,-0.99231 0.32561,-3.96253 1.38052,-4.36734 0.94105,-0.36111 3.01428,1.2152 3.01428,2.2918 0,0.31627 -0.18548,1.05842 -0.4122,1.64922 -0.44785,1.16708 -3.33385,1.47602 -3.9826,0.42632 z m 2.64625,-2.15074 c -0.44009,-0.71209 -1.64691,-0.14045 -1.64691,0.78009 0,0.33974 0.45664,0.44248 1.01474,0.22831 0.55811,-0.21417 0.84258,-0.66795 0.63217,-1.0084 z m -1.9967,-11.47891 c -0.23646,-0.38261 -0.23705,-1.57391 -0.001,-2.64731 0.70252,-3.19858 5.10472,-3.50721 5.10472,-0.35789 0,2.43384 -4.00059,4.78963 -5.10343,3.0052 z m 3.06616,-2.36025 c 0.91765,-1.10571 0.69816,-1.24393 -0.96309,-0.60644 -0.59081,0.22671 -1.07419,0.68509 -1.07419,1.01864 0,0.93934 1.10037,0.71671 2.03728,-0.4122 z m -4.07085,-10.51902 c -0.54688,-1.02186 -0.46936,-1.73864 0.31804,-2.94036 0.57266,-0.87399 0.81138,-1.8189 0.53048,-2.0998 -0.2809,-0.2809 0.55841,-0.40931 1.86512,-0.28534 2.13917,0.20294 2.39738,0.44966 2.59196,2.4768 0.11886,1.23827 -0.14775,2.68983 -0.59247,3.22568 -1.17482,1.41557 -3.86912,1.20007 -4.71313,-0.37698 z m 2.97956,-1.76019 c 0.63763,-1.66165 0.49916,-1.82617 -0.60644,-0.72057 -1.15448,1.15449 -1.30154,1.79475 -0.4122,1.79475 0.33354,0 0.79193,-0.48338 1.01864,-1.07418 z"
       id="path910"
       sodipodi:nodetypes="sssssssssssccccccsscsssscssccccssssssccsssssscccsccccsssccccccccccsssccssssssssssscccccscccsssssssssssssssssscssccssssccssssccssssssssssssssscccccscssccccccssssssssscssssssssssssssssssssscsssccsssssssssssssccsssssssssssscssssccsssccscsscsssssccccsssccsssssssssssccsssssssccccccsssssccsccccssssssssssssssscccssssccccssccsssssssssssssssssssssssssccssssssssssccsssssssssscssscscscssscssssssssssssssssscssssscsccsssccsssssssssssssssssssscsssscscsssssssssssssssssssssssssssssssssssssssssssscsssssssssssssssssssssssssssssssssssssssssssssssssssssssssssssssssssssssssssssssssssscsssssssssssssssssssssssssssssssssssssssscssssssssssssssssssssssscsssssssssssssssssssssssssssssssssssssssssssssssscsscscscssssssssssssssssssssssssscsscssccssssssssssssssss" />
  </g>
</svg>
