<?xml version="1.0" encoding="UTF-8" standalone="no"?>
<svg
   xmlns:dc="http://purl.org/dc/elements/1.1/"
   xmlns:cc="http://creativecommons.org/ns#"
   xmlns:rdf="http://www.w3.org/1999/02/22-rdf-syntax-ns#"
   xmlns:svg="http://www.w3.org/2000/svg"
   xmlns="http://www.w3.org/2000/svg"
   xmlns:sodipodi="http://sodipodi.sourceforge.net/DTD/sodipodi-0.dtd"
   xmlns:inkscape="http://www.inkscape.org/namespaces/inkscape"
   inkscape:export-ydpi="32"
   inkscape:export-xdpi="32"
   inkscape:export-filename="C:\Users\Callisto Joaquim\Documents\images (non-memes)\Project Ages of War\Class Icons\P3 Artisan Icon.png"
   width="142mm"
   height="142mm"
   viewBox="0 0 142 142"
   version="1.1"
   id="svg8"
   inkscape:version="1.0 (4035a4fb49, 2020-05-01)"
   sodipodi:docname="P3 Artisan Icon.svg">
  <defs
     id="defs2">
    <inkscape:path-effect
       effect="spiro"
       id="path-effect919"
       is_visible="true"
       lpeversion="1" />
    <inkscape:path-effect
       lpeversion="1"
       is_visible="true"
       id="path-effect892"
       effect="spiro" />
    <inkscape:path-effect
       lpeversion="1"
       is_visible="true"
       id="path-effect886"
       effect="spiro" />
    <inkscape:path-effect
       only_selected="false"
       apply_with_weight="true"
       apply_no_weight="true"
       helper_size="0"
       steps="2"
       weight="33.333333"
       lpeversion="1"
       is_visible="true"
       id="path-effect875"
       effect="bspline" />
    <inkscape:path-effect
       only_selected="false"
       apply_with_weight="true"
       apply_no_weight="true"
       helper_size="0"
       steps="2"
       weight="33.333333"
       lpeversion="1"
       is_visible="true"
       id="path-effect871"
       effect="bspline" />
    <inkscape:path-effect
       only_selected="false"
       apply_with_weight="true"
       apply_no_weight="true"
       helper_size="0"
       steps="2"
       weight="33.333333"
       lpeversion="1"
       is_visible="true"
       id="path-effect1076"
       effect="bspline" />
    <inkscape:path-effect
       only_selected="false"
       apply_with_weight="true"
       apply_no_weight="true"
       helper_size="0"
       steps="2"
       weight="33.333333"
       lpeversion="1"
       is_visible="true"
       id="path-effect1072"
       effect="bspline" />
    <inkscape:path-effect
       effect="bspline"
       id="path-effect1056"
       is_visible="true"
       lpeversion="1"
       weight="33.333333"
       steps="2"
       helper_size="0"
       apply_no_weight="true"
       apply_with_weight="true"
       only_selected="false" />
    <inkscape:path-effect
       effect="bspline"
       id="path-effect1048"
       is_visible="true"
       lpeversion="1"
       weight="33.333333"
       steps="2"
       helper_size="0"
       apply_no_weight="true"
       apply_with_weight="true"
       only_selected="false" />
    <inkscape:path-effect
       lpeversion="1"
       is_visible="true"
       id="path-effect1034"
       effect="spiro" />
    <inkscape:path-effect
       effect="bspline"
       id="path-effect1025"
       is_visible="true"
       lpeversion="1"
       weight="33.333333"
       steps="2"
       helper_size="0"
       apply_no_weight="true"
       apply_with_weight="true"
       only_selected="false" />
    <inkscape:path-effect
       effect="spiro"
       id="path-effect1021"
       is_visible="true"
       lpeversion="1" />
    <inkscape:path-effect
       effect="spiro"
       id="path-effect1017"
       is_visible="true"
       lpeversion="1" />
    <inkscape:path-effect
       effect="bspline"
       id="path-effect1013"
       is_visible="true"
       lpeversion="1"
       weight="33.333333"
       steps="2"
       helper_size="0"
       apply_no_weight="true"
       apply_with_weight="true"
       only_selected="false" />
  </defs>
  <sodipodi:namedview
     id="base"
     pagecolor="#ffffff"
     bordercolor="#666666"
     borderopacity="1.0"
     inkscape:pageopacity="0.0"
     inkscape:pageshadow="2"
     inkscape:zoom="0.80622194"
     inkscape:cx="325.03937"
     inkscape:cy="489.44882"
     inkscape:document-units="mm"
     inkscape:current-layer="layer1"
     inkscape:document-rotation="0"
     showgrid="false"
     inkscape:snap-object-midpoints="true"
     inkscape:snap-bbox="true"
     inkscape:snap-others="true"
     inkscape:bbox-nodes="false"
     inkscape:window-width="1920"
     inkscape:window-height="1137"
     inkscape:window-x="-8"
     inkscape:window-y="-8"
     inkscape:window-maximized="1"
     inkscape:snap-grids="true"
     inkscape:object-paths="false"
     inkscape:object-nodes="true"
     inkscape:snap-intersection-paths="false"
     inkscape:snap-smooth-nodes="false">
    <inkscape:grid
       originy="-18.999999"
       originx="-18.999999"
       type="xygrid"
       id="grid62"
       units="mm"
       spacingx="1"
       spacingy="1" />
  </sodipodi:namedview>
  <metadata
     id="metadata5">
    <rdf:RDF>
      <cc:Work
         rdf:about="">
        <dc:format>image/svg+xml</dc:format>
        <dc:type
           rdf:resource="http://purl.org/dc/dcmitype/StillImage" />
        <dc:title />
      </cc:Work>
    </rdf:RDF>
  </metadata>
  <g
     transform="translate(-19,-19)"
     inkscape:label="Calque 1"
     inkscape:groupmode="layer"
     id="layer1">
    <path
       id="path239"
       style="fill:#b87333;fill-opacity:1;fill-rule:evenodd;stroke:#f2f2f2;stroke-width:2;stroke-linejoin:round;stroke-miterlimit:4;stroke-dasharray:none;stroke-opacity:1;paint-order:normal"
       sodipodi:type="inkscape:offset"
       inkscape:radius="0"
       inkscape:original="M 49.015625 20 L 20 49.015625 L 20 160 L 130.98242 160 L 160 130.98242 L 160 20 L 49.015625 20 z "
       d="M 49.015625,20 20,49.015625 V 160 H 130.98242 L 160,130.98242 V 20 Z"
       transform="matrix(-1,0,0,1,180,0)" />
    <path
       id="path835"
       style="fill:#d68d4c;fill-opacity:1;fill-rule:evenodd;stroke:none;stroke-width:7.55906;stroke-linejoin:round;stroke-miterlimit:4;stroke-dasharray:none;stroke-opacity:1;paint-order:normal"
       d="M 94.488281,94.488281 V 487.22656 L 143.78906,536.52734 536.53125,143.78516 487.23438,94.488281 Z"
       transform="scale(0.26458333)" />
    <path
       d="m 139.88047,63.759141 a 4.1057749,12.854827 35 0 0 -0.0669,-0.0359 4.1057749,12.854827 35 0 0 -0.10642,-0.0523 4.1057749,12.854827 35 0 0 -0.11281,-0.0415 4.1057749,12.854827 35 0 0 -0.11675,-0.0341 4.1057749,12.854827 35 0 0 -0.12489,-0.0238 4.1057749,12.854827 35 0 0 -0.12792,-0.0158 4.1057749,12.854827 35 0 0 -0.13508,-0.007 4.1057749,12.854827 35 0 0 -0.13804,-1.9e-4 4.1057749,12.854827 35 0 0 -0.14504,0.007 4.1057749,12.854827 35 0 0 -0.14863,0.0211 4.1057749,12.854827 35 0 0 -0.15559,0.0264 4.1057749,12.854827 35 0 0 -0.15998,0.0345 4.1057749,12.854827 35 0 0 -0.16287,0.0438 4.1057749,12.854827 35 0 0 -0.1688,0.0533 4.1057749,12.854827 35 0 0 -0.17249,0.06 4.1057749,12.854827 35 0 0 -0.17673,0.0692 4.1057749,12.854827 35 0 0 -0.18134,0.0776 4.1057749,12.854827 35 0 0 -0.18565,0.0876 4.1057749,12.854827 35 0 0 -0.18756,0.094 4.1057749,12.854827 35 0 0 -0.19187,0.10378 4.1057749,12.854827 35 0 0 -0.19677,0.11086 4.1057749,12.854827 35 0 0 -0.19994,0.11904 4.1057749,12.854827 35 0 0 -0.20129,0.12828 4.1057749,12.854827 35 0 0 -0.20621,0.1354 4.1057749,12.854827 35 0 0 -0.20805,0.14174 4.1057749,12.854827 35 0 0 -0.21123,0.14992 4.1057749,12.854827 35 0 0 -0.21264,0.15916 4.1057749,12.854827 35 0 0 -0.21625,0.16444 4.1057749,12.854827 35 0 0 -0.21939,0.17262 4.1057749,12.854827 35 0 0 -0.21836,0.17869 4.1057749,12.854827 35 0 0 -0.22153,0.18687 4.1057749,12.854827 35 0 0 -0.22465,0.19506 4.1057749,12.854827 35 0 0 -0.22527,0.19981 4.1057749,12.854827 35 0 0 -0.2242,0.20561 4.1057749,12.854827 35 0 0 -0.22739,0.21379 4.1057749,12.854827 35 0 0 -0.22796,0.21829 4.1057749,12.854827 35 0 0 -0.23006,0.22514 4.1057749,12.854827 35 0 0 -0.22898,0.23043 4.1057749,12.854827 35 0 0 -0.23089,0.23728 4.1057749,12.854827 35 0 0 -0.22858,0.24151 4.1057749,12.854827 35 0 0 -0.23056,0.24785 4.1057749,12.854827 35 0 0 -0.23,0.25101 4.1057749,12.854827 35 0 0 -0.22892,0.25629 4.1057749,12.854827 35 0 0 -0.22789,0.26236 4.1057749,12.854827 35 0 0 -0.22734,0.26559 4.1057749,12.854827 35 0 0 -0.22809,0.27043 4.1057749,12.854827 35 0 0 -0.22587,0.27449 4.1057749,12.854827 35 0 0 -0.22527,0.27758 4.1057749,12.854827 35 0 0 -0.22303,0.28166 4.1057749,12.854827 35 0 0 -0.2208,0.28596 4.1057749,12.854827 35 0 0 -0.2191,0.28688 4.1057749,12.854827 35 0 0 -0.21849,0.29 4.1057749,12.854827 35 0 0 -0.21647,0.29409 4.1057749,12.854827 35 0 0 -0.21287,0.29641 4.1057749,12.854827 35 0 0 -0.21104,0.29754 4.1057749,12.854827 35 0 0 -0.0753,0.10769 4.1057749,12.854827 35 0 0 -0.20574,0.30132 4.1057749,12.854827 35 0 0 -0.2028,0.30111 4.1057749,12.854827 35 0 0 -0.2022,0.30364 4.1057749,12.854827 35 0 0 -0.19767,0.30465 4.1057749,12.854827 35 0 0 -0.19305,0.30531 4.1057749,12.854827 35 0 0 -0.19001,0.30449 4.1057749,12.854827 35 0 0 -0.1883,0.30567 4.1057749,12.854827 35 0 0 -0.18183,0.30779 4.1057749,12.854827 35 0 0 -0.1794,0.30438 4.1057749,12.854827 35 0 0 -0.17477,0.30533 4.1057749,12.854827 35 0 0 -0.17003,0.30567 4.1057749,12.854827 35 0 0 -0.16581,0.30349 4.1057749,12.854827 35 0 0 -0.16109,0.30441 4.1057749,12.854827 35 0 0 -0.15707,0.30195 4.1057749,12.854827 35 0 0 -0.15279,0.29945 4.1057749,12.854827 35 0 0 -0.14574,0.29699 4.1057749,12.854827 35 0 0 -0.14276,0.2962 4.1057749,12.854827 35 0 0 -0.13559,0.29348 4.1057749,12.854827 35 0 0 -0.13142,0.29124 4.1057749,12.854827 35 0 0 -0.12606,0.28709 4.1057749,12.854827 35 0 0 -0.12015,0.28604 4.1057749,12.854827 35 0 0 -0.11479,0.28244 4.1057749,12.854827 35 0 0 -0.10929,0.2785 4.1057749,12.854827 35 0 0 -0.1022,0.27551 4.1057749,12.854827 35 0 0 -0.0986,0.27014 4.1057749,12.854827 35 0 0 -0.0903,0.266 4.1057749,12.854827 35 0 0 -0.0861,0.26316 4.1057749,12.854827 35 0 0 -0.0796,0.25761 4.1057749,12.854827 35 0 0 -0.0728,0.25206 4.1057749,12.854827 35 0 0 -0.0674,0.24785 4.1057749,12.854827 35 0 0 -0.061,0.2423 4.1057749,12.854827 35 0 0 -0.0543,0.2365 4.1057749,12.854827 35 0 0 -0.0491,0.2328 4.1057749,12.854827 35 0 0 -0.041,0.22488 4.1057749,12.854827 35 0 0 -0.0355,0.22118 4.1057749,12.854827 35 0 0 -0.0278,0.21354 4.1057749,12.854827 35 0 0 -0.0211,0.20798 4.1057749,12.854827 35 0 0 -0.0161,0.20113 4.1057749,12.854827 35 0 0 -0.01,0.19506 4.1057749,12.854827 35 0 0 -0.002,0.18793 4.1057749,12.854827 35 0 0 0.004,0.17921 4.1057749,12.854827 35 0 0 0.01,0.175 4.1057749,12.854827 35 0 0 0.0169,0.1647 4.1057749,12.854827 35 0 0 0.0222,0.16075 4.1057749,12.854827 35 0 0 0.0312,0.15124 4.1057749,12.854827 35 0 0 0.0362,0.14437 4.1057749,12.854827 35 0 0 0.0421,0.13567 4.1057749,12.854827 35 0 0 0.0499,0.12854 4.1057749,12.854827 35 0 0 0.0549,0.12142 4.1057749,12.854827 35 0 0 0.0622,0.11086 4.1057749,12.854827 35 0 0 0.0671,0.10399 4.1057749,12.854827 35 0 0 0.0749,0.0966 4.1057749,12.854827 35 0 0 0.081,0.0876 4.1057749,12.854827 35 0 0 0.0859,0.0806 4.1057749,12.854827 35 0 0 0.0303,0.0211 32.846197,16.423098 35 0 0 1.30205,0.28211 4.1057749,12.854827 35 0 0 0.0507,-0.007 4.1057749,12.854827 35 0 0 0.1556,-0.0264 4.1057749,12.854827 35 0 0 0.15812,-0.0369 4.1057749,12.854827 35 0 0 0.16463,-0.0428 4.1057749,12.854827 35 0 0 0.16747,-0.0531 4.1057749,12.854827 35 0 0 0.17239,-0.0599 4.1057749,12.854827 35 0 0 0.17816,-0.0697 4.1057749,12.854827 35 0 0 0.18133,-0.0776 4.1057749,12.854827 35 0 0 0.18566,-0.0876 4.1057749,12.854827 35 0 0 0.18752,-0.094 4.1057749,12.854827 35 0 0 0.19195,-0.10421 4.1057749,12.854827 35 0 0 0.19669,-0.11086 4.1057749,12.854827 35 0 0 0.19986,-0.11877 4.1057749,12.854827 35 0 0 0.20131,-0.12828 4.1057749,12.854827 35 0 0 0.20622,-0.1354 4.1057749,12.854827 35 0 0 0.20808,-0.14174 4.1057749,12.854827 35 0 0 0.21121,-0.14966 4.1057749,12.854827 35 0 0 0.21263,-0.15916 4.1057749,12.854827 35 0 0 0.21624,-0.16444 4.1057749,12.854827 35 0 0 0.21769,-0.17394 4.1057749,12.854827 35 0 0 0.22007,-0.17763 4.1057749,12.854827 35 0 0 0.22151,-0.18688 4.1057749,12.854827 35 0 0 0.2234,-0.1932 4.1057749,12.854827 35 0 0 0.22532,-0.19981 4.1057749,12.854827 35 0 0 0.22545,-0.20746 4.1057749,12.854827 35 0 0 0.22738,-0.2138 4.1057749,12.854827 35 0 0 0.22799,-0.21828 4.1057749,12.854827 35 0 0 0.23006,-0.22515 4.1057749,12.854827 35 0 0 0.22898,-0.23042 4.1057749,12.854827 35 0 0 0.23085,-0.23729 4.1057749,12.854827 35 0 0 0.2286,-0.24151 4.1057749,12.854827 35 0 0 0.23056,-0.24784 4.1057749,12.854827 35 0 0 0.22831,-0.25181 4.1057749,12.854827 35 0 0 0.22896,-0.25708 4.1057749,12.854827 35 0 0 0.22961,-0.26131 4.1057749,12.854827 35 0 0 0.22734,-0.26558 4.1057749,12.854827 35 0 0 0.2281,-0.27044 4.1057749,12.854827 35 0 0 0.22587,-0.27447 4.1057749,12.854827 35 0 0 0.22526,-0.27759 4.1057749,12.854827 35 0 0 0.22304,-0.28165 4.1057749,12.854827 35 0 0 0.22079,-0.28596 4.1057749,12.854827 35 0 0 0.2191,-0.28689 4.1057749,12.854827 35 0 0 0.21849,-0.28999 4.1057749,12.854827 35 0 0 0.21468,-0.29525 4.1057749,12.854827 35 0 0 0.21465,-0.29525 4.1057749,12.854827 35 0 0 0.2099,-0.29615 4.1057749,12.854827 35 0 0 0.075,-0.11059 4.1057749,12.854827 35 0 0 0.20756,-0.30016 4.1057749,12.854827 35 0 0 0.20282,-0.30111 4.1057749,12.854827 35 0 0 0.20221,-0.30367 4.1057749,12.854827 35 0 0 0.19767,-0.30462 4.1057749,12.854827 35 0 0 0.19304,-0.30531 4.1057749,12.854827 35 0 0 0.19002,-0.30451 4.1057749,12.854827 35 0 0 0.18656,-0.30739 4.1057749,12.854827 35 0 0 0.18362,-0.3066 4.1057749,12.854827 35 0 0 0.17941,-0.30438 4.1057749,12.854827 35 0 0 0.17476,-0.30533 4.1057749,12.854827 35 0 0 0.17003,-0.3057 4.1057749,12.854827 35 0 0 0.16581,-0.30347 4.1057749,12.854827 35 0 0 0.16122,-0.30417 4.1057749,12.854827 35 0 0 0.15699,-0.30166 4.1057749,12.854827 35 0 0 0.15281,-0.29945 4.1057749,12.854827 35 0 0 0.14572,-0.29699 4.1057749,12.854827 35 0 0 0.14095,-0.29736 4.1057749,12.854827 35 0 0 0.1373,-0.29229 4.1057749,12.854827 35 0 0 0.13139,-0.29124 4.1057749,12.854827 35 0 0 0.1244,-0.28854 4.1057749,12.854827 35 0 0 0.12189,-0.28488 4.1057749,12.854827 35 0 0 0.11482,-0.28245 4.1057749,12.854827 35 0 0 0.10938,-0.27822 4.1057749,12.854827 35 0 0 0.1022,-0.2755 4.1057749,12.854827 35 0 0 0.0986,-0.27016 4.1057749,12.854827 35 0 0 0.0903,-0.26602 4.1057749,12.854827 35 0 0 0.0861,-0.26316 4.1057749,12.854827 35 0 0 0.0797,-0.25761 4.1057749,12.854827 35 0 0 0.0728,-0.25207 4.1057749,12.854827 35 0 0 0.0677,-0.2481 4.1057749,12.854827 35 0 0 0.0609,-0.24231 4.1057749,12.854827 35 0 0 0.0544,-0.23649 4.1057749,12.854827 35 0 0 0.0472,-0.23412 4.1057749,12.854827 35 0 0 0.041,-0.22488 4.1057749,12.854827 35 0 0 0.0373,-0.21987 4.1057749,12.854827 35 0 0 0.0278,-0.21353 4.1057749,12.854827 35 0 0 0.0211,-0.20799 4.1057749,12.854827 35 0 0 0.0161,-0.20113 4.1057749,12.854827 35 0 0 0.01,-0.19505 4.1057749,12.854827 35 0 0 0.002,-0.18767 4.1057749,12.854827 35 0 0 -0.004,-0.17922 4.1057749,12.854827 35 0 0 -0.01,-0.17499 4.1057749,12.854827 35 0 0 -0.0169,-0.16497 4.1057749,12.854827 35 0 0 -0.0234,-0.15889 4.1057749,12.854827 35 0 0 -0.0285,-0.14412 32.846197,16.423098 35 0 0 -0.71634,-1.13357 z"
       style="fill:#f2f2f2;fill-opacity:1;stroke:#b87333;stroke-width:2;stroke-linecap:round;stroke-miterlimit:4;stroke-dasharray:none;stroke-opacity:1"
       id="path940" />
    <path
       d="m 125.02647,48.999071 a 32.846197,16.423098 35 0 0 -18.64614,-8.69695 32.846197,16.423098 35 0 0 -1.30848,-0.28406 4.1057749,12.854827 35 0 0 -0.0478,0.005 4.1057749,12.854827 35 0 0 -0.15354,0.0274 4.1057749,12.854827 35 0 0 -0.15997,0.0345 4.1057749,12.854827 35 0 0 -0.16289,0.0438 4.1057749,12.854827 35 0 0 -0.16878,0.0535 4.1057749,12.854827 35 0 0 -0.1725,0.0599 4.1057749,12.854827 35 0 0 -0.17674,0.0692 4.1057749,12.854827 35 0 0 -0.18133,0.0776 4.1057749,12.854827 35 0 0 -0.1856,0.0878 4.1057749,12.854827 35 0 0 -0.18756,0.094 4.1057749,12.854827 35 0 0 -0.19365,0.10241 4.1057749,12.854827 35 0 0 -0.19506,0.11192 4.1057749,12.854827 35 0 0 -0.19994,0.11904 4.1057749,12.854827 35 0 0 -0.203,0.12695 4.1057749,12.854827 35 0 0 -0.20443,0.13646 4.1057749,12.854827 35 0 0 -0.20806,0.14174 4.1057749,12.854827 35 0 0 -0.21121,0.14966 4.1057749,12.854827 35 0 0 -0.2143,0.15837 4.1057749,12.854827 35 0 0 -0.21445,0.16576 4.1057749,12.854827 35 0 0 -0.21939,0.17262 4.1057749,12.854827 35 0 0 -0.21827,0.17869 4.1057749,12.854827 35 0 0 -0.2215,0.18687 4.1057749,12.854827 35 0 0 -0.22464,0.19506 4.1057749,12.854827 35 0 0 -0.22528,0.1998 4.1057749,12.854827 35 0 0 -0.2242,0.20561 4.1057749,12.854827 35 0 0 -0.22912,0.21248 4.1057749,12.854827 35 0 0 -0.226392,0.2196 4.1057749,12.854827 35 0 0 -0.23006,0.22515 4.1057749,12.854827 35 0 0 -0.22896,0.23042 4.1057749,12.854827 35 0 0 -0.2309,0.23729 4.1057749,12.854827 35 0 0 -0.22861,0.24151 4.1057749,12.854827 35 0 0 -0.23055,0.24784 4.1057749,12.854827 35 0 0 -0.22998,0.25101 4.1057749,12.854827 35 0 0 -0.22895,0.25656 4.1057749,12.854827 35 0 0 -0.22789,0.26236 4.1057749,12.854827 35 0 0 -0.22733,0.26558 4.1057749,12.854827 35 0 0 -0.2281,0.27044 4.1057749,12.854827 35 0 0 -0.22587,0.27448 4.1057749,12.854827 35 0 0 -0.22527,0.27759 4.1057749,12.854827 35 0 0 -0.22303,0.28166 4.1057749,12.854827 35 0 0 -0.2208,0.28596 4.1057749,12.854827 35 0 0 -0.21909,0.28688 4.1057749,12.854827 35 0 0 -0.21853,0.29 4.1057749,12.854827 35 0 0 -0.21646,0.29409 4.1057749,12.854827 35 0 0 -0.21284,0.29641 4.1057749,12.854827 35 0 0 -0.21105,0.29757 4.1057749,12.854827 35 0 0 -0.0754,0.10769 4.1057749,12.854827 35 0 0 -0.20574,0.30132 4.1057749,12.854827 35 0 0 -0.20454,0.29965 4.1057749,12.854827 35 0 0 -0.20044,0.30537 4.1057749,12.854827 35 0 0 -0.19766,0.30464 4.1057749,12.854827 35 0 0 -0.19305,0.3053 4.1057749,12.854827 35 0 0 -0.19004,0.30449 4.1057749,12.854827 35 0 0 -0.1883,0.30568 4.1057749,12.854827 35 0 0 -0.18364,0.30662 4.1057749,12.854827 35 0 0 -0.17774,0.30558 4.1057749,12.854827 35 0 0 -0.1747,0.30477 4.1057749,12.854827 35 0 0 -0.17003,0.3057 4.1057749,12.854827 35 0 0 -0.16581,0.30348 4.1057749,12.854827 35 0 0 -0.16109,0.30439 4.1057749,12.854827 35 0 0 -0.157,0.30166 4.1057749,12.854827 35 0 0 -0.15279,0.29945 4.1057749,12.854827 35 0 0 -0.14573,0.29699 4.1057749,12.854827 35 0 0 -0.14276,0.2962 4.1057749,12.854827 35 0 0 -0.1357,0.29377 4.1057749,12.854827 35 0 0 -0.13141,0.29127 4.1057749,12.854827 35 0 0 -0.12606,0.28706 4.1057749,12.854827 35 0 0 -0.12015,0.28607 4.1057749,12.854827 35 0 0 -0.11482,0.28242 4.1057749,12.854827 35 0 0 -0.1093,0.27848 4.1057749,12.854827 35 0 0 -0.104,0.27435 4.1057749,12.854827 35 0 0 -0.0969,0.27137 4.1057749,12.854827 35 0 0 -0.0903,0.266 4.1057749,12.854827 35 0 0 -0.0861,0.26315 4.1057749,12.854827 35 0 0 -0.0797,0.25761 4.1057749,12.854827 35 0 0 -0.0727,0.25207 4.1057749,12.854827 35 0 0 -0.0676,0.24785 4.1057749,12.854827 35 0 0 -0.0609,0.2423 4.1057749,12.854827 35 0 0 -0.0543,0.23649 4.1057749,12.854827 35 0 0 -0.049,0.23228 4.1057749,12.854827 35 0 0 -0.0411,0.22514 4.1057749,12.854827 35 0 0 -0.0355,0.22092 4.1057749,12.854827 35 0 0 -0.0278,0.21354 4.1057749,12.854827 35 0 0 -0.023,0.2064 4.1057749,12.854827 35 0 0 -0.0148,0.20218 4.1057749,12.854827 35 0 0 -0.01,0.19506 4.1057749,12.854827 35 0 0 -0.004,0.18661 4.1057749,12.854827 35 0 0 0.006,0.18054 4.1057749,12.854827 35 0 0 0.01,0.17499 4.1057749,12.854827 35 0 0 0.0169,0.16471 4.1057749,12.854827 35 0 0 0.0222,0.16074 4.1057749,12.854827 35 0 0 0.0302,0.14543 32.846197,16.423098 35 0 0 0.71406,1.12945 32.846197,16.423098 35 0 0 14.702772,14.65414 32.846197,16.423098 35 0 0 18.80083,8.80533 4.1057749,12.854827 35 0 1 -0.0303,-0.0211 4.1057749,12.854827 35 0 1 -0.0858,-0.0811 4.1057749,12.854827 35 0 1 -0.081,-0.0876 4.1057749,12.854827 35 0 1 -0.0749,-0.0966 4.1057749,12.854827 35 0 1 -0.0671,-0.10421 4.1057749,12.854827 35 0 1 -0.0622,-0.11085 4.1057749,12.854827 35 0 1 -0.0549,-0.12142 4.1057749,12.854827 35 0 1 -0.0501,-0.12801 4.1057749,12.854827 35 0 1 -0.0423,-0.13594 4.1057749,12.854827 35 0 1 -0.0362,-0.14437 4.1057749,12.854827 35 0 1 -0.0312,-0.15124 4.1057749,12.854827 35 0 1 -0.0222,-0.16075 4.1057749,12.854827 35 0 1 -0.0169,-0.16496 4.1057749,12.854827 35 0 1 -0.01,-0.175 4.1057749,12.854827 35 0 1 -0.004,-0.17922 4.1057749,12.854827 35 0 1 0.002,-0.18766 4.1057749,12.854827 35 0 1 0.01,-0.19506 4.1057749,12.854827 35 0 1 0.0162,-0.20112 4.1057749,12.854827 35 0 1 0.0211,-0.20799 4.1057749,12.854827 35 0 1 0.0278,-0.21354 4.1057749,12.854827 35 0 1 0.0355,-0.22092 4.1057749,12.854827 35 0 1 0.041,-0.22488 4.1057749,12.854827 35 0 1 0.0491,-0.2328 4.1057749,12.854827 35 0 1 0.0544,-0.23649 4.1057749,12.854827 35 0 1 0.0609,-0.24231 4.1057749,12.854827 35 0 1 0.0677,-0.24811 4.1057749,12.854827 35 0 1 0.0728,-0.25206 4.1057749,12.854827 35 0 1 0.0796,-0.25761 4.1057749,12.854827 35 0 1 0.0861,-0.26316 4.1057749,12.854827 35 0 1 0.0902,-0.266 4.1057749,12.854827 35 0 1 0.0985,-0.27041 4.1057749,12.854827 35 0 1 0.1022,-0.2755 4.1057749,12.854827 35 0 1 0.10929,-0.2785 4.1057749,12.854827 35 0 1 0.1148,-0.28244 4.1057749,12.854827 35 0 1 0.12016,-0.28604 4.1057749,12.854827 35 0 1 0.1261,-0.28709 4.1057749,12.854827 35 0 1 0.13141,-0.29127 4.1057749,12.854827 35 0 1 0.13565,-0.29319 4.1057749,12.854827 35 0 1 0.14276,-0.29622 4.1057749,12.854827 35 0 1 0.14573,-0.29699 4.1057749,12.854827 35 0 1 0.15279,-0.29946 4.1057749,12.854827 35 0 1 0.15709,-0.30195 4.1057749,12.854827 35 0 1 0.1611,-0.3044 4.1057749,12.854827 35 0 1 0.16582,-0.30347 4.1057749,12.854827 35 0 1 0.17003,-0.3057 4.1057749,12.854827 35 0 1 0.17475,-0.30533 4.1057749,12.854827 35 0 1 0.17941,-0.30438 4.1057749,12.854827 35 0 1 0.18183,-0.30776 4.1057749,12.854827 35 0 1 0.18829,-0.30567 4.1057749,12.854827 35 0 1 0.19002,-0.30452 4.1057749,12.854827 35 0 1 0.19306,-0.3053 4.1057749,12.854827 35 0 1 0.19766,-0.30463 4.1057749,12.854827 35 0 1 0.20222,-0.30366 4.1057749,12.854827 35 0 1 0.20281,-0.30111 4.1057749,12.854827 35 0 1 0.20574,-0.30132 4.1057749,12.854827 35 0 1 0.0753,-0.10769 4.1057749,12.854827 35 0 1 0.21106,-0.29755 4.1057749,12.854827 35 0 1 0.21286,-0.29641 4.1057749,12.854827 35 0 1 0.21647,-0.29409 4.1057749,12.854827 35 0 1 0.21851,-0.28999 4.1057749,12.854827 35 0 1 0.21911,-0.28689 4.1057749,12.854827 35 0 1 0.22076,-0.28596 4.1057749,12.854827 35 0 1 0.22304,-0.28165 4.1057749,12.854827 35 0 1 0.22527,-0.27759 4.1057749,12.854827 35 0 1 0.22586,-0.27448 4.1057749,12.854827 35 0 1 0.22811,-0.27043 4.1057749,12.854827 35 0 1 0.22733,-0.26559 4.1057749,12.854827 35 0 1 0.22788,-0.26236 4.1057749,12.854827 35 0 1 0.22899,-0.25708 4.1057749,12.854827 35 0 1 0.22997,-0.25101 4.1057749,12.854827 35 0 1 0.23056,-0.24785 4.1057749,12.854827 35 0 1 0.2286,-0.24151 4.1057749,12.854827 35 0 1 0.23087,-0.23729 4.1057749,12.854827 35 0 1 0.22898,-0.23042 4.1057749,12.854827 35 0 1 0.23004,-0.22515 4.1057749,12.854827 35 0 1 0.228,-0.21828 4.1057749,12.854827 35 0 1 0.22739,-0.21379 4.1057749,12.854827 35 0 1 0.2242,-0.20562 4.1057749,12.854827 35 0 1 0.22528,-0.1998 4.1057749,12.854827 35 0 1 0.22459,-0.19506 4.1057749,12.854827 35 0 1 0.22152,-0.18687 4.1057749,12.854827 35 0 1 0.21837,-0.17869 4.1057749,12.854827 35 0 1 0.21939,-0.17262 4.1057749,12.854827 35 0 1 0.21628,-0.16444 4.1057749,12.854827 35 0 1 0.21264,-0.15916 4.1057749,12.854827 35 0 1 0.21123,-0.14992 4.1057749,12.854827 35 0 1 0.20807,-0.14174 4.1057749,12.854827 35 0 1 0.20621,-0.13541 4.1057749,12.854827 35 0 1 0.20132,-0.12827 4.1057749,12.854827 35 0 1 0.19994,-0.11904 4.1057749,12.854827 35 0 1 0.19677,-0.11086 4.1057749,12.854827 35 0 1 0.19186,-0.10378 4.1057749,12.854827 35 0 1 0.18754,-0.094 4.1057749,12.854827 35 0 1 0.1856,-0.0878 4.1057749,12.854827 35 0 1 0.18133,-0.0776 4.1057749,12.854827 35 0 1 0.17616,-0.0718 4.1057749,12.854827 35 0 1 0.17248,-0.0599 4.1057749,12.854827 35 0 1 0.1688,-0.0533 4.1057749,12.854827 35 0 1 0.16287,-0.0438 4.1057749,12.854827 35 0 1 0.15999,-0.0346 4.1057749,12.854827 35 0 1 0.15559,-0.0264 4.1057749,12.854827 35 0 1 0.14863,-0.0211 4.1057749,12.854827 35 0 1 0.14501,-0.007 4.1057749,12.854827 35 0 1 0.13805,1.8e-4 4.1057749,12.854827 35 0 1 0.13509,0.007 4.1057749,12.854827 35 0 1 0.1279,0.0158 4.1057749,12.854827 35 0 1 0.12491,0.0238 4.1057749,12.854827 35 0 1 0.11673,0.0341 4.1057749,12.854827 35 0 1 0.11281,0.0415 4.1057749,12.854827 35 0 1 0.10646,0.0521 4.1057749,12.854827 35 0 1 0.0669,0.0359 32.846197,16.423098 35 0 0 -14.70104,-14.65301 32.846197,16.423098 35 0 0 -0.15293,-0.10716 z"
       style="fill:#f2f2f2;fill-opacity:1;stroke:#b87333;stroke-width:2;stroke-linecap:round;stroke-miterlimit:4;stroke-dasharray:none;stroke-opacity:1"
       id="path934" />
    <path
       sodipodi:nodetypes="cccccc"
       d="M 103.05074,73.551471 60.58713,134.19578 c -0.16721,2.36305 0.890362,4.3229 6.726095,4.70963 L 109.77685,78.261101 c -1.16481,-0.71063 -2.31283,-1.46168 -3.4373,-2.2488 -1.12423,-0.78745 -2.22264,-1.60933 -3.28881,-2.46083 z"
       style="fill:#f2f2f2;fill-opacity:1;stroke:#b87333;stroke-width:2;stroke-linecap:round;stroke-miterlimit:4;stroke-dasharray:none;stroke-opacity:1"
       id="rect944" />
    <path
       d="m 64.598195,62.777681 78.717055,55.117829 -6.88989,9.84029 -4.3766,3.11429 0.13316,-5.35938 -0.009,-0.003 -4.36754,3.10786 0.13338,-5.3466 -0.0174,-0.0114 -4.35794,3.10035 0.1342,-5.33489 -0.0275,-0.0173 -4.34779,3.09448 0.13335,-5.32273 -0.0359,-0.0211 -4.33818,3.08694 0.13196,-5.31216 -0.0438,-0.0292 -4.32912,3.08054 0.13219,-5.29942 -0.0522,-0.0332 -4.31948,3.07296 0.13192,-5.2883 -0.011,-0.006 -0.0508,-0.0336 -4.30932,3.06711 0.13271,-5.27664 -0.0339,-0.0202 -0.0379,-0.0231 -4.299712,3.05961 0.13192,-5.26445 -0.085,-0.0417 -4.29177,3.05256 0.13159,-5.25332 -0.0943,-0.0455 -4.28164,3.04672 0.13076,-5.24115 -0.10238,-0.0512 -4.272015,3.03925 0.131548,-5.22945 -0.11258,-0.0582 -4.261856,3.03338 0.130707,-5.217279 -0.120696,-0.0639 -4.253296,3.025209 0.130406,-5.206139 -0.02219,-0.0147 -0.107426,-0.055 -4.243155,3.01933 0.130272,-5.19494 -0.07595,-0.0329 -0.06849,-0.0316 -4.233549,3.01185 0.129291,-5.18287 -0.100359,-0.0498 -0.04679,-0.0303 -4.223391,3.00593 0.130092,-5.17116 -0.05001,-0.0326 -0.106299,-0.0544 -4.214851,2.99785 0.129232,-5.15899 -0.164583,-0.0916 -4.204692,2.99197 0.128979,-5.1479 -0.172659,-0.0973 -4.195695,2.98564 0.128098,-5.1357 -0.751865,-0.40003 z"
       style="fill:#f2f2f2;stroke:#b87333;stroke-width:1.5;stroke-linecap:butt;stroke-linejoin:miter;stroke-miterlimit:4;stroke-dasharray:none;stroke-opacity:1"
       id="path860" />
    <path
       sodipodi:nodetypes="ccccssssssssccccccccccccccccccccssssssccccccc"
       id="path906"
       d="m 77.462697,71.785521 -5.694803,8.13304 c -0.073,0.10354 -0.200418,0.15362 -0.324447,0.12796 -0.0423,-0.009 -0.08385,-0.0249 -0.119864,-0.0498 -0.984222,-0.68916 -1.954019,-1.36761 -2.889281,-1.78821 -0.935276,-0.42051 -1.813457,-0.58444 -2.668034,-0.30449 -0.854663,0.28008 -1.776435,1.06452 -2.711411,1.87626 -0.934981,0.81171 -1.882113,1.64943 -2.930151,1.99232 -1.047974,0.34284 -2.090077,0.13219 -3.020556,-0.14456 -0.930497,-0.27666 -1.773981,-0.61091 -2.397769,-0.62503 -0.623874,-0.0139 -1.15282,0.26391 -1.743313,0.58364 -0.590512,0.31975 -1.247153,0.67988 -2.066599,0.66086 -1.620153,-0.0376 -3.544284,-1.44931 -5.488804,-2.8122 -0.02134,-0.0101 -0.0432,-0.0217 -0.06305,-0.0332 l -10.100896,-7.07285 1.561089,-2.22947 c 0.0066,-0.008 0.01349,-0.0163 0.02009,-0.0208 0.01,-0.0143 0.01985,-0.0247 0.03081,-0.0358 0.004,-0.005 0.0085,-0.006 0.01258,-0.0113 0.01358,-0.0114 0.02921,-0.0225 0.04496,-0.0315 0.0048,-0.002 0.01063,-0.006 0.0158,-0.006 0.01753,-0.008 0.03545,-0.0169 0.05386,-0.0204 0.0048,-0.002 0.01063,-0.006 0.01602,-0.006 0.01864,-0.003 0.03724,-0.007 0.05623,-0.008 0.0053,6e-5 0.01204,-1.1e-4 0.01685,8.1e-4 0.02041,-3.6e-4 0.03838,0.004 0.05862,0.005 0.0049,0.001 0.0092,0.003 0.01476,0.003 0.024,0.004 0.04594,0.0165 0.06855,0.0262 0.0132,0.006 0.02591,0.012 0.03705,0.0211 0.007,0.006 0.01345,0.0143 0.01977,0.0224 0.01621,0.0138 0.03089,0.0277 0.0449,0.0424 0.567973,0.69941 1.409119,1.17978 2.300052,1.31263 0.891228,0.13219 1.841722,-0.0833 2.588221,-0.58778 0.92474,-0.62496 1.541489,-1.66235 2.089185,-2.73003 0.549085,-1.07047 1.076938,-2.23575 1.996997,-3.13834 0.976547,-0.95801 2.236054,-1.4673 3.361054,-2.05142 0.562062,-0.29183 1.100743,-0.61009 1.569239,-0.99768 0.467591,-0.38689 0.863145,-0.85071 1.104177,-1.38064 0.385957,-0.84852 0.352447,-1.89638 -0.09149,-2.71614 -0.443324,-0.82038 -1.301205,-1.42154 -2.222678,-1.5622 l -0.505774,-0.0794 1.670411,-2.38562 c 0.02811,-0.0399 0.06488,-0.0728 0.107657,-0.0965 0.106423,-0.0588 0.237145,-0.0518 0.336808,0.0169 z"
       style="color:#000000;font-style:normal;font-variant:normal;font-weight:normal;font-stretch:normal;font-size:medium;line-height:normal;font-family:sans-serif;font-variant-ligatures:normal;font-variant-position:normal;font-variant-caps:normal;font-variant-numeric:normal;font-variant-alternates:normal;font-variant-east-asian:normal;font-feature-settings:normal;font-variation-settings:normal;text-indent:0;text-align:start;text-decoration:none;text-decoration-line:none;text-decoration-style:solid;text-decoration-color:#000000;letter-spacing:normal;word-spacing:normal;text-transform:none;writing-mode:lr-tb;direction:ltr;text-orientation:mixed;dominant-baseline:auto;baseline-shift:baseline;text-anchor:start;white-space:normal;shape-padding:0;shape-margin:0;inline-size:0;clip-rule:nonzero;display:inline;overflow:visible;visibility:visible;opacity:1;isolation:auto;mix-blend-mode:normal;color-interpolation:sRGB;color-interpolation-filters:linearRGB;solid-color:#000000;solid-opacity:1;vector-effect:none;fill:#f2f2f2;fill-opacity:1;fill-rule:nonzero;stroke:#b87333;stroke-width:2;stroke-linecap:round;stroke-linejoin:miter;stroke-miterlimit:4;stroke-dasharray:none;stroke-dashoffset:0;stroke-opacity:1;color-rendering:auto;image-rendering:auto;shape-rendering:auto;text-rendering:auto;enable-background:accumulate;stop-color:#000000;stop-opacity:1" />
    <circle
       transform="matrix(-0.81915204,-0.57357644,-0.57357644,0.81915204,0,0)"
       r="2.4023817"
       cy="19.496414"
       cx="-99.504372"
       id="path880"
       style="fill:none;stroke:#b87333;stroke-width:2;stroke-linecap:round;stroke-linejoin:miter;stroke-miterlimit:4;stroke-dasharray:none;stroke-opacity:1" />
    <circle
       transform="matrix(-0.81915204,-0.57357644,-0.57357644,0.81915204,0,0)"
       r="2.4023817"
       cy="29.105957"
       cx="-92.297203"
       id="path882"
       style="fill:none;stroke:#b87333;stroke-width:2;stroke-linecap:round;stroke-linejoin:miter;stroke-miterlimit:4;stroke-dasharray:none;stroke-opacity:1" />
    <path
       sodipodi:nodetypes="csssssc"
       inkscape:original-d="m 59.897053,62.808191 c 8.88e-4,-1.5e-4 0.326426,5.11727 1.179941,6.69172 0.853508,1.57443 -3.150107,1.70542 -4.723821,2.55791 -1.573715,0.85245 -4.06872,3.01732 -6.101763,4.52579 -2.033028,1.50843 -1.706134,-3.14905 -2.557884,-4.72381 -0.851736,-1.57478 4.066966,-3.01708 6.101763,-4.52582 2.034817,-1.50877 4.526275,-3.67301 6.101764,-4.52579"
       inkscape:path-effect="#path-effect886"
       id="path884"
       d="m 59.897053,62.808191 c 1.221263,0.541394 2.140462,1.71597 2.372438,3.03156 0.231976,1.315591 -0.230056,2.733716 -1.192497,3.66016 -0.648094,0.623853 -1.480607,1.015868 -2.309477,1.36543 -0.82887,0.349561 -1.680041,0.672848 -2.414344,1.19248 -1.067518,0.755434 -1.814061,1.870916 -2.710994,2.822645 -0.448467,0.475864 -0.942608,0.916962 -1.513504,1.235784 -0.570895,0.318823 -1.224827,0.510881 -1.877265,0.467361 -0.519939,-0.03468 -1.027414,-0.219582 -1.454842,-0.517651 -0.427427,-0.298069 -0.774629,-0.707576 -1.009727,-1.172622 -0.470197,-0.930093 -0.473876,-2.063315 -0.09332,-3.033537 0.474746,-1.210342 1.488861,-2.13841 2.599301,-2.814601 1.11044,-0.676191 2.33461,-1.139876 3.502462,-1.711219 2.287477,-1.119092 4.367003,-2.661515 6.101764,-4.52579"
       style="display:inline;fill:#d68d4c;fill-opacity:1;stroke:#b87333;stroke-width:2;stroke-linecap:round;stroke-linejoin:miter;stroke-miterlimit:4;stroke-dasharray:none;stroke-opacity:1" />
  </g>
</svg>
