<?xml version="1.0" encoding="UTF-8" standalone="no"?>
<svg
   xmlns:dc="http://purl.org/dc/elements/1.1/"
   xmlns:cc="http://creativecommons.org/ns#"
   xmlns:rdf="http://www.w3.org/1999/02/22-rdf-syntax-ns#"
   xmlns:svg="http://www.w3.org/2000/svg"
   xmlns="http://www.w3.org/2000/svg"
   xmlns:sodipodi="http://sodipodi.sourceforge.net/DTD/sodipodi-0.dtd"
   xmlns:inkscape="http://www.inkscape.org/namespaces/inkscape"
   inkscape:export-ydpi="32"
   inkscape:export-xdpi="32"
   inkscape:export-filename="C:\Users\Callisto Joaquim\Documents\images (non-memes)\Project Ages of War\OF Energy Icon.png"
   sodipodi:docname="OF Energy Icon.svg"
   inkscape:version="1.0 (4035a4fb49, 2020-05-01)"
   id="svg8"
   version="1.1"
   viewBox="0 0 60 60"
   height="60mm"
   width="60mm">
  <defs
     id="defs2">
    <inkscape:path-effect
       effect="envelope"
       id="path-effect998"
       is_visible="true"
       lpeversion="1"
       yy="true"
       xx="false"
       bendpath1="m 54.536336,55.195271 c 6.491672,0.991687 13.151807,1.285635 20.4824,0"
       bendpath2="M 75.018736,55.195271 V 88.711325"
       bendpath3="m 54.536336,88.711325 c 6.586739,1.088936 13.46018,0.880969 20.4824,0"
       bendpath4="M 54.536336,55.195271 V 88.711325"
       bendpath1-nodetypes="cc"
       bendpath3-nodetypes="cc" />
  </defs>
  <sodipodi:namedview
     inkscape:window-maximized="1"
     inkscape:window-y="-8"
     inkscape:window-x="-8"
     inkscape:window-height="1137"
     inkscape:window-width="1920"
     inkscape:snap-grids="false"
     inkscape:snap-object-midpoints="true"
     inkscape:snap-bbox="true"
     inkscape:object-nodes="true"
     fit-margin-bottom="0"
     fit-margin-right="0"
     fit-margin-left="0"
     fit-margin-top="0"
     showgrid="false"
     inkscape:document-rotation="0"
     inkscape:current-layer="layer1"
     inkscape:document-units="mm"
     inkscape:cy="135.01339"
     inkscape:cx="106.52735"
     inkscape:zoom="3.2248878"
     inkscape:pageshadow="2"
     inkscape:pageopacity="0.0"
     borderopacity="1.0"
     bordercolor="#666666"
     pagecolor="#ffffff"
     id="base"
     inkscape:snap-smooth-nodes="false"
     inkscape:bbox-nodes="false"
     inkscape:bbox-paths="false"
     inkscape:snap-midpoints="false"
     inkscape:object-paths="true"
     inkscape:snap-intersection-paths="false">
    <inkscape:grid
       originy="-40"
       originx="-35"
       spacingy="1"
       spacingx="1"
       units="mm"
       id="grid833"
       type="xygrid" />
  </sodipodi:namedview>
  <metadata
     id="metadata5">
    <rdf:RDF>
      <cc:Work
         rdf:about="">
        <dc:format>image/svg+xml</dc:format>
        <dc:type
           rdf:resource="http://purl.org/dc/dcmitype/StillImage" />
        <dc:title />
      </cc:Work>
    </rdf:RDF>
  </metadata>
  <g
     transform="translate(-35,-40)"
     id="layer1"
     inkscape:groupmode="layer"
     inkscape:label="Calque 1">
    <rect
       y="40"
       x="35"
       height="60"
       width="60"
       id="rect835"
       style="display:none;fill:#b3b3b3;stroke:none;stroke-width:2;stroke-linecap:square;stroke-linejoin:round" />
    <path
       id="path882"
       style="fill:#a1c6c0;fill-opacity:1;stroke:#86aba5;stroke-width:1;stroke-linecap:round;stroke-linejoin:round;stroke-opacity:1"
       d="m 64.970177,43.465792 a 15.827428,3.1654855 0 0 0 -9.180744,0.591297 15.827428,3.1654855 0 0 0 -0.275199,0.04042 15.827428,3.1654855 0 0 0 -0.507583,0.0789 15.827428,3.1654855 0 0 0 -0.250665,0.04186 15.827428,3.1654855 0 0 0 -0.342076,0.05966 15.827428,3.1654855 0 0 0 -0.26558,0.04907 15.827428,3.1654855 0 0 0 -0.419536,0.08179 15.827428,3.1654855 0 0 0 -0.270871,0.05629 15.827428,3.1654855 0 0 0 -1.385627,0.340152 15.827428,3.1654855 0 0 0 -0.197739,0.05725 15.827428,3.1654855 0 0 0 -0.108254,0.03223 15.827428,3.1654855 0 0 0 -0.210249,0.06592 15.827428,3.1654855 0 0 0 -2.075073,1.048842 15.827428,3.1654855 0 0 0 -0.03753,0.03849 15.827428,3.1654855 0 0 0 -0.173205,0.231902 15.827428,3.1654855 0 0 0 -0.0202,0.03897 15.827428,3.1654855 0 0 0 -0.01828,0.03897 15.827428,3.1654855 0 0 0 -0.05918,0.273275 15.827428,3.1654855 0 0 0 0,0.0062 15.827428,3.1654855 0 0 0 0.0015,0.03897 15.827428,3.1654855 0 0 0 0.0043,0.03897 15.827428,3.1654855 0 0 0 0.0063,0.03897 15.827428,3.1654855 0 0 0 0.0087,0.03946 15.827428,3.1654855 0 0 0 0.01155,0.03897 15.827428,3.1654855 0 0 0 0.01347,0.03897 15.827428,3.1654855 0 0 0 0.01589,0.03897 15.827428,3.1654855 0 0 0 0.01877,0.03897 15.827428,3.1654855 0 0 0 0.02069,0.03897 15.827428,3.1654855 0 0 0 0.02308,0.03849 15.827428,3.1654855 0 0 0 0.02598,0.03897 15.827428,3.1654855 0 0 0 0.02791,0.03849 15.827428,3.1654855 0 0 0 0.03031,0.03897 15.827428,3.1654855 0 0 0 0.03271,0.03849 15.827428,3.1654855 0 0 0 0.0356,0.03849 15.827428,3.1654855 0 0 0 0.03753,0.038 15.827428,3.1654855 0 0 0 0.03993,0.03849 15.827428,3.1654855 0 0 0 0.04234,0.038 15.827428,3.1654855 0 0 0 0.04426,0.03849 15.827428,3.1654855 0 0 0 0.04715,0.03753 15.827428,3.1654855 0 0 0 0.04956,0.038 15.827428,3.1654855 0 0 0 0.05148,0.03753 15.827428,3.1654855 0 0 0 0.05389,0.038 15.827428,3.1654855 0 0 0 0.05629,0.03704 15.827428,3.1654855 0 0 0 0.0587,0.03753 15.827428,3.1654855 0 0 0 0.0611,0.03705 15.827428,3.1654855 0 0 0 0.06303,0.03704 15.827428,3.1654855 0 0 0 0.06543,0.03705 15.827428,3.1654855 0 0 0 0.06784,0.03656 15.827428,3.1654855 0 0 0 0.07024,0.03656 15.827428,3.1654855 0 0 0 0.07217,0.03609 15.827428,3.1654855 0 0 0 0.07457,0.03609 15.827428,3.1654855 0 0 0 0.07698,0.03609 15.827428,3.1654855 0 0 0 0.0789,0.03609 15.827428,3.1654855 0 0 0 0.08083,0.0356 15.827428,3.1654855 0 0 0 0.08371,0.03512 15.827428,3.1654855 0 0 0 0.08516,0.03512 15.827428,3.1654855 0 0 0 0.08804,0.03512 15.827428,3.1654855 0 0 0 0.08949,0.03464 15.827428,3.1654855 0 0 0 0.09238,0.03464 15.827428,3.1654855 0 0 0 0.09382,0.03416 15.827428,3.1654855 0 0 0 0.09622,0.03416 15.827428,3.1654855 0 0 0 0.09863,0.03368 15.827428,3.1654855 0 0 0 0.100073,0.03368 15.827428,3.1654855 0 0 0 0.10248,0.03319 15.827428,3.1654855 0 0 0 0.104884,0.0332 15.827428,3.1654855 0 0 0 0.106328,0.03272 15.827428,3.1654855 0 0 0 0.108734,0.03223 15.827428,3.1654855 0 0 0 0.110655,0.03223 15.827428,3.1654855 0 0 0 0.112102,0.03223 15.827428,3.1654855 0 0 0 0.114508,0.03176 15.827428,3.1654855 0 0 0 0.11691,0.03127 15.827428,3.1654855 0 0 0 0.118356,0.03127 15.827428,3.1654855 0 0 0 0.120282,0.03079 15.827428,3.1654855 0 0 0 0.122204,0.03031 15.827428,3.1654855 0 0 0 0.12413,0.03031 15.827428,3.1654855 0 0 0 0.125571,0.02983 15.827428,3.1654855 0 0 0 0.127978,0.02983 15.827428,3.1654855 0 0 0 0.129421,0.02936 15.827428,3.1654855 0 0 0 0.131348,0.02886 15.827428,3.1654855 0 0 0 0.133269,0.02839 15.827428,3.1654855 0 0 0 0.135195,0.02839 15.827428,3.1654855 0 0 0 0.136639,0.0279 15.827428,3.1654855 0 0 0 0.13808,0.0279 15.827428,3.1654855 0 0 0 0.140489,0.02694 15.827428,3.1654855 0 0 0 0.14145,0.02694 15.827428,3.1654855 0 0 0 0.143373,0.02694 15.827428,3.1654855 0 0 0 0.145298,0.02598 15.827428,3.1654855 0 0 0 0.146741,0.02599 15.827428,3.1654855 0 0 0 0.148187,0.0255 15.827428,3.1654855 0 0 0 0.149628,0.02502 15.827428,3.1654855 0 0 0 0.151552,0.02502 15.827428,3.1654855 0 0 0 0.152515,0.02404 15.827428,3.1654855 0 0 0 0.154441,0.02407 15.827428,3.1654855 0 0 0 0.155883,0.02357 15.827428,3.1654855 0 0 0 0.157326,0.02357 15.827428,3.1654855 0 0 0 0.158769,0.02261 15.827428,3.1654855 0 0 0 0.159733,0.02261 15.827428,3.1654855 0 0 0 0.161656,0.02212 15.827428,3.1654855 0 0 0 0.162618,0.02166 15.827428,3.1654855 0 0 0 0.164543,0.02116 15.827428,3.1654855 0 0 0 0.165507,0.0207 15.827428,3.1654855 0 0 0 0.166467,0.0202 15.827428,3.1654855 0 0 0 0.167911,0.0202 15.827428,3.1654855 0 0 0 0.169355,0.01973 15.827428,3.1654855 0 0 0 0.170317,0.01923 15.827428,3.1654855 0 0 0 0.171759,0.01877 15.827428,3.1654855 0 0 0 0.172722,0.01828 15.827428,3.1654855 0 0 0 0.173685,0.01781 15.827428,3.1654855 0 0 0 0.174648,0.01732 15.827428,3.1654855 0 0 0 0.176089,0.01732 15.827428,3.1654855 0 0 0 0.177053,0.01636 15.827428,3.1654855 0 0 0 0.178015,0.01636 15.827428,3.1654855 0 0 0 0.178976,0.01589 15.827428,3.1654855 0 0 0 0.17994,0.01491 15.827428,3.1654855 0 0 0 0.1809,0.01491 15.827428,3.1654855 0 0 0 0.181863,0.01443 15.827428,3.1654855 0 0 0 0.182826,0.01395 15.827428,3.1654855 0 0 0 0.183307,0.01347 15.827428,3.1654855 0 0 0 0.184751,0.01298 15.827428,3.1654855 0 0 0 0.18475,0.01251 15.827428,3.1654855 0 0 0 0.186194,0.01202 15.827428,3.1654855 0 0 0 0.186674,0.01202 15.827428,3.1654855 0 0 0 0.187157,0.01106 15.827428,3.1654855 0 0 0 0.188118,0.0106 15.827428,3.1654855 0 0 0 0.1886,0.01059 15.827428,3.1654855 0 0 0 0.189081,0.0096 15.827428,3.1654855 0 0 0 0.190041,0.0091 15.827428,3.1654855 0 0 0 0.190525,0.0091 15.827428,3.1654855 0 0 0 0.191005,0.0082 15.827428,3.1654855 0 0 0 0.191485,0.0082 15.827428,3.1654855 0 0 0 0.191967,0.0073 15.827428,3.1654855 0 0 0 0.192449,0.0073 15.827428,3.1654855 0 0 0 0.192928,0.0062 15.827428,3.1654855 0 0 0 0.192929,0.0062 15.827428,3.1654855 0 0 0 0.193411,0.0053 15.827428,3.1654855 0 0 0 0.193892,0.0053 15.827428,3.1654855 0 0 0 0.194372,0.0044 15.827428,3.1654855 0 0 0 0.194375,0.0044 15.827428,3.1654855 0 0 0 0.194852,0.0034 15.827428,3.1654855 0 0 0 0.194854,0.0034 15.827428,3.1654855 0 0 0 0.194854,0.0024 15.827428,3.1654855 0 0 0 0.195335,0.0024 15.827428,3.1654855 0 0 0 0.195335,0.0015 15.827428,3.1654855 0 0 0 0.195335,0.0015 15.827428,3.1654855 0 0 0 0.195816,4.92e-4 15.827428,3.1654855 0 0 0 0.195335,4.94e-4 15.827428,3.1654855 0 0 0 0.02983,0 15.827428,3.1654855 0 0 0 0.195335,-4.94e-4 15.827428,3.1654855 0 0 0 0.195335,-10e-4 15.827428,3.1654855 0 0 0 0.195335,-10e-4 15.827428,3.1654855 0 0 0 0.195335,-0.002 15.827428,3.1654855 0 0 0 0.195335,-0.0024 15.827428,3.1654855 0 0 0 0.195334,-0.0024 15.827428,3.1654855 0 0 0 0.194855,-0.0034 15.827428,3.1654855 0 0 0 0.194372,-0.0038 15.827428,3.1654855 0 0 0 0.194373,-0.0038 15.827428,3.1654855 0 0 0 0.194372,-0.0048 15.827428,3.1654855 0 0 0 0.193893,-0.0053 15.827428,3.1654855 0 0 0 0.19341,-0.0053 15.827428,3.1654855 0 0 0 0.192929,-0.0062 15.827428,3.1654855 0 0 0 0.19293,-0.0067 15.827428,3.1654855 0 0 0 0.192447,-0.0067 15.827428,3.1654855 0 0 0 0.191968,-0.0077 15.827428,3.1654855 0 0 0 0.191005,-0.0077 15.827428,3.1654855 0 0 0 0.191004,-0.0087 15.827428,3.1654855 0 0 0 0.190524,-0.0091 15.827428,3.1654855 0 0 0 0.189562,-0.0091 15.827428,3.1654855 0 0 0 0.189561,-0.0101 15.827428,3.1654855 0 0 0 0.188118,-0.0101 15.827428,3.1654855 0 0 0 0.188119,-0.0106 15.827428,3.1654855 0 0 0 0.187155,-0.01155 15.827428,3.1654855 0 0 0 0.186676,-0.01155 15.827428,3.1654855 0 0 0 0.185712,-0.01251 15.827428,3.1654855 0 0 0 0.185231,-0.01251 15.827428,3.1654855 0 0 0 0.18427,-0.01298 15.827428,3.1654855 0 0 0 0.183306,-0.01347 15.827428,3.1654855 0 0 0 0.182345,-0.01395 15.827428,3.1654855 0 0 0 0.181863,-0.01444 15.827428,3.1654855 0 0 0 0.180902,-0.01493 15.827428,3.1654855 0 0 0 0.179458,-0.0154 15.827428,3.1654855 0 0 0 0.178977,-0.01587 15.827428,3.1654855 0 0 0 0.178014,-0.01636 15.827428,3.1654855 0 0 0 0.176572,-0.01685 15.827428,3.1654855 0 0 0 0.17609,-0.01685 15.827428,3.1654855 0 0 0 0.174647,-0.01781 15.827428,3.1654855 0 0 0 0.173684,-0.01781 15.827428,3.1654855 0 0 0 0.172722,-0.01828 15.827428,3.1654855 0 0 0 0.171279,-0.01877 15.827428,3.1654855 0 0 0 0.170317,-0.01924 15.827428,3.1654855 0 0 0 0.168873,-0.01973 15.827428,3.1654855 0 0 0 0.167912,-0.0202 15.827428,3.1654855 0 0 0 0.166467,-0.0202 15.827428,3.1654855 0 0 0 0.165024,-0.02116 15.827428,3.1654855 0 0 0 0.164063,-0.02116 15.827428,3.1654855 0 0 0 0.162618,-0.02165 15.827428,3.1654855 0 0 0 0.161175,-0.02212 15.827428,3.1654855 0 0 0 0.160214,-0.02262 15.827428,3.1654855 0 0 0 0.158288,-0.02308 15.827428,3.1654855 0 0 0 0.156845,-0.02308 15.827428,3.1654855 0 0 0 0.155884,-0.02357 15.827428,3.1654855 0 0 0 0.153959,-0.02407 15.827428,3.1654855 0 0 0 0.152515,-0.02453 15.827428,3.1654855 0 0 0 0.151072,-0.02502 15.827428,3.1654855 0 0 0 0.149628,-0.02502 15.827428,3.1654855 0 0 0 0.148185,-0.0255 15.827428,3.1654855 0 0 0 0.14626,-0.02599 15.827428,3.1654855 0 0 0 0.144819,-0.02646 15.827428,3.1654855 0 0 0 0.143373,-0.02646 15.827428,3.1654855 0 0 0 0.14145,-0.02694 15.827428,3.1654855 0 0 0 0.140005,-0.02742 15.827428,3.1654855 0 0 0 0.138082,-0.02743 15.827428,3.1654855 0 0 0 0.136157,-0.02839 15.827428,3.1654855 0 0 0 0.134714,-0.02839 15.827428,3.1654855 0 0 0 0.132789,-0.02839 15.827428,3.1654855 0 0 0 0.131347,-0.02935 15.827428,3.1654855 0 0 0 0.12942,-0.02935 15.827428,3.1654855 0 0 0 0.127498,-0.02935 15.827428,3.1654855 0 0 0 0.125573,-0.02983 15.827428,3.1654855 0 0 0 0.123647,-0.03031 15.827428,3.1654855 0 0 0 0.122205,-0.03079 15.827428,3.1654855 0 0 0 0.119799,-0.03079 15.827428,3.1654855 0 0 0 0.117875,-0.03127 15.827428,3.1654855 0 0 0 0.11643,-0.03127 15.827428,3.1654855 0 0 0 0.114027,-0.03176 15.827428,3.1654855 0 0 0 0.112581,-0.03223 15.827428,3.1654855 0 0 0 0.110177,-0.03223 15.827428,3.1654855 0 0 0 0.108253,-0.03272 15.827428,3.1654855 0 0 0 0.106327,-0.03272 15.827428,3.1654855 0 0 0 0.103922,-0.0332 15.827428,3.1654855 0 0 0 0.102478,-0.0332 15.827428,3.1654855 0 0 0 0.100073,-0.03368 15.827428,3.1654855 0 0 0 0.09767,-0.03368 15.827428,3.1654855 0 0 0 0.09622,-0.03416 15.827428,3.1654855 0 0 0 0.09382,-0.03416 15.827428,3.1654855 0 0 0 0.09142,-0.03464 15.827428,3.1654855 0 0 0 0.08949,-0.03464 15.827428,3.1654855 0 0 0 0.08756,-0.03512 15.827428,3.1654855 0 0 0 0.08516,-0.03512 15.827428,3.1654855 0 0 0 0.08323,-0.0356 15.827428,3.1654855 0 0 0 0.08083,-0.0356 15.827428,3.1654855 0 0 0 0.07842,-0.0356 15.827428,3.1654855 0 0 0 0.0765,-0.03609 15.827428,3.1654855 0 0 0 0.07409,-0.03609 15.827428,3.1654855 0 0 0 0.07216,-0.03656 15.827428,3.1654855 0 0 0 0.06928,-0.03656 15.827428,3.1654855 0 0 0 0.06783,-0.03657 15.827428,3.1654855 0 0 0 0.06495,-0.03705 15.827428,3.1654855 0 0 0 0.06303,-0.03656 15.827428,3.1654855 0 0 0 0.06062,-0.03753 15.827428,3.1654855 0 0 0 0.05822,-0.03704 15.827428,3.1654855 0 0 0 0.05581,-0.03753 15.827428,3.1654855 0 0 0 0.05389,-0.03753 15.827428,3.1654855 0 0 0 0.051,-0.03801 15.827428,3.1654855 0 0 0 0.04907,-0.038 15.827428,3.1654855 0 0 0 0.04667,-0.03753 15.827428,3.1654855 0 0 0 0.04426,-0.03849 15.827428,3.1654855 0 0 0 0.04186,-0.038 15.827428,3.1654855 0 0 0 0.03993,-0.03849 15.827428,3.1654855 0 0 0 0.03705,-0.03801 15.827428,3.1654855 0 0 0 0.03464,-0.03849 15.827428,3.1654855 0 0 0 0.03272,-0.03897 15.827428,3.1654855 0 0 0 0.02983,-0.03849 15.827428,3.1654855 0 0 0 0.0279,-0.03849 15.827428,3.1654855 0 0 0 0.02502,-0.03897 15.827428,3.1654855 0 0 0 0.0231,-0.03897 15.827428,3.1654855 0 0 0 0.02069,-0.03849 15.827428,3.1654855 0 0 0 0.0178,-0.03897 15.827428,3.1654855 0 0 0 0.01587,-0.03897 15.827428,3.1654855 0 0 0 0.01299,-0.03897 15.827428,3.1654855 0 0 0 0.01106,-0.03945 15.827428,3.1654855 0 0 0 0.0082,-0.03897 15.827428,3.1654855 0 0 0 0.0062,-0.03897 15.827428,3.1654855 0 0 0 0.0038,-0.03897 15.827428,3.1654855 0 0 0 9.31e-4,-0.03946 15.827428,3.1654855 0 0 0 -0.0015,-0.03897 15.827428,3.1654855 0 0 0 -0.002,-0.02502 15.827428,3.1654855 0 0 0 -0.0024,-0.01973 15.827428,3.1654855 0 0 0 -0.02646,-0.117396 15.827428,3.1654855 0 0 0 -0.01347,-0.03897 15.827428,3.1654855 0 0 0 -0.07505,-0.150108 15.827428,3.1654855 0 0 0 -0.0255,-0.03849 15.827428,3.1654855 0 0 0 -0.05773,-0.07746 15.827428,3.1654855 0 0 0 -0.03223,-0.03849 15.827428,3.1654855 0 0 0 -0.08372,-0.08852 15.827428,3.1654855 0 0 0 -0.03416,-0.03223 15.827428,3.1654855 0 0 0 -0.08041,-0.07075 15.827428,3.1654855 0 0 0 -0.04667,-0.03801 15.827428,3.1654855 0 0 0 -0.02694,-0.02116 15.827428,3.1654855 0 0 0 -0.02935,-0.02212 15.827428,3.1654855 0 0 0 -0.04379,-0.03223 15.827428,3.1654855 0 0 0 -0.109695,-0.07506 15.827428,3.1654855 0 0 0 -0.04523,-0.02935 15.827428,3.1654855 0 0 0 -0.750547,-0.385377 15.827428,3.1654855 0 0 0 -0.06592,-0.02743 15.827428,3.1654855 0 0 0 -0.08516,-0.03513 15.827428,3.1654855 0 0 0 -1.175377,-0.399329 15.827428,3.1654855 0 0 0 -0.112101,-0.03176 15.827428,3.1654855 0 0 0 -0.247295,-0.06784 15.827428,3.1654855 0 0 0 -0.118837,-0.03127 15.827428,3.1654855 0 0 0 -1.054617,-0.246333 15.827428,3.1654855 0 0 0 -0.09478,-0.01973 15.827428,3.1654855 0 0 0 -0.286267,-0.05822 15.827428,3.1654855 0 0 0 -0.378161,-0.07169 15.827428,3.1654855 0 0 0 -0.499885,-0.08805 15.827428,3.1654855 0 0 0 -0.125572,-0.02116 15.827428,3.1654855 0 0 0 -0.12894,-0.02116 15.827428,3.1654855 0 0 0 -0.152516,-0.02453 15.827428,3.1654855 0 0 0 -0.127496,-0.01973 15.827428,3.1654855 0 0 0 -0.07361,-0.01155 15.827428,3.1654855 0 0 0 -0.258843,-0.03897 15.827428,3.1654855 0 0 0 -2.240098,-0.273758 15.827428,3.1654855 0 0 0 -0.25355,-0.0255 15.827428,3.1654855 0 0 0 -2.467668,-0.188118 15.827428,3.1654855 0 0 0 -0.285785,-0.01636 15.827428,3.1654855 0 0 0 -1.816712,-0.07505 15.827428,3.1654855 0 0 0 -0.147223,-0.0038 15.827428,3.1654855 0 0 0 -0.165505,-0.0044 15.827428,3.1654855 0 0 0 -0.133271,-0.0034 15.827428,3.1654855 0 0 0 -0.696181,-0.01347 15.827428,3.1654855 0 0 0 -0.172241,-0.002 15.827428,3.1654855 0 0 0 -0.113544,-0.0015 15.827428,3.1654855 0 0 0 -0.24874,-0.0024 15.827428,3.1654855 0 0 0 -0.138563,-0.001 15.827428,3.1654855 0 0 0 -0.113544,-4.92e-4 15.827428,3.1654855 0 0 0 -0.333898,-10e-4 15.827428,3.1654855 0 0 0 -0.02887,0 15.827428,3.1654855 0 0 0 -0.02983,0 z" />
    <ellipse
       style="fill:#a1c6c0;fill-opacity:1;stroke:#86aba5;stroke-width:1;stroke-linecap:round;stroke-linejoin:round;stroke-opacity:1"
       id="path909"
       cx="65.000038"
       cy="90.576141"
       rx="15.827428"
       ry="3.1654856" />
    <path
       id="rect836"
       style="fill:#66ffff;fill-opacity:1;stroke:#c8ffff;stroke-width:1;stroke-linecap:round;stroke-linejoin:round;stroke-opacity:1"
       d="m 51.035008,50.91362 v 39.650108 a 13.965377,2.7930755 0 0 0 -4.93e-4,0.01251 13.965377,2.7930755 0 0 0 13.965487,2.792905 13.965377,2.7930755 0 0 0 13.965487,-2.792905 V 50.91362 a 15.827428,3.1654856 0 0 1 -0.04571,0.01732 15.827428,3.1654856 0 0 1 -0.09382,0.03416 15.827428,3.1654856 0 0 1 -0.09622,0.03416 15.827428,3.1654856 0 0 1 -0.09863,0.03368 15.827428,3.1654856 0 0 1 -0.100073,0.03368 15.827428,3.1654856 0 0 1 -0.102479,0.0332 15.827428,3.1654856 0 0 1 -0.104884,0.03272 15.827428,3.1654856 0 0 1 -0.106327,0.0332 15.827428,3.1654856 0 0 1 -0.108734,0.03224 15.827428,3.1654856 0 0 1 -0.110176,0.03224 15.827428,3.1654856 0 0 1 -0.112583,0.03224 15.827428,3.1654856 0 0 1 -0.114506,0.03175 15.827428,3.1654856 0 0 1 -0.116431,0.03127 15.827428,3.1654856 0 0 1 -0.118837,0.03127 15.827428,3.1654856 0 0 1 -0.120281,0.03079 15.827428,3.1654856 0 0 1 -0.122204,0.03031 15.827428,3.1654856 0 0 1 -0.124129,0.03031 15.827428,3.1654856 0 0 1 -0.125573,0.02983 15.827428,3.1654856 0 0 1 -0.127978,0.02983 15.827428,3.1654856 0 0 1 -0.129421,0.02887 15.827428,3.1654856 0 0 1 -0.131346,0.02935 15.827428,3.1654856 0 0 1 -0.133271,0.02839 15.827428,3.1654856 0 0 1 -0.135194,0.02839 15.827428,3.1654856 0 0 1 -0.136639,0.0279 15.827428,3.1654856 0 0 1 -0.138081,0.02791 15.827428,3.1654856 0 0 1 -0.140006,0.02694 15.827428,3.1654856 0 0 1 -0.141931,0.02694 15.827428,3.1654856 0 0 1 -0.143374,0.02646 15.827428,3.1654856 0 0 1 -0.145298,0.02646 15.827428,3.1654856 0 0 1 -0.146261,0.02598 15.827428,3.1654856 0 0 1 -0.148666,0.0255 15.827428,3.1654856 0 0 1 -0.149629,0.02502 15.827428,3.1654856 0 0 1 -0.151553,0.02454 15.827428,3.1654856 0 0 1 -0.152515,0.02454 15.827428,3.1654856 0 0 1 -0.15444,0.02406 15.827428,3.1654856 0 0 1 -0.155883,0.02357 15.827428,3.1654856 0 0 1 -0.157326,0.02309 15.827428,3.1654856 0 0 1 -0.15877,0.02309 15.827428,3.1654856 0 0 1 -0.159732,0.02261 15.827428,3.1654856 0 0 1 -0.161656,0.02165 15.827428,3.1654856 0 0 1 -0.162619,0.02165 15.827428,3.1654856 0 0 1 -0.164543,0.02165 15.827428,3.1654856 0 0 1 -0.165025,0.02069 15.827428,3.1654856 0 0 1 -0.166948,0.02021 15.827428,3.1654856 0 0 1 -0.167912,0.02021 15.827428,3.1654856 0 0 1 -0.169354,0.01973 15.827428,3.1654856 0 0 1 -0.170317,0.01925 15.827428,3.1654856 0 0 1 -0.17176,0.01876 15.827428,3.1654856 0 0 1 -0.172241,0.01828 15.827428,3.1654856 0 0 1 -0.174166,0.0178 15.827428,3.1654856 0 0 1 -0.174646,0.01732 15.827428,3.1654856 0 0 1 -0.176091,0.01732 15.827428,3.1654856 0 0 1 -0.177052,0.01636 15.827428,3.1654856 0 0 1 -0.178014,0.01636 15.827428,3.1654856 0 0 1 -0.178977,0.0154 15.827428,3.1654856 0 0 1 -0.17994,0.0154 15.827428,3.1654856 0 0 1 -0.180901,0.01492 15.827428,3.1654856 0 0 1 -0.181863,0.01443 15.827428,3.1654856 0 0 1 -0.182826,0.01395 15.827428,3.1654856 0 0 1 -0.183307,0.01347 15.827428,3.1654856 0 0 1 -0.18475,0.01299 15.827428,3.1654856 0 0 1 -0.184751,0.01251 15.827428,3.1654856 0 0 1 -0.186193,0.01203 15.827428,3.1654856 0 0 1 -0.186675,0.01203 15.827428,3.1654856 0 0 1 -0.187156,0.01107 15.827428,3.1654856 0 0 1 -0.188118,0.01058 15.827428,3.1654856 0 0 1 -0.188599,0.0101 15.827428,3.1654856 0 0 1 -0.189081,0.0101 15.827428,3.1654856 0 0 1 -0.190043,0.0091 15.827428,3.1654856 0 0 1 -0.190523,0.0091 15.827428,3.1654856 0 0 1 -0.191005,0.0082 15.827428,3.1654856 0 0 1 -0.191486,0.0077 15.827428,3.1654856 0 0 1 -0.191967,0.0077 15.827428,3.1654856 0 0 1 -0.192449,0.0067 15.827428,3.1654856 0 0 1 -0.192448,0.0067 15.827428,3.1654856 0 0 1 -0.19341,0.0058 15.827428,3.1654856 0 0 1 -0.193411,0.0058 15.827428,3.1654856 0 0 1 -0.193891,0.0048 15.827428,3.1654856 0 0 1 -0.194373,0.0048 15.827428,3.1654856 0 0 1 -0.194373,0.0043 15.827428,3.1654856 0 0 1 -0.194853,0.0034 15.827428,3.1654856 0 0 1 -0.194854,0.0034 15.827428,3.1654856 0 0 1 -0.194854,0.0024 15.827428,3.1654856 0 0 1 -0.195335,0.0024 15.827428,3.1654856 0 0 1 -0.195335,0.0015 15.827428,3.1654856 0 0 1 -0.195335,0.0015 15.827428,3.1654856 0 0 1 -0.195816,4.93e-4 15.827428,3.1654856 0 0 1 -0.195335,4.93e-4 15.827428,3.1654856 0 0 1 -0.02887,0 15.827428,3.1654856 0 0 1 -0.195335,-4.93e-4 15.827428,3.1654856 0 0 1 -0.195335,-9.61e-4 15.827428,3.1654856 0 0 1 -0.195335,-9.6e-4 15.827428,3.1654856 0 0 1 -0.195335,-0.0019 15.827428,3.1654856 0 0 1 -0.195334,-0.0024 15.827428,3.1654856 0 0 1 -0.195335,-0.0024 15.827428,3.1654856 0 0 1 -0.194855,-0.0034 15.827428,3.1654856 0 0 1 -0.194372,-0.0038 15.827428,3.1654856 0 0 1 -0.194372,-0.0039 15.827428,3.1654856 0 0 1 -0.194372,-0.0048 15.827428,3.1654856 0 0 1 -0.193892,-0.0053 15.827428,3.1654856 0 0 1 -0.193412,-0.0053 15.827428,3.1654856 0 0 1 -0.192928,-0.0063 15.827428,3.1654856 0 0 1 -0.192931,-0.0067 15.827428,3.1654856 0 0 1 -0.192448,-0.0067 15.827428,3.1654856 0 0 1 -0.191966,-0.0077 15.827428,3.1654856 0 0 1 -0.191005,-0.0077 15.827428,3.1654856 0 0 1 -0.191004,-0.0087 15.827428,3.1654856 0 0 1 -0.190525,-0.0091 15.827428,3.1654856 0 0 1 -0.189561,-0.0091 15.827428,3.1654856 0 0 1 -0.189561,-0.0101 15.827428,3.1654856 0 0 1 -0.18812,-0.01011 15.827428,3.1654856 0 0 1 -0.188118,-0.01106 15.827428,3.1654856 0 0 1 -0.187154,-0.01107 15.827428,3.1654856 0 0 1 -0.186677,-0.01155 15.827428,3.1654856 0 0 1 -0.185711,-0.01251 15.827428,3.1654856 0 0 1 -0.185233,-0.01261 15.827428,3.1654856 0 0 1 -0.184267,-0.01299 15.827428,3.1654856 0 0 1 -0.183307,-0.01347 15.827428,3.1654856 0 0 1 -0.182346,-0.01395 15.827428,3.1654856 0 0 1 -0.181863,-0.01443 15.827428,3.1654856 0 0 1 -0.1809,-0.01492 15.827428,3.1654856 0 0 1 -0.179459,-0.01539 15.827428,3.1654856 0 0 1 -0.178977,-0.01588 15.827428,3.1654856 0 0 1 -0.178015,-0.01636 15.827428,3.1654856 0 0 1 -0.177052,-0.01684 15.827428,3.1654856 0 0 1 -0.175609,-0.01684 15.827428,3.1654856 0 0 1 -0.174646,-0.0178 15.827428,3.1654856 0 0 1 -0.173685,-0.0178 15.827428,3.1654856 0 0 1 -0.172722,-0.01828 15.827428,3.1654856 0 0 1 -0.171281,-0.01876 15.827428,3.1654856 0 0 1 -0.170315,-0.01925 15.827428,3.1654856 0 0 1 -0.168874,-0.01973 15.827428,3.1654856 0 0 1 -0.167911,-0.02021 15.827428,3.1654856 0 0 1 -0.166467,-0.02021 15.827428,3.1654856 0 0 1 -0.165507,-0.02117 15.827428,3.1654856 0 0 1 -0.16358,-0.02117 15.827428,3.1654856 0 0 1 -0.162617,-0.02165 15.827428,3.1654856 0 0 1 -0.161657,-0.02213 15.827428,3.1654856 0 0 1 -0.159733,-0.02261 15.827428,3.1654856 0 0 1 -0.158289,-0.02309 15.827428,3.1654856 0 0 1 -0.157326,-0.02309 15.827428,3.1654856 0 0 1 -0.155402,-0.02358 15.827428,3.1654856 0 0 1 -0.154439,-0.02406 15.827428,3.1654856 0 0 1 -0.152515,-0.02454 15.827428,3.1654856 0 0 1 -0.151074,-0.02502 15.827428,3.1654856 0 0 1 -0.149628,-0.02502 15.827428,3.1654856 0 0 1 -0.147704,-0.0255 15.827428,3.1654856 0 0 1 -0.146741,-0.02598 15.827428,3.1654856 0 0 1 -0.144817,-0.02646 15.827428,3.1654856 0 0 1 -0.142893,-0.02646 15.827428,3.1654856 0 0 1 -0.14145,-0.02694 15.827428,3.1654856 0 0 1 -0.140006,-0.02742 15.827428,3.1654856 0 0 1 -0.13808,-0.02742 15.827428,3.1654856 0 0 1 -0.136639,-0.02839 15.827428,3.1654856 0 0 1 -0.134715,-0.02839 15.827428,3.1654856 0 0 1 -0.132789,-0.02839 15.827428,3.1654856 0 0 1 -0.130865,-0.02887 15.827428,3.1654856 0 0 1 -0.129421,-0.02935 15.827428,3.1654856 0 0 1 -0.127497,-0.02983 15.827428,3.1654856 0 0 1 -0.125572,-0.02983 15.827428,3.1654856 0 0 1 -0.12413,-0.03031 15.827428,3.1654856 0 0 1 -0.121723,-0.03079 15.827428,3.1654856 0 0 1 -0.12028,-0.03079 15.827428,3.1654856 0 0 1 -0.117875,-0.03127 15.827428,3.1654856 0 0 1 -0.11643,-0.03127 15.827428,3.1654856 0 0 1 -0.114025,-0.03175 15.827428,3.1654856 0 0 1 -0.112102,-0.03224 15.827428,3.1654856 0 0 1 -0.110658,-0.03224 15.827428,3.1654856 0 0 1 -0.108251,-0.03224 15.827428,3.1654856 0 0 1 -0.106328,-0.0332 15.827428,3.1654856 0 0 1 -0.103923,-0.03272 15.827428,3.1654856 0 0 1 -0.10248,-0.03368 15.827428,3.1654856 0 0 1 -0.100073,-0.0332 15.827428,3.1654856 0 0 1 -0.09767,-0.03416 15.827428,3.1654856 0 0 1 -0.09623,-0.03416 15.827428,3.1654856 0 0 1 -0.09382,-0.03416 15.827428,3.1654856 0 0 1 -0.03127,-0.01203 z" />
    <path
       d="m 80.827465,90.576139 a 15.827428,3.1654855 0 0 1 -9.31e-4,0.03946 15.827428,3.1654855 0 0 1 -0.0038,0.03897 15.827428,3.1654855 0 0 1 -0.0062,0.03897 15.827428,3.1654855 0 0 1 -0.0082,0.03897 15.827428,3.1654855 0 0 1 -0.01106,0.03945 15.827428,3.1654855 0 0 1 -0.01299,0.03897 15.827428,3.1654855 0 0 1 -0.01587,0.03897 15.827428,3.1654855 0 0 1 -0.0178,0.03897 15.827428,3.1654855 0 0 1 -0.02069,0.03849 15.827428,3.1654855 0 0 1 -0.0231,0.03897 15.827428,3.1654855 0 0 1 -0.02502,0.03897 15.827428,3.1654855 0 0 1 -0.0279,0.03849 15.827428,3.1654855 0 0 1 -0.02983,0.03849 15.827428,3.1654855 0 0 1 -0.03272,0.03897 15.827428,3.1654855 0 0 1 -0.03464,0.03849 15.827428,3.1654855 0 0 1 -0.03705,0.038 15.827428,3.1654855 0 0 1 -0.03993,0.03849 15.827428,3.1654855 0 0 1 -0.04186,0.038 15.827428,3.1654855 0 0 1 -0.04426,0.03849 15.827428,3.1654855 0 0 1 -0.04667,0.03753 15.827428,3.1654855 0 0 1 -0.04907,0.038 15.827428,3.1654855 0 0 1 -0.051,0.03801 15.827428,3.1654855 0 0 1 -0.05389,0.03753 15.827428,3.1654855 0 0 1 -0.05581,0.03753 15.827428,3.1654855 0 0 1 -0.05822,0.03705 15.827428,3.1654855 0 0 1 -0.06062,0.03753 15.827428,3.1654855 0 0 1 -0.06303,0.03657 15.827428,3.1654855 0 0 1 -0.06495,0.03705 15.827428,3.1654855 0 0 1 -0.06784,0.03656 15.827428,3.1654855 0 0 1 -0.06928,0.03657 15.827428,3.1654855 0 0 1 -0.07217,0.03656 15.827428,3.1654855 0 0 1 -0.07409,0.03609 15.827428,3.1654855 0 0 1 -0.0765,0.03609 15.827428,3.1654855 0 0 1 -0.07842,0.0356 15.827428,3.1654855 0 0 1 -0.08083,0.0356 15.827428,3.1654855 0 0 1 -0.08323,0.0356 15.827428,3.1654855 0 0 1 -0.08516,0.03512 15.827428,3.1654855 0 0 1 -0.08756,0.03512 15.827428,3.1654855 0 0 1 -0.08949,0.03464 15.827428,3.1654855 0 0 1 -0.09142,0.03464 15.827428,3.1654855 0 0 1 -0.09382,0.03416 15.827428,3.1654855 0 0 1 -0.09622,0.03416 15.827428,3.1654855 0 0 1 -0.09767,0.03367 15.827428,3.1654855 0 0 1 -0.100073,0.03368 15.827428,3.1654855 0 0 1 -0.102479,0.0332 15.827428,3.1654855 0 0 1 -0.103922,0.0332 15.827428,3.1654855 0 0 1 -0.106328,0.03272 15.827428,3.1654855 0 0 1 -0.108252,0.03272 15.827428,3.1654855 0 0 1 -0.110177,0.03223 15.827428,3.1654855 0 0 1 -0.112581,0.03223 15.827428,3.1654855 0 0 1 -0.114027,0.03176 15.827428,3.1654855 0 0 1 -0.116431,0.03127 15.827428,3.1654855 0 0 1 -0.117874,0.03127 15.827428,3.1654855 0 0 1 -0.119799,0.03079 15.827428,3.1654855 0 0 1 -0.122204,0.03079 15.827428,3.1654855 0 0 1 -0.123649,0.03031 15.827428,3.1654855 0 0 1 -0.125572,0.02983 15.827428,3.1654855 0 0 1 -0.127497,0.02935 15.827428,3.1654855 0 0 1 -0.129421,0.02935 15.827428,3.1654855 0 0 1 -0.131346,0.02935 15.827428,3.1654855 0 0 1 -0.13279,0.02839 15.827428,3.1654855 0 0 1 -0.134713,0.02839 15.827428,3.1654855 0 0 1 -0.136157,0.02839 15.827428,3.1654855 0 0 1 -0.138082,0.02743 15.827428,3.1654855 0 0 1 -0.140006,0.02742 15.827428,3.1654855 0 0 1 -0.14145,0.02694 15.827428,3.1654855 0 0 1 -0.143374,0.02646 15.827428,3.1654855 0 0 1 -0.144817,0.02646 15.827428,3.1654855 0 0 1 -0.146261,0.02598 15.827428,3.1654855 0 0 1 -0.148184,0.0255 15.827428,3.1654855 0 0 1 -0.149629,0.02502 15.827428,3.1654855 0 0 1 -0.151072,0.02502 15.827428,3.1654855 0 0 1 -0.152515,0.02453 15.827428,3.1654855 0 0 1 -0.153959,0.02407 15.827428,3.1654855 0 0 1 -0.155883,0.02357 15.827428,3.1654855 0 0 1 -0.156845,0.02308 15.827428,3.1654855 0 0 1 -0.158289,0.02308 15.827428,3.1654855 0 0 1 -0.160213,0.02262 15.827428,3.1654855 0 0 1 -0.161176,0.02212 15.827428,3.1654855 0 0 1 -0.162618,0.02165 15.827428,3.1654855 0 0 1 -0.164063,0.02116 15.827428,3.1654855 0 0 1 -0.165024,0.02116 15.827428,3.1654855 0 0 1 -0.166467,0.0202 15.827428,3.1654855 0 0 1 -0.167911,0.0202 15.827428,3.1654855 0 0 1 -0.168873,0.01973 15.827428,3.1654855 0 0 1 -0.170318,0.01924 15.827428,3.1654855 0 0 1 -0.171278,0.01877 15.827428,3.1654855 0 0 1 -0.172722,0.01828 15.827428,3.1654855 0 0 1 -0.173685,0.01781 15.827428,3.1654855 0 0 1 -0.174647,0.01781 15.827428,3.1654855 0 0 1 -0.17609,0.01685 15.827428,3.1654855 0 0 1 -0.176571,0.01685 15.827428,3.1654855 0 0 1 -0.178015,0.01636 15.827428,3.1654855 0 0 1 -0.178977,0.01587 15.827428,3.1654855 0 0 1 -0.179458,0.0154 15.827428,3.1654855 0 0 1 -0.180902,0.01493 15.827428,3.1654855 0 0 1 -0.181863,0.01444 15.827428,3.1654855 0 0 1 -0.182344,0.01394 15.827428,3.1654855 0 0 1 -0.183307,0.01347 15.827428,3.1654855 0 0 1 -0.184269,0.01298 15.827428,3.1654855 0 0 1 -0.185232,0.01251 15.827428,3.1654855 0 0 1 -0.185712,0.01251 15.827428,3.1654855 0 0 1 -0.186675,0.01155 15.827428,3.1654855 0 0 1 -0.187156,0.01155 15.827428,3.1654855 0 0 1 -0.188118,0.01059 15.827428,3.1654855 0 0 1 -0.188118,0.0101 15.827428,3.1654855 0 0 1 -0.189562,0.0101 15.827428,3.1654855 0 0 1 -0.189561,0.0091 15.827428,3.1654855 0 0 1 -0.190524,0.0091 15.827428,3.1654855 0 0 1 -0.191005,0.0087 15.827428,3.1654855 0 0 1 -0.191005,0.0077 15.827428,3.1654855 0 0 1 -0.191967,0.0077 15.827428,3.1654855 0 0 1 -0.192449,0.0067 15.827428,3.1654855 0 0 1 -0.192929,0.0067 15.827428,3.1654855 0 0 1 -0.192929,0.0062 15.827428,3.1654855 0 0 1 -0.193411,0.0053 15.827428,3.1654855 0 0 1 -0.193891,0.0053 15.827428,3.1654855 0 0 1 -0.194372,0.0048 15.827428,3.1654855 0 0 1 -0.194373,0.0038 15.827428,3.1654855 0 0 1 -0.194373,0.0038 15.827428,3.1654855 0 0 1 -0.194854,0.0034 15.827428,3.1654855 0 0 1 -0.195335,0.0024 15.827428,3.1654855 0 0 1 -0.195334,0.0024 15.827428,3.1654855 0 0 1 -0.195335,0.002 15.827428,3.1654855 0 0 1 -0.195335,0.001 15.827428,3.1654855 0 0 1 -0.195335,10e-4 15.827428,3.1654855 0 0 1 -0.195335,4.93e-4 15.827428,3.1654855 0 0 1 -0.02983,0 15.827428,3.1654855 0 0 1 -0.195336,-4.93e-4 15.827428,3.1654855 0 0 1 -0.195816,-4.92e-4 15.827428,3.1654855 0 0 1 -0.195336,-0.0015 15.827428,3.1654855 0 0 1 -0.195334,-0.0015 15.827428,3.1654855 0 0 1 -0.195335,-0.0024 15.827428,3.1654855 0 0 1 -0.194854,-0.0024 15.827428,3.1654855 0 0 1 -0.194854,-0.0034 15.827428,3.1654855 0 0 1 -0.194852,-0.0034 15.827428,3.1654855 0 0 1 -0.194375,-0.0044 15.827428,3.1654855 0 0 1 -0.194372,-0.0044 15.827428,3.1654855 0 0 1 -0.193892,-0.0053 15.827428,3.1654855 0 0 1 -0.193411,-0.0053 15.827428,3.1654855 0 0 1 -0.192929,-0.0062 15.827428,3.1654855 0 0 1 -0.192928,-0.0062 15.827428,3.1654855 0 0 1 -0.192448,-0.0073 15.827428,3.1654855 0 0 1 -0.191968,-0.0073 15.827428,3.1654855 0 0 1 -0.191485,-0.0082 15.827428,3.1654855 0 0 1 -0.191005,-0.0082 15.827428,3.1654855 0 0 1 -0.190525,-0.0091 15.827428,3.1654855 0 0 1 -0.190041,-0.0091 15.827428,3.1654855 0 0 1 -0.189081,-0.0096 15.827428,3.1654855 0 0 1 -0.1886,-0.01059 15.827428,3.1654855 0 0 1 -0.188118,-0.0106 15.827428,3.1654855 0 0 1 -0.187157,-0.01106 15.827428,3.1654855 0 0 1 -0.186674,-0.01202 15.827428,3.1654855 0 0 1 -0.186194,-0.01202 15.827428,3.1654855 0 0 1 -0.18475,-0.01251 15.827428,3.1654855 0 0 1 -0.184751,-0.01298 15.827428,3.1654855 0 0 1 -0.183306,-0.01347 15.827428,3.1654855 0 0 1 -0.182827,-0.01395 15.827428,3.1654855 0 0 1 -0.181863,-0.01443 15.827428,3.1654855 0 0 1 -0.1809,-0.0149 15.827428,3.1654855 0 0 1 -0.17994,-0.01491 15.827428,3.1654855 0 0 1 -0.178976,-0.01589 15.827428,3.1654855 0 0 1 -0.178015,-0.01636 15.827428,3.1654855 0 0 1 -0.177053,-0.01636 15.827428,3.1654855 0 0 1 -0.176089,-0.01732 15.827428,3.1654855 0 0 1 -0.174648,-0.01732 15.827428,3.1654855 0 0 1 -0.173685,-0.01781 15.827428,3.1654855 0 0 1 -0.172722,-0.01828 15.827428,3.1654855 0 0 1 -0.171759,-0.01877 15.827428,3.1654855 0 0 1 -0.170317,-0.01924 15.827428,3.1654855 0 0 1 -0.169355,-0.01973 15.827428,3.1654855 0 0 1 -0.167911,-0.0202 15.827428,3.1654855 0 0 1 -0.166467,-0.0202 15.827428,3.1654855 0 0 1 -0.165507,-0.0207 15.827428,3.1654855 0 0 1 -0.164543,-0.02116 15.827428,3.1654855 0 0 1 -0.162617,-0.02166 15.827428,3.1654855 0 0 1 -0.161657,-0.02212 15.827428,3.1654855 0 0 1 -0.159733,-0.02261 15.827428,3.1654855 0 0 1 -0.158769,-0.02262 15.827428,3.1654855 0 0 1 -0.157326,-0.02357 15.827428,3.1654855 0 0 1 -0.155882,-0.02357 15.827428,3.1654855 0 0 1 -0.154442,-0.02407 15.827428,3.1654855 0 0 1 -0.152515,-0.02404 15.827428,3.1654855 0 0 1 -0.151552,-0.02502 15.827428,3.1654855 0 0 1 -0.149628,-0.02502 15.827428,3.1654855 0 0 1 -0.148187,-0.0255 15.827428,3.1654855 0 0 1 -0.146741,-0.02599 15.827428,3.1654855 0 0 1 -0.145297,-0.02598 15.827428,3.1654855 0 0 1 -0.143374,-0.02694 15.827428,3.1654855 0 0 1 -0.14145,-0.02694 15.827428,3.1654855 0 0 1 -0.140489,-0.02694 15.827428,3.1654855 0 0 1 -0.13808,-0.0279 15.827428,3.1654855 0 0 1 -0.136639,-0.0279 15.827428,3.1654855 0 0 1 -0.135195,-0.02839 15.827428,3.1654855 0 0 1 -0.133269,-0.02839 15.827428,3.1654855 0 0 1 -0.131348,-0.02886 15.827428,3.1654855 0 0 1 -0.129421,-0.02936 15.827428,3.1654855 0 0 1 -0.127978,-0.02983 15.827428,3.1654855 0 0 1 -0.125571,-0.02983 15.827428,3.1654855 0 0 1 -0.12413,-0.03031 15.827428,3.1654855 0 0 1 -0.122204,-0.03031 15.827428,3.1654855 0 0 1 -0.120282,-0.03079 15.827428,3.1654855 0 0 1 -0.118356,-0.03127 15.827428,3.1654855 0 0 1 -0.11691,-0.03127 15.827428,3.1654855 0 0 1 -0.114508,-0.03176 15.827428,3.1654855 0 0 1 -0.112102,-0.03223 15.827428,3.1654855 0 0 1 -0.110655,-0.03223 15.827428,3.1654855 0 0 1 -0.108734,-0.03223 15.827428,3.1654855 0 0 1 -0.106328,-0.03272 15.827428,3.1654855 0 0 1 -0.104884,-0.0332 15.827428,3.1654855 0 0 1 -0.10248,-0.0332 15.827428,3.1654855 0 0 1 -0.100073,-0.03368 15.827428,3.1654855 0 0 1 -0.09863,-0.03368 15.827428,3.1654855 0 0 1 -0.09622,-0.03416 15.827428,3.1654855 0 0 1 -0.09382,-0.03416 15.827428,3.1654855 0 0 1 -0.09238,-0.03464 15.827428,3.1654855 0 0 1 -0.08949,-0.03464 15.827428,3.1654855 0 0 1 -0.08804,-0.03512 15.827428,3.1654855 0 0 1 -0.08516,-0.03512 15.827428,3.1654855 0 0 1 -0.08371,-0.03513 15.827428,3.1654855 0 0 1 -0.08083,-0.0356 15.827428,3.1654855 0 0 1 -0.0789,-0.03609 15.827428,3.1654855 0 0 1 -0.07698,-0.03609 15.827428,3.1654855 0 0 1 -0.07457,-0.03609 15.827428,3.1654855 0 0 1 -0.07217,-0.03609 15.827428,3.1654855 0 0 1 -0.07024,-0.03656 15.827428,3.1654855 0 0 1 -0.06784,-0.03657 15.827428,3.1654855 0 0 1 -0.06543,-0.03704 15.827428,3.1654855 0 0 1 -0.06303,-0.03705 15.827428,3.1654855 0 0 1 -0.0611,-0.03705 15.827428,3.1654855 0 0 1 -0.0587,-0.03753 15.827428,3.1654855 0 0 1 -0.05629,-0.03705 15.827428,3.1654855 0 0 1 -0.05389,-0.038 15.827428,3.1654855 0 0 1 -0.05148,-0.03753 15.827428,3.1654855 0 0 1 -0.04956,-0.038 15.827428,3.1654855 0 0 1 -0.04715,-0.03753 15.827428,3.1654855 0 0 1 -0.04426,-0.03849 15.827428,3.1654855 0 0 1 -0.04233,-0.03801 15.827428,3.1654855 0 0 1 -0.03993,-0.03849 15.827428,3.1654855 0 0 1 -0.03753,-0.038 15.827428,3.1654855 0 0 1 -0.0356,-0.03849 15.827428,3.1654855 0 0 1 -0.03272,-0.03849 15.827428,3.1654855 0 0 1 -0.03031,-0.03897 15.827428,3.1654855 0 0 1 -0.0279,-0.03849 15.827428,3.1654855 0 0 1 -0.02599,-0.03897 15.827428,3.1654855 0 0 1 -0.02308,-0.03849 15.827428,3.1654855 0 0 1 -0.0207,-0.03897 15.827428,3.1654855 0 0 1 -0.01877,-0.03897 15.827428,3.1654855 0 0 1 -0.01589,-0.03897 15.827428,3.1654855 0 0 1 -0.01347,-0.03897 15.827428,3.1654855 0 0 1 -0.01155,-0.03897 15.827428,3.1654855 0 0 1 -0.0087,-0.03946 15.827428,3.1654855 0 0 1 -0.0062,-0.03897 15.827428,3.1654855 0 0 1 -0.0044,-0.03897 15.827428,3.1654855 0 0 1 -0.0015,-0.03897 v 2.787131 a 15.827428,3.1654855 0 0 0 15.827423,3.165298 15.827428,3.1654855 0 0 0 15.827424,-3.165298 15.827428,3.1654855 0 0 0 0,-0.0062 z"
       style="fill:#a1c6c0;fill-opacity:1;stroke:#86aba5;stroke-width:1;stroke-linecap:round;stroke-linejoin:round;stroke-opacity:1"
       id="path893" />
    <path
       id="path888"
       style="fill:#a1c6c0;fill-opacity:1;stroke:#86aba5;stroke-width:1;stroke-linecap:round;stroke-linejoin:round;stroke-opacity:1"
       d="m 80.827459,46.631152 a 15.827428,3.1654855 0 0 1 -9.31e-4,0.03946 15.827428,3.1654855 0 0 1 -0.0038,0.03897 15.827428,3.1654855 0 0 1 -0.0062,0.03897 15.827428,3.1654855 0 0 1 -0.0082,0.03897 15.827428,3.1654855 0 0 1 -0.01106,0.03945 15.827428,3.1654855 0 0 1 -0.01299,0.03897 15.827428,3.1654855 0 0 1 -0.01587,0.03897 15.827428,3.1654855 0 0 1 -0.0178,0.03897 15.827428,3.1654855 0 0 1 -0.02069,0.03849 15.827428,3.1654855 0 0 1 -0.0231,0.03897 15.827428,3.1654855 0 0 1 -0.02502,0.03897 15.827428,3.1654855 0 0 1 -0.0279,0.03849 15.827428,3.1654855 0 0 1 -0.02983,0.03849 15.827428,3.1654855 0 0 1 -0.03272,0.03897 15.827428,3.1654855 0 0 1 -0.03464,0.03849 15.827428,3.1654855 0 0 1 -0.03705,0.038 15.827428,3.1654855 0 0 1 -0.03993,0.03849 15.827428,3.1654855 0 0 1 -0.04186,0.038 15.827428,3.1654855 0 0 1 -0.04426,0.03849 15.827428,3.1654855 0 0 1 -0.04667,0.03753 15.827428,3.1654855 0 0 1 -0.04907,0.038 15.827428,3.1654855 0 0 1 -0.051,0.03801 15.827428,3.1654855 0 0 1 -0.05389,0.03753 15.827428,3.1654855 0 0 1 -0.05581,0.03753 15.827428,3.1654855 0 0 1 -0.05822,0.03704 15.827428,3.1654855 0 0 1 -0.06062,0.03753 15.827428,3.1654855 0 0 1 -0.06303,0.03657 15.827428,3.1654855 0 0 1 -0.06495,0.03704 15.827428,3.1654855 0 0 1 -0.06783,0.03656 15.827428,3.1654855 0 0 1 -0.06928,0.03657 15.827428,3.1654855 0 0 1 -0.07217,0.03656 15.827428,3.1654855 0 0 1 -0.07409,0.03609 15.827428,3.1654855 0 0 1 -0.0765,0.03609 15.827428,3.1654855 0 0 1 -0.07842,0.0356 15.827428,3.1654855 0 0 1 -0.08083,0.0356 15.827428,3.1654855 0 0 1 -0.08323,0.0356 15.827428,3.1654855 0 0 1 -0.08516,0.03512 15.827428,3.1654855 0 0 1 -0.08756,0.03512 15.827428,3.1654855 0 0 1 -0.08949,0.03464 15.827428,3.1654855 0 0 1 -0.09142,0.03464 15.827428,3.1654855 0 0 1 -0.09382,0.03416 15.827428,3.1654855 0 0 1 -0.09623,0.03416 15.827428,3.1654855 0 0 1 -0.09767,0.03367 15.827428,3.1654855 0 0 1 -0.100073,0.03368 15.827428,3.1654855 0 0 1 -0.102479,0.0332 15.827428,3.1654855 0 0 1 -0.103922,0.0332 15.827428,3.1654855 0 0 1 -0.106328,0.03272 15.827428,3.1654855 0 0 1 -0.108252,0.03272 15.827428,3.1654855 0 0 1 -0.110176,0.03223 15.827428,3.1654855 0 0 1 -0.112582,0.03223 15.827428,3.1654855 0 0 1 -0.114026,0.03176 15.827428,3.1654855 0 0 1 -0.116431,0.03127 15.827428,3.1654855 0 0 1 -0.117875,0.03127 15.827428,3.1654855 0 0 1 -0.119798,0.03079 15.827428,3.1654855 0 0 1 -0.122205,0.03079 15.827428,3.1654855 0 0 1 -0.123648,0.03031 15.827428,3.1654855 0 0 1 -0.125572,0.02983 15.827428,3.1654855 0 0 1 -0.127498,0.02935 15.827428,3.1654855 0 0 1 -0.129421,0.02935 15.827428,3.1654855 0 0 1 -0.131346,0.02935 15.827428,3.1654855 0 0 1 -0.132789,0.02839 15.827428,3.1654855 0 0 1 -0.134714,0.02839 15.827428,3.1654855 0 0 1 -0.136157,0.02839 15.827428,3.1654855 0 0 1 -0.138082,0.02743 15.827428,3.1654855 0 0 1 -0.140006,0.02742 15.827428,3.1654855 0 0 1 -0.141449,0.02694 15.827428,3.1654855 0 0 1 -0.143375,0.02646 15.827428,3.1654855 0 0 1 -0.144817,0.02646 15.827428,3.1654855 0 0 1 -0.14626,0.02598 15.827428,3.1654855 0 0 1 -0.148185,0.0255 15.827428,3.1654855 0 0 1 -0.149629,0.02502 15.827428,3.1654855 0 0 1 -0.151071,0.02502 15.827428,3.1654855 0 0 1 -0.152515,0.02453 15.827428,3.1654855 0 0 1 -0.153959,0.02407 15.827428,3.1654855 0 0 1 -0.155884,0.02357 15.827428,3.1654855 0 0 1 -0.156845,0.02308 15.827428,3.1654855 0 0 1 -0.158288,0.02308 15.827428,3.1654855 0 0 1 -0.160214,0.02262 15.827428,3.1654855 0 0 1 -0.161175,0.02212 15.827428,3.1654855 0 0 1 -0.162619,0.02166 15.827428,3.1654855 0 0 1 -0.164062,0.02116 15.827428,3.1654855 0 0 1 -0.165024,0.02116 15.827428,3.1654855 0 0 1 -0.166468,0.0202 15.827428,3.1654855 0 0 1 -0.167911,0.0202 15.827428,3.1654855 0 0 1 -0.168873,0.01973 15.827428,3.1654855 0 0 1 -0.170317,0.01923 15.827428,3.1654855 0 0 1 -0.171279,0.01877 15.827428,3.1654855 0 0 1 -0.172722,0.01828 15.827428,3.1654855 0 0 1 -0.173684,0.01781 15.827428,3.1654855 0 0 1 -0.174648,0.01781 15.827428,3.1654855 0 0 1 -0.176089,0.01685 15.827428,3.1654855 0 0 1 -0.176572,0.01685 15.827428,3.1654855 0 0 1 -0.178015,0.01636 15.827428,3.1654855 0 0 1 -0.178976,0.01586 15.827428,3.1654855 0 0 1 -0.179458,0.0154 15.827428,3.1654855 0 0 1 -0.180902,0.01492 15.827428,3.1654855 0 0 1 -0.181864,0.01444 15.827428,3.1654855 0 0 1 -0.182344,0.01394 15.827428,3.1654855 0 0 1 -0.183307,0.01347 15.827428,3.1654855 0 0 1 -0.184269,0.01298 15.827428,3.1654855 0 0 1 -0.185231,0.01251 15.827428,3.1654855 0 0 1 -0.185713,0.01251 15.827428,3.1654855 0 0 1 -0.186675,0.01155 15.827428,3.1654855 0 0 1 -0.187155,0.01155 15.827428,3.1654855 0 0 1 -0.188119,0.0106 15.827428,3.1654855 0 0 1 -0.188118,0.0101 15.827428,3.1654855 0 0 1 -0.189561,0.0101 15.827428,3.1654855 0 0 1 -0.189562,0.0091 15.827428,3.1654855 0 0 1 -0.190524,0.0091 15.827428,3.1654855 0 0 1 -0.191004,0.0087 15.827428,3.1654855 0 0 1 -0.191006,0.0077 15.827428,3.1654855 0 0 1 -0.191967,0.0077 15.827428,3.1654855 0 0 1 -0.192448,0.0067 15.827428,3.1654855 0 0 1 -0.192929,0.0067 15.827428,3.1654855 0 0 1 -0.192929,0.0062 15.827428,3.1654855 0 0 1 -0.193411,0.0053 15.827428,3.1654855 0 0 1 -0.193892,0.0053 15.827428,3.1654855 0 0 1 -0.194372,0.0048 15.827428,3.1654855 0 0 1 -0.194373,0.0038 15.827428,3.1654855 0 0 1 -0.194373,0.0038 15.827428,3.1654855 0 0 1 -0.194854,0.0034 15.827428,3.1654855 0 0 1 -0.195334,0.0024 15.827428,3.1654855 0 0 1 -0.195335,0.0024 15.827428,3.1654855 0 0 1 -0.195336,0.002 15.827428,3.1654855 0 0 1 -0.195334,0.001 15.827428,3.1654855 0 0 1 -0.195335,10e-4 15.827428,3.1654855 0 0 1 -0.195336,4.93e-4 15.827428,3.1654855 0 0 1 -0.02983,0 15.827428,3.1654855 0 0 1 -0.195335,-4.93e-4 15.827428,3.1654855 0 0 1 -0.195816,-4.92e-4 15.827428,3.1654855 0 0 1 -0.195335,-0.0015 15.827428,3.1654855 0 0 1 -0.195335,-0.0015 15.827428,3.1654855 0 0 1 -0.195335,-0.0024 15.827428,3.1654855 0 0 1 -0.194854,-0.0024 15.827428,3.1654855 0 0 1 -0.194853,-0.0034 15.827428,3.1654855 0 0 1 -0.194853,-0.0034 15.827428,3.1654855 0 0 1 -0.194374,-0.0044 15.827428,3.1654855 0 0 1 -0.194373,-0.0044 15.827428,3.1654855 0 0 1 -0.193891,-0.0053 15.827428,3.1654855 0 0 1 -0.193412,-0.0053 15.827428,3.1654855 0 0 1 -0.192928,-0.0062 15.827428,3.1654855 0 0 1 -0.192929,-0.0062 15.827428,3.1654855 0 0 1 -0.192448,-0.0073 15.827428,3.1654855 0 0 1 -0.191968,-0.0073 15.827428,3.1654855 0 0 1 -0.191485,-0.0082 15.827428,3.1654855 0 0 1 -0.191005,-0.0082 15.827428,3.1654855 0 0 1 -0.190524,-0.0091 15.827428,3.1654855 0 0 1 -0.190042,-0.0091 15.827428,3.1654855 0 0 1 -0.189081,-0.0096 15.827428,3.1654855 0 0 1 -0.1886,-0.0106 15.827428,3.1654855 0 0 1 -0.188118,-0.01059 15.827428,3.1654855 0 0 1 -0.187157,-0.01106 15.827428,3.1654855 0 0 1 -0.186674,-0.01202 15.827428,3.1654855 0 0 1 -0.186194,-0.01202 15.827428,3.1654855 0 0 1 -0.18475,-0.01251 15.827428,3.1654855 0 0 1 -0.18475,-0.01298 15.827428,3.1654855 0 0 1 -0.183307,-0.01347 15.827428,3.1654855 0 0 1 -0.182827,-0.01395 15.827428,3.1654855 0 0 1 -0.181863,-0.01443 15.827428,3.1654855 0 0 1 -0.1809,-0.0149 15.827428,3.1654855 0 0 1 -0.179939,-0.01491 15.827428,3.1654855 0 0 1 -0.178977,-0.01589 15.827428,3.1654855 0 0 1 -0.178015,-0.01636 15.827428,3.1654855 0 0 1 -0.177053,-0.01636 15.827428,3.1654855 0 0 1 -0.176089,-0.01732 15.827428,3.1654855 0 0 1 -0.174648,-0.01732 15.827428,3.1654855 0 0 1 -0.173685,-0.01781 15.827428,3.1654855 0 0 1 -0.172722,-0.01828 15.827428,3.1654855 0 0 1 -0.171758,-0.01877 15.827428,3.1654855 0 0 1 -0.170318,-0.01923 15.827428,3.1654855 0 0 1 -0.169354,-0.01973 15.827428,3.1654855 0 0 1 -0.167911,-0.0202 15.827428,3.1654855 0 0 1 -0.166468,-0.0202 15.827428,3.1654855 0 0 1 -0.165506,-0.0207 15.827428,3.1654855 0 0 1 -0.164544,-0.02116 15.827428,3.1654855 0 0 1 -0.162617,-0.02165 15.827428,3.1654855 0 0 1 -0.161657,-0.02212 15.827428,3.1654855 0 0 1 -0.159732,-0.02261 15.827428,3.1654855 0 0 1 -0.15877,-0.02262 15.827428,3.1654855 0 0 1 -0.157326,-0.02357 15.827428,3.1654855 0 0 1 -0.155882,-0.02357 15.827428,3.1654855 0 0 1 -0.154442,-0.02407 15.827428,3.1654855 0 0 1 -0.152515,-0.02404 15.827428,3.1654855 0 0 1 -0.151552,-0.02502 15.827428,3.1654855 0 0 1 -0.149628,-0.02502 15.827428,3.1654855 0 0 1 -0.148187,-0.0255 15.827428,3.1654855 0 0 1 -0.146741,-0.02599 15.827428,3.1654855 0 0 1 -0.145297,-0.02598 15.827428,3.1654855 0 0 1 -0.143374,-0.02694 15.827428,3.1654855 0 0 1 -0.14145,-0.02694 15.827428,3.1654855 0 0 1 -0.140489,-0.02694 15.827428,3.1654855 0 0 1 -0.138079,-0.0279 15.827428,3.1654855 0 0 1 -0.136639,-0.0279 15.827428,3.1654855 0 0 1 -0.135196,-0.02839 15.827428,3.1654855 0 0 1 -0.133269,-0.02839 15.827428,3.1654855 0 0 1 -0.131347,-0.02886 15.827428,3.1654855 0 0 1 -0.129422,-0.02935 15.827428,3.1654855 0 0 1 -0.127977,-0.02983 15.827428,3.1654855 0 0 1 -0.125571,-0.02983 15.827428,3.1654855 0 0 1 -0.12413,-0.03031 15.827428,3.1654855 0 0 1 -0.122204,-0.03031 15.827428,3.1654855 0 0 1 -0.120283,-0.03079 15.827428,3.1654855 0 0 1 -0.118355,-0.03127 15.827428,3.1654855 0 0 1 -0.116911,-0.03127 15.827428,3.1654855 0 0 1 -0.114508,-0.03176 15.827428,3.1654855 0 0 1 -0.112101,-0.03223 15.827428,3.1654855 0 0 1 -0.110656,-0.03223 15.827428,3.1654855 0 0 1 -0.108734,-0.03223 15.827428,3.1654855 0 0 1 -0.106328,-0.03272 15.827428,3.1654855 0 0 1 -0.104883,-0.0332 15.827428,3.1654855 0 0 1 -0.10248,-0.0332 15.827428,3.1654855 0 0 1 -0.100073,-0.03368 15.827428,3.1654855 0 0 1 -0.09863,-0.03368 15.827428,3.1654855 0 0 1 -0.09622,-0.03416 15.827428,3.1654855 0 0 1 -0.09382,-0.03416 15.827428,3.1654855 0 0 1 -0.09238,-0.03464 15.827428,3.1654855 0 0 1 -0.08949,-0.03464 15.827428,3.1654855 0 0 1 -0.08804,-0.03512 15.827428,3.1654855 0 0 1 -0.08516,-0.03512 15.827428,3.1654855 0 0 1 -0.08371,-0.03513 15.827428,3.1654855 0 0 1 -0.08083,-0.0356 15.827428,3.1654855 0 0 1 -0.0789,-0.03609 15.827428,3.1654855 0 0 1 -0.07698,-0.03609 15.827428,3.1654855 0 0 1 -0.07457,-0.03609 15.827428,3.1654855 0 0 1 -0.07217,-0.03609 15.827428,3.1654855 0 0 1 -0.07024,-0.03656 15.827428,3.1654855 0 0 1 -0.06784,-0.03657 15.827428,3.1654855 0 0 1 -0.06543,-0.03704 15.827428,3.1654855 0 0 1 -0.06303,-0.03705 15.827428,3.1654855 0 0 1 -0.0611,-0.03704 15.827428,3.1654855 0 0 1 -0.0587,-0.03753 15.827428,3.1654855 0 0 1 -0.05629,-0.03704 15.827428,3.1654855 0 0 1 -0.05389,-0.03801 15.827428,3.1654855 0 0 1 -0.05148,-0.03753 15.827428,3.1654855 0 0 1 -0.04956,-0.038 15.827428,3.1654855 0 0 1 -0.04715,-0.03753 15.827428,3.1654855 0 0 1 -0.04426,-0.03849 15.827428,3.1654855 0 0 1 -0.04234,-0.038 15.827428,3.1654855 0 0 1 -0.03993,-0.03849 15.827428,3.1654855 0 0 1 -0.03753,-0.03801 15.827428,3.1654855 0 0 1 -0.0356,-0.03849 15.827428,3.1654855 0 0 1 -0.03271,-0.03849 15.827428,3.1654855 0 0 1 -0.03031,-0.03897 15.827428,3.1654855 0 0 1 -0.02791,-0.03849 15.827428,3.1654855 0 0 1 -0.02598,-0.03897 15.827428,3.1654855 0 0 1 -0.02308,-0.03849 15.827428,3.1654855 0 0 1 -0.02069,-0.03897 15.827428,3.1654855 0 0 1 -0.01877,-0.03897 15.827428,3.1654855 0 0 1 -0.01589,-0.03897 15.827428,3.1654855 0 0 1 -0.01347,-0.03897 15.827428,3.1654855 0 0 1 -0.01155,-0.03897 15.827428,3.1654855 0 0 1 -0.0087,-0.03946 15.827428,3.1654855 0 0 1 -0.0063,-0.03897 15.827428,3.1654855 0 0 1 -0.0043,-0.03897 15.827428,3.1654855 0 0 1 -0.0015,-0.03897 v 2.787131 a 15.827428,3.1654855 0 0 0 15.827423,3.165293 15.827428,3.1654855 0 0 0 15.827423,-3.165293 15.827428,3.1654855 0 0 0 0,-0.0062 z" />
    <path
       style="color:#000000;font-style:normal;font-variant:normal;font-weight:normal;font-stretch:normal;font-size:medium;line-height:normal;font-family:sans-serif;font-variant-ligatures:normal;font-variant-position:normal;font-variant-caps:normal;font-variant-numeric:normal;font-variant-alternates:normal;font-variant-east-asian:normal;font-feature-settings:normal;font-variation-settings:normal;text-indent:0;text-align:start;text-decoration:none;text-decoration-line:none;text-decoration-style:solid;text-decoration-color:#000000;letter-spacing:normal;word-spacing:normal;text-transform:none;writing-mode:lr-tb;direction:ltr;text-orientation:mixed;dominant-baseline:auto;baseline-shift:baseline;text-anchor:start;white-space:normal;shape-padding:0;shape-margin:0;inline-size:0;clip-rule:nonzero;display:inline;overflow:visible;visibility:visible;opacity:1;isolation:auto;mix-blend-mode:normal;color-interpolation:sRGB;color-interpolation-filters:linearRGB;solid-color:#000000;solid-opacity:1;vector-effect:none;fill:#c8ffff;fill-opacity:1;fill-rule:nonzero;stroke:none;stroke-width:1;stroke-linecap:round;stroke-linejoin:round;stroke-miterlimit:4;stroke-dasharray:none;stroke-dashoffset:0;stroke-opacity:1;color-rendering:auto;image-rendering:auto;shape-rendering:auto;text-rendering:auto;enable-background:accumulate;stop-color:#000000;stop-opacity:1"
       d="m 74.96875,55.025391 c -0.0092,-3.38e-4 -0.01833,3.33e-4 -0.02734,0.002 -5.818099,1.015088 -11.781908,1.037068 -17.662109,0.355468 -0.06714,-0.0081 -0.128591,0.03859 -0.138672,0.105469 -1.048251,7.0275 -1.714144,12.224113 -2.679687,19.19336 -0.0121,0.08463 0.06242,0.15617 0.146484,0.140625 2.529019,-0.470259 5.194569,-1.154704 7.912109,-1.982422 -1.846398,5.457708 -3.575066,10.855079 -5.382812,16.152344 -0.04209,0.129269 0.12329,0.223335 0.21289,0.121093 3.122447,-3.623206 14.261938,-17.60891 18.070313,-22.771484 0.06514,-0.0895 -0.0096,-0.213263 -0.119141,-0.197266 -1.916321,0.29233 -3.812191,0.498608 -5.683593,0.638672 1.867113,-3.696953 3.863696,-7.727992 5.460937,-11.585937 0.03239,-0.07968 -0.02349,-0.167497 -0.109379,-0.171922 z"
       id="path1059"
       sodipodi:nodetypes="cccccccccccccc" />
  </g>
</svg>
