<?xml version="1.0" encoding="UTF-8" standalone="no"?>
<svg
   xmlns:dc="http://purl.org/dc/elements/1.1/"
   xmlns:cc="http://creativecommons.org/ns#"
   xmlns:rdf="http://www.w3.org/1999/02/22-rdf-syntax-ns#"
   xmlns:svg="http://www.w3.org/2000/svg"
   xmlns="http://www.w3.org/2000/svg"
   xmlns:sodipodi="http://sodipodi.sourceforge.net/DTD/sodipodi-0.dtd"
   xmlns:inkscape="http://www.inkscape.org/namespaces/inkscape"
   sodipodi:docname="P2 Explorer Icon.svg"
   inkscape:version="1.0 (4035a4fb49, 2020-05-01)"
   id="svg8"
   version="1.1"
   viewBox="0 0 142 142"
   height="142mm"
   width="142mm"
   inkscape:export-filename="C:\Users\Callisto Joaquim\Documents\images (non-memes)\Project Ages of War\Class Icons\P2 Explorer Icon.png"
   inkscape:export-xdpi="32"
   inkscape:export-ydpi="32">
  <defs
     id="defs2" />
  <sodipodi:namedview
     showguides="true"
     inkscape:snap-intersection-paths="false"
     inkscape:snap-smooth-nodes="false"
     inkscape:object-nodes="false"
     inkscape:snap-grids="false"
     inkscape:object-paths="false"
     inkscape:window-maximized="1"
     inkscape:window-y="-8"
     inkscape:window-x="-8"
     inkscape:window-height="1137"
     inkscape:window-width="1920"
     inkscape:bbox-nodes="false"
     inkscape:snap-others="true"
     inkscape:snap-bbox="true"
     inkscape:snap-object-midpoints="true"
     showgrid="false"
     inkscape:document-rotation="0"
     inkscape:current-layer="layer1"
     inkscape:document-units="mm"
     inkscape:cy="246.68804"
     inkscape:cx="209.97104"
     inkscape:zoom="1.6124439"
     inkscape:pageshadow="2"
     inkscape:pageopacity="0.0"
     borderopacity="1.0"
     bordercolor="#666666"
     pagecolor="#ffffff"
     id="base">
    <inkscape:grid
       originy="-18.999999"
       originx="-18.999999"
       spacingy="1"
       spacingx="1"
       units="mm"
       id="grid62"
       type="xygrid" />
  </sodipodi:namedview>
  <metadata
     id="metadata5">
    <rdf:RDF>
      <cc:Work
         rdf:about="">
        <dc:format>image/svg+xml</dc:format>
        <dc:type
           rdf:resource="http://purl.org/dc/dcmitype/StillImage" />
        <dc:title />
      </cc:Work>
    </rdf:RDF>
  </metadata>
  <g
     transform="translate(-19,-19)"
     id="layer1"
     inkscape:groupmode="layer"
     inkscape:label="Calque 1">
    <path
       transform="matrix(-1,0,0,1,180,0)"
       d="M 49.015625,20 20,49.015625 V 160 H 130.98242 L 160,130.98242 V 20 Z"
       inkscape:original="M 49.015625 20 L 20 49.015625 L 20 160 L 130.98242 160 L 160 130.98242 L 160 20 L 49.015625 20 z "
       inkscape:radius="0"
       sodipodi:type="inkscape:offset"
       style="fill:#5e8c31;fill-opacity:1;fill-rule:evenodd;stroke:#f2f2f2;stroke-width:2;stroke-linejoin:round;stroke-miterlimit:4;stroke-dasharray:none;stroke-opacity:1;paint-order:normal"
       id="path239" />
    <path
       transform="scale(0.26458333)"
       d="M 94.488281,94.488281 V 487.22656 L 143.78906,536.52734 536.53125,143.78516 487.23438,94.488281 Z"
       style="fill:#78a74a;fill-opacity:1;fill-rule:evenodd;stroke:none;stroke-width:7.55906;stroke-linejoin:round;stroke-miterlimit:4;stroke-dasharray:none;stroke-opacity:1;paint-order:normal"
       id="path835" />
    <path
       d="M 144.3208,84.5681 V 95.431199 M 35.678802,84.5681 V 95.431199 M 144.3208,84.5681 A 54.32099,43.456788 0 0 1 89.999814,128.02485 54.32099,43.456788 0 0 1 35.678827,84.5681 54.32099,43.456788 0 0 1 89.999814,41.111301 54.32099,43.456788 0 0 1 144.3208,84.5681 M 36.105587,90.0028 A 54.32099,43.456788 0 0 0 35.679237,95.431399 54.32099,43.456788 0 0 0 89.998924,138.8887 54.32099,43.456788 0 0 0 144.3212,95.431399 54.32099,43.456788 0 0 0 143.8947,90.0028 54.32099,43.456788 0 0 1 89.998744,128.02375 54.32099,43.456788 0 0 1 36.105397,90.0028 Z"
       style="fill:#f2f2f2;stroke:#5e8c31;stroke-width:2;stroke-linecap:butt;stroke-linejoin:miter;stroke-miterlimit:4;stroke-dasharray:none;stroke-opacity:1"
       id="path993" />
    <ellipse
       cy="84.568077"
       cx="89.999817"
       id="path943"
       style="fill:#78a74a;fill-opacity:1;stroke:#5e8c31;stroke-width:2;stroke-linecap:butt;stroke-linejoin:miter;stroke-miterlimit:4;stroke-dasharray:none;stroke-opacity:1"
       ry="39.111111"
       rx="48.888889" />
    <path
       d="M 125.4199,100.92789 105.96263,81.146257 74.036991,87.989831 54.579728,68.208259 Z M 110.4496,56.232036 85.722563,71.797751 94.277038,97.338339 69.550009,112.90411 Z"
       style="fill:#78a74a;fill-opacity:1;stroke:#5e8c31;stroke-width:2;stroke-linecap:round;stroke-linejoin:round;stroke-miterlimit:4;stroke-dasharray:none;stroke-opacity:1"
       id="path965" />
    <path
       d="M 45.557673,94.094641 73.899712,77.131777 106.09993,92.004371 134.44196,75.041562 Z M 78.0916,49.014398 99.295215,71.687986 80.704415,97.448169 101.90806,120.12175 Z"
       style="fill:#f2f2f2;stroke:#5e8c31;stroke-width:2;stroke-linecap:round;stroke-linejoin:round;stroke-miterlimit:4;stroke-dasharray:none;stroke-opacity:1"
       id="path958" />
    <path
       id="path961"
       style="fill:#f2f2f2;stroke:#5e8c31;stroke-width:2;stroke-linecap:round;stroke-linejoin:round;stroke-miterlimit:4;stroke-dasharray:none;stroke-opacity:1"
       d="m 69.549897,112.9042 4.486984,-24.914373 31.925749,-6.843597 4.48698,-24.914307 z m -14.970333,-44.696013 31.142942,3.589505 8.554505,25.540687 31.142959,3.589561 z" />
    <path
       id="path963"
       style="fill:#78a74a;fill-opacity:1;stroke:#5e8c31;stroke-width:2;stroke-linecap:round;stroke-linejoin:round;stroke-miterlimit:4;stroke-dasharray:none;stroke-opacity:1"
       d="M 134.44196,75.041562 99.295215,71.687986 80.704415,97.448169 45.557673,94.094641 Z M 78.091564,49.014398 73.899712,77.131777 106.09992,92.004371 101.90804,120.12175 Z" />
  </g>
</svg>
