<?xml version="1.0" encoding="UTF-8" standalone="no"?>
<svg
   xmlns:dc="http://purl.org/dc/elements/1.1/"
   xmlns:cc="http://creativecommons.org/ns#"
   xmlns:rdf="http://www.w3.org/1999/02/22-rdf-syntax-ns#"
   xmlns:svg="http://www.w3.org/2000/svg"
   xmlns="http://www.w3.org/2000/svg"
   xmlns:sodipodi="http://sodipodi.sourceforge.net/DTD/sodipodi-0.dtd"
   xmlns:inkscape="http://www.inkscape.org/namespaces/inkscape"
   sodipodi:docname="P4 Martial Icon.svg"
   inkscape:version="1.0 (4035a4fb49, 2020-05-01)"
   id="svg8"
   version="1.1"
   viewBox="0 0 142 142"
   height="142mm"
   width="142mm"
   inkscape:export-filename="C:\Users\Callisto Joaquim\Documents\images (non-memes)\Project Ages of War\Class Icons\P4 Martial Icon.png"
   inkscape:export-xdpi="32"
   inkscape:export-ydpi="32">
  <defs
     id="defs2" />
  <sodipodi:namedview
     inkscape:object-nodes="false"
     showguides="true"
     inkscape:window-maximized="1"
     inkscape:window-y="-8"
     inkscape:window-x="-8"
     inkscape:window-height="1137"
     inkscape:window-width="1920"
     inkscape:bbox-nodes="true"
     inkscape:snap-others="true"
     inkscape:snap-bbox="true"
     inkscape:snap-object-midpoints="true"
     showgrid="false"
     inkscape:document-rotation="0"
     inkscape:current-layer="layer1"
     inkscape:document-units="mm"
     inkscape:cy="442.80359"
     inkscape:cx="367.18091"
     inkscape:zoom="0.80622195"
     inkscape:pageshadow="2"
     inkscape:pageopacity="0.0"
     borderopacity="1.0"
     bordercolor="#666666"
     pagecolor="#ffffff"
     id="base">
    <inkscape:grid
       originy="-18.999999"
       originx="-18.999999"
       spacingy="1"
       spacingx="1"
       units="mm"
       id="grid62"
       type="xygrid" />
  </sodipodi:namedview>
  <metadata
     id="metadata5">
    <rdf:RDF>
      <cc:Work
         rdf:about="">
        <dc:format>image/svg+xml</dc:format>
        <dc:type
           rdf:resource="http://purl.org/dc/dcmitype/StillImage" />
        <dc:title />
      </cc:Work>
    </rdf:RDF>
  </metadata>
  <g
     transform="translate(-19,-19)"
     id="layer1"
     inkscape:groupmode="layer"
     inkscape:label="Calque 1">
    <path
       transform="matrix(-1,0,0,1,180,0)"
       d="M 49.015625,20 20,49.015625 V 160 H 130.98242 L 160,130.98242 V 20 Z"
       inkscape:original="M 49.015625 20 L 20 49.015625 L 20 160 L 130.98242 160 L 160 130.98242 L 160 20 L 49.015625 20 z "
       inkscape:radius="0"
       sodipodi:type="inkscape:offset"
       style="fill:#a1251b;fill-opacity:1;fill-rule:evenodd;stroke:#f2f2f2;stroke-width:2;stroke-linejoin:round;stroke-miterlimit:4;stroke-dasharray:none;stroke-opacity:1;paint-order:normal"
       id="path239" />
    <path
       transform="scale(0.26458333)"
       d="M 94.488281,94.488281 V 487.22656 L 143.78906,536.52734 536.53125,143.78516 487.23438,94.488281 Z"
       style="fill:#c04231;fill-opacity:1;fill-rule:evenodd;stroke:none;stroke-width:7.55906;stroke-linejoin:round;stroke-miterlimit:4;stroke-dasharray:none;stroke-opacity:1;paint-order:normal"
       id="path835" />
    <path
       d="m 54.999397,53.326209 -6.207734,-3.657994 -7.133961,-15.982122 14.500508,9.800847 2.524464,6.748633 3.090636,3.683279 -3.683279,3.090636 z m 3.090634,3.683279 77.265969,92.081992 3.68328,-3.09065 -77.26597,-92.081978 z"
       style="fill:#f2f2f2;stroke:#a1251b;stroke-width:2.18933;stroke-linecap:butt;stroke-linejoin:miter;stroke-opacity:1"
       id="path855" />
    <path
       id="path908"
       d="m 133.58895,90.633678 a 43.75,43.75 0 0 1 -43.750002,43.750002 43.75,43.75 0 0 1 -43.75,-43.750002 43.75,43.75 0 0 1 43.75,-43.75 43.75,43.75 0 0 1 43.750002,43.75"
       style="fill:#f2f2f2;fill-opacity:1;stroke:#a1251b;stroke-width:2;stroke-opacity:1" />
    <path
       id="path873"
       d="m 127.33895,90.633678 a 37.5,37.5 0 0 1 -37.500002,37.500002 37.5,37.5 0 0 1 -37.5,-37.500002 37.5,37.5 0 0 1 37.5,-37.5 37.5,37.5 0 0 1 37.500002,37.5"
       style="fill:#f2f2f2;fill-opacity:1;stroke:#a1251b;stroke-width:2;stroke-opacity:1" />
    <path
       id="path906"
       d="m 56.26624,107.34145 a 37.499999,37.499999 0 0 0 0.05682,0.11369 37.499999,37.499999 0 0 0 0.189912,0.37336 37.499999,37.499999 0 0 0 0.193787,0.37078 37.499999,37.499999 0 0 0 0.198954,0.36819 37.499999,37.499999 0 0 0 0.201539,0.3669 37.499999,37.499999 0 0 0 0.206706,0.36432 37.499999,37.499999 0 0 0 0.210582,0.36303 37.499999,37.499999 0 0 0 0.214458,0.35915 37.499999,37.499999 0 0 0 0.218327,0.35786 37.499999,37.499999 0 0 0 0.223507,0.35399 37.499999,37.499999 0 0 0 0.22608,0.35269 37.499999,37.499999 0 0 0 0.229963,0.35011 37.499999,37.499999 0 0 0 0.235128,0.34622 37.499999,37.499999 0 0 0 0.237709,0.34495 37.499999,37.499999 0 0 0 0.241591,0.34235 37.499999,37.499999 0 0 0 0.24546,0.33848 37.499999,37.499999 0 0 0 0.249337,0.3359 37.499999,37.499999 0 0 0 0.253219,0.33461 37.499999,37.499999 0 0 0 0.257089,0.33073 37.499999,37.499999 0 0 0 0.260966,0.32685 37.499999,37.499999 0 0 0 0.264841,0.32555 37.499999,37.499999 0 0 0 0.267427,0.32169 37.499999,37.499999 0 0 0 0.271298,0.3191 37.499999,37.499999 0 0 0 0.275179,0.31523 37.499999,37.499999 0 0 0 0.27905,0.31264 37.499999,37.499999 0 0 0 0.127899,0.13953 l 27.73603,-27.736032 27.737332,27.737322 a 37.499999,37.499999 0 0 0 0.0284,-0.0323 37.499999,37.499999 0 0 0 0.28034,-0.31135 37.499999,37.499999 0 0 0 0.27518,-0.31393 37.499999,37.499999 0 0 0 0.27389,-0.3191 37.499999,37.499999 0 0 0 0.26871,-0.32039 37.499999,37.499999 0 0 0 0.26484,-0.32428 37.499999,37.499999 0 0 0 0.26227,-0.32556 37.499999,37.499999 0 0 0 0.25838,-0.33073 37.499999,37.499999 0 0 0 0.2545,-0.33202 37.499999,37.499999 0 0 0 0.25063,-0.33589 37.499999,37.499999 0 0 0 0.24805,-0.3372 37.499999,37.499999 0 0 0 0.24288,-0.34106 37.499999,37.499999 0 0 0 0.239,-0.34364 37.499999,37.499999 0 0 0 0.23642,-0.34624 37.499999,37.499999 0 0 0 0.23125,-0.34882 37.499999,37.499999 0 0 0 0.22738,-0.35139 37.499999,37.499999 0 0 0 0.2248,-0.35399 37.499999,37.499999 0 0 0 0.21962,-0.35656 37.499999,37.499999 0 0 0 0.21575,-0.35915 37.499999,37.499999 0 0 0 0.21187,-0.36174 37.499999,37.499999 0 0 0 0.208,-0.36303 37.499999,37.499999 0 0 0 0.20283,-0.36561 37.499999,37.499999 0 0 0 0.20025,-0.36819 37.499999,37.499999 0 0 0 0.19507,-0.37078 37.499999,37.499999 0 0 0 0.1925,-0.37207 37.499999,37.499999 0 0 0 0.12144,-0.24417 L 89.839078,75.634078 Z"
       style="display:inline;fill:#c04231;fill-opacity:1;stroke:#a1251b;stroke-width:2;stroke-opacity:1" />
  </g>
</svg>
