<?xml version="1.0" encoding="UTF-8" standalone="no"?>
<svg
   xmlns:dc="http://purl.org/dc/elements/1.1/"
   xmlns:cc="http://creativecommons.org/ns#"
   xmlns:rdf="http://www.w3.org/1999/02/22-rdf-syntax-ns#"
   xmlns:svg="http://www.w3.org/2000/svg"
   xmlns="http://www.w3.org/2000/svg"
   xmlns:sodipodi="http://sodipodi.sourceforge.net/DTD/sodipodi-0.dtd"
   xmlns:inkscape="http://www.inkscape.org/namespaces/inkscape"
   inkscape:export-ydpi="32"
   inkscape:export-xdpi="32"
   inkscape:export-filename="C:\Users\Callisto Joaquim\Documents\images (non-memes)\Project Ages of War\Diverging concepts\F2 Military Icon Inverted.png"
   sodipodi:docname="F2 Military Icon.svg"
   inkscape:version="1.0 (4035a4fb49, 2020-05-01)"
   id="svg8"
   version="1.1"
   viewBox="0 0 142 142"
   height="142mm"
   width="142mm">
  <defs
     id="defs2">
    <marker
       inkscape:stockid="Arrow1Lstart"
       orient="auto"
       refY="0"
       refX="0"
       id="Arrow1Lstart"
       style="overflow:visible"
       inkscape:isstock="true">
      <path
         id="path855"
         d="M 0,0 5,-5 -12.5,0 5,5 Z"
         style="fill:#df005f;fill-opacity:1;fill-rule:evenodd;stroke:#df005f;stroke-width:1pt;stroke-opacity:1"
         transform="matrix(0.8,0,0,0.8,10,0)" />
    </marker>
    <inkscape:path-effect
       only_selected="false"
       apply_with_weight="true"
       apply_no_weight="true"
       helper_size="0"
       steps="2"
       weight="33.333333"
       lpeversion="1"
       is_visible="true"
       id="path-effect858"
       effect="bspline" />
    <inkscape:path-effect
       effect="bspline"
       id="path-effect844"
       is_visible="true"
       lpeversion="1"
       weight="33.333333"
       steps="2"
       helper_size="0"
       apply_no_weight="true"
       apply_with_weight="true"
       only_selected="false" />
  </defs>
  <sodipodi:namedview
     inkscape:window-maximized="1"
     inkscape:window-y="-8"
     inkscape:window-x="-8"
     inkscape:window-height="1137"
     inkscape:window-width="1920"
     inkscape:bbox-nodes="false"
     inkscape:snap-others="true"
     inkscape:snap-bbox="true"
     inkscape:snap-object-midpoints="true"
     showgrid="false"
     inkscape:document-rotation="0"
     inkscape:current-layer="layer1"
     inkscape:document-units="mm"
     inkscape:cy="268.34646"
     inkscape:cx="268.34646"
     inkscape:zoom="1.6378968"
     inkscape:pageshadow="2"
     inkscape:pageopacity="0.0"
     borderopacity="1.0"
     bordercolor="#666666"
     pagecolor="#ffffff"
     id="base"
     inkscape:snap-smooth-nodes="false"
     inkscape:object-nodes="true"
     inkscape:snap-grids="true"
     inkscape:snap-intersection-paths="false">
    <inkscape:grid
       originy="-18.999999"
       originx="-18.999999"
       spacingy="1"
       spacingx="1"
       units="mm"
       id="grid62"
       type="xygrid" />
  </sodipodi:namedview>
  <metadata
     id="metadata5">
    <rdf:RDF>
      <cc:Work
         rdf:about="">
        <dc:format>image/svg+xml</dc:format>
        <dc:type
           rdf:resource="http://purl.org/dc/dcmitype/StillImage" />
        <dc:title />
      </cc:Work>
    </rdf:RDF>
  </metadata>
  <g
     transform="translate(-19,-19)"
     id="layer1"
     inkscape:groupmode="layer"
     inkscape:label="Calque 1">
    <path
       d="M 49.015625,20 20,49.015625 V 160 H 130.98242 L 160,130.98242 V 20 Z"
       inkscape:original="M 49.015625 20 L 20 49.015625 L 20 160 L 130.98242 160 L 160 130.98242 L 160 20 L 49.015625 20 z "
       inkscape:radius="0"
       sodipodi:type="inkscape:offset"
       style="fill:#ff0078;fill-opacity:1;fill-rule:evenodd;stroke:#f2f2f2;stroke-width:2;stroke-linejoin:round;stroke-miterlimit:4;stroke-dasharray:none;stroke-opacity:1;paint-order:normal"
       id="path239" />
    <path
       d="m 25.000024,154.99984 103.971946,-0.0579 26.02787,-26.02787 V 25.000024 Z"
       style="fill:#df005f;fill-opacity:1;fill-rule:evenodd;stroke:none;stroke-width:2;stroke-linejoin:round;stroke-miterlimit:4;stroke-dasharray:none;stroke-opacity:1;paint-order:normal"
       id="path835"
       inkscape:export-xdpi="96"
       inkscape:export-ydpi="96" />
    <path
       id="path852"
       style="display:inline;fill:none;stroke:#ff0078;stroke-width:4;stroke-linecap:round;stroke-linejoin:round;stroke-miterlimit:4;stroke-dasharray:none;stroke-opacity:1;paint-order:normal"
       d="m 51.082685,124.27752 v 0 l -12.57636,17.20744 17.207434,-12.57638" />
    <path
       id="path1037"
       style="display:inline;fill:#f2f2f2;stroke:none;stroke-width:2;stroke-linecap:round;stroke-linejoin:round;stroke-miterlimit:4;stroke-dasharray:none;stroke-opacity:1;paint-order:normal"
       d="m 54.010172,119.49328 c -2.804157,-3.43455 -3.971286,-4.97482 -4.7687,-6.29327 -0.943983,-1.56076 -1.715557,-3.52304 -1.485724,-3.77846 0.07129,-0.0791 3.634098,-1.65931 7.91738,-3.51135 6.163166,-2.66485 7.821469,-3.28365 7.949225,-2.96627 1.321276,3.28237 8.412776,10.75432 12.009406,12.6537 0.773155,0.40828 1.48154,0.81047 1.574224,0.89374 0.09272,0.0832 -1.324337,3.63641 -3.148912,7.89593 -3.069282,7.16533 -3.364534,7.74719 -3.947806,7.77981 -0.838738,0.0469 -3.341754,-1.32221 -5.994774,-3.27909 -2.093767,-1.54437 -8.740565,-7.72441 -10.104319,-9.39474 z M 92.320863,81.521522 c -0.654559,-0.808929 -1.528752,-2.087031 -1.942659,-2.84024 l -0.752561,-1.369451 1.033301,-5.199648 c 0.612955,-3.084471 1.117989,-4.999718 1.241467,-4.708169 2.277785,5.378131 14.787479,18.034567 20.250089,20.487645 0.38809,0.174268 0.66507,0.357383 0.61554,0.406925 -0.0497,0.0495 -2.3419,0.540982 -5.09413,1.092135 -4.98353,0.997923 -5.00911,0.999267 -6.23124,0.325254 -2.539241,-1.400372 -6.507293,-4.965811 -9.119807,-8.194451 z m 18.019757,-22.10853 c -2.06146,-2.584842 -3.6949,-5.139073 -4.16857,-6.518425 l -0.43133,-1.256067 2.37802,-2.496761 c 7.09972,-7.454227 12.61665,-10.096539 21.05304,-10.083371 4.30831,0.0068 10.69172,0.636663 10.88663,1.074325 0.32783,0.736124 0.75396,5.920708 0.81202,9.879875 0.0914,6.230327 -0.90169,10.241473 -3.5347,14.277302 -1.36474,2.091875 -4.36211,5.668742 -6.77938,8.090077 -1.76376,1.766834 -1.94801,1.891328 -2.59446,1.753994 -1.05219,-0.22354 -3.10584,-1.31989 -5.1341,-2.740894 -2.19903,-1.540616 -10.55476,-9.557028 -12.48717,-11.980055 z M 97.967068,75.161373 c -2.448118,-2.803432 -4.263479,-5.26932 -5.220803,-7.091516 -1.342901,-2.556175 -1.782864,-1.841544 5.80511,-9.429518 3.644795,-3.64478 6.673255,-6.580498 6.729945,-6.523801 0.0566,0.05656 0.21605,0.445697 0.3542,0.864466 0.32574,0.987539 1.94477,3.572111 3.49518,5.579501 4.98826,6.458595 14.15429,14.527615 17.96645,15.816139 l 1.09546,0.370281 -6.52333,6.523328 c -3.58784,3.587831 -6.71298,6.607783 -6.94477,6.711025 -1.2193,0.543021 -5.35925,-1.997906 -10.20842,-6.265493 -3.43892,-3.026478 -3.6721,-3.25988 -6.548935,-6.55448 z m -15.841984,43.496917 -1.606923,-4.86152 6.651746,-6.65176 c 5.710965,-5.71093 6.650084,-6.57574 6.640028,-6.11438 -0.0068,0.29554 -0.241552,3.48362 -0.522456,7.08462 l -0.51069,6.54726 -4.486264,4.48625 c -2.467425,2.46745 -4.502497,4.46033 -4.522385,4.42866 -0.01982,-0.0316 -0.759252,-2.2453 -1.643056,-4.91913 z M 66.546598,106.76936 c -1.425476,-1.84441 -2.29268,-3.37903 -2.33548,-4.13296 -0.03292,-0.57956 0.793244,-1.44945 12.395494,-13.051718 l 12.43077,-12.43078 0.48033,1.004044 c 1.610733,3.36695 8.775586,10.563169 12.159768,12.213002 l 1.01953,0.497018 -12.535161,12.535164 -12.535143,12.53515 -0.778851,-0.25235 c -0.42837,-0.13886 -1.343732,-0.61556 -2.034143,-1.05948 -1.577579,-1.01434 -6.855127,-6.03012 -8.267132,-7.85707 z m -5.880472,-15.118522 4.422997,-4.423001 7.309064,-0.559362 7.309052,-0.559391 -6.719166,6.719147 -6.719154,6.719166 -4.920537,-1.644399 c -2.706292,-0.904417 -4.96209,-1.685984 -5.012894,-1.736793 -0.05081,-0.05066 1.897985,-2.082709 4.330638,-4.515367 z M 45.416075,132.42578 c 3.085874,-4.19783 5.666128,-7.80171 5.733899,-8.00859 0.086,-0.26249 -1.711221,-0.51442 -5.949135,-0.83391 -3.339795,-0.25177 -6.07449,-0.50387 -6.077132,-0.5602 -0.0028,-0.0563 2.483082,-1.78462 5.523776,-3.84058 l 5.528536,-3.73811 0.545424,0.77121 c 1.183117,1.67293 9.356001,10.02384 11.484552,11.73471 1.188951,0.95565 2.161733,1.82126 2.161733,1.92364 0,0.19773 -7.265664,11.05882 -7.403812,11.06758 -0.04459,0.003 -0.287795,-2.72916 -0.540135,-6.07114 -0.252346,-3.34195 -0.50421,-6.1217 -0.559695,-6.17718 -0.05548,-0.0556 -3.47878,2.38502 -7.607327,5.42332 -4.128535,3.03828 -7.719033,5.6181 -7.978878,5.73292 -0.269844,0.11923 1.933907,-3.06474 5.138194,-7.42367 z" />
    <path
       id="path914"
       style="display:inline;fill:none;stroke:#df005f;stroke-width:2;stroke-linecap:round;stroke-linejoin:round;stroke-miterlimit:4;stroke-dasharray:none;stroke-opacity:1;paint-order:normal"
       d="M 70.955051,132.24939 A 16.414187,3.2828374 45 0 1 63.14145,128.4564 16.414187,3.2828374 45 0 1 51.534863,116.84982 16.414187,3.2828374 45 0 1 47.741892,109.03621 m 2.502995,6.11279 -12.065616,8.13867 12.903414,0.98985 -12.57636,17.20744 17.207432,-12.57638 0.989844,12.90342 8.138666,-12.06561" />
    <path
       id="path944"
       style="display:inline;fill:none;stroke:#df005f;stroke-width:2;stroke-linecap:round;stroke-linejoin:round;stroke-miterlimit:4;stroke-dasharray:none;stroke-opacity:1;paint-order:normal"
       d="m 129.00366,74.20198 a 16.414187,3.2828374 45 0 1 -7.81361,-3.792972 16.414187,3.2828374 45 0 1 -11.60659,-11.606574 16.414187,3.2828374 45 0 1 -3.79298,-7.813611 m 34.56131,-11.350508 c 0.80844,6.929875 1.6169,13.859799 -0.27479,19.620906 -1.89168,5.761107 -6.48275,10.35218 -11.07334,14.942759 m 11.34929,-34.562486 c -6.92987,-0.808455 -13.85981,-1.616921 -19.6209,0.274774 -5.76108,1.891686 -10.35217,6.482758 -14.94276,11.073337" />
    <path
       id="path959"
       style="display:inline;fill:none;stroke:#df005f;stroke-width:2;stroke-linecap:round;stroke-linejoin:round;stroke-miterlimit:4;stroke-dasharray:none;stroke-opacity:1;paint-order:normal"
       d="M 115.06008,88.144369 128.98797,74.216473 M 91.846885,64.931212 105.77479,51.003297 m 9.28529,37.141072 A 16.414187,3.2828374 45 0 1 107.24645,84.351397 16.414187,3.2828374 45 0 1 95.639867,72.744833 16.414187,3.2828374 45 0 1 91.846885,64.931212 m 37.156775,9.270768 a 16.414187,3.2828374 45 0 1 -7.81361,-3.792953 16.414187,3.2828374 45 0 1 -11.60659,-11.606593 16.414187,3.2828374 45 0 1 -3.79298,-7.813611" />
    <path
       id="path966"
       style="display:inline;fill:none;stroke:#df005f;stroke-width:2;stroke-linecap:round;stroke-linejoin:round;stroke-miterlimit:4;stroke-dasharray:none;stroke-opacity:1;paint-order:normal"
       d="m 103.45348,90.465691 11.6066,-2.321322 M 91.846885,64.931203 89.525582,76.537776 M 103.45348,90.465691 A 9.8485121,1.9697025 45 0 1 98.765313,88.189899 9.8485121,1.9697025 45 0 1 91.801356,81.225941 9.8485121,1.9697025 45 0 1 89.525582,76.537776 M 115.06008,88.144369 A 16.414187,3.2828374 45 0 1 107.24645,84.351397 16.414187,3.2828374 45 0 1 95.639867,72.744814 16.414187,3.2828374 45 0 1 91.846885,64.931203" />
    <path
       id="path981"
       style="display:inline;fill:none;stroke:#df005f;stroke-width:2;stroke-linecap:round;stroke-linejoin:round;stroke-miterlimit:4;stroke-dasharray:none;stroke-opacity:1;paint-order:normal"
       d="M 77.918989,116.00018 103.45348,90.465691 M 89.525582,76.537776 63.99111,102.07226 m 13.927879,13.92792 a 9.8485121,1.9697025 45 0 1 -4.688155,-2.27579 9.8485121,1.9697025 45 0 1 -6.963941,-6.96395 9.8485121,1.9697025 45 0 1 -2.275783,-4.68818 m 39.46237,-11.606569 a 9.8485121,1.9697025 45 0 1 -4.688167,-2.275792 9.8485121,1.9697025 45 0 1 -6.963957,-6.963958 9.8485121,1.9697025 45 0 1 -2.275774,-4.688165" />
    <path
       id="path986"
       style="display:inline;fill:none;stroke:#df005f;stroke-width:2;stroke-linecap:round;stroke-linejoin:round;stroke-miterlimit:4;stroke-dasharray:none;stroke-opacity:1;paint-order:normal"
       d="m 77.918989,116.00018 -6.963938,16.24921 m -6.963941,-30.17713 -16.249221,6.96395 m 23.213162,23.21318 A 16.414187,3.2828374 45 0 1 63.14145,128.4564 16.414187,3.2828374 45 0 1 51.534863,116.84982 16.414187,3.2828374 45 0 1 47.741892,109.03621 m 30.177097,6.96397 a 9.8485121,1.9697025 45 0 1 -4.688145,-2.27579 9.8485121,1.9697025 45 0 1 -6.963951,-6.96395 9.8485121,1.9697025 45 0 1 -2.275783,-4.68818" />
    <path
       id="path893"
       d="M 94.168217,99.750937 80.240312,113.67885 83.7223,124.12476 93.007561,114.8395 Z"
       style="display:inline;fill:none;stroke:#df005f;stroke-width:2;stroke-linecap:round;stroke-linejoin:round;stroke-miterlimit:4;stroke-dasharray:none;stroke-opacity:1;paint-order:normal" />
    <path
       style="display:inline;fill:none;stroke:#df005f;stroke-width:2;stroke-linecap:round;stroke-linejoin:round;stroke-miterlimit:4;stroke-dasharray:none;stroke-opacity:1;paint-order:normal"
       d="M 80.240312,85.823046 66.312423,99.750937 55.866498,96.268973 65.151762,86.983722 Z"
       id="path993" />
  </g>
</svg>
