<?xml version="1.0" encoding="UTF-8" standalone="no"?>
<svg
   xmlns:dc="http://purl.org/dc/elements/1.1/"
   xmlns:cc="http://creativecommons.org/ns#"
   xmlns:rdf="http://www.w3.org/1999/02/22-rdf-syntax-ns#"
   xmlns:svg="http://www.w3.org/2000/svg"
   xmlns="http://www.w3.org/2000/svg"
   xmlns:sodipodi="http://sodipodi.sourceforge.net/DTD/sodipodi-0.dtd"
   xmlns:inkscape="http://www.inkscape.org/namespaces/inkscape"
   width="142mm"
   height="142mm"
   viewBox="0 0 142 142"
   version="1.1"
   id="svg8"
   inkscape:version="1.0 (4035a4fb49, 2020-05-01)"
   sodipodi:docname="F3 Protector Icon.svg"
   inkscape:export-filename="C:\Users\Callisto Joaquim\Documents\images (non-memes)\Project Ages of War\Diverging concepts\Inverted future\F3 Protector Icon Inverted.png"
   inkscape:export-xdpi="32"
   inkscape:export-ydpi="32">
  <defs
     id="defs2">
    <inkscape:path-effect
       effect="bspline"
       id="path-effect858"
       is_visible="true"
       lpeversion="1"
       weight="33.333333"
       steps="2"
       helper_size="0"
       apply_no_weight="true"
       apply_with_weight="true"
       only_selected="false" />
    <inkscape:path-effect
       only_selected="false"
       apply_with_weight="true"
       apply_no_weight="true"
       helper_size="0"
       steps="2"
       weight="33.333333"
       lpeversion="1"
       is_visible="true"
       id="path-effect844"
       effect="bspline" />
  </defs>
  <sodipodi:namedview
     inkscape:object-paths="false"
     inkscape:snap-intersection-paths="false"
     inkscape:snap-grids="true"
     inkscape:object-nodes="true"
     inkscape:snap-smooth-nodes="false"
     id="base"
     pagecolor="#ffffff"
     bordercolor="#666666"
     borderopacity="1.0"
     inkscape:pageopacity="0.0"
     inkscape:pageshadow="2"
     inkscape:zoom="1.6378968"
     inkscape:cx="268.34363"
     inkscape:cy="268.34391"
     inkscape:document-units="mm"
     inkscape:current-layer="layer1"
     inkscape:document-rotation="0"
     showgrid="false"
     inkscape:snap-object-midpoints="true"
     inkscape:snap-bbox="true"
     inkscape:snap-others="true"
     inkscape:bbox-nodes="false"
     inkscape:window-width="1920"
     inkscape:window-height="1137"
     inkscape:window-x="-8"
     inkscape:window-y="-8"
     inkscape:window-maximized="1">
    <inkscape:grid
       originy="-18.999999"
       originx="-18.999999"
       type="xygrid"
       id="grid62"
       units="mm"
       spacingx="1"
       spacingy="1" />
  </sodipodi:namedview>
  <metadata
     id="metadata5">
    <rdf:RDF>
      <cc:Work
         rdf:about="">
        <dc:format>image/svg+xml</dc:format>
        <dc:type
           rdf:resource="http://purl.org/dc/dcmitype/StillImage" />
        <dc:title />
      </cc:Work>
    </rdf:RDF>
  </metadata>
  <g
     transform="translate(-19,-19)"
     inkscape:label="Calque 1"
     inkscape:groupmode="layer"
     id="layer1">
    <path
       id="path239"
       style="fill:#ffe641;fill-opacity:1;fill-rule:evenodd;stroke:#f2f2f2;stroke-width:2;stroke-linejoin:round;stroke-miterlimit:4;stroke-dasharray:none;stroke-opacity:1;paint-order:normal"
       sodipodi:type="inkscape:offset"
       inkscape:radius="0"
       inkscape:original="M 49.015625 20 L 20 49.015625 L 20 160 L 130.98242 160 L 160 130.98242 L 160 20 L 49.015625 20 z "
       d="M 49.015625,20 20,49.015625 V 160 H 130.98242 L 160,130.98242 V 20 Z" />
    <path
       transform="scale(0.26458333)"
       d="m 585.82617,94.488281 -99.90039,99.900389 c 3.10928,2.59038 6.28433,5.11593 9.27734,7.81836 5.15135,4.65124 10.1262,9.46677 14.90821,14.43555 4.78201,4.96878 9.37087,10.0919 13.75195,15.36133 a 7.5590547,7.5590547 0 0 1 0.15039,0.1582 7.5590547,7.5590547 0 0 1 0.15235,0.17383 c 0.0215,0.0253 0.0437,0.0478 0.0664,0.0742 a 7.5590547,7.5590547 0 0 1 0.0527,0.0664 7.5598106,7.5598106 0 0 1 0.125,0.16992 7.5590547,7.5590547 0 0 1 0.0937,0.1211 7.5590547,7.5590547 0 0 0 0.002,0.002 7.5590547,7.5590547 0 0 1 0.13476,0.18555 7.5598106,7.5598106 0 0 1 0.0391,0.0527 7.5590547,7.5590547 0 0 1 0.0293,0.0508 7.5590547,7.5590547 0 0 1 0.0859,0.12891 7.5590547,7.5590547 0 0 1 0.1211,0.19727 7.5590547,7.5590547 0 0 1 0.0117,0.0137 7.5590547,7.5590547 0 0 1 0.11524,0.19922 7.5590547,7.5590547 0 0 1 0.0898,0.16211 7.5598106,7.5598106 0 0 1 0.008,0.0234 7.5590547,7.5590547 0 0 1 0.0859,0.17383 7.5590547,7.5590547 0 0 1 0.0977,0.20899 7.5598106,7.5598106 0 0 1 0.01,0.0234 7.5598106,7.5598106 0 0 1 0.0859,0.21289 7.5590547,7.5590547 0 0 1 0.0742,0.18555 7.5598106,7.5598106 0 0 1 0.008,0.0156 7.5590547,7.5590547 0 0 1 0.0234,0.0723 7.5590547,7.5590547 0 0 1 0.0391,0.10547 7.5590547,7.5590547 0 0 0 0,0.002 7.5590547,7.5590547 0 0 1 0.0723,0.21875 7.5590547,7.5590547 0 0 1 0.0664,0.22071 c 1.51926,4.12072 2.94794,8.28482 4.28321,12.48828 1.33523,4.20346 2.57702,8.44565 3.72656,12.72265 1.14958,4.277 2.20578,8.58835 3.16797,12.92969 0.96227,4.34133 1.83041,8.71291 2.60352,13.10938 0.77314,4.39646 1.45081,8.81931 2.0332,13.26172 0.58242,4.44238 1.06905,8.90566 1.45898,13.38476 0.38997,4.47912 0.68508,8.97384 0.88086,13.48047 0.19578,4.50667 0.29297,9.02386 0.29297,13.54883 0,4.52077 -0.0972,9.03474 -0.29297,13.53711 -0.19578,4.5024 -0.48912,8.9939 -0.8789,13.46875 -0.38979,4.47484 -0.87698,8.93294 -1.45899,13.37109 -0.58201,4.43811 -1.25879,8.85575 -2.03125,13.24805 -0.77242,4.3923 -1.64043,8.76031 -2.60156,13.09765 -0.9611,4.33735 -2.01607,8.64476 -3.16406,12.91797 -1.14804,4.27321 -2.38951,8.51102 -3.72266,12.71094 -1.33311,4.19996 -2.75889,8.36098 -4.27539,12.47852 a 7.5590547,7.5590547 0 0 1 -0.0156,0.0566 7.5590547,7.5590547 0 0 0 0,0.002 7.5590547,7.5590547 0 0 1 -0.0644,0.2207 7.5590547,7.5590547 0 0 1 -0.0723,0.21875 7.5590547,7.5590547 0 0 0 0,0.002 7.5590547,7.5590547 0 0 1 -0.0781,0.21679 c -8.3e-4,0.004 7.9e-4,0.006 0,0.008 a 7.5590547,7.5590547 0 0 1 -0.0723,0.19922 7.5598106,7.5598106 0 0 1 -0.0293,0.0723 7.5590547,7.5590547 0 0 1 -0.0566,0.13086 7.5590547,7.5590547 0 0 1 -0.0977,0.20898 7.5598106,7.5598106 0 0 1 -0.0117,0.0234 7.5598106,7.5598106 0 0 0 -0.002,0.002 7.5598106,7.5598106 0 0 1 -0.10547,0.20508 7.5590547,7.5590547 0 0 1 -0.0801,0.16797 7.5590547,7.5590547 0 0 1 -0.0449,0.0664 7.5590547,7.5590547 0 0 1 -0.0508,0.0977 7.5598106,7.5598106 0 0 1 -0.0566,0.0977 7.5598106,7.5598106 0 0 1 -0.1211,0.19727 7.5590547,7.5590547 0 0 1 -0.0586,0.0879 7.5598106,7.5598106 0 0 1 -0.0645,0.0937 7.5598106,7.5598106 0 0 1 -0.13477,0.1875 7.5590547,7.5590547 0 0 1 -0.11523,0.15039 7.5590547,7.5590547 0 0 0 -0.002,0 7.5590547,7.5590547 0 0 1 -0.14257,0.18164 7.5598106,7.5598106 0 0 1 -0.0156,0.0215 7.5590547,7.5590547 0 0 1 -0.008,0.008 7.5590547,7.5590547 0 0 1 -0.0527,0.0625 7.5590547,7.5590547 0 0 1 -0.15235,0.17383 7.5590547,7.5590547 0 0 1 -0.15625,0.16992 c -0.0178,0.0208 -0.0417,0.0359 -0.0606,0.0586 -4.34709,5.22489 -8.89741,10.30736 -13.63671,15.23828 -4.73934,4.93096 -9.66744,9.71078 -14.76954,14.33008 -5.10206,4.61926 -10.37712,9.07915 -15.8125,13.36914 -5.43537,4.28999 -11.03031,8.41052 -16.76953,12.35351 a 7.5598106,7.5598106 0 0 1 -0.0137,0.0195 7.5598106,7.5598106 0 0 1 -0.16211,0.16407 7.5598106,7.5598106 0 0 0 -0.002,0 7.5598106,7.5598106 0 0 1 -0.16602,0.16015 7.5598106,7.5598106 0 0 1 -0.16992,0.15625 7.5598106,7.5598106 0 0 0 -0.002,0 7.5598106,7.5598106 0 0 1 -0.17578,0.14844 7.5598106,7.5598106 0 0 1 -0.17969,0.14453 7.5598106,7.5598106 0 0 1 -0.18555,0.13867 7.5598106,7.5598106 0 0 1 -0.18945,0.13282 c -6.39662,4.35768 -12.95977,8.48144 -19.67188,12.35742 -6.71164,3.87409 -13.56622,7.50102 -20.5371,10.86133 a 7.5598106,7.5598106 0 0 1 -0.14844,0.0664 7.5598106,7.5598106 0 0 0 -0.002,0 7.5598106,7.5598106 0 0 1 -0.21093,0.0937 7.5598106,7.5598106 0 0 1 -0.21485,0.0859 7.5598106,7.5598106 0 0 1 -0.21679,0.0781 7.5598106,7.5598106 0 0 1 -0.21875,0.0723 7.5598106,7.5598106 0 0 0 -0.002,0 7.5598106,7.5598106 0 0 1 -0.2207,0.0664 7.5598106,7.5598106 0 0 1 -0.22266,0.0586 7.5598106,7.5598106 0 0 0 -0.002,0 7.5598106,7.5598106 0 0 1 -0.22461,0.0527 c -6.22628,2.95 -12.53231,5.68692 -18.9043,8.20704 -6.37201,2.51988 -12.80912,4.82148 -19.29687,6.89648 -6.48777,2.07492 -13.0261,3.92396 -19.59961,5.53906 -6.57354,1.61522 -13.18322,2.99614 -19.8125,4.13672 a 7.5590547,7.5590547 0 0 1 -0.14453,0.0371 7.5590547,7.5590547 0 0 1 -0.22461,0.0547 7.5590547,7.5590547 0 0 0 -0.002,0 7.5590547,7.5590547 0 0 1 -0.22657,0.0449 7.5590547,7.5590547 0 0 1 -0.13281,0.0234 7.5598106,7.5598106 0 0 1 -0.19922,0.0293 7.5590547,7.5590547 0 0 1 -0.0801,0.0117 7.5590547,7.5590547 0 0 1 -0.10351,0.0117 7.5590547,7.5590547 0 0 1 -0.22852,0.0254 7.5598106,7.5598106 0 0 1 -0.0371,0 7.5590547,7.5590547 0 0 1 -0.0371,0 7.5590547,7.5590547 0 0 1 -0.17578,0.0117 7.5590547,7.5590547 0 0 1 -0.23047,0.0117 7.5590547,7.5590547 0 0 1 -0.0195,0 7.5590547,7.5590547 0 0 0 -0.002,0 7.5590547,7.5590547 0 0 1 -0.23047,0 7.5590547,7.5590547 0 0 1 -0.17578,-0.0117 7.5598106,7.5598106 0 0 1 -0.008,0 7.5590547,7.5590547 0 0 1 -0.0156,0 7.5598106,7.5598106 0 0 1 -0.0586,-0.0117 7.5590547,7.5590547 0 0 1 -0.0117,0 7.5590547,7.5590547 0 0 1 -0.23047,-0.0176 7.5590547,7.5590547 0 0 0 -0.002,0 7.5590547,7.5590547 0 0 1 -0.22852,-0.0273 7.5590547,7.5590547 0 0 1 -0.22851,-0.0293 7.5598106,7.5598106 0 0 1 -0.11914,-0.0156 7.5590547,7.5590547 0 0 1 -0.0137,0 c -0.027,0 -0.0552,-0.0156 -0.082,-0.0156 a 7.5590547,7.5590547 0 0 1 -0.11718,-0.0215 7.5590547,7.5590547 0 0 1 -0.22657,-0.0469 7.5590547,7.5590547 0 0 1 -0.22461,-0.0586 c -6.62126,-1.1393 -13.2213,-2.51836 -19.78711,-4.13086 -6.56582,-1.6125 -13.09774,-3.4583 -19.57812,-5.5293 -6.48038,-2.0711 -12.91045,-4.36761 -19.27539,-6.88281 -6.36494,-2.51512 -12.66331,-5.24876 -18.88281,-8.19336 a 7.5598106,7.5598106 0 0 1 -0.21289,-0.0469 7.5598106,7.5598106 0 0 0 -0.002,0 7.5598106,7.5598106 0 0 1 -0.22265,-0.0586 7.5598106,7.5598106 0 0 1 -0.22266,-0.0625 7.5598106,7.5598106 0 0 1 -0.2207,-0.0703 7.5598106,7.5598106 0 0 1 -0.2168,-0.0781 7.5598106,7.5598106 0 0 1 -0.21484,-0.084 7.5598106,7.5598106 0 0 1 -0.21289,-0.0898 7.5598106,7.5598106 0 0 1 -0.20899,-0.0977 C 252.01609,524.61588 245.164,520.992 238.45117,517.11719 a 7.5598106,7.5598106 0 0 1 -0.008,0 c -6.71084,-3.87549 -13.27061,-8.00054 -19.66602,-12.35742 a 7.5598106,7.5598106 0 0 1 -0.0488,-0.0352 7.5598106,7.5598106 0 0 1 -0.1875,-0.13477 7.5598106,7.5598106 0 0 1 -0.1836,-0.14062 7.5598106,7.5598106 0 0 1 -0.17969,-0.14649 7.5598106,7.5598106 0 0 1 -0.17382,-0.15234 7.5598106,7.5598106 0 0 1 -0.16993,-0.15625 7.5598106,7.5598106 0 0 1 -0.16601,-0.16211 7.5598106,7.5598106 0 0 1 -0.16016,-0.16601 c -5.74852,-3.94942 -11.35215,-8.07802 -16.79687,-12.375 -2.17704,-1.71809 -4.20906,-3.58176 -6.33399,-5.35352 L 94.488111,585.82613 487.45295,585.60738 585.826,487.23434 Z"
       style="fill:#e0ca1d;fill-opacity:1;fill-rule:evenodd;stroke:none;stroke-width:7.55906;stroke-linejoin:round;stroke-miterlimit:4;stroke-dasharray:none;stroke-opacity:1;paint-order:normal"
       id="path949" />
    <path
       id="path841"
       style="fill:#ffe641;fill-opacity:1;stroke-width:1.9064;stroke-linecap:square;stroke-linejoin:round"
       d="m 89.999298,33.537521 v 0.0016 a 1.9999999,1.9999999 0 0 0 -0.06098,0.0016 1.9999999,1.9999999 0 0 0 -0.06098,0.0031 1.9999999,1.9999999 0 0 0 -0.01447,0.0011 1.9999999,1.9999999 0 0 0 -0.06098,0.0057 1.9999999,1.9999999 0 0 0 -0.03876,0.0047 2.0001999,2.0001999 0 0 0 -0.06046,0.0078 2.0001999,2.0001999 0 0 0 -0.03514,0.0057 1.9999999,1.9999999 0 0 0 -0.05994,0.01138 1.9999999,1.9999999 0 0 0 -0.05994,0.01344 1.9999999,1.9999999 0 0 0 -0.03462,0.0083 c -1.145825,0.196887 -2.289307,0.420703 -3.429765,0.670759 -1.140457,0.250052 -2.277893,0.526502 -3.410646,0.828891 -1.13275,0.30239 -2.261065,0.630545 -3.383771,0.984436 -1.122707,0.353893 -2.239859,0.733353 -3.350183,1.137914 -1.110322,0.404564 -2.213759,0.834406 -3.309358,1.28881 -1.095601,0.4544 -2.183279,0.933717 -3.261818,1.437124 -1.078538,0.503404 -2.147901,1.030747 -3.207039,1.58233 -1.059137,0.551579 -2.108148,1.127069 -3.145544,1.725993 -1.037802,0.599161 -2.060893,1.220231 -3.068548,1.861901 -1.007652,0.64167 -1.999917,1.30438 -2.975527,1.98696 -0.975611,0.68257 -1.934636,1.38497 -2.876312,2.10685 -0.94167,0.72187 -1.865558,1.46303 -2.771404,2.2226 -0.905849,0.75957 -1.79373,1.53753 -2.661854,2.33319 -0.868124,0.79566 -1.716556,1.60899 -2.545064,2.43913 -0.828508,0.83014 -1.636625,1.67687 -2.423626,2.5399 -0.786998,0.86302 -1.552903,1.74222 -2.296501,2.63653 a 1.9999999,1.9999999 0 0 0 -0.04186,0.045 1.9999999,1.9999999 0 0 0 -0.02273,0.0253 c -0.01056,0.0127 -0.02254,0.0245 -0.03307,0.0372 a 1.9999999,1.9999999 0 0 0 -0.0021,0.004 2.0001999,2.0001999 0 0 0 -0.03928,0.047 2.0001999,2.0001999 0 0 0 -0.03307,0.0429 1.9999999,1.9999999 0 0 0 -0.0021,0.004 2.0001999,2.0001999 0 0 0 -0.03514,0.0501 2.0001999,2.0001999 0 0 0 -0.02946,0.0439 1.9999999,1.9999999 0 0 0 -0.02687,0.0465 2.0001999,2.0001999 0 0 0 -0.03152,0.0527 2.0001999,2.0001999 0 0 0 -0.02739,0.0491 2.0001999,2.0001999 0 0 0 -0.02739,0.0542 2.0001999,2.0001999 0 0 0 -0.02532,0.0532 2.0001999,2.0001999 0 0 0 -0.02429,0.0558 2.0001999,2.0001999 0 0 0 -0.01291,0.032 1.9999999,1.9999999 0 0 0 -0.0098,0.0212 2.0001999,2.0001999 0 0 0 -0.0078,0.0238 1.9999999,1.9999999 0 0 0 -0.02016,0.0574 1.9999999,1.9999999 0 0 0 -0.01913,0.0584 1.9999999,1.9999999 0 0 0 -0.01654,0.0589 1.9999999,1.9999999 0 0 0 -0.0026,0.009 1.9999999,1.9999999 0 0 0 -0.0057,0.0196 c -0.400876,1.08902 -0.777693,2.18925 -1.130163,3.30005 -0.35247,1.1108 -0.680857,2.23191 -0.984435,3.36207 -0.303577,1.13016 -0.582443,2.26975 -0.836641,3.41685 -0.254199,1.1471 -0.483479,2.30172 -0.687814,3.46335 -0.204335,1.16163 -0.383971,2.32992 -0.537951,3.50367 -0.153985,1.17374 -0.28236,2.35329 -0.385508,3.53673 -0.103145,1.18344 -0.180719,2.37081 -0.232542,3.56154 -0.05184,1.19072 -0.07802,2.38455 -0.07803,3.58014 2e-6,1.19768 0.02611,2.39352 0.07803,3.58635 0.05191,1.19282 0.129701,2.38272 0.23306,3.56825 0.10336,1.18554 0.232199,2.36662 0.386538,3.542421 0.15434,1.17581 0.334132,2.34622 0.538985,3.50987 0.204857,1.16364 0.434978,2.32051 0.689883,3.46955 0.254902,1.14905 0.534736,2.29053 0.839224,3.42253 0.304488,1.13201 0.633412,2.25471 0.98702,3.36724 0.353605,1.11253 0.73152,2.21461 1.133782,3.30522 a 1.9999999,1.9999999 0 0 0 0.01704,0.0589 1.9999999,1.9999999 0 0 0 0.01913,0.0579 1.9999999,1.9999999 0 0 0 0.0052,0.0139 c 0.0029,0.008 0.0049,0.0162 0.0078,0.0238 a 1.9999999,1.9999999 0 0 0 0.0021,0.004 2.0001999,2.0001999 0 0 0 0.02223,0.0574 2.0001999,2.0001999 0 0 0 0.02066,0.0481 1.9999999,1.9999999 0 0 0 0.0021,0.004 2.0001999,2.0001999 0 0 0 0.02479,0.0558 2.0001999,2.0001999 0 0 0 0.02376,0.0496 1.9999999,1.9999999 0 0 0 0.02532,0.045 2.0001999,2.0001999 0 0 0 0.02997,0.0532 2.0001999,2.0001999 0 0 0 0.03049,0.0507 2.0001999,2.0001999 0 0 0 0.03411,0.0506 2.0001999,2.0001999 0 0 0 0.03255,0.047 2.0001999,2.0001999 0 0 0 0.03566,0.0496 2.0001999,2.0001999 0 0 0 0.02894,0.0383 1.9999999,1.9999999 0 0 0 0.0098,0.0114 2.0001999,2.0001999 0 0 0 0.01138,0.016 c 0.01,0.012 0.02154,0.023 0.03152,0.0351 a 1.9999999,1.9999999 0 0 0 0.04083,0.0455 1.9999999,1.9999999 0 0 0 0.01963,0.0207 c 1.151345,1.38516 2.356924,2.73254 3.612697,4.03955 1.255776,1.307 2.561789,2.57344 3.913974,3.7977 1.352187,1.22425 2.750378,2.40602 4.19096,3.54293 1.440582,1.13692 2.923209,2.22925 4.444172,3.27422 a 2.0001999,2.0001999 0 0 0 0.04237,0.0439 2.0001999,2.0001999 0 0 0 0.04392,0.0429 2.0001999,2.0001999 0 0 0 0.04496,0.0419 2.0001999,2.0001999 0 0 0 0.04599,0.0398 2.0001999,2.0001999 0 0 0 0.04754,0.0388 2.0001999,2.0001999 0 0 0 0.04858,0.0372 2.0001999,2.0001999 0 0 0 0.04961,0.0357 2.0001999,2.0001999 0 0 0 0.01344,0.009 c 1.692116,1.15276 3.427206,2.24419 5.202782,3.26956 a 2.0001999,2.0001999 0 0 0 0.0021,0 c 1.776103,1.02523 3.589052,1.98401 5.433777,2.87322 a 2.0001999,2.0001999 0 0 0 0.05529,0.0259 2.0001999,2.0001999 0 0 0 0.05633,0.0238 2.0001999,2.0001999 0 0 0 0.05684,0.0222 2.0001999,2.0001999 0 0 0 0.05788,0.0206 2.0001999,2.0001999 0 0 0 0.05788,0.0185 2.0001999,2.0001999 0 0 0 0.05891,0.0164 2.0001999,2.0001999 0 0 0 0.05942,0.0161 2.0001999,2.0001999 0 0 0 0.05633,0.0124 c 1.645576,0.77912 3.312536,1.50238 4.996593,2.16784 1.684059,0.66545 3.385346,1.27309 5.099947,1.82107 1.714603,0.54798 3.442321,1.03632 5.179528,1.46296 1.737209,0.42664 3.48398,0.7915 5.235858,1.09297 a 1.9999999,1.9999999 0 0 0 0.05891,0.0151 1.9999999,1.9999999 0 0 0 0.05994,0.0124 1.9999999,1.9999999 0 0 0 0.03153,0.006 c 0.0071,0 0.01405,0.004 0.02119,0.004 a 1.9999999,1.9999999 0 0 0 0.0041,0 2.0001999,2.0001999 0 0 0 0.03101,0.004 1.9999999,1.9999999 0 0 0 0.06046,0.008 1.9999999,1.9999999 0 0 0 0.06098,0.007 1.9999999,1.9999999 0 0 0 0.06098,0.004 1.9999999,1.9999999 0 0 0 0.0031,0 2.0001999,2.0001999 0 0 0 0.01551,0.003 1.9999999,1.9999999 0 0 0 0.0041,0 2.0001999,2.0001999 0 0 0 0.0021,0 1.9999999,1.9999999 0 0 0 0.04702,0.003 1.9999999,1.9999999 0 0 0 0.06098,0 1.9999999,1.9999999 0 0 0 0.0052,0 1.9999999,1.9999999 0 0 0 0.06098,-0.003 1.9999999,1.9999999 0 0 0 0.04651,-0.003 1.9999999,1.9999999 0 0 0 0.0098,0 2.0001999,2.0001999 0 0 0 0.0098,0 1.9999999,1.9999999 0 0 0 0.06098,-0.006 1.9999999,1.9999999 0 0 0 0.02687,-0.004 1.9999999,1.9999999 0 0 0 0.0217,-0.003 2.0001999,2.0001999 0 0 0 0.05271,-0.008 1.9999999,1.9999999 0 0 0 0.03514,-0.006 1.9999999,1.9999999 0 0 0 0.05994,-0.0119 1.9999999,1.9999999 0 0 0 0.05943,-0.0135 1.9999999,1.9999999 0 0 0 0.03876,-0.01 c 1.753995,-0.30178 3.5023,-0.66767 5.241542,-1.09503 1.739241,-0.42735 3.469176,-0.91654 5.185734,-1.46555 1.71655,-0.54899 3.4197,-1.15745 5.10563,-1.82417 1.68593,-0.66673 3.35491,-1.39142 5.00228,-2.17197 a 2.0001999,2.0001999 0 0 0 0.0594,-0.014 2.0001999,2.0001999 0 0 0 0.0589,-0.0156 2.0001999,2.0001999 0 0 0 0.0589,-0.0175 2.0001999,2.0001999 0 0 0 0.0579,-0.0191 2.0001999,2.0001999 0 0 0 0.0579,-0.0206 2.0001999,2.0001999 0 0 0 0.0568,-0.0228 2.0001999,2.0001999 0 0 0 0.0558,-0.0249 2.0001999,2.0001999 0 0 0 0.0393,-0.018 c 1.84439,-0.88902 3.65799,-1.84819 5.43378,-2.87319 1.77592,-1.02555 3.51293,-2.11658 5.20537,-3.26959 a 2.0001999,2.0001999 0 0 0 0.0496,-0.0351 2.0001999,2.0001999 0 0 0 0.0491,-0.0367 2.0001999,2.0001999 0 0 0 0.0481,-0.0383 2.0001999,2.0001999 0 0 0 0.0465,-0.0393 2.0001999,2.0001999 0 0 0 0.0455,-0.0413 2.0001999,2.0001999 0 0 0 0.0439,-0.0424 2.0001999,2.0001999 0 0 0 0.0429,-0.0434 2.0001999,2.0001999 0 0 0 0.004,-0.005 c 1.51849,-1.04327 2.99883,-2.13349 4.43694,-3.26855 1.4381,-1.13507 2.83431,-2.31505 4.18424,-3.53724 1.34992,-1.22219 2.65382,-2.48686 3.90777,-3.7915 1.25395,-1.30465 2.45787,-2.64938 3.60805,-4.0318 0.005,-0.006 0.0108,-0.01 0.0155,-0.0155 a 1.9999999,1.9999999 0 0 0 0.0413,-0.045 1.9999999,1.9999999 0 0 0 0.0403,-0.046 1.9999999,1.9999999 0 0 0 0.0139,-0.0165 1.9999999,1.9999999 0 0 0 0.002,-0.002 2.0001999,2.0001999 0 0 0 0.004,-0.006 1.9999999,1.9999999 0 0 0 0.0382,-0.0481 1.9999999,1.9999999 0 0 0 0.03,-0.0398 2.0001999,2.0001999 0 0 0 0.0357,-0.0496 2.0001999,2.0001999 0 0 0 0.017,-0.0248 1.9999999,1.9999999 0 0 0 0.0155,-0.0233 2.0001999,2.0001999 0 0 0 0.032,-0.0522 2.0001999,2.0001999 0 0 0 0.015,-0.0258 1.9999999,1.9999999 0 0 0 0.0134,-0.0253 1.9999999,1.9999999 0 0 0 0.0119,-0.0181 1.9999999,1.9999999 0 0 0 0.0217,-0.0444 2.0001999,2.0001999 0 0 0 0.0279,-0.0548 2.0001999,2.0001999 0 0 0 0.003,-0.006 1.9999999,1.9999999 0 0 0 0.0258,-0.0553 1.9999999,1.9999999 0 0 0 0.015,-0.0341 2.0001999,2.0001999 0 0 0 0.008,-0.0196 1.9999999,1.9999999 0 0 0 0.0196,-0.0527 c 2.1e-4,-5.3e-4 -2.2e-4,-10e-4 0,-0.002 a 1.9999999,1.9999999 0 0 0 0.0207,-0.0579 1.9999999,1.9999999 0 0 0 0.0186,-0.0579 1.9999999,1.9999999 0 0 0 0.0171,-0.0589 1.9999999,1.9999999 0 0 0 0.004,-0.015 c 0.40124,-1.08942 0.77795,-2.19037 1.13068,-3.3016 0.35272,-1.11124 0.68121,-2.23249 0.98495,-3.36311 0.30374,-1.13062 0.58287,-2.27029 0.83716,-3.41788 0.25429,-1.14758 0.48396,-2.30328 0.68833,-3.46542 0.20437,-1.16213 0.38345,-2.33095 0.53743,-3.50521 0.15399,-1.174261 0.2829,-2.353801 0.38603,-3.537771 0.10312,-1.18396 0.18073,-2.37235 0.23254,-3.56361 0.0518,-1.19125 0.0775,-2.38557 0.0775,-3.58169 0,-1.19723 -0.0257,-2.39241 -0.0775,-3.58479 -0.0518,-1.19238 -0.12937,-2.38161 -0.23254,-3.56671 -0.10318,-1.1851 -0.23193,-2.366 -0.38603,-3.54139 -0.15409,-1.17538 -0.3339,-2.34559 -0.53847,-3.50883 -0.20456,-1.16323 -0.43426,-2.31987 -0.68884,-3.46852 -0.25459,-1.14864 -0.53404,-2.28935 -0.83819,-3.42098 -0.30416,-1.13162 -0.63271,-2.25403 -0.98599,-3.3662 -0.35328,-1.11217 -0.7313,-2.21392 -1.13327,-3.30419 a 1.9999999,1.9999999 0 0 0 -0.0176,-0.0584 1.9999999,1.9999999 0 0 0 -0.0191,-0.0584 1.9999999,1.9999999 0 0 0 -0.01,-0.0279 1.9999999,1.9999999 0 0 0 -0.006,-0.0191 2.0001999,2.0001999 0 0 0 -0.002,-0.004 1.9999999,1.9999999 0 0 0 -0.0196,-0.0491 2.0001999,2.0001999 0 0 0 -0.0227,-0.0563 2.0001999,2.0001999 0 0 0 -0.003,-0.006 1.9999999,1.9999999 0 0 0 -0.0258,-0.0558 1.9999999,1.9999999 0 0 0 -0.0227,-0.046 2.0001999,2.0001999 0 0 0 -0.002,-0.006 1.9999999,1.9999999 0 0 0 -0.0232,-0.0429 1.9999999,1.9999999 0 0 0 -0.031,-0.0527 1.9999999,1.9999999 0 0 0 -0.003,-0.004 1.9999999,1.9999999 0 0 0 -0.032,-0.0522 1.9999999,1.9999999 0 0 0 -0.0222,-0.0341 1.9999999,1.9999999 0 0 0 -0.008,-0.0134 2.0001999,2.0001999 0 0 0 -0.01,-0.0139 1.9999999,1.9999999 0 0 0 -0.0362,-0.0496 1.9999999,1.9999999 0 0 0 -0.0248,-0.032 2.0001999,2.0001999 0 0 0 -0.0331,-0.045 1.9999999,1.9999999 0 0 0 -0.0134,-0.0176 c -0.006,-0.007 -0.012,-0.0129 -0.0176,-0.0196 a 1.9999999,1.9999999 0 0 0 -0.0408,-0.046 1.9999999,1.9999999 0 0 0 -0.0393,-0.0419 c -1.15915,-1.39421 -2.37381,-2.74969 -3.63905,-4.06435 -1.26524,-1.31466 -2.58098,-2.58876 -3.94394,-3.81941 -1.36297,-1.23064 -2.77272,-2.41783 -4.22507,-3.55999 -1.4521,-1.1423 -2.94725,-2.23911 -4.48062,-3.28831 a 2.0001999,2.0001999 0 0 0 -0.0119,-0.0104 2.0001999,2.0001999 0 0 0 -0.0486,-0.0367 2.0001999,2.0001999 0 0 0 -0.0501,-0.0351 2.0001999,2.0001999 0 0 0 -5.3e-4,0 c -0.35928,-0.24477 -0.74264,-0.45435 -1.10588,-0.6935 -1.35693,-0.89409 -2.70175,-1.80506 -4.11499,-2.621019 -1.61383,-0.931722 -3.27649,-1.75755 -4.9413,-2.57452 -0.1613,-0.079 -0.31519,-0.173675 -0.47698,-0.251667 a 2.0001999,2.0001999 0 0 0 -0.0506,-0.0217 c -1.68053,-0.80972 -3.38439,-1.562287 -5.10655,-2.255094 -1.72216,-0.692806 -3.46269,-1.325845 -5.21725,-1.896006 -1.75457,-0.570164 -3.5231,-1.077431 -5.302008,-1.519804 -1.778904,-0.442375 -3.5678,-0.819692 -5.362979,-1.129131 -0.0033,-5.29e-4 -0.0065,-0.0011 -0.0098,-0.0021 a 1.9999999,1.9999999 0 0 0 -0.05943,-0.01447 1.9999999,1.9999999 0 0 0 -0.05994,-0.01241 1.9999999,1.9999999 0 0 0 -0.05839,-0.01035 1.9999999,1.9999999 0 0 0 -0.01603,-0.0041 1.9999999,1.9999999 0 0 0 -0.06046,-0.0083 1.9999999,1.9999999 0 0 0 -0.04651,-0.0052 1.9999999,1.9999999 0 0 0 -0.06098,-0.0057 1.9999999,1.9999999 0 0 0 -0.04289,-0.0026 1.9999999,1.9999999 0 0 0 -0.0155,-0.0016 2.0001999,2.0001999 0 0 0 -0.01344,0 1.9999999,1.9999999 0 0 0 -0.06149,-0.0036 1.9999999,1.9999999 0 0 0 -0.02479,-5.29e-4 z" />
    <path
       id="path840"
       d="m 89.998047,33.539062 a 2,2 0 0 0 -0.136719,0.0059 2,2 0 0 0 -0.09961,0.0098 2.0002,2.0002 0 0 0 -0.0957,0.01367 2,2 0 0 0 -0.154297,0.0332 c -9.166595,1.57509 -18.198862,4.864863 -26.498047,9.65625 -8.302412,4.793314 -15.67037,10.972522 -21.619141,18.126954 a 2,2 0 0 0 -0.06445,0.07031 c -0.01056,0.01273 -0.02266,0.02438 -0.0332,0.03711 a 2,2 0 0 0 -0.002,0.0039 2.0002,2.0002 0 0 0 -0.07227,0.08984 2,2 0 0 0 -0.002,0.0039 2.0002,2.0002 0 0 0 -0.06445,0.09375 2,2 0 0 0 -0.02734,0.04687 2.0002,2.0002 0 0 0 -0.05859,0.101562 2.0002,2.0002 0 0 0 -0.05273,0.107422 2.0002,2.0002 0 0 0 -0.03711,0.08789 2,2 0 0 0 -0.0098,0.02148 2.0002,2.0002 0 0 0 -0.0078,0.02344 2,2 0 0 0 -0.05859,0.183593 2,2 0 0 0 -0.0059,0.01953 C 37.691292,70.98763 36.025505,80.435265 36.025391,90 c 2.2e-5,9.581399 1.668642,19.04659 4.886718,27.77148 a 2,2 0 0 0 0.04102,0.13086 c 0.0029,0.008 0.005,0.0158 0.0078,0.0234 a 2,2 0 0 0 0.002,0.004 2.0002,2.0002 0 0 0 0.04297,0.10547 2,2 0 0 0 0.002,0.004 2.0002,2.0002 0 0 0 0.04883,0.10547 2,2 0 0 0 0.02539,0.0449 2.0002,2.0002 0 0 0 0.06055,0.10352 2.0002,2.0002 0 0 0 0.06641,0.0977 2.0002,2.0002 0 0 0 0.06445,0.0879 2,2 0 0 0 0.0098,0.0117 2.0002,2.0002 0 0 0 0.01172,0.0156 c 0.01,0.012 0.02128,0.0231 0.03125,0.0352 a 2,2 0 0 0 0.06055,0.0664 c 4.605384,5.54062 10.078258,10.47443 16.162109,14.6543 a 2.0002,2.0002 0 0 0 0.335938,0.28906 c 1.692118,1.15276 3.427548,2.24416 5.203125,3.26953 a 2.0002,2.0002 0 0 0 0.002,0 c 1.776103,1.02523 3.588868,1.98385 5.433594,2.87305 a 2.0002,2.0002 0 0 0 0.458984,0.15625 c 6.582309,3.1164 13.504217,5.33911 20.511719,6.54492 a 2,2 0 0 0 0.15039,0.0332 c 0.0071,0.001 0.01434,0.003 0.02148,0.004 a 2,2 0 0 0 0.0039,0 2.0002,2.0002 0 0 0 0.03125,0.004 2,2 0 0 0 0.185547,0.0195 2.0002,2.0002 0 0 0 0.01563,0.002 2,2 0 0 0 0.0039,0 2.0002,2.0002 0 0 0 0.002,0 2,2 0 0 0 0.04687,0.002 2,2 0 0 0 0.06641,0 2,2 0 0 0 0.107422,-0.004 2,2 0 0 0 0.0098,0 2.0002,2.0002 0 0 0 0.0098,0 2,2 0 0 0 0.08789,-0.01 2,2 0 0 0 0.02148,-0.002 2.0002,2.0002 0 0 0 0.05273,-0.008 2,2 0 0 0 0.03516,-0.006 2,2 0 0 0 0.158203,-0.0352 c 7.015972,-1.20708 13.94567,-3.43446 20.53515,-6.55664 a 2.0002,2.0002 0 0 0 0.44532,-0.15234 c 1.84438,-0.88904 3.6578,-1.84804 5.43359,-2.87305 1.77592,-1.02554 3.51264,-2.11655 5.20508,-3.26953 a 2.0002,2.0002 0 0 0 0.33007,-0.28125 c 6.07398,-4.17303 11.53601,-9.09923 16.13672,-14.62891 0.005,-0.006 0.0109,-0.01 0.0156,-0.0156 a 2,2 0 0 0 0.0957,-0.10742 2,2 0 0 0 0.002,-0.002 2.0002,2.0002 0 0 0 0.004,-0.006 2,2 0 0 0 0.0684,-0.0879 2.0002,2.0002 0 0 0 0.0527,-0.0742 2,2 0 0 0 0.0156,-0.0234 2.0002,2.0002 0 0 0 0.0469,-0.0781 2,2 0 0 0 0.0137,-0.0254 2,2 0 0 0 0.0117,-0.0176 2,2 0 0 0 0.0215,-0.0449 2.0002,2.0002 0 0 0 0.0312,-0.0606 2,2 0 0 0 0.041,-0.0898 2.0002,2.0002 0 0 0 0.008,-0.0195 2,2 0 0 0 0.0195,-0.0527 c 2.1e-4,-5.7e-4 -2.2e-4,-10e-4 0,-0.002 a 2,2 0 0 0 0.0605,-0.18945 c 3.20993,-8.71543 4.87488,-18.167376 4.875,-27.73633 -3e-5,-9.57781 -1.66515,-19.039533 -4.88086,-27.761719 a 2,2 0 0 0 -0.0469,-0.144531 2,2 0 0 0 -0.006,-0.01953 2.0002,2.0002 0 0 0 -0.002,-0.0039 2,2 0 0 0 -0.0195,-0.04883 2.0002,2.0002 0 0 0 -0.0254,-0.0625 2,2 0 0 0 -0.0488,-0.101562 2.0002,2.0002 0 0 0 -0.002,-0.0059 2,2 0 0 0 -0.0234,-0.04297 2,2 0 0 0 -0.0332,-0.05664 2,2 0 0 0 -0.0547,-0.08594 2,2 0 0 0 -0.008,-0.01367 2.0002,2.0002 0 0 0 -0.01,-0.01367 2,2 0 0 0 -0.0606,-0.08203 2.0002,2.0002 0 0 0 -0.0332,-0.04492 2,2 0 0 0 -0.0137,-0.01758 c -0.006,-0.0067 -0.012,-0.01281 -0.0176,-0.01953 a 2,2 0 0 0 -0.0801,-0.08789 C 133.97054,55.809443 128.45184,50.851121 122.31836,46.654297 a 2.0002,2.0002 0 0 0 -0.0117,-0.0098 2.0002,2.0002 0 0 0 -0.0996,-0.07227 c -0.35928,-0.244766 -0.74223,-0.454218 -1.10547,-0.69336 -1.35693,-0.894102 -2.70199,-1.805134 -4.11523,-2.621094 -1.61383,-0.931714 -3.27659,-1.757243 -4.94141,-2.574218 -0.1613,-0.07905 -0.31477,-0.173967 -0.47656,-0.251953 a 2.0002,2.0002 0 0 0 -0.0508,-0.02148 c -6.72673,-3.241213 -13.809515,-5.563038 -20.990236,-6.800781 -0.0033,-5.62e-4 -0.0065,-0.0014 -0.0098,-0.002 a 2,2 0 0 0 -0.177734,-0.03711 2,2 0 0 0 -0.01563,-0.0039 2,2 0 0 0 -0.107422,-0.01367 2,2 0 0 0 -0.103516,-0.0078 2,2 0 0 0 -0.01563,-0.002 2.0002,2.0002 0 0 0 -0.01367,0 2,2 0 0 0 -0.08594,-0.0039 z m -1.996094,4.480469 v 0.09961 c -3.310533,0.823807 -6.613423,1.790347 -9.865234,3.033203 -0.338145,-0.05261 -0.661087,-0.0516 -0.998047,-0.09961 3.564993,-1.309918 7.20349,-2.286736 10.863281,-3.033203 z m 4,0 c 3.636121,0.741838 7.252114,1.707738 10.794927,3.00586 -0.33912,0.04861 -0.6636,0.0483 -1.00391,0.101562 -3.228491,-1.230377 -6.504933,-2.192352 -9.791017,-3.009765 z m -1.996094,3.65625 c 3.318546,0.777416 6.625377,1.819637 9.898438,3.044922 0.414433,1.599507 0.796423,3.32253 1.166013,5.091797 -0.0819,0.02448 -0.16408,0.0495 -0.24609,0.07422 l 0.002,-0.002 c -0.17285,0.05194 -0.3464,0.105241 -0.51953,0.158203 -0.17187,0.05219 -0.34349,0.105011 -0.515624,0.158203 a 2.0002,2.0002 0 0 0 -0.002,0 c -0.173931,0.05391 -0.347303,0.109137 -0.521484,0.164062 a 2.0002,2.0002 0 0 0 -0.0078,0.002 c -0.17016,0.05438 -0.341345,0.108722 -0.511719,0.164062 -0.174011,0.05558 -0.347248,0.113332 -0.521485,0.169922 a 2.0002,2.0002 0 0 0 -0.0098,0.002 c -0.17426,0.05762 -0.348981,0.11521 -0.523438,0.173828 -0.171147,0.05661 -0.342334,0.114308 -0.513671,0.171875 a 2.0002,2.0002 0 0 0 -0.0039,0.002 c -0.174639,0.05908 -0.350572,0.117666 -0.52539,0.177735 a 2.0002,2.0002 0 0 0 0,0.002 c -0.174873,0.06024 -0.350355,0.120412 -0.525391,0.18164 -0.174904,0.06112 -0.350336,0.121498 -0.525391,0.183594 h 0.0039 c -0.175276,0.06177 -0.349971,0.122796 -0.525391,0.185547 a 2.0002,2.0002 0 0 0 -0.0059,0.0039 c -0.175366,0.06345 -0.351859,0.126991 -0.527344,0.191406 -0.172082,0.06227 -0.345381,0.124292 -0.517578,0.1875 a 2.0002,2.0002 0 0 0 -0.0059,0.0039 c -0.175429,0.06505 -0.351818,0.129304 -0.527343,0.195312 -0.174892,0.06571 -0.350416,0.132559 -0.525391,0.199219 -0.174494,0.06607 -0.348867,0.132207 -0.523438,0.199219 a 2.0002,2.0002 0 0 0 -0.0039,0.002 c -0.175726,0.06796 -0.351561,0.136172 -0.527344,0.205078 -0.175022,0.06826 -0.348367,0.137843 -0.523437,0.207031 a 2.0002,2.0002 0 0 0 -0.002,0 c -0.176358,0.06978 -0.352905,0.140216 -0.529297,0.210938 -0.175864,0.07051 -0.351459,0.14145 -0.527344,0.21289 a 2.0002,2.0002 0 0 0 -0.0039,0.002 c -0.109316,0.04468 -0.218808,0.08973 -0.328125,0.134766 -0.108015,-0.04448 -0.216205,-0.08868 -0.324219,-0.132812 a 2.0002,2.0002 0 0 0 -0.0059,-0.002 c -0.175341,-0.07114 -0.350071,-0.142673 -0.525391,-0.21289 h -0.002 C 88.9668,53.318179 88.790979,53.247293 88.615234,53.177734 a 2.0002,2.0002 0 0 0 -0.002,0 c -0.174855,-0.0691 -0.34863,-0.136909 -0.523437,-0.205078 l -0.002,-0.002 C 87.9128,52.902066 87.737347,52.83519 87.562406,52.767531 a 2.0002,2.0002 0 0 0 -0.0039,-0.002 c -0.174571,-0.06701 -0.348943,-0.133147 -0.523438,-0.199219 l -0.0039,-0.002 c -0.173615,-0.06614 -0.347952,-0.132061 -0.521484,-0.197265 h -0.002 c -0.174945,-0.06586 -0.35054,-0.132356 -0.52539,-0.197266 a 2.0002,2.0002 0 0 0 -0.0059,-0.002 c -0.175491,-0.06442 -0.351972,-0.127961 -0.527343,-0.191407 l 0.0098,0.002 c -0.175485,-0.06442 -0.351978,-0.12796 -0.527343,-0.191407 a 2.0002,2.0002 0 0 0 -0.0059,-0.002 c -0.174079,-0.06219 -0.349501,-0.124319 -0.523437,-0.185547 l -0.0039,-0.002 c -0.173125,-0.06133 -0.346555,-0.123224 -0.519532,-0.183594 h -0.002 c -0.174459,-0.06102 -0.349141,-0.121598 -0.523437,-0.18164 -0.174829,-0.06007 -0.350741,-0.120611 -0.525391,-0.179688 a 2.0002,2.0002 0 0 0 -0.0039,0 c -0.171323,-0.05757 -0.342539,-0.115268 -0.513672,-0.171875 l -0.0098,-0.002 c -0.171341,-0.05755 -0.34252,-0.115287 -0.513672,-0.171875 a 2.0002,2.0002 0 0 0 -0.0098,-0.0039 c -0.174242,-0.05659 -0.347468,-0.112387 -0.521485,-0.167969 l 0.0078,0.0039 c -0.173705,-0.05644 -0.34605,-0.112531 -0.519531,-0.167968 a 2.0002,2.0002 0 0 0 -0.0078,-0.0039 c -0.174194,-0.05493 -0.347539,-0.108205 -0.521484,-0.16211 a 2.0002,2.0002 0 0 0 -0.002,0 c -0.172121,-0.05319 -0.343764,-0.106017 -0.515625,-0.158203 l -0.0039,-0.002 C 79.5219,49.992248 79.35025,49.939702 79.179371,49.888348 h -0.002 c -0.08073,-0.02432 -0.16152,-0.04816 -0.242187,-0.07227 0.369579,-1.770257 0.751547,-3.493307 1.166015,-5.09375 3.274932,-1.226238 6.583804,-2.269025 9.904297,-3.046875 z m 20.289061,2.603516 c 5.2e-4,2.53e-4 10e-4,-2.53e-4 0.002,0 0.0501,0.0246 0.0984,0.05341 0.14843,0.07813 1.54079,0.759542 3.06681,1.550177 4.55664,2.410156 1.39849,0.807607 2.75513,1.683336 4.09961,2.574219 0.13575,0.09004 0.277,0.172831 0.41211,0.263672 0.91813,1.763368 1.71923,3.673565 2.51367,5.591797 -1.59151,0.460161 -3.19452,0.932509 -4.88476,1.501953 -0.15118,-0.1008 -0.30331,-0.200726 -0.45508,-0.300781 l -0.002,-0.002 c -0.15772,-0.104294 -0.31626,-0.209016 -0.47461,-0.3125 a 2.0002,2.0002 0 0 0 -0.004,-0.002 c -0.15923,-0.103474 -0.31866,-0.205947 -0.47851,-0.308593 l 0.006,0.002 c -0.15941,-0.103137 -0.32045,-0.204334 -0.48047,-0.306641 a 2.0002,2.0002 0 0 0 -0.004,-0.0039 c -0.16052,-0.102002 -0.3213,-0.203529 -0.48242,-0.304688 -0.16023,-0.100695 -0.31966,-0.198974 -0.48047,-0.298828 l -0.002,-0.002 c -0.16062,-0.100065 -0.32124,-0.199608 -0.48243,-0.298828 a 2.0002,2.0002 0 0 0 -0.004,-0.0039 c -0.16168,-0.099 -0.32409,-0.196778 -0.48633,-0.294922 l -0.002,-0.002 c -0.16046,-0.09741 -0.32142,-0.19445 -0.48243,-0.291016 l -0.004,-0.002 c -0.16194,-0.09745 -0.3258,-0.194429 -0.48828,-0.291016 a 2.0002,2.0002 0 0 0 -0.004,-0.002 c -0.0545,-0.03225 -0.10946,-0.06355 -0.16406,-0.0957 -0.28268,-0.166732 -0.54774,-0.359314 -0.83203,-0.523437 -0.27464,-0.15855 -0.56385,-0.287337 -0.83985,-0.44336 -0.003,-0.0014 -0.005,-0.0025 -0.008,-0.0039 l -0.002,-0.002 c -0.005,-0.0026 -0.009,-0.0052 -0.0137,-0.0078 -0.15886,-0.08981 -0.31921,-0.178601 -0.47852,-0.267578 l -0.004,-0.002 c -0.16489,-0.09241 -0.33072,-0.185833 -0.49609,-0.277344 a 2.0002,2.0002 0 0 0 -0.004,-0.002 c -0.16578,-0.09125 -0.3318,-0.181145 -0.49804,-0.271484 l -0.002,-0.002 c -0.16649,-0.0908 -0.33304,-0.181605 -0.5,-0.271485 a 2.0002,2.0002 0 0 0 -0.004,-0.002 c -0.16768,-0.08977 -0.33579,-0.178742 -0.50391,-0.267578 -0.16737,-0.08843 -0.33416,-0.176172 -0.50195,-0.263672 h -0.002 c -0.16806,-0.08799 -0.33543,-0.174672 -0.50391,-0.261719 a 2.0002,2.0002 0 0 0 0,-0.002 c -0.16881,-0.08711 -0.3386,-0.173605 -0.50781,-0.259765 -0.16941,-0.08612 -0.33997,-0.17266 -0.50977,-0.257813 -0.16887,-0.08458 -0.33857,-0.168327 -0.50781,-0.251953 l -0.002,-0.002 c -0.068,-0.03368 -0.13705,-0.06608 -0.20508,-0.09961 -0.009,-0.0045 -0.0182,-0.0092 -0.0273,-0.01367 -0.002,-9e-4 -0.004,-0.0011 -0.006,-0.002 -2.5e-4,-1.26e-4 2.6e-4,-0.0018 0,-0.002 -0.0133,-0.0066 -0.0258,-0.01494 -0.0391,-0.02148 -7.2e-4,-0.0036 -0.003,-0.0062 -0.004,-0.0098 l 0.041,0.01953 c -0.0112,-0.05526 -0.0219,-0.11089 -0.0332,-0.166016 v -0.002 c -0.0322,-0.158213 -0.0651,-0.315543 -0.0977,-0.472656 v -0.002 c -0.0326,-0.157738 -0.0666,-0.316033 -0.0996,-0.472656 -0.0332,-0.157432 -0.066,-0.314415 -0.0996,-0.470703 -0.0334,-0.155807 -0.0678,-0.310182 -0.10156,-0.464844 a 2.0002,2.0002 0 0 0 0,-0.002 c -0.0339,-0.15488 -0.0673,-0.309174 -0.10156,-0.46289 a 2.0002,2.0002 0 0 0 -0.002,-0.002 c -0.0342,-0.152578 -0.067,-0.303666 -0.10157,-0.455078 l -0.002,-0.0039 c -0.0342,-0.151242 -0.069,-0.301086 -0.10352,-0.451172 a 2.0002,2.0002 0 0 0 0,-0.0059 c -0.0352,-0.151414 -0.0718,-0.300965 -0.10742,-0.451172 h 0.002 c -0.0352,-0.149075 -0.0718,-0.297433 -0.10743,-0.445313 v -0.0039 c -0.0352,-0.147411 -0.0718,-0.293229 -0.10742,-0.439453 a 2.0002,2.0002 0 0 0 0,-0.0039 c -0.0101,-0.04125 -0.0211,-0.08189 -0.0312,-0.123047 2.08666,-0.277168 4.16906,-0.539267 6.18164,-0.626953 z m -40.595701,0.0332 c 2.014485,0.08752 4.098772,0.347617 6.1875,0.625 -0.01014,0.04116 -0.02114,0.08179 -0.03125,0.123047 -0.03614,0.147041 -0.07165,0.295102 -0.107422,0.443359 a 2.0002,2.0002 0 0 0 -0.002,0.002 c -0.03583,0.149106 -0.07001,0.298902 -0.105469,0.449219 -0.03531,0.148991 -0.07248,0.299041 -0.107422,0.449219 a 2.0002,2.0002 0 0 0 0,0.002 c -0.03515,0.151682 -0.06875,0.304157 -0.103515,0.457031 a 2.0002,2.0002 0 0 0 -0.002,0.002 c -0.03454,0.152569 -0.0674,0.305247 -0.101562,0.458985 a 2.0002,2.0002 0 0 0 -0.002,0.002 c -0.03402,0.153505 -0.06792,0.306283 -0.101563,0.460937 -0.0338,0.152448 -0.06618,0.305403 -0.09961,0.458985 a 2.0002,2.0002 0 0 0 -0.002,0.01172 c -0.03297,0.155885 -0.06702,0.313706 -0.09961,0.470704 -0.03261,0.155262 -0.06542,0.310441 -0.09766,0.466796 -0.03278,0.155649 -0.06526,0.311999 -0.09766,0.46875 a 2.0002,2.0002 0 0 0 -0.002,0.0078 c -0.0095,0.0472 -0.01783,0.09528 -0.02734,0.142578 -0.383202,0.188693 -0.753571,0.406057 -1.134766,0.599609 -0.01297,0.0066 -0.0261,0.01294 -0.03906,0.01953 -0.156202,0.07962 -0.31094,0.159803 -0.466797,0.240234 -0.166939,0.08543 -0.33346,0.171452 -0.5,0.257813 a 2.0002,2.0002 0 0 0 -0.0059,0.002 c -0.1686,0.08801 -0.337688,0.176669 -0.50586,0.265625 -0.167608,0.08857 -0.334781,0.178076 -0.501953,0.267578 -0.166973,0.08907 -0.33347,0.179535 -0.5,0.269531 a 2.0002,2.0002 0 0 0 -0.0039,0.002 c -0.167363,0.09094 -0.335056,0.181574 -0.501953,0.273438 -0.02398,0.01315 -0.04829,0.02589 -0.07227,0.03906 -0.62729,0.345321 -1.275968,0.64562 -1.896484,1.003907 -0.554496,0.320168 -1.074796,0.68949 -1.623047,1.019531 -0.07621,0.0456 -0.152428,0.09093 -0.228516,0.136719 a 2.0002,2.0002 0 0 0 -0.0039,0.0039 c -0.16267,0.09841 -0.324223,0.195653 -0.486328,0.294922 -0.162165,0.09896 -0.322783,0.199013 -0.484375,0.298828 a 2.0002,2.0002 0 0 0 -0.0039,0.002 c -0.161587,0.100325 -0.32338,0.201561 -0.484375,0.302734 -0.160759,0.101037 -0.322266,0.202812 -0.482422,0.304688 -0.159504,0.101093 -0.319616,0.202769 -0.478516,0.304687 -0.159843,0.102632 -0.319296,0.205135 -0.478516,0.308594 a 2.0002,2.0002 0 0 0 -0.002,0.002 c -0.114769,0.07469 -0.229311,0.149493 -0.34375,0.224609 -0.282049,0.185208 -0.577381,0.351265 -0.857421,0.539063 -0.04753,-0.01593 -0.09512,-0.03299 -0.142579,-0.04883 h -0.002 C 62.4129,56.697147 62.259451,56.646418 62.107064,56.596053 h -0.002 c -0.152912,-0.05065 -0.304894,-0.100627 -0.457031,-0.150391 a 2.0002,2.0002 0 0 0 -0.002,-0.002 c -0.152963,-0.04993 -0.304866,-0.09942 -0.457031,-0.148437 l 0.002,0.002 c -0.151627,-0.04898 -0.302297,-0.0984 -0.453125,-0.146484 a 2.0002,2.0002 0 0 0 -0.002,0 c -0.151096,-0.04806 -0.302846,-0.09543 -0.453125,-0.142579 a 2.0002,2.0002 0 0 0 -0.002,-0.002 c -0.149232,-0.04663 -0.296903,-0.091 -0.445312,-0.136718 l -0.0039,-0.002 c -0.148043,-0.04604 -0.296132,-0.09158 -0.443359,-0.136719 a 2.0002,2.0002 0 0 0 -0.0039,-0.002 c -0.148149,-0.04501 -0.296062,-0.08873 -0.44336,-0.132813 h -0.002 c -0.145951,-0.0438 -0.292392,-0.08796 -0.4375,-0.130859 l -0.0039,-0.002 C 58.3529,55.419782 58.206799,55.378141 58.0625,55.335938 a 2.0002,2.0002 0 0 0 -0.002,-0.002 c -0.04108,-0.01196 -0.08203,-0.02327 -0.123047,-0.03516 0.803263,-1.945485 1.618529,-3.879399 2.548828,-5.666016 1.472552,-0.988814 2.969548,-1.943733 4.507813,-2.832031 1.538033,-0.887775 3.11288,-1.707617 4.705078,-2.488281 z m 33.642581,9.046875 c 0.0664,0.03263 0.13283,0.06487 0.19922,0.09766 1.66295,0.821039 3.30722,1.688847 4.92773,2.603516 0.017,0.0096 0.0338,0.01969 0.0508,0.0293 a 2.0002,2.0002 0 0 0 0.002,0 c 0.1596,0.08994 0.3194,0.180671 0.47852,0.271484 0.11694,0.06678 0.23293,0.133921 0.34961,0.201172 0.15699,0.09088 0.31421,0.181716 0.4707,0.273438 a 2.0002,2.0002 0 0 0 0.002,0.002 c 0.10738,0.06272 0.21511,0.126344 0.32226,0.189453 1.62866,0.960849 3.2281,1.964581 4.79492,3.011718 0.011,0.0073 0.0223,0.01417 0.0332,0.02148 0.0273,0.01823 0.0548,0.03643 0.082,0.05469 0.93922,3.756422 1.67514,7.724704 2.24414,11.814454 l -10.65821,6.15625 -0.008,0.002 c -0.003,-0.002 -0.007,-0.0038 -0.01,-0.0059 a 2.0002,2.0002 0 0 0 -0.002,-0.002 c -0.1697,-0.105799 -0.33962,-0.210908 -0.50976,-0.316406 a 2.0002,2.0002 0 0 0 -0.002,-0.002 c -0.16852,-0.104218 -0.33694,-0.208589 -0.50586,-0.3125 l -0.004,-0.002 c -0.16914,-0.104594 -0.33826,-0.208216 -0.50781,-0.3125 a 2.0002,2.0002 0 0 0 -0.002,-0.002 c -0.17075,-0.104715 -0.34252,-0.208111 -0.51367,-0.3125 a 2.0002,2.0002 0 0 0 -0.002,-0.002 c -0.16959,-0.103179 -0.33982,-0.205746 -0.50977,-0.308593 l -0.004,-0.0039 c -0.16993,-0.10336 -0.34143,-0.205567 -0.51172,-0.308593 a 2.0002,2.0002 0 0 0 -0.002,-0.002 c -0.17183,-0.103663 -0.34346,-0.207236 -0.51563,-0.310546 a 2.0002,2.0002 0 0 0 -0.002,-0.002 c -0.17018,-0.10184 -0.34122,-0.203203 -0.51172,-0.304687 l -0.006,-0.0039 c -0.17052,-0.102036 -0.34284,-0.204962 -0.51367,-0.306641 a 2.0002,2.0002 0 0 0 -0.002,0 c -0.17086,-0.101404 -0.3425,-0.203653 -0.51367,-0.304687 l -0.006,-0.0039 c -0.17088,-0.101414 -0.34249,-0.203642 -0.51367,-0.304687 a 2.0002,2.0002 0 0 0 -0.002,0 c -0.17358,-0.102169 -0.34762,-0.204864 -0.52149,-0.306641 a 2.0002,2.0002 0 0 0 -0.002,-0.002 c -0.17362,-0.101353 -0.3476,-0.201784 -0.521484,-0.302734 a 2.0002,2.0002 0 0 0 -0.002,-0.002 C 99.741317,73.940993 99.567514,73.8418 99.394531,73.742188 l -0.0039,-0.002 c -4.88e-4,-2.82e-4 -0.0015,2.83e-4 -0.002,0 -0.171937,-0.09952 -0.343454,-0.19971 -0.515625,-0.298828 a 2.0002,2.0002 0 0 0 -0.002,-0.002 c -0.174377,-0.10011 -0.348843,-0.199147 -0.523438,-0.298828 a 2.0002,2.0002 0 0 0 -0.002,-0.002 c -0.174748,-0.0995 -0.348493,-0.197817 -0.523437,-0.296875 a 2.0002,2.0002 0 0 0 -0.002,-0.002 c -0.173858,-0.09816 -0.347453,-0.195256 -0.521484,-0.292969 l -0.0039,-0.002 C 97.121057,72.44677 96.947475,72.347703 96.773438,72.25 a 2.0002,2.0002 0 0 0 -0.0039,0 c -0.175505,-0.09825 -0.349732,-0.197137 -0.52539,-0.294922 l 0.0039,0.0039 c -0.175498,-0.09825 -0.351693,-0.197136 -0.527344,-0.294922 a 2.0002,2.0002 0 0 0 -0.002,-0.002 C 95.543155,71.564626 95.36704,71.467994 95.19136,71.371041 a 2.0002,2.0002 0 0 0 -0.002,-0.002 c -0.174665,-0.09613 -0.348665,-0.191465 -0.523437,-0.28711 l -0.0039,-0.002 c -0.174342,-0.09593 -0.348989,-0.191662 -0.523437,-0.287109 a 2.0002,2.0002 0 0 0 -0.002,0 c -0.17598,-0.09601 -0.351278,-0.1916 -0.527344,-0.28711 a 2.0002,2.0002 0 0 0 -0.002,-0.002 c -0.17477,-0.09453 -0.350558,-0.189186 -0.525391,-0.283203 l -0.0039,-0.002 c -0.174767,-0.0945 -0.348608,-0.189207 -0.523437,-0.283203 a 2.0002,2.0002 0 0 0 -0.002,0 c -0.176094,-0.0944 -0.353161,-0.189332 -0.529296,-0.283203 a 2.0002,2.0002 0 0 0 -0.002,0 c -0.0059,-0.0031 -0.01166,-0.0066 -0.01758,-0.0098 v -12.32785 c 3.820279,-1.546307 7.62167,-2.894866 11.337892,-3.955078 z m -26.642581,0.01172 c 3.703474,1.057784 7.492129,2.399046 11.298828,3.939453 L 88,69.625 88.0039,69.623 v 0.01563 c -0.0059,0.0031 -0.01166,0.0066 -0.01758,0.0098 a 2.0002,2.0002 0 0 0 -0.002,0.002 c -0.176477,0.09407 -0.352861,0.186655 -0.529297,0.28125 a 2.0002,2.0002 0 0 0 -0.002,0.002 c -0.175785,0.09451 -0.351622,0.190129 -0.527344,0.285156 l 0.0039,-0.0039 c -0.176431,0.09487 -0.352931,0.191718 -0.529297,0.287109 a 2.0002,2.0002 0 0 0 -0.002,0 c -0.176067,0.09552 -0.351364,0.191089 -0.527344,0.287109 a 2.0002,2.0002 0 0 0 -0.002,0.002 c -0.175717,0.09614 -0.351736,0.192434 -0.527344,0.289062 -0.174765,0.09564 -0.34878,0.190988 -0.523438,0.28711 a 2.0002,2.0002 0 0 0 -0.0039,0.002 c -0.175687,0.09697 -0.349834,0.193568 -0.525391,0.291015 a 2.0002,2.0002 0 0 0 -0.002,0.002 c -0.175329,0.0976 -0.352166,0.194906 -0.527343,0.292969 -0.173897,0.09681 -0.347738,0.193752 -0.521485,0.291016 a 2.0002,2.0002 0 0 0 -0.002,0.002 c -0.175296,0.09841 -0.350269,0.196053 -0.52539,0.294922 -0.174036,0.09771 -0.347622,0.19676 -0.521485,0.294922 a 2.0002,2.0002 0 0 0 -0.002,0 c -0.17527,0.09924 -0.350318,0.199145 -0.525391,0.298828 a 2.0002,2.0002 0 0 0 -0.0039,0.002 c -0.174589,0.09968 -0.349067,0.198718 -0.523437,0.298828 a 2.0002,2.0002 0 0 0 -0.002,0.002 c -0.172989,0.09959 -0.344825,0.198826 -0.517578,0.298828 -0.0013,7.3e-4 -0.0026,0.0012 -0.0039,0.002 -0.0038,0.0022 -0.0079,0.0037 -0.01172,0.0059 -0.168865,0.09725 -0.337219,0.195328 -0.505859,0.292968 a 2.0002,2.0002 0 0 0 -0.002,0.002 c -0.173886,0.100957 -0.347861,0.201373 -0.521485,0.302734 a 2.0002,2.0002 0 0 0 -0.002,0.002 c -0.173541,0.101588 -0.346273,0.202708 -0.519531,0.304688 a 2.0002,2.0002 0 0 0 -0.002,0.002 c -0.173192,0.102227 -0.346646,0.204035 -0.519531,0.30664 -0.171939,0.101492 -0.343988,0.202823 -0.515625,0.304688 a 2.0002,2.0002 0 0 0 -0.002,0.002 c -0.172843,0.102866 -0.345064,0.205361 -0.517578,0.308594 -0.171584,0.102125 -0.342412,0.204154 -0.513672,0.30664 a 2.0002,2.0002 0 0 0 -0.002,0.002 c -0.172159,0.103311 -0.345768,0.206884 -0.517578,0.310547 a 2.0002,2.0002 0 0 0 -0.002,0 c -0.171826,0.103952 -0.342217,0.208209 -0.513672,0.3125 -0.170248,0.103022 -0.339883,0.207192 -0.509765,0.310547 a 2.0002,2.0002 0 0 0 -0.002,0 c -0.171138,0.104397 -0.342928,0.209731 -0.513672,0.314453 a 2.0002,2.0002 0 0 0 -0.002,0 c -0.170487,0.104857 -0.341647,0.211237 -0.511719,0.316407 l 0.0059,-0.002 c -0.170472,0.104857 -0.341661,0.209284 -0.511718,0.314454 a 2.0002,2.0002 0 0 0 -0.002,0 c -0.169799,0.105303 -0.340402,0.210803 -0.509765,0.316406 a 2.0002,2.0002 0 0 0 -0.002,0.002 c -0.0052,0.0033 -0.01042,0.0065 -0.01563,0.0098 L 62.646484,71.898438 c 0.565615,-4.019801 1.287111,-7.926804 2.210938,-11.623047 0.0071,-0.02867 0.01439,-0.05729 0.02148,-0.08594 0.09967,-0.06683 0.198884,-0.134674 0.298828,-0.201172 a 2.0002,2.0002 0 0 0 0.002,0 c 0.151269,-0.100905 0.303179,-0.202598 0.455078,-0.302734 0.05498,-0.03621 0.110958,-0.07132 0.166015,-0.107422 1.056748,-0.693265 2.12831,-1.364981 3.212891,-2.019531 0.112209,-0.06729 0.223457,-0.134311 0.335937,-0.201172 a 2.0002,2.0002 0 0 0 0.0039,-0.002 c 0.157006,-0.09367 0.313175,-0.186474 0.470703,-0.279297 a 2.0002,2.0002 0 0 0 0.0039,-0.002 c 0.157695,-0.09325 0.314447,-0.186902 0.472656,-0.279297 0.115054,-0.06715 0.230384,-0.134473 0.345703,-0.201172 l 0.0039,-0.002 c 0.157194,-0.09051 0.314982,-0.179873 0.472656,-0.269531 a 2.0002,2.0002 0 0 0 0.0039,-0.002 c 0.159111,-0.09081 0.316972,-0.181549 0.476563,-0.271484 l -0.0039,0.0039 c 0.159839,-0.0896 0.320169,-0.178863 0.480469,-0.267578 a 2.0002,2.0002 0 0 0 0.002,-0.002 c 0.159864,-0.08879 0.320154,-0.177717 0.480469,-0.265625 a 2.0002,2.0002 0 0 0 0.0039,-0.002 c 0.0079,-0.0044 0.01552,-0.0093 0.02344,-0.01367 0.905519,-0.497215 1.817684,-0.976964 2.736328,-1.445312 0.04901,-0.02499 0.09744,-0.05127 0.146484,-0.07617 l 0.0059,-0.002 c 0.161299,-0.08159 0.32272,-0.163464 0.484375,-0.244141 a 2.0002,2.0002 0 0 0 0.002,0 c 0.163142,-0.08171 0.326738,-0.163361 0.490234,-0.244141 0.08147,-0.04018 0.16259,-0.0792 0.244141,-0.11914 z M 53.933594,54.46875 c -0.131623,0.327959 -0.299767,0.61768 -0.427735,0.949219 -2.670519,2.173165 -5.13252,4.523348 -7.476562,6.951172 l -0.08203,-0.05078 c 2.456669,-2.777879 5.094739,-5.429909 7.986328,-7.849609 z m 72.152346,0.01563 c 2.85612,2.391703 5.46079,5.012313 7.89258,7.753906 l -0.0469,0.02539 c -2.34075,-2.428286 -4.80541,-4.775102 -7.47266,-6.949219 -0.11209,-0.289497 -0.25816,-0.543316 -0.37304,-0.830078 z m -63.351565,2.314453 0.01172,0.0039 c -0.002,0.0013 -0.0039,0.0026 -0.0059,0.0039 -0.0039,-0.0013 -0.0078,-0.0026 -0.01172,-0.0039 z m 61.591795,1.982422 c 2.66241,2.199278 5.1926,4.512532 7.49805,6.96875 0.98633,3.263272 1.7389,6.647797 2.31445,10.095703 -1.18885,1.169372 -2.49799,2.37363 -3.85937,3.589844 -0.0419,-0.03951 -0.083,-0.07966 -0.125,-0.119141 h -0.002 c -0.13004,-0.12244 -0.25957,-0.245018 -0.39062,-0.367187 l -0.004,-0.002 c -0.13115,-0.122753 -0.26238,-0.246666 -0.39453,-0.369141 -0.13365,-0.123696 -0.26964,-0.247692 -0.4043,-0.371094 a 2.0002,2.0002 0 0 0 -0.006,-0.0059 c -0.13204,-0.120047 -0.2635,-0.239624 -0.39648,-0.359375 l -0.008,-0.0078 c -0.13245,-0.120435 -0.26699,-0.24119 -0.40039,-0.361328 a 2.0002,2.0002 0 0 0 -0.008,-0.0059 c -0.13426,-0.119679 -0.2691,-0.24001 -0.40429,-0.359375 l -0.008,-0.0078 c -0.13428,-0.119673 -0.2691,-0.240016 -0.4043,-0.359375 a 2.0002,2.0002 0 0 0 -0.004,-0.002 c -0.13849,-0.121719 -0.27853,-0.243856 -0.41797,-0.365234 -0.13961,-0.121324 -0.27936,-0.244263 -0.41992,-0.365235 v 0.002 c -0.14035,-0.120939 -0.28059,-0.242702 -0.42187,-0.363282 l 0.002,0.0039 c -0.14111,-0.120933 -0.2818,-0.242714 -0.42383,-0.363282 a 2.0002,2.0002 0 0 0 -0.006,-0.0039 c -0.14011,-0.118059 -0.28089,-0.235824 -0.42187,-0.353515 l -0.008,-0.0059 c -0.14013,-0.118065 -0.28086,-0.237771 -0.42187,-0.355469 a 2.0002,2.0002 0 0 0 -0.006,-0.0039 c -0.1437,-0.119058 -0.28706,-0.238757 -0.43164,-0.357422 h -0.002 c -0.14375,-0.118086 -0.28704,-0.235827 -0.43164,-0.353515 l -0.002,-0.002 c -0.14488,-0.11841 -0.2898,-0.235511 -0.43554,-0.353515 a 2.0002,2.0002 0 0 0 -0.004,-0.0039 c -0.14599,-0.117644 -0.29262,-0.234337 -0.43945,-0.351563 l -0.002,-0.002 c -0.14637,-0.117258 -0.29225,-0.234728 -0.43945,-0.351563 -0.14858,-0.117825 -0.29785,-0.23613 -0.44727,-0.353515 -0.14894,-0.117071 -0.29945,-0.232985 -0.44921,-0.349609 a 2.0002,2.0002 0 0 0 -0.002,-0.002 c -0.077,-0.05969 -0.15517,-0.120113 -0.23242,-0.179687 -0.0169,-0.01308 -0.03,-0.02794 -0.0469,-0.04102 -0.0153,-0.114127 -0.0313,-0.227839 -0.0469,-0.341797 a 2.0002,2.0002 0 0 0 -0.002,-0.0059 c -0.0261,-0.187375 -0.0513,-0.373652 -0.0781,-0.560547 v -0.002 c -0.0268,-0.187436 -0.0544,-0.375559 -0.082,-0.5625 a 2.0002,2.0002 0 0 0 0,-0.002 c -0.0277,-0.186816 -0.0574,-0.372289 -0.0859,-0.558594 l 0.002,0.0039 c -0.0282,-0.186686 -0.0569,-0.374381 -0.0859,-0.560546 a 2.0002,2.0002 0 0 0 -0.002,-0.0039 c -0.0295,-0.18612 -0.0596,-0.373017 -0.0899,-0.558593 l 0.002,0.0039 c -0.0297,-0.184819 -0.0613,-0.368461 -0.0918,-0.552735 v -0.002 c -0.0304,-0.184411 -0.0606,-0.368881 -0.0918,-0.552734 a 2.0002,2.0002 0 0 0 -0.002,-0.0078 c -0.032,-0.184186 -0.0629,-0.367184 -0.0957,-0.550781 v 0.0078 c -0.032,-0.184187 -0.0629,-0.367184 -0.0957,-0.550782 a 2.0002,2.0002 0 0 0 -0.002,-0.0078 c -0.0332,-0.182008 -0.0676,-0.363521 -0.10156,-0.544922 v -0.0039 c -0.0335,-0.180731 -0.0673,-0.360894 -0.10156,-0.541016 v -0.002 c -0.0344,-0.18157 -0.0703,-0.363982 -0.10547,-0.544922 -0.0354,-0.181446 -0.0713,-0.364126 -0.10743,-0.544922 a 2.0002,2.0002 0 0 0 0,-0.0039 c -0.0358,-0.177128 -0.0728,-0.354767 -0.10937,-0.53125 l -0.002,-0.0098 c -0.0358,-0.177131 -0.0709,-0.35281 -0.10743,-0.529296 a 2.0002,2.0002 0 0 0 -0.002,-0.0098 c -0.0381,-0.179193 -0.0783,-0.358616 -0.11719,-0.53711 l 0.004,0.0098 c -0.038,-0.178654 -0.0765,-0.357196 -0.11523,-0.535156 a 2.0002,2.0002 0 0 0 -0.002,-0.0078 c -0.0395,-0.178319 -0.0789,-0.35561 -0.11914,-0.533203 a 2.0002,2.0002 0 0 0 -0.002,-0.002 c -0.0403,-0.177057 -0.08,-0.354932 -0.1211,-0.53125 v 0.0059 c -0.0406,-0.175784 -0.0817,-0.352298 -0.12304,-0.527343 v -0.002 c -0.0196,-0.08353 -0.0407,-0.166637 -0.0605,-0.25 0.10938,-0.03617 0.21921,-0.07174 0.32813,-0.107422 a 2.0002,2.0002 0 0 0 0.004,0 c 0.14361,-0.04741 0.28688,-0.09601 0.42969,-0.142578 l 0.0117,-0.0039 c 0.14333,-0.04577 0.28526,-0.08988 0.42773,-0.134765 a 2.0002,2.0002 0 0 0 0.01,-0.0039 c 0.14583,-0.04662 0.2906,-0.09296 0.43555,-0.138672 l -0.002,0.002 c 0.14461,-0.0455 0.28988,-0.09213 0.4336,-0.136719 0.14463,-0.04475 0.28793,-0.08899 0.43164,-0.132812 l -0.002,0.002 c 0.1435,-0.0436 0.28714,-0.08624 0.42969,-0.128907 a 2.0002,2.0002 0 0 0 0.002,-0.002 c 0.14202,-0.0427 0.28276,-0.08518 0.42383,-0.126953 0.14148,-0.04172 0.28332,-0.08226 0.42383,-0.123047 a 2.0002,2.0002 0 0 0 0.002,0 c 0.14061,-0.04093 0.2803,-0.0811 0.41993,-0.121093 a 2.0002,2.0002 0 0 0 0.002,-0.002 c 0.13968,-0.04014 0.27928,-0.07993 0.41797,-0.11914 a 2.0002,2.0002 0 0 0 0.002,0 c 0.13679,-0.03886 0.27238,-0.07729 0.4082,-0.115235 l 0.006,-0.002 c 0.004,-0.0011 0.008,-0.0028 0.0117,-0.0039 z m -68.652342,0.07031 c 1.606893,0.444849 3.303429,0.979979 5.03711,1.550782 -0.01342,0.05668 -0.02767,0.113164 -0.04102,0.169922 -0.04131,0.17506 -0.08248,0.351544 -0.123047,0.527343 v -0.0059 c -0.04109,0.176325 -0.08076,0.354186 -0.121094,0.53125 a 2.0002,2.0002 0 0 0 0,0.002 c -0.04027,0.177586 -0.08158,0.354892 -0.121093,0.533203 a 2.0002,2.0002 0 0 0 0,0.0078 c -0.03872,0.17796 -0.07727,0.356502 -0.115235,0.535156 -0.03815,0.175252 -0.07587,0.349465 -0.113281,0.525391 a 2.0002,2.0002 0 0 0 -0.002,0.01172 c -0.03725,0.179719 -0.07484,0.358675 -0.111328,0.539063 -0.03656,0.17649 -0.07355,0.354114 -0.109375,0.53125 a 2.0002,2.0002 0 0 0 0,0.0039 c -0.03614,0.180796 -0.07205,0.361523 -0.107422,0.542969 a 2.0002,2.0002 0 0 0 0,0.002 c -0.03526,0.181565 -0.07098,0.362723 -0.105469,0.544922 -0.03452,0.182025 -0.06781,0.364229 -0.101563,0.546875 -0.03391,0.181421 -0.06841,0.362894 -0.101562,0.544922 a 2.0002,2.0002 0 0 0 0,0.0078 c -0.03276,0.183583 -0.06568,0.36661 -0.09766,0.550782 -0.03216,0.180336 -0.06429,0.362063 -0.0957,0.542968 a 2.0002,2.0002 0 0 0 0,0.0059 c -0.03136,0.184464 -0.06317,0.36966 -0.09375,0.554687 -0.03063,0.18492 -0.06,0.369218 -0.08984,0.554688 -0.03005,0.184316 -0.06057,0.369834 -0.08984,0.554687 a 2.0002,2.0002 0 0 0 0,0.0039 c -0.02901,0.186165 -0.05772,0.371908 -0.08594,0.558594 -0.0284,0.185662 -0.05637,0.370471 -0.08398,0.556641 a 2.0002,2.0002 0 0 0 0,0.002 c -0.02777,0.187606 -0.05506,0.374393 -0.08203,0.5625 -0.02689,0.187546 -0.05399,0.376425 -0.08008,0.564453 a 2.0002,2.0002 0 0 0 0,0.0039 c -0.01259,0.09241 -0.02471,0.184827 -0.03711,0.277344 -0.0034,0.02497 -0.01027,0.04728 -0.01367,0.07227 -0.09128,0.07036 -0.182451,0.140405 -0.273438,0.210937 a 2.0002,2.0002 0 0 0 -0.0039,0.0039 c -0.14973,0.116662 -0.298352,0.234455 -0.447266,0.351563 -0.148719,0.116777 -0.297416,0.234348 -0.445312,0.351562 a 2.0002,2.0002 0 0 0 -0.002,0 c -0.147934,0.117405 -0.29431,0.235684 -0.441407,0.353516 -0.146839,0.117218 -0.293451,0.233926 -0.439453,0.351563 a 2.0002,2.0002 0 0 0 -0.0039,0.002 c -0.146452,0.118582 -0.291914,0.238429 -0.4375,0.357421 l 0.002,-0.0039 c -0.145701,0.118579 -0.290714,0.23844 -0.435547,0.357422 -0.144288,0.118365 -0.288221,0.236712 -0.43164,0.355469 a 2.0002,2.0002 0 0 0 -0.0059,0.0059 c -0.143515,0.119785 -0.287072,0.239209 -0.429687,0.359375 -0.141,0.117704 -0.281744,0.237398 -0.421875,0.355469 a 2.0002,2.0002 0 0 0 -0.0059,0.0039 c -0.141986,0.120606 -0.284717,0.242311 -0.425781,0.363282 -0.139836,0.119412 -0.279039,0.23961 -0.417969,0.359374 v -0.002 c -0.140553,0.120972 -0.280303,0.241958 -0.419922,0.363282 a 2.0002,2.0002 0 0 0 0,0.002 c -0.139454,0.121355 -0.279462,0.241584 -0.417968,0.363281 a 2.0002,2.0002 0 0 0 -0.0039,0.0039 c -0.137975,0.121785 -0.275098,0.243122 -0.41211,0.365235 -0.135533,0.119645 -0.269692,0.239414 -0.404297,0.359375 a 2.0002,2.0002 0 0 0 -0.0078,0.0078 c -0.136125,0.122603 -0.273065,0.246228 -0.408203,0.369141 -0.132985,0.119743 -0.264441,0.239336 -0.396485,0.359375 a 2.0002,2.0002 0 0 0 -0.0059,0.0059 c -0.134672,0.123387 -0.268681,0.245459 -0.402344,0.369141 a 2.0002,2.0002 0 0 0 -0.002,0.002 c -0.133163,0.123455 -0.266291,0.247356 -0.398437,0.371094 -0.131059,0.122195 -0.262519,0.24472 -0.392579,0.367187 -0.07392,0.06949 -0.147106,0.13941 -0.220703,0.208985 -0.064,-0.0571 -0.12777,-0.112907 -0.191406,-0.169922 a 2.0002,2.0002 0 0 0 -0.0039,-0.0039 c -0.113181,-0.10095 -0.225845,-0.200101 -0.337891,-0.300781 l -0.0078,-0.0078 c -0.11165,-0.101567 -0.223528,-0.203424 -0.333985,-0.304688 a 2.0002,2.0002 0 0 0 -0.0059,-0.0059 C 48.63544,78.628098 48.523506,78.525891 48.412109,78.423828 l -0.002,-0.002 C 48.29898,78.319872 48.187987,78.216825 48.078078,78.115187 h -0.002 c -0.11035,-0.102224 -0.219023,-0.20475 -0.328125,-0.30664 h -0.002 c -0.10916,-0.102153 -0.216329,-0.204837 -0.324219,-0.306641 a 2.0002,2.0002 0 0 0 -0.002,-0.002 c -0.107755,-0.101424 -0.215775,-0.201663 -0.322266,-0.302734 l -0.002,-0.002 c -0.106201,-0.101029 -0.211483,-0.20207 -0.316406,-0.302734 a 2.0002,2.0002 0 0 0 -0.002,-0.002 c -0.105755,-0.101297 -0.209999,-0.201816 -0.314453,-0.302734 a 2.0002,2.0002 0 0 0 -0.002,-0.002 c -0.104603,-0.100902 -0.207251,-0.200266 -0.310547,-0.300782 a 2.0002,2.0002 0 0 0 -0.002,-0.002 C 46.04624,76.184029 45.944673,76.085121 45.84375,75.986328 l -0.0039,-0.0039 c -0.01714,-0.0169 -0.03368,-0.0339 -0.05078,-0.05078 0.574436,-3.423796 1.319169,-6.787895 2.298829,-10.029297 2.332561,-2.485188 4.888264,-4.828921 7.585937,-7.050782 z M 136,65.691406 c 1.1895,3.552744 2.16754,7.203128 2.81836,10.957032 -0.21166,-0.269758 -0.37354,-0.551849 -0.58984,-0.820313 -0.54889,-3.44904 -1.3708,-6.800195 -2.31446,-10.089844 z m -92.033203,0.103516 0.04687,0.02734 c -0.950817,3.30434 -1.771955,6.673133 -2.324219,10.138672 -0.186565,0.232506 -0.328632,0.475513 -0.511719,0.708984 0.644776,-3.724752 1.613913,-7.347733 2.789063,-10.875 z M 90,73.125 c 2.471761,1.316218 4.942547,2.667841 7.388672,4.080078 4.88e-4,2.83e-4 0.0015,-2.82e-4 0.002,0 2.444618,1.411447 4.846338,2.875844 7.220708,4.357422 0.0956,2.798559 0.16247,5.613345 0.16211,8.4375 -3e-5,2.823862 -0.0661,5.637476 -0.16211,8.435547 -2.37474,1.482049 -4.77756,2.947443 -7.222661,4.359373 -4.85e-4,2.8e-4 -0.0015,-2.8e-4 -0.002,0 -7.7e-4,4.5e-4 -0.0012,0.002 -0.002,0.002 -2.445284,1.41171 -4.913869,2.76041 -7.384766,4.07617 -2.470951,-1.31579 -4.941382,-2.66443 -7.386719,-4.07617 -2.73e-4,-1.6e-4 2.74e-4,-0.002 0,-0.002 -4.84e-4,-2.8e-4 -0.0015,2.8e-4 -0.002,0 -2.444667,-1.41148 -4.848242,-2.875802 -7.222656,-4.35742 -0.09565,-2.798217 -0.162393,-5.613655 -0.16211,-8.4375 1.9e-5,-2.823611 0.06618,-5.637715 0.16211,-8.435547 2.374734,-1.482042 4.777561,-2.947447 7.222656,-4.359375 0.0013,-7.3e-4 0.0026,-0.0012 0.0039,-0.002 0.0025,-0.0015 0.0053,-0.0024 0.0078,-0.0039 C 85.065441,75.789307 87.532074,74.439176 90,73.125 Z m 29.35547,2.238281 c 3.19216,2.494904 6.21061,5.068102 8.94531,7.710938 0.025,0.02399 0.0493,0.04827 0.0742,0.07227 0.0106,0.155241 0.0194,0.309479 0.0293,0.464844 a 2.0002,2.0002 0 0 0 0,0.0039 c 0.0118,0.181992 0.0243,0.362769 0.0351,0.544922 0.007,0.112017 0.0114,0.223865 0.0176,0.335938 0.0645,1.180498 0.10979,2.362321 0.13281,3.546875 0.003,0.166288 0.006,0.333677 0.008,0.5 0.002,0.182816 0.004,0.365983 0.006,0.548828 a 2.0002,2.0002 0 0 0 0,0.0039 c 0.002,0.183182 0.003,0.365627 0.004,0.548828 6e-4,0.134661 0.002,0.269633 0.002,0.404297 -1.7e-4,0.182183 -8.1e-4,0.362748 -0.002,0.544922 a 2.0002,2.0002 0 0 0 0,0.0039 c -8.1e-4,0.183208 -0.002,0.367592 -0.004,0.550782 -0.002,0.180602 -0.006,0.360453 -0.01,0.541015 a 2.0002,2.0002 0 0 0 0,0.0059 c -0.002,0.122333 -0.003,0.244877 -0.006,0.367188 -0.024,1.177204 -0.0678,2.352256 -0.13281,3.525391 -0.009,0.163582 -0.0174,0.326774 -0.0274,0.490234 a 2.0002,2.0002 0 0 0 0,0.0039 c -0.0108,0.182153 -0.0214,0.362931 -0.0332,0.544922 -0.005,0.07352 -0.0106,0.147208 -0.0156,0.220703 -0.0166,0.01595 -0.0322,0.03288 -0.0488,0.04883 -2.74339,2.653353 -5.774,5.235802 -8.97852,7.740232 l -10.71875,-6.18945 c 1.6e-4,-0.0046 -1.6e-4,-0.0091 0,-0.01367 a 2.0002,2.0002 0 0 0 0,-0.002 c 0.007,-0.199858 0.0152,-0.399523 0.0215,-0.59961 a 2.0002,2.0002 0 0 0 0,-0.002 c 0.006,-0.199484 0.012,-0.399923 0.0176,-0.599609 l -0.002,0.0039 c 0.006,-0.200236 0.012,-0.39917 0.0176,-0.599609 a 2.0002,2.0002 0 0 0 0,-0.0039 c 0.005,-0.200238 0.0108,-0.399193 0.0156,-0.599609 a 2.0002,2.0002 0 0 0 0,-0.002 c 0.005,-0.198945 0.01,-0.398562 0.0137,-0.597656 v -0.0039 c 0.005,-0.199322 0.01,-0.398182 0.0137,-0.597656 a 2.0002,2.0002 0 0 0 0,-0.002 c 0.004,-0.200632 0.006,-0.402757 0.01,-0.603516 0.003,-0.198691 0.007,-0.398861 0.01,-0.597656 v -0.0059 c 0.003,-0.199066 0.005,-0.398487 0.008,-0.597656 a 2.0002,2.0002 0 0 0 0.002,-0.0059 c 0.002,-0.199717 0.004,-0.397869 0.006,-0.597656 v -0.0039 c 0.002,-0.19973 0.004,-0.399811 0.006,-0.59961 a 2.0002,2.0002 0 0 0 0,-0.002 c 0.002,-0.20141 0.003,-0.402059 0.004,-0.603515 a 2.0002,2.0002 0 0 0 0,-0.002 c 9.1e-4,-0.201043 0.002,-0.402449 0.002,-0.603515 a 2.0002,2.0002 0 0 0 0,-0.002 c 2.4e-4,-0.19911 2.4e-4,-0.398547 0,-0.597657 V 90 c 2.4e-4,-0.198736 2.4e-4,-0.398921 0,-0.597656 a 2.0002,2.0002 0 0 0 0,-0.002 c -4.3e-4,-0.201067 -10e-4,-0.40052 -0.002,-0.601563 a 2.0002,2.0002 0 0 0 0,-0.002 c -0.001,-0.201087 -0.002,-0.402476 -0.004,-0.603516 a 2.0002,2.0002 0 0 0 0,-0.002 c -0.002,-0.199791 -0.004,-0.399887 -0.006,-0.599609 v -0.0039 c -0.002,-0.199795 -0.004,-0.397932 -0.006,-0.597657 a 2.0002,2.0002 0 0 0 -0.002,-0.0059 c -0.003,-0.199169 -0.005,-0.39859 -0.008,-0.597656 v -0.0059 c -0.003,-0.199161 -0.007,-0.398598 -0.01,-0.597656 a 2.0002,2.0002 0 0 0 0,-0.002 c -0.003,-0.200758 -0.006,-0.400931 -0.01,-0.601562 a 2.0002,2.0002 0 0 0 0,-0.0039 c -0.004,-0.198821 -0.009,-0.397031 -0.0137,-0.595703 v -0.0059 c -0.004,-0.198447 -0.009,-0.397406 -0.0137,-0.595703 a 2.0002,2.0002 0 0 0 0,-0.002 c -0.005,-0.200416 -0.0103,-0.401322 -0.0156,-0.601562 a 2.0002,2.0002 0 0 0 0,-0.002 c -0.006,-0.200066 -0.0115,-0.399746 -0.0176,-0.599609 l 0.002,0.0039 c -0.006,-0.200066 -0.0115,-0.399747 -0.0176,-0.59961 a 2.0002,2.0002 0 0 0 0,-0.002 c -0.006,-0.199702 -0.0147,-0.400136 -0.0215,-0.599609 a 2.0002,2.0002 0 0 0 0,-0.002 c -2.3e-4,-0.0065 2.3e-4,-0.01303 0,-0.01953 z m -58.656251,0.0293 10.666015,6.158203 c -1.6e-4,0.0046 1.61e-4,0.0091 0,0.01367 a 2.0002,2.0002 0 0 0 0,0.0039 c -0.0068,0.199865 -0.01324,0.399517 -0.01953,0.59961 a 2.0002,2.0002 0 0 0 0,0.002 c -0.006,0.199486 -0.01201,0.399921 -0.01758,0.599609 -0.006,0.198286 -0.01011,0.397219 -0.01563,0.595703 a 2.0002,2.0002 0 0 0 0,0.002 c -0.0053,0.200239 -0.01078,0.401145 -0.01563,0.601562 a 2.0002,2.0002 0 0 0 0,0.002 c -0.0046,0.200247 -0.0096,0.401164 -0.01367,0.601563 -0.0046,0.199322 -0.0096,0.398183 -0.01367,0.597656 a 2.0002,2.0002 0 0 0 0,0.002 c -0.0039,0.200632 -0.0064,0.400804 -0.0098,0.601563 a 2.0002,2.0002 0 0 0 0,0.0039 c -0.0031,0.20064 -0.0071,0.400821 -0.0098,0.601562 -0.0031,0.199714 -0.0052,0.397843 -0.0078,0.597656 a 2.0002,2.0002 0 0 0 0,0.002 c -0.0024,0.20102 -0.0039,0.402419 -0.0059,0.603515 -0.0024,0.199727 -0.0059,0.399807 -0.0078,0.59961 a 2.0002,2.0002 0 0 0 0,0.002 c -0.0017,0.201408 -0.0027,0.402057 -0.0039,0.603515 a 2.0002,2.0002 0 0 0 0,0.0039 c -9.79e-4,0.201042 -0.0015,0.400494 -0.002,0.601562 a 2.0002,2.0002 0 0 0 0,0.0039 c -2.47e-4,0.201062 -2.33e-4,0.400501 0,0.601563 -2.27e-4,0.199381 -2.45e-4,0.398275 0,0.597656 a 2.0002,2.0002 0 0 0 0,0.0039 c 4.99e-4,0.201068 9.74e-4,0.400521 0.002,0.601563 a 2.0002,2.0002 0 0 0 0,0.0039 c 0.0012,0.201089 0.0022,0.400524 0.0039,0.601563 a 2.0002,2.0002 0 0 0 0,0.0039 c 0.0019,0.201096 0.0054,0.402496 0.0078,0.603515 0.0019,0.199151 0.0035,0.398581 0.0059,0.597657 a 2.0002,2.0002 0 0 0 0,0.002 c 0.0026,0.201119 0.0047,0.402498 0.0078,0.603516 0.0026,0.199158 0.0067,0.398596 0.0098,0.597656 a 2.0002,2.0002 0 0 0 0,0.0039 c 0.0034,0.200751 0.0059,0.400938 0.0098,0.601562 a 2.0002,2.0002 0 0 0 0,0.002 c 0.0041,0.200783 0.0091,0.400931 0.01367,0.601562 0.0041,0.199097 0.0091,0.398709 0.01367,0.597656 a 2.0002,2.0002 0 0 0 0,0.002 c 0.0048,0.200409 0.01031,0.40133 0.01563,0.601562 a 2.0002,2.0002 0 0 0 0,0.002 c 0.0056,0.200073 0.0096,0.39974 0.01563,0.599609 0.0055,0.198763 0.01157,0.397141 0.01758,0.595704 a 2.0002,2.0002 0 0 0 0,0.002 c 0.0063,0.199703 0.01276,0.400134 0.01953,0.599609 a 2.0002,2.0002 0 0 0 0,0.002 c 2.29e-4,0.0065 -2.29e-4,0.01301 0,0.01953 l -10.71875,6.189457 c -3.211065,-2.50981 -6.248243,-5.098578 -8.996093,-7.757816 -0.0083,-0.008 -0.01707,-0.01543 -0.02539,-0.02344 -0.0081,-0.12092 -0.01575,-0.242287 -0.02344,-0.363282 a 2.0002,2.0002 0 0 0 0,-0.002 c -0.01175,-0.181343 -0.02243,-0.363418 -0.0332,-0.544922 v -0.002 c -0.0093,-0.157629 -0.01881,-0.314917 -0.02734,-0.472656 -0.05939,-1.093441 -0.09926,-2.188169 -0.123047,-3.285156 -5.11e-4,-0.02408 -0.0015,-0.04819 -0.002,-0.07227 v -0.0059 c -0.0033,-0.181222 -0.0055,-0.361708 -0.0078,-0.542969 a 2.0002,2.0002 0 0 0 0,-0.0039 c -0.0026,-0.182808 -0.0042,-0.36599 -0.0059,-0.548828 a 2.0002,2.0002 0 0 0 0,-0.0039 c -0.0019,-0.183188 -0.003,-0.365619 -0.0039,-0.548828 -6.26e-4,-0.134007 -0.0019,-0.266379 -0.002,-0.40039 v -0.002 c 2.27e-4,-0.182191 7.44e-4,-0.362742 0.002,-0.544922 a 2.0002,2.0002 0 0 0 0,-0.0039 c 9.02e-4,-0.181897 0.002,-0.363044 0.0039,-0.544921 v -0.0039 c 0.0023,-0.181917 0.0065,-0.364997 0.0098,-0.546875 a 2.0002,2.0002 0 0 0 0,-0.002 c 0.003,-0.182846 0.0057,-0.366032 0.0098,-0.548828 a 2.0002,2.0002 0 0 0 0,-0.0039 c 0.0033,-0.162356 0.0076,-0.324019 0.01172,-0.486328 4.93e-4,-0.01956 0.0014,-0.03903 0.002,-0.05859 v -0.0039 c 0.01821,-0.68451 0.04604,-1.36762 0.07813,-2.050782 0.0022,-0.04493 0.0036,-0.08984 0.0059,-0.134765 a 2.0002,2.0002 0 0 0 0,-0.0078 c 0.0086,-0.181215 0.01782,-0.361881 0.02734,-0.542969 v -0.0039 c 0.01003,-0.181218 0.02024,-0.361899 0.03125,-0.542968 a 2.0002,2.0002 0 0 0 0,-0.002 c 0.01077,-0.181497 0.02146,-0.363584 0.0332,-0.544922 v -0.002 c 0.0057,-0.08652 0.01169,-0.173286 0.01758,-0.259765 2.77426,-2.680098 5.826348,-5.295045 9.070313,-7.822266 z M 136.08594,79.6875 c 1.28291,1.667995 2.55091,3.338544 3.63281,5.037109 0.12023,1.770947 0.19907,3.546609 0.19922,5.324219 -2.2e-4,1.775974 -0.0791,3.550991 -0.19922,5.320313 -1.08271,1.700083 -2.35069,3.373502 -3.63477,5.042969 -0.0299,-0.0288 -0.0579,-0.0591 -0.0879,-0.0879 h -0.002 c -0.10939,-0.10495 -0.21945,-0.21117 -0.33008,-0.31641 -0.11053,-0.104969 -0.22223,-0.211152 -0.33398,-0.316404 l -0.002,-0.002 c -0.11162,-0.105321 -0.22504,-0.21081 -0.33789,-0.316406 a 2.0002,2.0002 0 0 0 0,-0.002 c -0.11376,-0.106283 -0.22876,-0.211808 -0.34375,-0.31836 a 2.0002,2.0002 0 0 0 -0.002,-0.002 c -0.11485,-0.10624 -0.22965,-0.211861 -0.3457,-0.318359 a 2.0002,2.0002 0 0 0 -0.002,-0.002 c -0.11392,-0.104342 -0.2287,-0.20792 -0.34376,-0.3125 l -0.006,-0.0059 c -0.11507,-0.105477 -0.22947,-0.210684 -0.34571,-0.316406 a 2.0002,2.0002 0 0 0 -0.01,-0.0078 c -0.11716,-0.105284 -0.23524,-0.210902 -0.35352,-0.316407 l -0.004,-0.0039 c -0.11623,-0.104187 -0.23229,-0.208099 -0.34961,-0.3125 l -0.006,-0.0059 c -0.11836,-0.106177 -0.23792,-0.21196 -0.35743,-0.31836 a 2.0002,2.0002 0 0 0 -0.006,-0.0059 c -0.0376,-0.03321 -0.0756,-0.06638 -0.11328,-0.09961 0.0242,-0.360179 0.0186,-0.7233 0.0391,-1.083985 0.004,-0.06304 0.008,-0.126399 0.0117,-0.189453 a 2.0002,2.0002 0 0 0 0,-0.0039 c 0.01,-0.187044 0.0204,-0.375334 0.0293,-0.5625 v -0.0078 c 0.009,-0.187038 0.0189,-0.375344 0.0274,-0.5625 a 2.0002,2.0002 0 0 0 0,-0.0039 c 0.008,-0.190014 0.0164,-0.380198 0.0234,-0.570312 0.007,-0.188711 0.0135,-0.37761 0.0195,-0.566407 v -0.0039 c 0.006,-0.18872 0.0123,-0.377609 0.0176,-0.566406 a 2.0002,2.0002 0 0 0 0,-0.0039 c 0.005,-0.190408 0.01,-0.381799 0.0137,-0.572266 l -0.002,0.0039 c 0.002,-0.09957 0.004,-0.199245 0.006,-0.298828 0.0131,-0.678248 0.0762,-1.352462 0.0762,-2.03125 -2e-5,-0.645588 -0.0604,-1.286534 -0.0723,-1.931641 -8.8e-4,-0.05069 -0.001,-0.101655 -0.002,-0.152343 a 2.0002,2.0002 0 0 0 -0.002,-0.0039 c -0.004,-0.188791 -0.007,-0.377673 -0.0117,-0.566406 v -0.0039 c -0.005,-0.189162 -0.01,-0.377312 -0.0156,-0.566406 a 2.0002,2.0002 0 0 0 0,-0.0059 c -0.006,-0.190105 -0.0124,-0.380295 -0.0195,-0.570312 -0.007,-0.188432 -0.0154,-0.376121 -0.0234,-0.564453 v -0.0039 c -0.008,-0.188822 -0.0166,-0.377693 -0.0254,-0.566406 a 2.0002,2.0002 0 0 0 0,-0.002 c -0.009,-0.189753 -0.0193,-0.378732 -0.0293,-0.568359 a 2.0002,2.0002 0 0 0 0,-0.002 c -0.005,-0.08542 -0.009,-0.170468 -0.0137,-0.25586 -0.0214,-0.388794 -0.0192,-0.779753 -0.0449,-1.167969 0.0373,-0.03294 0.0742,-0.06668 0.11132,-0.09961 0.12191,-0.107827 0.24255,-0.214659 0.36329,-0.322265 v 0.002 c 0.12079,-0.107475 0.23974,-0.215018 0.35937,-0.322266 a 2.0002,2.0002 0 0 0 0.002,-0.002 c 0.11904,-0.106906 0.23761,-0.213641 0.35547,-0.320313 l 0.002,-0.002 c 0.11754,-0.106177 0.23518,-0.21242 0.35156,-0.318359 a 2.0002,2.0002 0 0 0 0.002,-0.002 c 0.11716,-0.10684 0.23365,-0.213725 0.34961,-0.320313 0.11473,-0.105652 0.23022,-0.211012 0.34375,-0.316406 l 0.004,-0.0039 c 0.11359,-0.104901 0.22548,-0.20981 0.33789,-0.314453 a 2.0002,2.0002 0 0 0 0.004,-0.0039 c 0.11285,-0.105595 0.22627,-0.211085 0.33789,-0.316406 l 0.002,-0.002 c 0.11108,-0.104622 0.22216,-0.210108 0.33203,-0.314453 l 0.002,-0.002 c 0.11027,-0.104521 0.21908,-0.208263 0.32813,-0.3125 a 2.0002,2.0002 0 0 0 0.002,-0.002 c 0.0307,-0.02942 0.0612,-0.05849 0.0918,-0.08789 z m -92.183596,0.03125 c 1.179573,1.132472 2.369989,2.267279 3.689453,3.429688 -0.03532,0.540096 -0.0336,1.083829 -0.06055,1.625 -0.0024,0.0502 -0.0054,0.100178 -0.0078,0.15039 -0.0095,0.187672 -0.01884,0.37471 -0.02734,0.5625 a 2.0002,2.0002 0 0 0 0,0.0059 c -0.0081,0.190021 -0.01639,0.38019 -0.02344,0.570312 -0.0071,0.19001 -0.01344,0.378262 -0.01953,0.568359 -0.0064,0.189371 -0.01224,0.378912 -0.01758,0.56836 a 2.0002,2.0002 0 0 0 0,0.0039 c -0.0025,0.09553 -0.0037,0.191565 -0.0059,0.287109 -0.01996,0.837134 -0.09378,1.669774 -0.09375,2.507813 3e-5,0.728488 0.06689,1.451844 0.08203,2.179687 3.5e-5,0.0019 -3.5e-5,0.0039 0,0.0059 a 2.0002,2.0002 0 0 0 0,0.0039 c 0.0039,0.190085 0.0088,0.380286 0.01367,0.570312 l -0.002,-0.002 c 0.0046,0.190474 0.01,0.379908 0.01562,0.570313 a 2.0002,2.0002 0 0 0 0,0.0059 c 0.0061,0.190098 0.01436,0.37835 0.02148,0.56836 a 2.0002,2.0002 0 0 0 0,0.002 c 0.0071,0.189741 0.01333,0.37872 0.02148,0.568359 0.0078,0.188823 0.01657,0.377694 0.02539,0.566406 a 2.0002,2.0002 0 0 0 0,0.002 c 0.009,0.189746 0.01931,0.37874 0.0293,0.56836 a 2.0002,2.0002 0 0 0 0,0.002 c 0.004,0.07499 0.0076,0.149646 0.01172,0.224609 0.02228,0.399793 0.01806,0.801999 0.04492,1.201172 -0.03683,0.03257 -0.0746,0.06511 -0.111328,0.09766 -0.121203,0.107207 -0.241273,0.215278 -0.361328,0.322266 v -0.002 c -0.12078,0.107522 -0.239764,0.214971 -0.359375,0.322266 a 2.0002,2.0002 0 0 0 -0.002,0.002 c -0.11972,0.107515 -0.238887,0.214987 -0.357422,0.322265 -0.117522,0.106209 -0.235208,0.21239 -0.351562,0.31836 -0.117169,0.106832 -0.233639,0.213732 -0.34961,0.320312 a 2.0002,2.0002 0 0 0 -0.002,0.002 c -0.116067,0.106892 -0.230854,0.213685 -0.345703,0.320313 -0.113587,0.104919 -0.227436,0.209791 -0.339844,0.314453 a 2.0002,2.0002 0 0 0 -0.0039,0.0039 c -0.113521,0.106219 -0.225603,0.212419 -0.337891,0.31836 v -0.002 c -0.112396,0.10592 -0.22478,0.212725 -0.335937,0.318356 -0.109957,0.10416 -0.219376,0.20863 -0.328125,0.3125 a 2.0002,2.0002 0 0 0 -0.002,0.002 c -0.03072,0.0294 -0.06118,0.0585 -0.0918,0.0879 -1.283017,-1.668124 -2.550832,-3.340368 -3.632813,-5.039065 -0.120147,-1.770301 -0.199063,-3.545308 -0.199218,-5.322265 1.8e-4,-1.776568 0.0791,-3.5504 0.199218,-5.320313 1.076852,-1.690887 2.33916,-3.354978 3.615235,-5.015625 z m 88.488276,3.365234 v 0.0059 l -0.0117,0.0098 c -1.3e-4,-0.0019 1.2e-4,-0.0039 0,-0.0059 0.004,-0.0034 0.008,-0.0064 0.0117,-0.0098 z M 47.626953,97.003906 c 1.71e-4,0.0026 -1.71e-4,0.0052 0,0.0078 -0.0038,0.0034 -0.0079,0.0064 -0.01172,0.0098 v -0.0078 z m 82.654297,3.558594 c 1.36047,1.21523 2.67111,2.41744 3.85937,3.58594 -0.57553,3.44879 -1.32793,6.83551 -2.31445,10.09961 -2.33194,2.48452 -4.88712,4.82748 -7.58398,7.04883 -1.59262,-0.44084 -3.27493,-0.96861 -4.99219,-1.53321 0.0265,-0.11121 0.0539,-0.22247 0.0801,-0.33398 v -0.002 c 0.041,-0.17367 0.0808,-0.34708 0.12109,-0.52148 l 0.002,-0.004 c 0.0408,-0.17494 0.0811,-0.35167 0.1211,-0.52734 a 2.0002,2.0002 0 0 0 0,-0.002 c 0.0403,-0.1776 0.0796,-0.35489 0.11914,-0.53321 a 2.0002,2.0002 0 0 0 0.002,-0.008 c 0.038,-0.17473 0.076,-0.34998 0.11328,-0.52539 l 0.002,-0.01 c 0.0381,-0.17526 0.0759,-0.34947 0.11328,-0.5254 a 2.0002,2.0002 0 0 0 0.002,-0.0117 c 0.0366,-0.17646 0.0735,-0.3522 0.10938,-0.5293 l 0.002,-0.01 c 0.0366,-0.17647 0.0716,-0.35413 0.10742,-0.53125 a 2.0002,2.0002 0 0 0 0.002,-0.004 c 0.0361,-0.18081 0.0721,-0.36152 0.10743,-0.54297 a 2.0002,2.0002 0 0 0 0,-0.002 c 0.0353,-0.18157 0.069,-0.36271 0.10351,-0.54492 0.0345,-0.18202 0.0698,-0.36423 0.10352,-0.54687 l -0.002,0.004 c 0.0342,-0.18266 0.0682,-0.36554 0.10157,-0.54882 a 2.0002,2.0002 0 0 0 0.002,-0.008 c 0.0322,-0.18031 0.0643,-0.36013 0.0957,-0.54101 l 0.002,-0.01 c 0.0322,-0.18032 0.0643,-0.36208 0.0957,-0.54297 a 2.0002,2.0002 0 0 0 0,-0.006 c 0.0314,-0.18447 0.0632,-0.36964 0.0937,-0.55468 0.0304,-0.18366 0.0602,-0.36658 0.0898,-0.55078 v -0.004 c 0.03,-0.18432 0.0606,-0.36984 0.0899,-0.55469 a 2.0002,2.0002 0 0 0 0,-0.004 c 0.0288,-0.1849 0.0579,-0.36928 0.0859,-0.55469 v -0.004 c 0.0283,-0.18502 0.0564,-0.37111 0.084,-0.55664 0.0278,-0.18759 0.0551,-0.37636 0.082,-0.56445 0.0269,-0.18753 0.054,-0.3745 0.0801,-0.5625 a 2.0002,2.0002 0 0 0 0,-0.006 c 0.0157,-0.11523 0.0315,-0.23031 0.0469,-0.3457 0.006,-0.004 0.01,-0.009 0.0156,-0.0137 0.0872,-0.0672 0.17474,-0.13377 0.26172,-0.20117 a 2.0002,2.0002 0 0 0 0.004,-0.002 c 0.14977,-0.11662 0.29832,-0.2345 0.44727,-0.35156 0.14941,-0.11739 0.29868,-0.23374 0.44726,-0.35157 a 2.0002,2.0002 0 0 0 0,-0.002 c 0.14681,-0.11652 0.29348,-0.23266 0.43946,-0.34961 l 0.004,-0.002 c 0.14643,-0.1169 0.29191,-0.23425 0.4375,-0.35156 a 2.0002,2.0002 0 0 0 0.004,-0.004 c 0.14535,-0.11769 0.29105,-0.23543 0.43555,-0.35352 l 0.004,-0.002 c 0.1446,-0.11769 0.2879,-0.23738 0.43164,-0.35547 v 0.002 c 0.14497,-0.11899 0.28951,-0.23805 0.4336,-0.35743 a 2.0002,2.0002 0 0 0 0.004,-0.006 c 0.14139,-0.11801 0.28332,-0.23513 0.42383,-0.35351 l 0.006,-0.006 c 0.14137,-0.11801 0.28138,-0.23514 0.42188,-0.35352 a 2.0002,2.0002 0 0 0 0.006,-0.006 c 0.14094,-0.11965 0.28183,-0.23936 0.42187,-0.35937 l 0.004,-0.002 c 0.14019,-0.11967 0.27868,-0.23936 0.41797,-0.35938 0.14055,-0.12097 0.2803,-0.24195 0.41992,-0.36328 a 2.0002,2.0002 0 0 0 0.002,-0.002 c 0.13944,-0.12139 0.27752,-0.24156 0.41602,-0.36329 a 2.0002,2.0002 0 0 0 0.004,-0.004 c 0.13552,-0.11963 0.26971,-0.23943 0.4043,-0.35938 l 0.008,-0.006 c 0.13551,-0.11964 0.26971,-0.23941 0.4043,-0.35937 a 2.0002,2.0002 0 0 0 0.008,-0.008 c 0.13371,-0.12043 0.26763,-0.24061 0.40039,-0.36133 l 0.008,-0.006 c 0.13332,-0.12006 0.26607,-0.24098 0.39844,-0.36133 a 2.0002,2.0002 0 0 0 0.006,-0.004 c 0.13466,-0.1234 0.26869,-0.24741 0.40235,-0.3711 a 2.0002,2.0002 0 0 0 0,-0.002 c 0.13214,-0.12248 0.26338,-0.24443 0.39453,-0.36719 l 0.004,-0.002 c 0.1314,-0.12249 0.26219,-0.24638 0.39258,-0.36914 v 0.002 c 0.044,-0.0414 0.087,-0.0836 0.13086,-0.125 z m -80.556641,0.006 c 0.04123,0.0389 0.08172,0.0783 0.123047,0.11719 0.130747,0.1231 0.262775,0.24631 0.394532,0.36914 l -0.002,-0.004 c 0.132169,0.12373 0.2633,0.24765 0.396485,0.3711 a 2.0002,2.0002 0 0 0 0.002,0.002 c 0.133649,0.12369 0.267686,0.2477 0.402344,0.37109 a 2.0002,2.0002 0 0 0 0.0059,0.004 c 0.134753,0.12252 0.270517,0.24497 0.40625,0.36719 0.132756,0.12071 0.26473,0.24091 0.398437,0.36132 a 2.0002,2.0002 0 0 0 0.0078,0.008 c 0.137027,0.1221 0.274121,0.24346 0.412109,0.36523 0.13499,0.12026 0.270328,0.23944 0.40625,0.35938 a 2.0002,2.0002 0 0 0 0.002,0.004 c 0.138485,0.12172 0.278535,0.2419 0.417968,0.36328 a 2.0002,2.0002 0 0 0 0.002,0.002 c 0.13924,0.121 0.277799,0.24263 0.417969,0.36328 0.140376,0.12091 0.282529,0.24077 0.423828,0.36133 0.140063,0.11998 0.280905,0.23975 0.421875,0.35937 a 2.0002,2.0002 0 0 0 0.0059,0.006 c 0.142629,0.12014 0.284205,0.23962 0.427734,0.35937 0.140521,0.11836 0.280481,0.23554 0.421875,0.35352 a 2.0002,2.0002 0 0 0 0.0059,0.004 c 0.14406,0.11942 0.288655,0.23839 0.433594,0.35742 0.144826,0.11899 0.289853,0.23884 0.435547,0.35742 0.144171,0.11784 0.288574,0.23608 0.433594,0.35352 a 2.0002,2.0002 0 0 0 0.0039,0.002 c 0.146721,0.11821 0.293839,0.23573 0.441406,0.35352 0.146381,0.11724 0.294197,0.23473 0.441406,0.35156 0.148605,0.11782 0.29783,0.23613 0.447266,0.35351 0.148987,0.11704 0.297465,0.23302 0.447266,0.34961 a 2.0002,2.0002 0 0 0 0.0039,0.004 c 0.08954,0.0694 0.179704,0.13781 0.269531,0.20703 0.0048,0.004 0.0089,0.008 0.01367,0.0117 3.46e-4,2.7e-4 -3.46e-4,0.002 0,0.002 0.01528,0.11412 0.0313,0.22785 0.04687,0.3418 a 2.0002,2.0002 0 0 0 0,0.004 c 0.02616,0.18799 0.05312,0.37693 0.08008,0.56445 0.02681,0.18745 0.05443,0.37359 0.08203,0.56055 a 2.0002,2.0002 0 0 0 0,0.002 c 0.02771,0.18681 0.05549,0.37424 0.08398,0.56055 0.02804,0.1854 0.05712,0.36979 0.08594,0.55468 a 2.0002,2.0002 0 0 0 0,0.006 c 0.02947,0.18612 0.05958,0.37107 0.08984,0.55664 l -0.002,-0.004 c 0.02984,0.18547 0.06117,0.37172 0.0918,0.55664 0.0304,0.1844 0.06062,0.36888 0.0918,0.55273 a 2.0002,2.0002 0 0 0 0.002,0.008 c 0.03198,0.18418 0.0649,0.36719 0.09766,0.55078 0.03142,0.1809 0.06353,0.36265 0.0957,0.54297 a 2.0002,2.0002 0 0 0 0,0.008 c 0.03345,0.18327 0.06733,0.36617 0.101563,0.54882 0.03359,0.18136 0.06721,0.36223 0.101562,0.54297 0.03437,0.18158 0.07033,0.36203 0.105469,0.54297 a 2.0002,2.0002 0 0 0 0,0.002 c 0.03537,0.18146 0.07128,0.36217 0.107422,0.54297 a 2.0002,2.0002 0 0 0 0,0.006 c 0.03648,0.18038 0.07408,0.35936 0.111328,0.53907 0.03584,0.17713 0.0728,0.35476 0.109375,0.53125 a 2.0002,2.0002 0 0 0 0.002,0.01 c 0.03811,0.17918 0.07636,0.35863 0.115234,0.53711 0.03729,0.17541 0.07527,0.35065 0.113282,0.52539 a 2.0002,2.0002 0 0 0 0,0.006 c 0.03952,0.17832 0.08082,0.35756 0.121094,0.53516 a 2.0002,2.0002 0 0 0 0,0.002 c 0.04033,0.17705 0.08001,0.35299 0.121093,0.5293 0.04042,0.17516 0.08188,0.34901 0.123047,0.52343 0.02666,0.11339 0.05311,0.22678 0.08008,0.33985 -1.715091,0.56403 -3.395488,1.09454 -4.986328,1.53515 -2.698366,-2.22223 -5.254775,-4.56509 -7.58789,-7.05078 -0.986356,-3.26334 -1.738894,-6.64967 -2.314454,-10.09765 1.188085,-1.16859 2.498991,-2.37057 3.859375,-3.58594 z m 23.644532,1.34375 c 0.004,0.002 0.0077,0.005 0.01172,0.008 a 2.0002,2.0002 0 0 0 0.002,0.002 c 0.169697,0.10579 0.339632,0.2109 0.509766,0.3164 a 2.0002,2.0002 0 0 0 0.002,0.002 c 0.169739,0.10498 0.339614,0.20979 0.509766,0.31446 0.168864,0.10441 0.33854,0.20839 0.507812,0.3125 a 2.0002,2.0002 0 0 0 0.002,0.002 c 0.170752,0.10472 0.342527,0.2081 0.513672,0.3125 a 2.0002,2.0002 0 0 0 0.002,0.002 c 0.171121,0.10411 0.342179,0.20678 0.513671,0.31055 0.170212,0.10354 0.341141,0.20735 0.511719,0.31055 a 2.0002,2.0002 0 0 0 0.002,0.002 c 0.171818,0.10366 0.343458,0.20724 0.515625,0.31055 a 2.0002,2.0002 0 0 0 0.002,0 c 0.172189,0.10304 0.345063,0.20591 0.517579,0.30859 0.171269,0.10249 0.342078,0.20452 0.513671,0.30664 a 2.0002,2.0002 0 0 0 0.002,0.002 c 0.172879,0.1026 0.346347,0.20441 0.519532,0.30664 0.171635,0.10186 0.341734,0.2032 0.513672,0.30468 a 2.0002,2.0002 0 0 0 0.0039,0.002 c 0.173577,0.10216 0.345669,0.20486 0.519531,0.30664 a 2.0002,2.0002 0 0 0 0.002,0 c 0.173631,0.10136 0.347592,0.20372 0.521485,0.30468 a 2.0002,2.0002 0 0 0 0.002,0 c 0.172742,0.10002 0.346552,0.20118 0.519531,0.30079 4.88e-4,2.8e-4 0.0015,-2.9e-4 0.002,0 7.69e-4,4.4e-4 0.0012,0.002 0.002,0.002 0.17243,0.0998 0.344913,0.19942 0.517578,0.29883 a 2.0002,2.0002 0 0 0 0.002,0 c 0.174371,0.10011 0.348849,0.20109 0.523438,0.30078 a 2.0002,2.0002 0 0 0 0.002,0 c 0.174754,0.0995 0.348488,0.19977 0.523438,0.29883 a 2.0002,2.0002 0 0 0 0.0039,0 c 0.175122,0.0989 0.350094,0.19846 0.525391,0.29687 0.173862,0.0981 0.347449,0.19527 0.521484,0.29297 a 2.0002,2.0002 0 0 0 0.002,0.002 c 0.175506,0.0983 0.349732,0.19519 0.525391,0.29297 0.17423,0.0975 0.349056,0.19589 0.523437,0.29297 a 2.0002,2.0002 0 0 0 0.002,0 c 0.175557,0.0974 0.351657,0.19601 0.527344,0.29297 a 2.0002,2.0002 0 0 0 0.002,0 c 0.175935,0.0968 0.351301,0.19468 0.527344,0.29102 l -0.0039,-0.004 c 0.175608,0.0966 0.351627,0.19487 0.527343,0.29101 a 2.0002,2.0002 0 0 0 0.002,0 c 0.175987,0.096 0.35127,0.1916 0.527343,0.28711 a 2.0002,2.0002 0 0 0 0.0039,0.002 c 0.176047,0.0952 0.351232,0.19045 0.527343,0.28515 0.174764,0.0945 0.348611,0.18725 0.523438,0.28125 a 2.0002,2.0002 0 0 0 0.002,0.002 c 0.176095,0.0944 0.35316,0.18933 0.529297,0.2832 a 2.0002,2.0002 0 0 0 0.002,0 c 0.0059,0.003 0.01166,0.007 0.01758,0.01 v 12.37695 c -3.783773,1.52801 -7.549174,2.86702 -11.230469,3.91797 -0.02156,0.006 -0.0429,0.0133 -0.06445,0.0195 -2.039778,-1.00016 -4.06004,-2.05119 -6.035156,-3.19141 -1.953254,-1.12761 -3.852381,-2.34085 -5.71875,-3.5918 -0.939695,-3.75768 -1.676896,-7.72903 -2.246094,-11.82031 z m 33.261719,0 h 0.002 l 10.66797,6.1582 c -0.56903,4.09009 -1.30677,8.05775 -2.24609,11.81446 -1.86867,1.25295 -3.76878,2.46834 -5.72461,3.59765 -1.95311,1.12773 -3.95228,2.16348 -5.96875,3.1543 -3.723843,-1.06495 -7.531885,-2.40839 -11.359377,-3.96094 L 92,110.38281 v -0.0234 c 0.0046,-0.002 0.009,-0.005 0.01367,-0.008 a 2.0002,2.0002 0 0 0 0.002,-0.002 c 0.17647,-0.0941 0.352868,-0.18862 0.529297,-0.2832 a 2.0002,2.0002 0 0 0 0.002,0 c 0.174505,-0.0938 0.348995,-0.18888 0.523437,-0.28321 l 0.0039,-0.002 c 0.175149,-0.0942 0.350304,-0.1885 0.52539,-0.2832 a 2.0002,2.0002 0 0 0 0.002,0 c 0.176074,-0.0955 0.35331,-0.1911 0.529297,-0.28711 a 2.0002,2.0002 0 0 0 0.002,-0.002 c 0.174438,-0.0954 0.347154,-0.19118 0.521485,-0.2871 l 0.0039,-0.002 c 0.174769,-0.0956 0.350729,-0.19098 0.525391,-0.28711 a 2.0002,2.0002 0 0 0 0.002,-0.002 c 0.175687,-0.097 0.349834,-0.19357 0.525391,-0.29102 a 2.0002,2.0002 0 0 0 0.0039,-0.002 c 0.174059,-0.0969 0.347574,-0.19367 0.521484,-0.29101 l 0.0039,-0.002 c 0.174384,-0.0971 0.347252,-0.19347 0.521485,-0.29101 a 2.0002,2.0002 0 0 0 0.002,-0.002 c 0.173537,-0.0974 0.348118,-0.1951 0.521484,-0.29297 l 0.0059,-0.002 c 0.173546,-0.0974 0.348109,-0.19703 0.521484,-0.29492 a 2.0002,2.0002 0 0 0 0.002,0 c 0.175267,-0.0992 0.350321,-0.19915 0.525391,-0.29883 a 2.0002,2.0002 0 0 0 0.002,-0.002 c 0.174598,-0.0997 0.349058,-0.19872 0.523437,-0.29883 a 2.0002,2.0002 0 0 0 0.002,-0.002 c 0.172983,-0.0996 0.344831,-0.19883 0.517578,-0.29883 7.69e-4,-4.5e-4 0.0012,-0.002 0.002,-0.002 a 2.0002,2.0002 0 0 0 0.002,0 c 0.0038,-0.002 0.0079,-0.004 0.01172,-0.006 0.168871,-0.0973 0.337213,-0.19533 0.505859,-0.29297 a 2.0002,2.0002 0 0 0 0.002,-0.002 c 0.17389,-0.10095 0.34787,-0.20137 0.52149,-0.30273 a 2.0002,2.0002 0 0 0 0.002,-0.002 c 0.17354,-0.10159 0.34823,-0.20271 0.52148,-0.30469 a 2.0002,2.0002 0 0 0 0.002,-0.002 c 0.17193,-0.10149 0.34204,-0.20283 0.51367,-0.30469 l 0.004,-0.002 c 0.17194,-0.1015 0.34398,-0.20283 0.51562,-0.30469 a 2.0002,2.0002 0 0 0 0.002,-0.002 c 0.1716,-0.10213 0.34241,-0.20416 0.51368,-0.30665 l 0.004,-0.002 c 0.17159,-0.10213 0.34437,-0.20415 0.51563,-0.30664 a 2.0002,2.0002 0 0 0 0.002,-0.002 c 0.17217,-0.10331 0.34381,-0.20689 0.51563,-0.31055 a 2.0002,2.0002 0 0 0 0.002,0 c 0.17057,-0.1032 0.33956,-0.20701 0.50976,-0.31055 l 0.004,-0.002 c 0.17025,-0.10301 0.34183,-0.2072 0.51172,-0.31055 a 2.0002,2.0002 0 0 0 0.002,0 c 0.17115,-0.1044 0.34097,-0.20972 0.51172,-0.31445 a 2.0002,2.0002 0 0 0 0.002,-0.002 c 0.16925,-0.1041 0.33898,-0.2081 0.50782,-0.3125 l 0.004,-0.002 c 0.16924,-0.10409 0.33703,-0.20809 0.50586,-0.3125 a 2.0002,2.0002 0 0 0 0.002,-0.002 c 0.1698,-0.1053 0.3404,-0.21081 0.50976,-0.3164 a 2.0002,2.0002 0 0 0 0.002,0 c 0.005,-0.003 0.0104,-0.007 0.0156,-0.01 z m 32.17383,1.55273 c -0.64976,3.71462 -1.62712,7.32676 -2.80469,10.84375 l -0.084,-0.0469 c 0.93092,-3.24518 1.73441,-6.55438 2.28125,-9.95508 0.22249,-0.27581 0.38982,-0.56462 0.60742,-0.8418 z m -97.609378,0.002 c 0.219912,0.28016 0.388364,0.57279 0.613282,0.85156 0.546584,3.39718 1.35136,6.70141 2.28125,9.94336 L 44,114.31055 c -1.177782,-3.51742 -2.15485,-7.12866 -2.804688,-10.84375 z m 92.734378,14.26758 0.0508,0.0273 c -2.44553,2.75701 -5.06891,5.38998 -7.94336,7.79297 0.11441,-0.28652 0.26142,-0.53889 0.37305,-0.82813 2.68589,-2.18596 5.16408,-4.54874 7.51953,-6.99218 z m -87.857424,0.004 c 2.357614,2.4457 4.8387,4.81033 7.527343,6.99805 0.110551,0.28639 0.255862,0.53659 0.369141,0.82031 -2.875201,-2.40334 -5.499198,-5.03544 -7.945312,-7.79297 z m 71.138674,5.57813 c 0.004,0.001 0.008,0.003 0.0117,0.004 l -0.0371,0.0254 c 0.0536,0.018 0.10666,0.0368 0.16015,0.0547 0.15375,0.0515 0.30601,0.10179 0.45899,0.15234 0.15348,0.0509 0.30628,0.10239 0.45898,0.15235 a 2.0002,2.0002 0 0 0 0.002,0 c 0.15239,0.0497 0.30545,0.0996 0.45704,0.14844 0.15161,0.049 0.30231,0.0964 0.45312,0.14453 a 2.0002,2.0002 0 0 0 0.002,0 c 0.15111,0.048 0.30089,0.0954 0.45118,0.14257 a 2.0002,2.0002 0 0 0 0.002,0.002 c 0.15062,0.0471 0.30139,0.0925 0.45117,0.13867 h -0.006 c 0.14942,0.0465 0.29868,0.0912 0.44727,0.13672 a 2.0002,2.0002 0 0 0 0.006,0.002 c 0.14875,0.0452 0.29546,0.0905 0.44336,0.13477 v -0.002 c 0.14731,0.0442 0.293,0.0895 0.43945,0.13282 0.14655,0.0435 0.29182,0.0863 0.4375,0.1289 a 2.0002,2.0002 0 0 0 0.002,0 c 0.041,0.012 0.0821,0.0233 0.12305,0.0352 -0.78973,1.91274 -1.5913,3.81294 -2.50391,5.57227 -1.4691,0.98629 -2.94416,1.96819 -4.48437,2.85742 -1.59724,0.92213 -3.2414,1.74127 -4.89063,2.54492 -1.95058,-0.0882 -3.9663,-0.33953 -5.98632,-0.60547 0.39817,-1.6067 0.78774,-3.23722 1.14062,-4.98437 0.16218,-0.0802 0.32449,-0.16113 0.48633,-0.24219 0.16999,-0.0848 0.34016,-0.17007 0.50976,-0.25586 a 2.0002,2.0002 0 0 0 0.004,-0.002 c 0.16714,-0.0851 0.33521,-0.16982 0.50195,-0.25586 l 0.006,-0.004 c 0.16695,-0.0854 0.33345,-0.17146 0.5,-0.25781 a 2.0002,2.0002 0 0 0 0.004,-0.002 c 0.1686,-0.088 0.33769,-0.17666 0.50586,-0.26562 0.16682,-0.0882 0.33361,-0.17655 0.5,-0.26563 l 0.004,-0.002 c 0.16648,-0.0888 0.33202,-0.17786 0.49805,-0.26758 a 2.0002,2.0002 0 0 0 0.006,-0.004 c 0.16658,-0.0905 0.33193,-0.18005 0.49805,-0.27149 l 0.002,-0.002 c 0.1651,-0.0905 0.3295,-0.18004 0.49414,-0.27149 l 0.002,-0.002 c 0.16585,-0.0918 0.33268,-0.18465 0.49805,-0.27734 a 2.0002,2.0002 0 0 0 0.004,-0.002 c 0.16513,-0.093 0.32951,-0.18534 0.49414,-0.27929 l 0.002,-0.002 c 0.16444,-0.0935 0.32825,-0.18686 0.49219,-0.28125 a 2.0002,2.0002 0 0 0 0.004,-0.002 c 0.12117,-0.0701 0.2424,-0.14037 0.36329,-0.21094 a 2.0002,2.0002 0 0 0 0,-0.002 c 0.16367,-0.0956 0.32708,-0.19064 0.49023,-0.28711 l 0.002,-0.002 c 0.16174,-0.0953 0.32317,-0.19095 0.48438,-0.28711 l 0.004,-0.002 c 0.16247,-0.0966 0.32439,-0.19357 0.48632,-0.29102 a 2.0002,2.0002 0 0 0 0.006,-0.002 c 0.16191,-0.098 0.32303,-0.19612 0.48438,-0.29493 l 0.002,-0.002 c 0.16188,-0.0988 0.32307,-0.19724 0.48438,-0.29687 a 2.0002,2.0002 0 0 0 0.004,-0.004 c 0.16159,-0.10032 0.32338,-0.19961 0.48438,-0.30078 0.15999,-0.10056 0.31911,-0.20135 0.47851,-0.30273 l 0.002,-0.002 c 0.15995,-0.10138 0.31916,-0.20443 0.47851,-0.30664 a 2.0002,2.0002 0 0 0 0.002,0 c 0.15986,-0.10263 0.31929,-0.20513 0.47852,-0.30859 0.15928,-0.10366 0.31792,-0.20803 0.47656,-0.3125 a 2.0002,2.0002 0 0 0 0.002,-0.002 c 0.15765,-0.10393 0.31564,-0.20776 0.47265,-0.3125 l 0.002,-0.002 c 0.0716,-0.0477 0.14336,-0.0948 0.21485,-0.14258 l -0.0684,-0.0234 c 0.001,-10e-4 0.002,-0.003 0.004,-0.004 0.0229,0.008 0.0455,0.0158 0.0684,0.0234 0.0129,-0.009 0.0262,-0.0168 0.0391,-0.0254 z m -54.375002,0.0312 c 0.03199,0.0214 0.06369,0.0431 0.0957,0.0644 a 2.0002,2.0002 0 0 0 0,0.002 c 0.157763,0.10524 0.316198,0.21003 0.474609,0.31446 0.157711,0.10429 0.316262,0.20705 0.474609,0.31054 a 2.0002,2.0002 0 0 0 0.0039,0.004 c 0.159234,0.10347 0.318657,0.20595 0.478515,0.30859 0.157448,0.10185 0.314605,0.20365 0.472657,0.30469 a 2.0002,2.0002 0 0 0 0.0059,0.004 c 0.160523,0.10201 0.321296,0.20352 0.482422,0.30468 0.160232,0.10069 0.321603,0.20094 0.482422,0.30078 0.160606,0.10008 0.321237,0.1996 0.482421,0.29883 a 2.0002,2.0002 0 0 0 0.0039,0.002 c 0.161967,0.0992 0.323796,0.19856 0.486328,0.29687 0.162475,0.0986 0.325249,0.1952 0.488281,0.29297 h -0.0039 c 0.163175,0.0982 0.326508,0.19564 0.490234,0.29297 a 2.0002,2.0002 0 0 0 0.0039,0.002 c 0.163917,0.0969 0.329692,0.19303 0.494141,0.28906 0.162715,0.0954 0.325051,0.19066 0.488281,0.28516 a 2.0002,2.0002 0 0 0 0.0039,0.002 c 0.121278,0.0699 0.24368,0.13957 0.365234,0.20899 0.165401,0.0944 0.330193,0.18972 0.496094,0.2832 0.164673,0.0931 0.328983,0.18511 0.49414,0.27735 0.165376,0.0927 0.332193,0.18359 0.498047,0.27539 a 2.0002,2.0002 0 0 0 0.0039,0.004 c 0.166568,0.0917 0.332968,0.18269 0.5,0.27344 0.165991,0.0905 0.33356,0.17991 0.5,0.26953 a 2.0002,2.0002 0 0 0 0.0039,0.002 c 0.167678,0.0898 0.335788,0.1807 0.503906,0.26953 0.16788,0.0887 0.335601,0.17592 0.503906,0.26368 0.167292,0.0876 0.336202,0.17508 0.503907,0.26172 0.168806,0.0871 0.3386,0.17555 0.507812,0.26171 0.169413,0.0861 0.339961,0.17071 0.509766,0.25586 a 2.0002,2.0002 0 0 0 0,0.002 c 0.169122,0.0847 0.338314,0.1682 0.507812,0.25195 0.07786,0.0386 0.156433,0.0769 0.234375,0.11523 l -0.01758,-0.084 c 0.0018,8.9e-4 0.004,0.001 0.0059,0.002 0.0057,0.028 0.0119,0.056 0.01758,0.084 0.02294,0.0113 0.04542,0.0239 0.06836,0.0352 8.51e-4,0.004 0.0031,0.008 0.0039,0.0117 l -0.07031,-0.0332 c 0.01134,0.0559 0.02181,0.11222 0.0332,0.16797 0.0323,0.15884 0.06497,0.31687 0.09766,0.47461 0.0326,0.15772 0.06663,0.31604 0.09961,0.47265 0.03325,0.15744 0.06597,0.31441 0.09961,0.47071 0.03328,0.15516 0.06791,0.31081 0.101562,0.46484 0.03394,0.15489 0.06725,0.30917 0.101563,0.46289 a 2.0002,2.0002 0 0 0 0,0.002 c 0.03454,0.15397 0.07055,0.30816 0.105469,0.46094 0.03402,0.15063 0.06717,0.3017 0.101562,0.45117 a 2.0002,2.0002 0 0 0 0.002,0.004 c 0.03523,0.15142 0.06987,0.30291 0.105469,0.45312 0.03539,0.14968 0.07166,0.2988 0.107422,0.44727 0.0354,0.14805 0.07166,0.29456 0.107422,0.44141 a 2.0002,2.0002 0 0 0 0,0.004 c 0.01011,0.0413 0.02111,0.0819 0.03125,0.12305 -2.045784,0.27174 -4.085771,0.52366 -6.060547,0.61328 -1.654064,-0.8056 -3.302499,-1.62796 -4.904297,-2.55273 -1.53829,-0.88816 -3.01116,-1.86853 -4.478516,-2.85352 -0.912341,-1.7588 -1.714362,-3.65818 -2.503906,-5.57031 0.04037,-0.0117 0.08066,-0.0234 0.121094,-0.0352 l -0.002,0.002 c 0.146018,-0.0424 0.292557,-0.0856 0.439453,-0.12891 a 2.0002,2.0002 0 0 0 0.002,-0.002 c 0.146436,-0.0434 0.292161,-0.0866 0.439453,-0.13086 0.14789,-0.0443 0.296565,-0.0876 0.445312,-0.13282 a 2.0002,2.0002 0 0 0 0.002,-0.002 c 0.148924,-0.0454 0.297498,-0.0904 0.447265,-0.13672 a 2.0002,2.0002 0 0 0 0.002,0 c 0.14941,-0.0464 0.298985,-0.0934 0.449219,-0.14062 a 2.0002,2.0002 0 0 0 0.002,-0.002 c 0.14741,-0.0465 0.295171,-0.0933 0.44336,-0.14062 l 0.0078,-0.002 c 0.14894,-0.0469 0.29753,-0.0948 0.447266,-0.14258 a 2.0002,2.0002 0 0 0 0.01172,-0.002 c 0.150125,-0.0489 0.300289,-0.0986 0.451172,-0.14844 l 0.0039,-0.002 c 0.151325,-0.0496 0.302989,-0.0999 0.455078,-0.15039 l -0.0078,0.004 c 0.153724,-0.0502 0.306422,-0.10119 0.460938,-0.15234 a 2.0002,2.0002 0 0 0 0.0098,-0.004 c 0.05785,-0.0194 0.115877,-0.039 0.173829,-0.0586 z m 27.171874,2.91796 c 0.105546,0.0435 0.210862,0.0877 0.316407,0.13086 a 2.0002,2.0002 0 0 0 0.0039,0.002 c 0.175879,0.0714 0.351486,0.14245 0.527344,0.21289 0.176362,0.0707 0.352968,0.14115 0.529297,0.21094 0.175642,0.0694 0.351749,0.13855 0.527343,0.20703 0.174431,0.0684 0.349063,0.13568 0.523438,0.20312 a 2.0002,2.0002 0 0 0 0.0059,0.002 c 0.175926,0.0675 0.351496,0.13459 0.527344,0.20117 0.173629,0.0661 0.347938,0.13206 0.521484,0.19726 0.175524,0.0661 0.349963,0.13215 0.525391,0.19727 a 2.0002,2.0002 0 0 0 0.0078,0.002 c 0.175478,0.0644 0.350032,0.12796 0.52539,0.19141 0.172956,0.0635 0.344739,0.12691 0.517578,0.18945 a 2.0002,2.0002 0 0 0 0.0078,0.002 c 0.175431,0.0627 0.352057,0.12581 0.527343,0.1875 0.173697,0.0615 0.345985,0.12303 0.519532,0.1836 v -0.002 c 0.175042,0.0612 0.348558,0.12336 0.523437,0.1836 a 2.0002,2.0002 0 0 0 0.002,0 c 0.174843,0.0601 0.350728,0.12061 0.525391,0.17969 a 2.0002,2.0002 0 0 0 0.0039,0 c 0.17445,0.0586 0.347231,0.1162 0.521485,0.17382 0.171914,0.0577 0.343902,0.1151 0.515625,0.17188 a 2.0002,2.0002 0 0 0 0.0098,0.004 c 0.174233,0.0566 0.347477,0.11238 0.521485,0.16796 0.170387,0.0553 0.341546,0.10969 0.511718,0.16407 a 2.0002,2.0002 0 0 0 0.0078,0.004 c 0.174198,0.0549 0.347536,0.10821 0.521484,0.16211 a 2.0002,2.0002 0 0 0 0.002,0 c 0.173479,0.0536 0.346322,0.10756 0.519532,0.16016 0.17115,0.0523 0.34279,0.10489 0.51367,0.15625 0.0807,0.0243 0.16153,0.0482 0.24219,0.0723 -0.029,0.14033 -0.0586,0.28059 -0.0879,0.41993 a 2.0002,2.0002 0 0 0 0,0.004 c -0.0316,0.15213 -0.0638,0.30413 -0.0957,0.45508 -0.0321,0.14722 -0.0633,0.29536 -0.0957,0.44141 a 2.0002,2.0002 0 0 0 -0.002,0.008 c -0.0325,0.14961 -0.0648,0.29887 -0.0977,0.44726 -0.0329,0.14798 -0.0664,0.29466 -0.0996,0.44141 -0.0334,0.14698 -0.0678,0.29372 -0.10156,0.43945 -0.0338,0.14547 -0.0674,0.29136 -0.10156,0.43555 a 2.0002,2.0002 0 0 0 0,0.002 c -0.0342,0.14493 -0.069,0.28801 -0.10352,0.43164 -0.0344,0.14279 -0.0687,0.28625 -0.10351,0.42774 a 2.0002,2.0002 0 0 0 -0.002,0 c -0.0349,0.14222 -0.0683,0.28488 -0.10352,0.42578 a 2.0002,2.0002 0 0 0 -0.002,0.002 c -0.0351,0.14105 -0.07009,0.2802 -0.105473,0.41993 a 2.0002,2.0002 0 0 0 0,0.002 c -0.02949,0.11697 -0.05818,0.23357 -0.08789,0.34961 -3.235854,1.20603 -6.50332,2.23939 -9.783203,3.00781 -3.319143,-0.77747 -6.626741,-1.81942 -9.900391,-3.04492 -0.418031,-1.61339 -0.803399,-3.34873 -1.175781,-5.13477 0.05483,-0.0164 0.109207,-0.0323 0.164062,-0.0488 0.171666,-0.0516 0.343693,-0.10366 0.515625,-0.15625 0.173233,-0.0526 0.346036,-0.10458 0.519532,-0.1582 a 2.0002,2.0002 0 0 0 0.002,-0.002 c 0.173937,-0.0539 0.347297,-0.10718 0.521484,-0.16211 a 2.0002,2.0002 0 0 0 0.0078,-0.002 c 0.170356,-0.0544 0.341147,-0.11062 0.511718,-0.16602 l 0.0098,-0.002 c 0.170871,-0.0546 0.340631,-0.11045 0.511719,-0.16602 a 2.0002,2.0002 0 0 0 0.01172,-0.004 c 0.171512,-0.0567 0.34197,-0.11225 0.513672,-0.16993 l 0.0078,-0.004 c 0.171526,-0.0567 0.343908,-0.11418 0.515625,-0.17188 a 2.0002,2.0002 0 0 0 0.002,0 c 0.174657,-0.0591 0.350555,-0.11962 0.525391,-0.17969 a 2.0002,2.0002 0 0 0 0.002,0 c 0.17487,-0.0602 0.348404,-0.12041 0.523437,-0.18164 0.173538,-0.0606 0.347799,-0.12198 0.521485,-0.18359 l 0.0039,-0.002 c 0.173908,-0.0613 0.347434,-0.12329 0.521484,-0.18555 a 2.0002,2.0002 0 0 0 0.0078,-0.002 c 0.172847,-0.0625 0.344615,-0.12597 0.517578,-0.18946 l 0.0078,-0.002 c 0.17284,-0.0625 0.344623,-0.12596 0.517578,-0.18945 a 2.0002,2.0002 0 0 0 0.0059,-0.002 c 0.174667,-0.0648 0.350627,-0.1296 0.52539,-0.19531 l 0.002,-0.002 c 0.174677,-0.0656 0.350629,-0.13069 0.52539,-0.19727 h -0.0039 c 0.175847,-0.0666 0.351419,-0.13363 0.527344,-0.20117 a 2.0002,2.0002 0 0 0 0.0059,-0.002 c 0.174383,-0.0674 0.348999,-0.13476 0.523438,-0.20313 l 0.0039,-0.002 c 0.174232,-0.0679 0.349158,-0.1362 0.523437,-0.20508 0.176343,-0.0698 0.35292,-0.14021 0.529297,-0.21094 0.175842,-0.0705 0.351482,-0.14145 0.527344,-0.21289 a 2.0002,2.0002 0 0 0 0.0039,-0.002 c 0.100947,-0.0413 0.201787,-0.0834 0.302735,-0.125 0.0098,-0.004 0.0195,-0.006 0.0293,-0.01 z M 78.554688,138.9707 c 3.135279,1.18387 6.313043,2.12714 9.501953,2.92188 l -0.002,0.0996 c -3.560085,-0.72337 -7.10221,-1.65703 -10.574219,-2.91407 0.363057,-0.0529 0.709811,-0.0492 1.074219,-0.10742 z m 23.048832,0.008 c 0.31716,0.0501 0.6194,0.0477 0.93554,0.0937 -3.442595,1.24742 -6.954668,2.17362 -10.484372,2.89648 l 0.002,-0.0566 c 3.203637,-0.79572 6.397129,-1.74512 9.546882,-2.93359 z"
       style="color:#000000;font-style:normal;font-variant:normal;font-weight:normal;font-stretch:normal;font-size:medium;line-height:normal;font-family:sans-serif;font-variant-ligatures:normal;font-variant-position:normal;font-variant-caps:normal;font-variant-numeric:normal;font-variant-alternates:normal;font-variant-east-asian:normal;font-feature-settings:normal;font-variation-settings:normal;text-indent:0;text-align:start;text-decoration:none;text-decoration-line:none;text-decoration-style:solid;text-decoration-color:#000000;letter-spacing:normal;word-spacing:normal;text-transform:none;writing-mode:lr-tb;direction:ltr;text-orientation:mixed;dominant-baseline:auto;baseline-shift:baseline;text-anchor:start;white-space:normal;shape-padding:0;shape-margin:0;inline-size:0;clip-rule:nonzero;display:inline;overflow:visible;visibility:visible;opacity:1;isolation:auto;mix-blend-mode:normal;color-interpolation:sRGB;color-interpolation-filters:linearRGB;solid-color:#000000;solid-opacity:1;vector-effect:none;fill:#f2f2f2;fill-opacity:1;fill-rule:nonzero;stroke:#e0ca1d;stroke-width:2;stroke-linecap:round;stroke-linejoin:round;stroke-miterlimit:4;stroke-dasharray:none;stroke-dashoffset:0;stroke-opacity:1;color-rendering:auto;image-rendering:auto;shape-rendering:auto;text-rendering:auto;enable-background:accumulate;stop-color:#000000;stop-opacity:1" />
  </g>
</svg>
