<?xml version="1.0" encoding="UTF-8" standalone="no"?>
<svg
   xmlns:dc="http://purl.org/dc/elements/1.1/"
   xmlns:cc="http://creativecommons.org/ns#"
   xmlns:rdf="http://www.w3.org/1999/02/22-rdf-syntax-ns#"
   xmlns:svg="http://www.w3.org/2000/svg"
   xmlns="http://www.w3.org/2000/svg"
   xmlns:sodipodi="http://sodipodi.sourceforge.net/DTD/sodipodi-0.dtd"
   xmlns:inkscape="http://www.inkscape.org/namespaces/inkscape"
   sodipodi:docname="P5 Scientific Icon.svg"
   inkscape:version="1.0 (4035a4fb49, 2020-05-01)"
   id="svg8"
   version="1.1"
   viewBox="0 0 142 142"
   height="142mm"
   width="142mm"
   inkscape:export-filename="C:\Users\Callisto Joaquim\Documents\images (non-memes)\Project Ages of War\Class Icons\P5 Scientific Icon.png"
   inkscape:export-xdpi="32"
   inkscape:export-ydpi="32">
  <defs
     id="defs2">
    <inkscape:path-effect
       lpeversion="1"
       is_visible="true"
       id="path-effect1398"
       effect="spiro" />
    <inkscape:path-effect
       lpeversion="1"
       is_visible="true"
       id="path-effect1394"
       effect="spiro" />
    <inkscape:path-effect
       lpeversion="1"
       is_visible="true"
       id="path-effect1386"
       effect="spiro" />
    <inkscape:path-effect
       lpeversion="1"
       is_visible="true"
       id="path-effect1374"
       effect="spiro" />
    <inkscape:path-effect
       lpeversion="1"
       is_visible="true"
       id="path-effect1362"
       effect="spiro" />
    <inkscape:path-effect
       effect="bspline"
       id="path-effect1277"
       is_visible="true"
       lpeversion="1"
       weight="33.333333"
       steps="2"
       helper_size="0"
       apply_no_weight="true"
       apply_with_weight="true"
       only_selected="false" />
    <inkscape:path-effect
       only_selected="false"
       apply_with_weight="true"
       apply_no_weight="true"
       helper_size="0"
       steps="2"
       weight="33.333333"
       lpeversion="1"
       is_visible="true"
       id="path-effect1273"
       effect="bspline" />
    <inkscape:path-effect
       effect="bspline"
       id="path-effect1269"
       is_visible="true"
       lpeversion="1"
       weight="33.333333"
       steps="2"
       helper_size="0"
       apply_no_weight="true"
       apply_with_weight="true"
       only_selected="false" />
    <inkscape:path-effect
       only_selected="false"
       apply_with_weight="true"
       apply_no_weight="true"
       helper_size="0"
       steps="2"
       weight="33.333333"
       lpeversion="1"
       is_visible="true"
       id="path-effect1206"
       effect="bspline" />
    <inkscape:path-effect
       lpeversion="1"
       is_visible="true"
       id="path-effect1200"
       effect="spiro" />
    <inkscape:path-effect
       only_selected="false"
       apply_with_weight="true"
       apply_no_weight="true"
       helper_size="0"
       steps="2"
       weight="33.333333"
       lpeversion="1"
       is_visible="true"
       id="path-effect1152"
       effect="bspline" />
    <inkscape:path-effect
       effect="bspline"
       id="path-effect1148"
       is_visible="true"
       lpeversion="1"
       weight="33.333333"
       steps="2"
       helper_size="0"
       apply_no_weight="true"
       apply_with_weight="true"
       only_selected="false" />
    <inkscape:path-effect
       only_selected="false"
       apply_with_weight="true"
       apply_no_weight="true"
       helper_size="0"
       steps="2"
       weight="33.333333"
       lpeversion="1"
       is_visible="true"
       id="path-effect1144"
       effect="bspline" />
    <inkscape:path-effect
       lpeversion="1"
       is_visible="true"
       id="path-effect927"
       effect="spiro" />
    <inkscape:path-effect
       lpeversion="1"
       is_visible="true"
       id="path-effect923"
       effect="spiro" />
    <inkscape:path-effect
       lpeversion="1"
       is_visible="true"
       id="path-effect919"
       effect="spiro" />
    <inkscape:path-effect
       effect="bspline"
       id="path-effect890"
       is_visible="true"
       lpeversion="1"
       weight="33.333333"
       steps="2"
       helper_size="0"
       apply_no_weight="true"
       apply_with_weight="true"
       only_selected="false" />
    <inkscape:path-effect
       only_selected="false"
       apply_with_weight="true"
       apply_no_weight="true"
       helper_size="0"
       steps="2"
       weight="33.333333"
       lpeversion="1"
       is_visible="true"
       id="path-effect886"
       effect="bspline" />
    <inkscape:path-effect
       lpeversion="1"
       is_visible="true"
       id="path-effect872"
       effect="spiro" />
    <inkscape:path-effect
       lpeversion="1"
       is_visible="true"
       id="path-effect868"
       effect="spiro" />
    <inkscape:path-effect
       lpeversion="1"
       is_visible="true"
       id="path-effect860"
       effect="spiro" />
    <inkscape:path-effect
       lpeversion="1"
       is_visible="true"
       id="path-effect856"
       effect="spiro" />
    <inkscape:path-effect
       lpeversion="1"
       is_visible="true"
       id="path-effect852"
       effect="spiro" />
    <inkscape:path-effect
       lpeversion="1"
       is_visible="true"
       id="path-effect848"
       effect="spiro" />
  </defs>
  <sodipodi:namedview
     showguides="false"
     inkscape:snap-smooth-nodes="false"
     inkscape:object-nodes="false"
     inkscape:object-paths="false"
     inkscape:snap-intersection-paths="false"
     inkscape:snap-grids="true"
     inkscape:window-maximized="1"
     inkscape:window-y="-8"
     inkscape:window-x="-8"
     inkscape:window-height="1137"
     inkscape:window-width="1920"
     inkscape:bbox-nodes="false"
     inkscape:snap-others="true"
     inkscape:snap-bbox="true"
     inkscape:snap-object-midpoints="true"
     showgrid="false"
     inkscape:document-rotation="0"
     inkscape:current-layer="layer1"
     inkscape:document-units="mm"
     inkscape:cy="271.25136"
     inkscape:cx="243.78606"
     inkscape:zoom="1.25"
     inkscape:pageshadow="2"
     inkscape:pageopacity="0.0"
     borderopacity="1.0"
     bordercolor="#666666"
     pagecolor="#ffffff"
     id="base">
    <inkscape:grid
       originy="-18.999999"
       originx="-18.999999"
       spacingy="1"
       spacingx="1"
       units="mm"
       id="grid62"
       type="xygrid" />
  </sodipodi:namedview>
  <metadata
     id="metadata5">
    <rdf:RDF>
      <cc:Work
         rdf:about="">
        <dc:format>image/svg+xml</dc:format>
        <dc:type
           rdf:resource="http://purl.org/dc/dcmitype/StillImage" />
        <dc:title />
      </cc:Work>
    </rdf:RDF>
  </metadata>
  <g
     transform="translate(-19,-19)"
     id="layer1"
     inkscape:groupmode="layer"
     inkscape:label="Calque 1">
    <path
       transform="matrix(-1,0,0,1,180,0)"
       d="M 49.015625,20 20,49.015625 V 160 H 130.98242 L 160,130.98242 V 20 Z"
       inkscape:original="M 49.015625 20 L 20 49.015625 L 20 160 L 130.98242 160 L 160 130.98242 L 160 20 L 49.015625 20 z "
       inkscape:radius="0"
       sodipodi:type="inkscape:offset"
       style="fill:#004ec6;fill-opacity:1;fill-rule:evenodd;stroke:#f2f2f2;stroke-width:2;stroke-linejoin:round;stroke-miterlimit:4;stroke-dasharray:none;stroke-opacity:1;paint-order:normal"
       id="path239" />
    <path
       transform="scale(0.26458333)"
       d="M 94.488281,94.488281 V 487.22656 L 143.78906,536.52734 536.53125,143.78516 487.23438,94.488281 Z"
       style="fill:#3f66e3;fill-opacity:1;fill-rule:evenodd;stroke:none;stroke-width:7.55906;stroke-linejoin:round;stroke-miterlimit:4;stroke-dasharray:none;stroke-opacity:1;paint-order:normal"
       id="path835" />
    <path
       id="path1413"
       d="m 45.345067,55.517706 c 4.66799,-1.23941 11.89717,-5.22657 11.89717,-6.56173 0,-0.17102 -0.77731,-2.72398 -1.72734,-5.67325 -0.95003,-2.94927 -1.79718,-5.58128 -1.88255,-5.8489 l -0.15521,-0.48659 -0.67671,0.67672 c -2.80081,2.8008 -10.98069,6.66092 -15.5059,7.31729 l -1.164,0.16883 3.33453,5.31059 3.33454,5.31059 0.74805,0.0325 c 0.41143,0.0179 1.22026,-0.0928 1.79742,-0.24608 z"
       style="fill:#f2f2f2;stroke:#004ec6;stroke-width:2;stroke-linecap:round;stroke-linejoin:round;stroke-miterlimit:4;stroke-dasharray:none;stroke-opacity:1" />
    <path
       sodipodi:nodetypes="ccccscccccccsscccsscccscsscccccccccccsccsccccscccssccsssssssssccccccccccccssccsccscscsccccccccccccsccscccccssssccscccc"
       d="m 55.758798,41.35086 9.73354,20.87532 45.119762,43.19214 c 0.37978,0.1936 0.64276,0.44534 0.78658,0.75336 1.53942,3.29304 -10.56768,12.1906 -27.040357,19.87196 -16.472705,7.6813 -31.070985,11.23668 -32.604025,7.94064 -0.1442,-0.30832 -0.168,-0.67236 -0.0724,-1.08832 l -4.08324,-62.32592 -9.734,-20.8751 c 0.006,0.016 0.016,0.0346 0.0264,0.051 0.01,0.016 0.023,0.0328 0.037,0.0468 0.014,0.016 0.0264,0.0296 0.0428,0.0436 0.016,0.014 0.0336,0.0264 0.0522,0.0394 0.0202,0.014 0.0384,0.023 0.0598,0.0358 0.0202,0.008 0.0426,0.023 0.0652,0.0328 0.023,0.01 0.048,0.0202 0.0738,0.0296 0.0264,0.01 0.0536,0.016 0.0824,0.023 0.0298,0.006 0.0576,0.014 0.0884,0.0202 0.0296,0.006 0.0628,0.014 0.096,0.016 0.0336,0.006 0.0682,0.01 0.104,0.014 0.0358,0.002 0.0726,0.006 0.111,0.01 0.0378,0.002 0.0768,0.002 0.1172,0.006 0.04,7.6e-4 0.0816,8.4e-4 0.124,4e-4 0.0428,-4.4e-4 0.0868,-0.002 0.1316,-0.002 0.0448,-10e-4 0.091,-0.002 0.138,-0.006 0.0468,-0.002 0.0946,-0.006 0.1436,-0.01 0.0492,-0.002 0.0996,-0.01 0.151,-0.014 0.0518,-0.006 0.1044,-0.014 0.158,-0.0202 0.053,-0.006 0.1074,-0.014 0.1624,-0.023 0.0556,-0.006 0.1122,-0.016 0.1694,-0.0264 0.0576,-0.01 0.1158,-0.0202 0.175,-0.0296 0.0596,-0.01 0.1198,-0.023 0.1814,-0.034 0.0616,-0.014 0.124,-0.023 0.1872,-0.037 0.0626,-0.014 0.12639,-0.0264 0.19059,-0.042 0.0652,-0.014 0.13141,-0.0296 0.1984,-0.0454 0.0668,-0.016 0.1344,-0.0296 0.20272,-0.0478 0.0678,-0.016 0.1366,-0.0346 0.2061,-0.053 0.07,-0.016 0.1408,-0.0364 0.21218,-0.056 0.0714,-0.0202 0.1436,-0.0392 0.21622,-0.0596 0.0732,-0.0202 0.1472,-0.042 0.2214,-0.0638 0.074,-0.0202 0.149,-0.0432 0.22478,-0.0654 0.076,-0.023 0.1528,-0.0462 0.23,-0.0698 0.0768,-0.023 0.1542,-0.049 0.23166,-0.0744 0.0784,-0.0264 0.157,-0.0504 0.23658,-0.0762 0.0792,-0.0264 0.1588,-0.0514 0.23956,-0.078 0.081,-0.0264 0.1622,-0.0554 0.24416,-0.084 0.0812,-0.0296 0.163,-0.057 0.24514,-0.0862 0.0824,-0.0296 0.165,-0.0578 0.24812,-0.0876 0.0834,-0.0296 0.1672,-0.0616 0.25138,-0.0926 0.0846,-0.0296 0.1692,-0.0626 0.25436,-0.094 0.0846,-0.0328 0.1698,-0.0638 0.25536,-0.0966 0.0852,-0.0332 0.1714,-0.0656 0.25764,-0.0994 0.0856,-0.0342 0.1714,-0.0684 0.25766,-0.1032 0.0866,-0.0344 0.1736,-0.0692 0.26092,-0.1046 0.0874,-0.0348 0.1742,-0.0712 0.26162,-0.1068 0.088,-0.0362 0.1758,-0.0734 0.2639,-0.1098 0.0876,-0.037 0.1752,-0.074 0.26324,-0.1116 0.0882,-0.0372 0.176,-0.0754 0.26422,-0.1136 0.088,-0.0382 0.1758,-0.076 0.26326,-0.1152 0.088,-0.0392 0.176,-0.0784 0.26424,-0.1174 0.0884,-0.0394 0.1766,-0.0796 0.26486,-0.1198 0.0882,-0.04 0.1764,-0.0804 0.26424,-0.1214 0.0358,-0.016 0.072,-0.0336 0.108,-0.0504 0.088,-0.0412 0.1754,-0.0826 0.26292,-0.1244 0.0874,-0.0412 0.1744,-0.0824 0.26126,-0.1238 0.0874,-0.0426 0.1744,-0.0852 0.26128,-0.1276 0.0868,-0.0426 0.1734,-0.0846 0.25994,-0.1268 0.086,-0.0428 0.1714,-0.086 0.25668,-0.1294 0.0852,-0.0428 0.1708,-0.0852 0.25532,-0.1286 0.0852,-0.0434 0.1694,-0.088 0.25372,-0.1316 0.084,-0.0432 0.1674,-0.0868 0.25074,-0.13 0.0834,-0.0448 0.167,-0.0888 0.2494,-0.1332 0.0824,-0.0442 0.1644,-0.088 0.24616,-0.1316 0.0816,-0.0448 0.1628,-0.0896 0.24316,-0.1344 0.0806,-0.0444 0.1606,-0.0884 0.2402,-0.1326 0.0796,-0.0438 0.1582,-0.0886 0.2366,-0.1326 0.0782,-0.0442 0.1556,-0.0884 0.23264,-0.133 0.0774,-0.0448 0.1536,-0.0902 0.22968,-0.1352 0.0756,-0.0442 0.1508,-0.0888 0.22506,-0.1332 0.0744,-0.0446 0.148,-0.0888 0.22118,-0.133 0.0734,-0.0442 0.146,-0.0878 0.21826,-0.1316 0.0714,-0.0444 0.1422,-0.0884 0.21194,-0.1326 0.0698,-0.0442 0.1386,-0.0882 0.20656,-0.132 0.0688,-0.0438 0.1366,-0.087 0.20362,-0.1308 0.0668,-0.0434 0.133,-0.0868 0.1984,-0.13 0.0648,-0.0432 0.1288,-0.086 0.1914,-0.1288 0.0634,-0.0432 0.126,-0.0862 0.1876,-0.1286 0.0616,-0.042 0.1218,-0.0842 0.1814,-0.126 0.0596,-0.0426 0.1182,-0.0848 0.1754,-0.1266 0.0574,-0.0414 0.1138,-0.0828 0.1692,-0.124 0.056,-0.0408 0.1104,-0.0812 0.1644,-0.1218 0.0534,-0.0412 0.1058,-0.0816 0.157,-0.1222 0.052,-0.04 0.1026,-0.0804 0.1524,-0.1198 0.0492,-0.0392 0.0974,-0.078 0.1446,-0.116 0.0474,-0.0394 0.0934,-0.0786 0.1386,-0.1172 0.0448,-0.0382 0.0884,-0.076 0.131,-0.1136 0.0432,-0.0376 0.0852,-0.0748 0.1264,-0.1116 0.0406,-0.037 0.0796,-0.0734 0.1176,-0.1094 0.0382,-0.0364 0.0754,-0.0724 0.111,-0.108 0.0356,-0.035 0.07,-0.07 0.1032,-0.1044 0.0336,-0.0342 0.0656,-0.0682 0.097,-0.1016 0.0328,-0.034 0.0612,-0.0676 0.0902,-0.1004 0.0296,-0.0328 0.0562,-0.0648 0.0826,-0.0968 0.0264,-0.0328 0.0506,-0.0634 0.074,-0.0944 0.023,-0.0296 0.0464,-0.0614 0.0678,-0.0918 0.0202,-0.0296 0.04,-0.059 0.0584,-0.0876 0.0202,-0.0296 0.037,-0.0582 0.0534,-0.0868 0.016,-0.0296 0.0298,-0.0556 0.0442,-0.0826 0.014,-0.0264 0.0264,-0.0528 0.0364,-0.079 0.008,-0.0264 0.0202,-0.0524 0.0296,-0.0776 0.006,-0.023 0.016,-0.0484 0.0202,-0.0718 0.006,-0.023 0.008,-0.0474 0.014,-0.0704 0.002,-0.023 0.002,-0.0448 0.002,-0.0662 8.6e-4,-0.023 4.6e-4,-0.0428 -0.001,-0.0632 -0.002,-0.0202 -0.002,-0.0406 -0.01,-0.0596 -0.006,-0.0202 -0.008,-0.0376 -0.0202,-0.0554 -0.002,-0.006 -0.006,-0.016 -0.01,-0.023 z"
       style="display:inline;fill:#f2f2f2;stroke:#004ec6;stroke-width:2;stroke-linecap:round;stroke-linejoin:round;stroke-miterlimit:4;stroke-dasharray:none;stroke-opacity:1"
       id="path872" />
    <path
       sodipodi:open="true"
       d="m -15.027409,68.466293 a 8.2263622,1.6452725 0 0 1 -4.113181,1.424848 8.2263622,1.6452725 0 0 1 -8.226362,0 8.2263622,1.6452725 0 0 1 -4.113181,-1.424848"
       sodipodi:arc-type="arc"
       sodipodi:end="3.1415927"
       sodipodi:start="0"
       sodipodi:ry="1.6452725"
       sodipodi:rx="8.2263622"
       sodipodi:cy="68.466293"
       sodipodi:cx="-23.253771"
       sodipodi:type="arc"
       transform="matrix(-0.90630779,0.42261826,0.42261826,0.90630779,0,0)"
       style="fill:#f2f2f2;stroke:#004ec6;stroke-width:2;stroke-linecap:round;stroke-linejoin:round;stroke-miterlimit:4;stroke-dasharray:none;stroke-opacity:1"
       id="ellipse957" />
    <ellipse
       transform="matrix(-0.90630779,0.42261826,0.42261826,0.90630779,0,0)"
       ry="1.9743271"
       rx="9.8716345"
       cy="55.304104"
       cx="-23.253771"
       id="ellipse959"
       style="fill:#f2f2f2;stroke:#004ec6;stroke-width:2;stroke-linecap:round;stroke-linejoin:round;stroke-miterlimit:4;stroke-dasharray:none;stroke-opacity:1" />
    <path
       style="fill:#f2f2f2;stroke:#004ec6;stroke-width:2;stroke-linecap:butt;stroke-linejoin:miter;stroke-opacity:1"
       d="m 57.465757,48.747416 -4.07143,-12.6243"
       id="path961" />
    <path
       style="fill:#f2f2f2;stroke:#004ec6;stroke-width:2;stroke-linecap:butt;stroke-linejoin:miter;stroke-opacity:1"
       d="m 35.500847,44.466976 7.05369,11.2337"
       id="path963" />
    <path
       d="m 72.080078,74.832031 c -0.689276,2.030881 -2.865098,3.217932 -4.944096,3.125326 -1.652108,0.06495 -3.468288,-0.480336 -4.964107,0.505534 -1.513372,1.427675 -1.140201,3.731007 -1.976507,5.497449 -1.130889,2.849626 -3.788017,5.029881 -6.800837,5.592394 0.869695,13.462556 1.798443,26.924666 2.613281,40.388676 -0.373918,0.71721 0.132219,0.83749 0.733942,0.66744 1.983125,-0.26597 4.007742,-0.81482 6.031684,-1.30026 10.193992,-2.6865 19.851265,-7.23752 29.137696,-12.22687 C 96.856044,114.21754 101.96995,111.42452 106,107.29688 94.69465,96.479721 83.378988,85.626883 72.080078,74.832031 Z"
       style="fill:#3f66e3;fill-opacity:1;stroke:#004ec6;stroke-width:2;stroke-linecap:round;stroke-linejoin:round;stroke-miterlimit:4;stroke-dasharray:none;stroke-opacity:1"
       id="path1026" />
    <path
       id="path1415"
       d="m 140.27856,69.13696 4.23874,-4.68538 -0.88301,-0.19642 c -3.46107,-0.7699 -12.20657,-6.856 -14.25085,-9.91734 l -0.58175,-0.87117 -2.96484,5.61503 -2.96486,5.61502 0.28588,0.53584 c 0.37207,0.69742 2.06733,2.40924 3.57863,3.61359 2.94895,2.35002 7.19234,4.77337 8.59427,4.90808 l 0.70906,0.0681 z"
       style="fill:#f2f2f2;stroke:#004ec6;stroke-width:2;stroke-linecap:round;stroke-linejoin:round;stroke-miterlimit:4;stroke-dasharray:none;stroke-opacity:1" />
    <path
       d="m 125.42338,57.60534 a 9.871635,1.974327 35 0 0 -0.0297,0.0504 9.871635,1.974327 35 0 0 -0.023,0.0542 9.871635,1.974327 35 0 0 -0.0158,0.0598 9.871635,1.974327 35 0 0 -0.007,0.0648 9.871635,1.974327 35 0 0 -0.002,0.0688 9.871635,1.974327 35 0 0 0.007,0.0734 9.871635,1.974327 35 0 0 0.0134,0.0788 9.871635,1.974327 35 0 0 0.0203,0.082 9.871635,1.974327 35 0 0 0.0263,0.088 9.871635,1.974327 35 0 0 0.0333,0.0918 9.871635,1.974327 35 0 0 0.0401,0.0968 9.871635,1.974327 35 0 0 0.0468,0.099 9.871635,1.974327 35 0 0 0.0554,0.1048 9.871635,1.974327 35 0 0 0.0614,0.1076 9.871635,1.974327 35 0 0 0.067,0.1116 9.871635,1.974327 35 0 0 0.0745,0.1166 9.871635,1.974327 35 0 0 0.0824,0.1196 9.871635,1.974327 35 0 0 0.088,0.1238 9.871635,1.974327 35 0 0 0.0945,0.1264 9.871635,1.974327 35 0 0 0.10124,0.131 9.871635,1.974327 35 0 0 0.108,0.1336 9.871635,1.974327 35 0 0 0.11452,0.1362 9.871635,1.974327 35 0 0 0.12014,0.1402 9.871635,1.974327 35 0 0 0.12398,0.1428 9.871635,1.974327 35 0 0 0.13298,0.1452 9.871635,1.974327 35 0 0 0.13724,0.148 9.871635,1.974327 35 0 0 0.14288,0.1516 9.871635,1.974327 35 0 0 0.1503,0.153 9.871635,1.974327 35 0 0 0.15434,0.156 9.871635,1.974327 35 0 0 0.15952,0.1578 9.871635,1.974327 35 0 0 0.16492,0.1588 9.871635,1.974327 35 0 0 0.17032,0.163 9.871635,1.974327 35 0 0 0.17414,0.1636 9.871635,1.974327 35 0 0 0.17932,0.165 9.871635,1.974327 35 0 0 0.18428,0.1666 9.871635,1.974327 35 0 0 0.18944,0.168 9.871635,1.974327 35 0 0 0.1935,0.1686 9.871635,1.974327 35 0 0 0.1971,0.1692 9.871635,1.974327 35 0 0 0.20138,0.1722 9.871635,1.974327 35 0 0 0.20497,0.1728 9.871635,1.974327 35 0 0 0.20835,0.1708 9.871635,1.974327 35 0 0 0.21128,0.1728 9.871635,1.974327 35 0 0 0.21487,0.1734 9.871635,1.974327 35 0 0 0.2196,0.1724 9.871635,1.974327 35 0 0 0.22118,0.1734 9.871635,1.974327 35 0 0 0.22342,0.173 9.871635,1.974327 35 0 0 0.22572,0.1728 9.871635,1.974327 35 0 0 0.22804,0.1722 9.871635,1.974327 35 0 0 0.23033,0.1722 9.871635,1.974327 35 0 0 0.23299,0.1714 9.871635,1.974327 35 0 0 0.23361,0.17 9.871635,1.974327 35 0 0 0.23495,0.1688 9.871635,1.974327 35 0 0 0.23724,0.168 9.871635,1.974327 35 0 0 0.099,0.069 9.871635,1.974327 35 0 0 0.23791,0.1644 9.871635,1.974327 35 0 0 0.23922,0.1652 9.871635,1.974327 35 0 0 0.2399,0.1616 9.871635,1.974327 35 0 0 0.23987,0.1616 9.871635,1.974327 35 0 0 0.24055,0.1578 9.871635,1.974327 35 0 0 0.24052,0.1576 9.871635,1.974327 35 0 0 0.23956,0.153 9.871635,1.974327 35 0 0 0.23956,0.153 9.871635,1.974327 35 0 0 0.23856,0.1486 9.871635,1.974327 35 0 0 0.23855,0.1486 9.871635,1.974327 35 0 0 0.23627,0.1428 9.871635,1.974327 35 0 0 0.23495,0.1418 9.871635,1.974327 35 0 0 0.2346,0.1392 9.871635,1.974327 35 0 0 0.23133,0.135 9.871635,1.974327 35 0 0 0.22968,0.1316 9.871635,1.974327 35 0 0 0.22902,0.1294 9.871635,1.974327 35 0 0 0.22606,0.1252 9.871635,1.974327 35 0 0 0.22275,0.1208 9.871635,1.974327 35 0 0 0.22072,0.1174 9.871635,1.974327 35 0 0 0.21825,0.1152 9.871635,1.974327 35 0 0 0.21443,0.1086 9.871635,1.974327 35 0 0 0.21195,0.1066 9.871635,1.974327 35 0 0 0.20857,0.1024 9.871635,1.974327 35 0 0 0.20408,0.097 9.871635,1.974327 35 0 0 0.20115,0.0952 9.871635,1.974327 35 0 0 0.19642,0.0898 9.871635,1.974327 35 0 0 0.19192,0.0846 9.871635,1.974327 35 0 0 0.189,0.0804 9.871635,1.974327 35 0 0 0.18428,0.075 9.871635,1.974327 35 0 0 0.17864,0.0712 9.871635,1.974327 35 0 0 0.17438,0.0682 9.871635,1.974327 35 0 0 0.17078,0.0616 9.871635,1.974327 35 0 0 0.1629,0.0578 9.871635,1.974327 35 0 0 0.1593,0.0514 9.871635,1.974327 35 0 0 0.15502,0.0484 9.871635,1.974327 35 0 0 0.1467,0.0426 9.871635,1.974327 35 0 0 0.14354,0.0382 9.871635,1.974327 35 0 0 0.13748,0.0328 9.871635,1.974327 35 0 0 0.13072,0.0264 9.871635,1.974327 35 0 0 0.1251,0.023 9.871635,1.974327 35 0 0 0.12038,0.016 9.871635,1.974327 35 0 0 0.11182,0.014 9.871635,1.974327 35 0 0 0.1062,0.006 9.871635,1.974327 35 0 0 0.10036,0.002 9.871635,1.974327 35 0 0 0.0934,-0.002 9.871635,1.974327 35 0 0 0.088,-0.006 9.871635,1.974327 35 0 0 0.0806,-0.014 9.871635,1.974327 35 0 0 0.074,-0.016 9.871635,1.974327 35 0 0 0.0664,-0.023 9.871635,1.974327 35 0 0 0.0612,-0.0264 9.871635,1.974327 35 0 0 0.054,-0.0328 9.871635,1.974327 35 0 0 0.0457,-0.0384 9.871635,1.974327 35 0 0 0.0401,-0.0426 l -14.06745,20.08982 a 32.90545,32.90545 0 0 1 0.86382,38.92508 32.90545,32.90545 0 0 1 -25.88165,14.01368 32.90545,32.90545 0 0 1 -3.985502,-0.113 19.74327,3.948654 35 0 1 -0.006,-0.002 19.74327,3.948654 35 0 1 -0.22834,-0.077 19.74327,3.948654 35 0 1 -0.233,-0.0824 19.74327,3.948654 35 0 1 -0.23986,-0.087 19.74327,3.948654 35 0 1 -0.24318,-0.0916 19.74327,3.948654 35 0 1 -0.24908,-0.0976 19.74327,3.948654 35 0 1 -0.25338,-0.1008 19.74327,3.948654 35 0 1 -0.25798,-0.106 19.74327,3.948654 35 0 1 -0.26356,-0.1098 19.74327,3.948654 35 0 1 -0.26688,-0.114 19.74327,3.948654 35 0 1 -0.27278,-0.1204 19.74327,3.948654 35 0 1 -0.27444,-0.1238 19.74327,3.948654 35 0 1 -0.28002,-0.1276 19.74327,3.948654 35 0 1 -0.28232,-0.1332 19.74327,3.948654 35 0 1 -0.28892,-0.136 19.74327,3.948654 35 0 1 -0.29122,-0.1416 19.74327,3.948654 35 0 1 -0.29516,-0.1444 19.74327,3.948654 35 0 1 -0.29746,-0.1502 19.74327,3.948654 35 0 1 -0.30174,-0.153 19.74327,3.948654 35 0 1 -0.30338,-0.1566 19.74327,3.948654 35 0 1 -0.309,-0.1606 19.74327,3.948654 35 0 1 -0.30996,-0.1652 19.74327,3.948654 35 0 1 -0.31392,-0.168 19.74327,3.948654 35 0 1 -0.1122,-0.0618 19.74327,3.948654 35 0 1 -0.31724,-0.1724 19.74327,3.948654 35 0 1 -0.3195,-0.178 19.74327,3.948654 35 0 1 -0.32246,-0.18 19.74327,3.948654 35 0 1 -0.32314,-0.1846 19.74327,3.948654 35 0 1 -0.3261,-0.1866 19.74327,3.948654 35 0 1 -0.32774,-0.1902 19.74327,3.948654 35 0 1 -0.33094,-0.1944 19.74327,3.948654 35 0 1 -0.33002,-0.1958 19.74327,3.948654 35 0 1 -0.33318,-0.20004 19.74327,3.948654 35 0 1 -0.33358,-0.20226 19.74327,3.948654 35 0 1 -0.3354,-0.20566 19.74327,3.948654 35 0 1 -0.33684,-0.20654 19.74327,3.948654 35 0 1 -0.33762,-0.2115 19.74327,3.948654 35 0 1 -0.338095,-0.21398 19.74327,3.948654 35 0 1 -0.33846,-0.21622 19.74327,3.948654 35 0 1 -0.33984,-0.21714 19.74327,3.948654 35 0 1 -0.3379,-0.22004 19.74327,3.948654 35 0 1 -0.33976,-0.22342 19.74327,3.948654 35 0 1 -0.33974,-0.22344 19.74327,3.948654 35 0 1 -0.33932,-0.22704 19.74327,3.948654 35 0 1 -0.33968,-0.22934 19.74327,3.948654 35 0 1 -0.33968,-0.22936 19.74327,3.948654 35 0 1 -0.33768,-0.23232 19.74327,3.948654 35 0 1 -0.3367,-0.23362 19.74327,3.948654 35 0 1 -0.3381,-0.2346 19.74327,3.948654 35 0 1 -0.33468,-0.23662 19.74327,3.948654 35 0 1 -0.33368,-0.23788 19.74327,3.948654 35 0 1 -0.3337,-0.23792 19.74327,3.948654 35 0 1 -0.33172,-0.24086 19.74327,3.948654 35 0 1 -0.32928,-0.2412 19.74327,3.948654 35 0 1 -0.32932,-0.2412 19.74327,3.948654 35 0 1 -0.32612,-0.24284 19.74327,3.948654 35 0 1 -0.3251,-0.24416 19.74327,3.948654 35 0 1 -0.32246,-0.24218 19.74327,3.948654 35 0 1 -0.3205,-0.24514 19.74327,3.948654 35 0 1 -0.31654,-0.2445 19.74327,3.948654 35 0 1 -0.31656,-0.2445 19.74327,3.948654 35 0 1 -0.311945,-0.24546 19.74327,3.948654 35 0 1 -0.309,-0.2435 19.74327,3.948654 35 0 1 -0.307,-0.24612 19.74327,3.948654 35 0 1 -0.30306,-0.24318 19.74327,3.948654 35 0 1 -0.29942,-0.24514 19.74327,3.948654 35 0 1 -0.29814,-0.24418 19.74327,3.948654 35 0 1 -0.2922,-0.24382 19.74327,3.948654 35 0 1 -0.29056,-0.24284 19.74327,3.948654 35 0 1 -0.28562,-0.24152 19.74327,3.948654 35 0 1 -0.28168,-0.24086 19.74327,3.948654 35 0 1 -0.27802,-0.24022 19.74327,3.948654 35 0 1 -0.27412,-0.2399 19.74327,3.948654 35 0 1 -0.27146,-0.23788 19.74327,3.948654 35 0 1 -0.0958,-0.0854 19.74327,3.948654 35 0 1 -0.26258,-0.2356 19.74327,3.948654 35 0 1 -0.26028,-0.23626 19.74327,3.948654 35 0 1 -0.2547,-0.2323 19.74327,3.948654 35 0 1 -0.24974,-0.23298 19.74327,3.948654 35 0 1 -0.24582,-0.23034 19.74327,3.948654 35 0 1 -0.24052,-0.2287 19.74327,3.948654 35 0 1 -0.23528,-0.22704 19.74327,3.948654 35 0 1 -0.22968,-0.2232 19.74327,3.948654 35 0 1 -0.22506,-0.2241 19.74327,3.948654 35 0 1 -0.21938,-0.22004 19.74327,3.948654 35 0 1 -0.2142,-0.21848 19.74327,3.948654 35 0 1 -0.2079,-0.21622 19.74327,3.948654 35 0 1 -0.20362,-0.2133 19.74327,3.948654 35 0 1 -0.1972,-0.2106 19.74327,3.948654 35 0 1 -0.1906,-0.2079 19.74327,3.948654 35 0 1 -0.1864,-0.20544 19.74327,3.948654 35 0 1 -0.1798,-0.20272 19.74327,3.948654 35 0 1 -0.1734,-0.20002 19.74327,3.948654 35 0 1 -0.1678,-0.1964 19.74327,3.948654 35 0 1 -0.1614,-0.1938 19.74327,3.948654 35 0 1 -0.1556,-0.1898 19.74327,3.948654 35 0 1 -0.0988,-0.123 32.90545,32.90545 0 0 1 2.84832,-32.82172 A 32.90545,32.90545 0 0 1 111.347,77.71986 Z"
       style="display:inline;fill:#f2f2f2;stroke:#004ec6;stroke-width:2;stroke-linecap:round;stroke-linejoin:round;stroke-miterlimit:4;stroke-dasharray:none;stroke-opacity:1"
       id="path953" />
    <path
       d="m 79.742188,90.753906 c -2.500773,3.006146 -4.278887,6.351024 -5.415359,10.103734 -1.586715,5.19451 -1.684266,10.95561 -0.178391,16.10916 0.483741,1.52445 0.931002,3.12229 2.054277,4.31703 2.592019,3.15142 5.985259,5.4889 9.207359,7.94 4.307594,3.09643 8.796336,6.04833 13.744748,8.01431 1.324178,0.35553 2.728238,0.19283 4.085168,0.17117 9.55988,-0.58129 18.62322,-6.39097 23.15454,-14.82728 2.68244,-4.96218 3.88197,-10.8041 3.17632,-16.53188 -0.12531,-1.03128 -0.29376,-2.0576 -0.52007,-3.07163 -2.74765,-1.77793 -5.96534,-2.85982 -9.13074,-3.199533 -2.34937,-0.264669 -4.87568,-0.126955 -7.12939,0.393373 -5.89871,1.43113 -11.06279,5.03729 -17.121101,5.97332 -4.021381,0.71405 -8.42661,-0.18038 -11.530567,-2.92896 -3.678607,-3.1219 -5.222986,-8.468162 -3.84992,-13.081954 -0.182291,0.20638 -0.364583,0.41276 -0.546874,0.61914 z"
       style="fill:#3f66e3;fill-opacity:1;stroke:#004ec6;stroke-width:2;stroke-linecap:round;stroke-linejoin:round;stroke-miterlimit:4;stroke-dasharray:none;stroke-opacity:1"
       id="path1019" />
    <path
       id="path935"
       d="m 129.00503,52.68732 -6.20181,11.7255"
       style="fill:#f2f2f2;stroke:#004ec6;stroke-width:2;stroke-linecap:butt;stroke-linejoin:miter;stroke-opacity:1" />
    <path
       id="path933"
       d="m 136.2805,73.84968 8.89724,-9.83812"
       style="fill:#f2f2f2;stroke:#004ec6;stroke-width:2;stroke-linecap:butt;stroke-linejoin:miter;stroke-opacity:1" />
    <ellipse
       transform="matrix(-0.81915204,-0.57357644,-0.57357644,0.81915204,0,0)"
       style="fill:#f2f2f2;stroke:#004ec6;stroke-width:2;stroke-linecap:round;stroke-linejoin:round;stroke-miterlimit:4;stroke-dasharray:none;stroke-opacity:1"
       id="ellipse898"
       cx="-145.76654"
       cy="-30.835262"
       rx="9.8716345"
       ry="1.9743271" />
    <path
       sodipodi:open="true"
       d="m -137.54018,-17.673092 a 8.2263622,1.6452725 0 0 1 -4.11318,1.424848 8.2263622,1.6452725 0 0 1 -8.22636,0 8.2263622,1.6452725 0 0 1 -4.11318,-1.424848"
       sodipodi:arc-type="arc"
       sodipodi:end="3.1415927"
       sodipodi:start="0"
       sodipodi:ry="1.6452725"
       sodipodi:rx="8.2263622"
       sodipodi:cy="-17.673092"
       sodipodi:cx="-145.76654"
       sodipodi:type="arc"
       transform="matrix(-0.81915204,-0.57357644,-0.57357644,0.81915204,0,0)"
       id="path892"
       style="fill:#f2f2f2;stroke:#004ec6;stroke-width:2;stroke-linecap:round;stroke-linejoin:round;stroke-miterlimit:4;stroke-dasharray:none;stroke-opacity:1" />
    <path
       inkscape:original-d="m 89.999198,90 c -0.8,-0.93786 -1.58292,2.97178 -2.373575,4.45688 -0.79066,1.48508 4.518815,0.1828 6.779015,0.27354 2.2602,0.0906 -1.3364,-1.27838 -2.0038,-1.91838 C 91.733458,92.17206 90.799218,90.93788 89.999198,90 Z"
       inkscape:path-effect="#path-effect1374"
       id="path1372"
       d="m 89.999198,90 c -0.498254,-0.157752 -1.059646,-0.06667 -1.50807,0.201769 -0.448423,0.268439 -0.785969,0.702875 -0.980932,1.187779 -0.194963,0.484905 -0.253008,1.018021 -0.216517,1.539376 0.03649,0.521355 0.16501,1.032703 0.331944,1.527956 0.302643,0.897869 0.740929,1.762786 1.383937,2.458704 0.643008,0.695918 1.504114,1.213922 2.443509,1.337612 0.469697,0.06184 0.953931,0.02437 1.403853,-0.123987 0.449922,-0.148359 0.864435,-0.408797 1.181968,-0.760384 0.317533,-0.351586 0.535823,-0.794654 0.605928,-1.26319 0.0701,-0.468536 -0.01064,-0.960783 -0.24018,-1.375215 C 94.179357,94.32367 93.824437,94.005561 93.460043,93.716745 93.095649,93.427929 92.712137,93.157425 92.400838,92.81204 91.979801,92.344901 91.711184,91.764038 91.375399,91.232305 91.207507,90.966438 91.020725,90.710304 90.794108,90.49232 90.56749,90.274335 90.298972,90.094912 89.999198,90 Z"
       style="fill:#3f66e3;fill-opacity:1;stroke:#004ec6;stroke-width:2;stroke-linecap:butt;stroke-linejoin:miter;stroke-opacity:1" />
    <path
       inkscape:original-d="m 113.4635,93.7659 c -1.4148,-0.0794 2.73035,-2.46708 4.09631,-3.70144 1.36597,-1.23436 2.09486,1.51496 3.14309,2.27166 1.04823,0.75668 -1.99614,1.11112 -2.99342,1.66588 -0.99727,0.55474 -2.83118,-0.1568 -4.24598,-0.2361 z"
       inkscape:path-effect="#path-effect1394"
       id="path1392"
       d="m 113.4635,93.7659 c -0.18226,-0.22706 -0.30126,-0.502983 -0.35014,-0.79001 -0.0489,-0.287028 -0.0284,-0.584636 0.0508,-0.864832 0.15829,-0.560393 0.5482,-1.039578 1.0292,-1.367801 0.48101,-0.328223 1.04855,-0.513804 1.62371,-0.604878 0.57515,-0.09107 1.16071,-0.09124 1.74277,-0.07392 0.74222,0.02209 1.51196,0.08018 2.16109,0.440757 0.32456,0.180288 0.6117,0.43668 0.79742,0.758163 0.18572,0.321484 0.26446,0.710161 0.18458,1.07274 -0.0653,0.296633 -0.23328,0.565418 -0.45211,0.776074 -0.21883,0.210656 -0.4869,0.365567 -0.76899,0.47822 -0.56417,0.225306 -1.17825,0.284597 -1.77232,0.411586 -0.73523,0.157163 -1.45157,0.420862 -2.2011,0.479812 -0.37476,0.02948 -0.75708,0.0062 -1.11589,-0.105911 -0.35881,-0.112121 -0.69367,-0.31684 -0.92899,-0.610001 z"
       style="fill:#3f66e3;fill-opacity:1;stroke:#004ec6;stroke-width:2;stroke-linecap:butt;stroke-linejoin:miter;stroke-opacity:1" />
    <path
       sodipodi:nodetypes="sssss"
       inkscape:original-d="m 102.79426,89.25102 c -0.84762,1.29662 -3.991782,2.59482 -3.891442,0.74836 0.1004,-1.84648 3.591582,-5.28784 4.789482,-5.83716 1.1979,-0.54932 4.78894,1.89636 4.34045,2.99342 -0.44848,1.09706 -4.39089,0.79876 -5.23849,2.09538 z"
       inkscape:path-effect="#path-effect1398"
       id="path1396"
       d="m 102.79426,89.25102 c -0.65462,0.159349 -1.26658,0.457413 -1.90844,0.662188 -0.32093,0.102388 -0.65095,0.181646 -0.986916,0.206242 -0.335967,0.0246 -0.678862,-0.0067 -0.996086,-0.12007 -0.426636,-0.152445 -0.795997,-0.45272 -1.04721,-0.829748 -0.251214,-0.377028 -0.385498,-0.827988 -0.399352,-1.280831 -0.01385,-0.452842 0.09081,-0.906704 0.285368,-1.315855 0.19456,-0.409151 0.47766,-0.773951 0.813698,-1.07782 0.672077,-0.607738 1.542138,-0.963601 2.430218,-1.143414 0.88809,-0.179812 1.80066,-0.19385 2.70676,-0.189492 1.01776,0.0049 2.07627,0.04212 2.98005,0.51014 0.4519,0.234009 0.85448,0.577076 1.11381,1.01493 0.25933,0.437855 0.36659,0.973814 0.24659,1.46835 -0.11839,0.487901 -0.44913,0.908151 -0.85972,1.197083 -0.41058,0.288932 -0.89687,0.455373 -1.38979,0.550702 -0.98586,0.190656 -2.01335,0.110104 -2.98898,0.347595 z"
       style="fill:#3f66e3;fill-opacity:1;stroke:#004ec6;stroke-width:2;stroke-linecap:butt;stroke-linejoin:miter;stroke-opacity:1" />
    <circle
       r="3"
       cy="114.59013"
       cx="-62.473862"
       id="path1402"
       style="fill:#f2f2f2;stroke:#004ec6;stroke-width:2;stroke-linecap:round;stroke-linejoin:round;stroke-miterlimit:4;stroke-dasharray:none;stroke-opacity:1"
       transform="scale(-1,1)" />
    <circle
       r="2.5"
       style="fill:#f2f2f2;stroke:#004ec6;stroke-width:2;stroke-linecap:round;stroke-linejoin:round;stroke-miterlimit:4;stroke-dasharray:none;stroke-opacity:1"
       id="circle1404"
       cx="-61.569607"
       cy="100.99909"
       transform="scale(-1,1)" />
    <circle
       r="4"
       cy="86.674759"
       cx="-66.987099"
       id="circle1406"
       style="fill:#f2f2f2;stroke:#004ec6;stroke-width:2;stroke-linecap:round;stroke-linejoin:round;stroke-miterlimit:4;stroke-dasharray:none;stroke-opacity:1"
       transform="scale(-1,1)" />
  </g>
  <g
     transform="translate(-19,-19)"
     style="display:none"
     inkscape:groupmode="layer"
     inkscape:label="Ampoule"
     id="layer3">
    <path
       id="path1140"
       d="m 156.11993,246.49648 c -1.18067,-0.35099 -3.5435,-1.05401 -3.5435,-1.05401 l -1.14838,-6.51278 6.51278,-1.14837 1.14838,6.51277 z"
       style="display:inline;fill:#f2f2f2;stroke:#000000;stroke-width:0.282624;stroke-linecap:butt;stroke-linejoin:miter;stroke-opacity:1" />
    <path
       d="m 151.7434,234.08416 c -0.73072,-2.37567 -1.32102,-4.32697 -1.31176,-4.33623 0.009,-0.009 0.10709,0.1036 0.21738,0.25081 0.56068,0.74829 1.25449,0.76413 1.58278,0.0361 l 0.1086,-0.24082 0.11178,0.14212 c 0.16594,0.21095 0.61804,0.41261 0.8158,0.36389 0.22205,-0.0547 0.53494,-0.36783 0.61749,-0.61797 l 0.0679,-0.20589 0.1276,0.1525 c 0.17065,0.20395 0.51152,0.39976 0.69591,0.39976 0.36761,0 0.63719,-0.30633 0.84196,-0.95671 0.0879,-0.2793 0.10837,-0.30642 0.13525,-0.17946 0.0174,0.0822 0.11533,1.89935 0.21759,4.03799 0.10226,2.13864 0.20159,4.11726 0.22072,4.39693 l 0.0348,0.50849 -1.51779,0.26256 c -0.83479,0.14441 -1.54472,0.27218 -1.57762,0.28393 -0.0329,0.0118 -0.65769,-1.92234 -1.38842,-4.29801 z m 1.14913,-4.04791 c -0.0987,-0.0615 -0.25092,-0.18929 -0.33826,-0.28394 l -0.1588,-0.17209 0.0936,-0.41875 c 0.0654,-0.29288 0.0952,-0.76042 0.099,-1.55538 l 0.005,-1.13662 0.22711,0.68689 c 0.23639,0.71498 0.66128,1.66859 0.88082,1.97691 0.11178,0.15697 0.11888,0.2045 0.0581,0.38869 -0.0855,0.25895 -0.42294,0.62665 -0.57486,0.62635 -0.0619,-1.3e-4 -0.19334,-0.0506 -0.29205,-0.11206 z m 1.67502,-0.25624 c -0.0658,-0.0362 -0.21668,-0.15814 -0.33527,-0.27103 l -0.21564,-0.20525 0.0825,-0.34033 c 0.20843,-0.86015 0.16325,-2.8121 -0.10411,-4.49797 -0.30018,-1.89282 -1.01129,-4.05513 -1.61437,-4.90898 -0.10593,-0.14996 -0.10485,-0.15964 0.0523,-0.46888 0.2898,-0.5702 0.59833,-0.61831 1.05254,-0.1641 0.70373,0.70372 1.39643,2.43842 1.83143,4.58639 0.21702,1.07158 0.28013,1.67499 0.33143,3.16899 0.0325,0.94791 0.0217,1.27144 -0.0579,1.72632 -0.11782,0.67359 -0.28976,1.09645 -0.52701,1.29608 -0.19161,0.16122 -0.31134,0.18024 -0.49594,0.0788 z m -1.01435,-1.30128 c -0.98719,-1.9656 -1.67222,-5.58871 -1.4714,-7.7821 0.0346,-0.37837 0.0856,-0.76871 0.11334,-0.86742 0.0487,-0.1737 0.0601,-0.16008 0.35486,0.42454 0.96523,1.91459 1.58216,4.98467 1.48774,7.40364 -0.0401,1.02732 -0.0798,1.35452 -0.16433,1.35452 -0.0288,0 -0.17293,-0.23993 -0.32021,-0.53318 z m -1.79233,-6.33141 c -0.20591,-0.66423 -0.57374,-1.54505 -0.84052,-2.01274 l -0.26943,-0.47233 0.16365,-0.3037 c 0.2896,-0.53742 0.5903,-0.58364 1.03639,-0.15928 0.21377,0.20335 0.24232,0.25927 0.20585,0.40311 -0.11793,0.46513 -0.16283,0.97648 -0.16569,1.8869 -0.002,0.55111 -0.008,1.00202 -0.0134,1.00202 -0.006,0 -0.0582,-0.15479 -0.11687,-0.34398 z m 0.2718,6.82972 c -0.84901,-1.56754 -1.49258,-4.25883 -1.601,-6.69512 -0.0361,-0.81106 0.0482,-2.04549 0.15236,-2.23164 0.0638,-0.11398 0.51966,0.78231 0.83078,1.63342 0.59311,1.62248 1.02858,4.10427 1.02868,5.86257 4e-5,0.65408 -0.10185,1.64582 -0.17721,1.72473 -0.0261,0.0273 -0.13123,-0.10494 -0.23361,-0.29396 z m -0.69914,1.38618 c -0.56196,-0.24475 -1.1516,-1.33021 -1.69752,-3.12501 -0.56358,-1.85281 -0.76322,-2.99293 -0.82076,-4.68709 -0.0544,-1.60193 0.12753,-2.68695 0.52678,-3.14168 0.27662,-0.31506 0.65546,-0.25038 0.96909,0.16546 0.14518,0.19248 0.14577,0.1985 0.0575,0.58333 -0.11411,0.49771 -0.13059,2.54404 -0.0272,3.37995 0.24744,2.00094 0.72129,3.82271 1.32693,5.10155 0.16016,0.33819 0.34894,0.69598 0.41952,0.7951 l 0.12832,0.18021 -0.16026,0.32756 c -0.0998,0.20398 -0.225,0.36104 -0.33187,0.4163 -0.20139,0.10414 -0.16234,0.10371 -0.39055,0.004 z m -0.342,8.0998 c -0.70841,-0.62356 -1.60321,-2.32475 -2.75283,-5.23365 -1.0289,-2.60344 -1.85008,-5.10593 -2.43416,-7.41794 -1.00469,-3.97694 -0.995,-6.08704 0.0351,-7.63648 0.49023,-0.73741 1.15407,-1.2445 2.46098,-1.87989 l 0.79205,-0.38508 -0.0383,-0.62563 -0.0383,-0.62564 0.42628,-0.43309 c 0.51607,-0.52432 0.60774,-0.75103 0.61087,-1.51095 l 0.002,-0.54269 0.14538,0.40855 c 0.26837,0.75419 0.51938,1.03806 1.14028,1.28958 0.2366,0.0958 0.45829,0.23189 0.52632,0.32302 0.0647,0.0866 0.17431,0.38063 0.24369,0.65343 l 0.12615,0.49599 0.44727,0.0416 c 1.9987,0.18583 2.91685,0.49937 3.76681,1.2863 1.4323,1.32609 2.10247,3.716 2.46261,8.78206 0.10297,1.44846 0.10419,6.48827 0.002,7.86662 -0.0941,1.26846 -0.26649,2.50849 -0.43106,3.1011 -0.13078,0.47096 -0.36919,0.98961 -0.4889,1.0636 -0.0795,0.0491 -1.56232,0.32303 -1.59167,0.29399 -0.0269,-0.0266 -0.48485,-9.10904 -0.54907,-10.88958 -0.0359,-0.99451 -0.1013,-1.85737 -0.18144,-2.39288 -0.54823,-3.6635 -1.89539,-6.41714 -2.94433,-6.01834 -0.16773,0.0638 -0.52482,0.50149 -0.52482,0.64332 0,0.12275 -0.0833,0.0973 -0.24382,-0.0745 -0.45206,-0.4839 -0.96525,-0.41547 -1.28461,0.17129 l -0.15984,0.29369 -0.1878,-0.17761 c -0.25005,-0.23648 -0.40781,-0.3116 -0.65437,-0.3116 -1.38857,0 -1.39479,5.18739 -0.0108,9.0107 0.39461,1.09012 3.20872,10.32627 3.15951,10.36978 -0.0275,0.0243 -0.33261,0.0911 -0.67808,0.14845 -0.34547,0.0574 -0.68317,0.11668 -0.75044,0.13182 -0.0831,0.0187 -0.21234,-0.0517 -0.40279,-0.21934 z"
       style="display:inline;fill:#f2f2f2;stroke:none;stroke-width:0.282624;stroke-linecap:round;stroke-linejoin:round;stroke-miterlimit:4;stroke-dasharray:none;stroke-opacity:1"
       id="path1238" />
    <path
       d="m 155.64407,224.75575 0.66856,13.31266 m -3.25639,0.57418 -3.92496,-12.73847 m 6.36925,-1.96249 a 5.7866106,1.6533137 80 0 1 -0.62337,5.98582 5.7866106,1.6533137 80 0 1 -2.63303,-5.41162 5.7866106,1.6533137 80 0 1 0.62335,-5.9858 5.7866106,1.6533137 80 0 1 2.63305,5.4116 z m -1.6282,0.2871 a 5.7866106,1.6533137 80 0 1 -0.62336,5.9858 5.7866106,1.6533137 80 0 1 -2.63303,-5.41159 5.7866106,1.6533137 80 0 1 0.62335,-5.98582 5.7866106,1.6533137 80 0 1 2.63304,5.41161 z m -1.6282,0.2871 a 5.7866106,1.6533137 80 0 1 -0.62336,5.9858 5.7866106,1.6533137 80 0 1 -2.63303,-5.41162 5.7866106,1.6533137 80 0 1 0.62337,-5.98579 5.7866106,1.6533137 80 0 1 2.63302,5.41161 z"
       style="display:inline;fill:none;stroke:#000000;stroke-width:0.282624;stroke-linecap:butt;stroke-linejoin:miter;stroke-opacity:1"
       id="path1218" />
    <path
       d="m 159.0417,239.26612 a 0.82665686,0.82665686 0 0 0 -0.29868,0.11673 l -7.55475,2.9467 a 0.82665686,0.82665686 0 0 0 -0.67085,0.95807 0.82665686,0.82665686 0 0 0 0.95793,0.67001 0.82665686,0.82665686 0 0 0 0.29867,-0.11672 l 7.55473,-2.94669 a 0.82665686,0.82665686 0 0 0 0.67087,-0.9581 0.82665686,0.82665686 0 0 0 -0.95792,-0.67 z"
       style="display:inline;fill:#f2f2f2;stroke:#000000;stroke-width:0.282624;stroke-linecap:round;stroke-linejoin:round;stroke-miterlimit:4;stroke-dasharray:none;stroke-opacity:1"
       id="path1162" />
    <path
       d="m 158.75461,237.63802 a 0.82665686,0.82665686 0 0 0 -0.30205,0.11739 l -7.55137,2.94604 a 0.82665686,0.82665686 0 0 0 -0.671,0.95722 0.82665686,0.82665686 0 0 0 0.95807,0.67088 0.82665686,0.82665686 0 0 0 0.29866,-0.1169 l 7.55478,-2.94662 a 0.82665686,0.82665686 0 0 0 0.67084,-0.95809 0.82665686,0.82665686 0 0 0 -0.95793,-0.67 z"
       style="display:inline;fill:#f2f2f2;stroke:#000000;stroke-width:0.282624;stroke-linecap:round;stroke-linejoin:round;stroke-miterlimit:4;stroke-dasharray:none;stroke-opacity:1"
       id="path1160" />
    <path
       d="m 159.32875,240.89422 a 0.82665686,0.82665686 0 0 0 -0.29865,0.11672 l -7.55477,2.94662 a 0.82665686,0.82665686 0 0 0 -0.67084,0.9581 0.82665686,0.82665686 0 0 0 0.95792,0.67 0.82665686,0.82665686 0 0 0 0.30204,-0.11738 l 7.55139,-2.94603 a 0.82665686,0.82665686 0 0 0 0.67101,-0.95725 0.82665686,0.82665686 0 0 0 -0.9581,-0.67085 z"
       style="display:inline;fill:#f2f2f2;stroke:#000000;stroke-width:0.282624;stroke-linecap:round;stroke-linejoin:round;stroke-miterlimit:4;stroke-dasharray:none;stroke-opacity:1"
       id="path1156" />
    <path
       sodipodi:nodetypes="ccccccc"
       inkscape:original-d="m 149.03691,215.84784 c -0.0952,-0.54237 -0.19088,-1.0851 -0.28709,-1.62818 0.54326,-0.0954 1.08595,-0.19106 1.6282,-0.2871 -0.2866,-1.62791 -0.57367,-3.25604 -0.86128,-4.8846 0.28761,1.62856 0.57468,3.25672 0.86128,4.8846 0.54326,-0.0954 1.08595,-0.19105 1.6282,-0.2871 0.0962,0.54308 0.19191,1.08582 0.28709,1.6282"
       inkscape:path-effect="#path-effect1152"
       id="path1150"
       d="m 149.03691,215.84784 c -0.0956,-0.5423 -0.19132,-1.08502 0.0324,-1.40449 0.22371,-0.31947 0.7664,-0.41516 0.89404,-1.27689 0.12765,-0.86173 -0.15943,-2.48986 -0.15943,-2.48986 0,0 0.28709,1.62815 0.70219,2.39417 0.41511,0.76601 0.9578,0.67032 1.27684,0.89408 0.31905,0.22377 0.41475,0.76651 0.51037,1.30881"
       style="display:inline;fill:none;stroke:#000000;stroke-width:0.282624;stroke-linecap:butt;stroke-linejoin:miter;stroke-opacity:1" />
    <path
       style="display:inline;fill:none;stroke:#000000;stroke-width:0.282624;stroke-linecap:butt;stroke-linejoin:miter;stroke-opacity:1"
       d="m 157.94083,237.78132 c 0.44633,-0.63743 0.89337,-1.27586 1.08573,-4.95288 0.19237,-3.67703 0.12957,-10.36845 -1.03528,-13.80168 -1.16485,-3.43324 -3.43144,-3.59317 -5.69797,-3.7531"
       id="path1146"
       inkscape:path-effect="#path-effect1148"
       inkscape:original-d="m 157.94083,237.78132 c 0.44683,-0.63708 0.89386,-1.27551 1.34111,-1.9153 -0.0625,-6.71461 -0.12533,-13.40603 -0.18875,-20.11255 -2.26679,-0.15954 -4.53337,-0.31955 -6.79988,-0.47981"
       sodipodi:nodetypes="cccc" />
    <path
       sodipodi:nodetypes="cccc"
       inkscape:original-d="m 151.42805,238.92969 c -0.63793,-0.44667 -1.27633,-0.89371 -1.9153,-1.3411 -2.23336,-6.32116 -4.46712,-12.6423 -6.70153,-18.96417 2.07579,-0.9252 4.15098,-1.85069 6.22569,-2.77658"
       inkscape:path-effect="#path-effect1144"
       id="path1142"
       d="m 151.42805,238.92969 c -0.63792,-0.44668 -1.27634,-0.8937 -2.71268,-4.27792 -1.43634,-3.38421 -3.67009,-9.70536 -3.74933,-13.32919 -0.0792,-3.62384 1.99594,-4.54935 4.07087,-5.47474"
       style="display:inline;fill:none;stroke:#000000;stroke-width:0.282624;stroke-linecap:butt;stroke-linejoin:miter;stroke-opacity:1" />
  </g>
</svg>
