<?xml version="1.0" encoding="UTF-8" standalone="no"?>
<svg
   xmlns:dc="http://purl.org/dc/elements/1.1/"
   xmlns:cc="http://creativecommons.org/ns#"
   xmlns:rdf="http://www.w3.org/1999/02/22-rdf-syntax-ns#"
   xmlns:svg="http://www.w3.org/2000/svg"
   xmlns="http://www.w3.org/2000/svg"
   xmlns:sodipodi="http://sodipodi.sourceforge.net/DTD/sodipodi-0.dtd"
   xmlns:inkscape="http://www.inkscape.org/namespaces/inkscape"
   width="142mm"
   height="142mm"
   viewBox="0 0 142 142"
   version="1.1"
   id="svg8"
   inkscape:version="1.0 (4035a4fb49, 2020-05-01)"
   sodipodi:docname="F5 Strategist Icon.svg"
   inkscape:export-filename="C:\Users\Callisto Joaquim\Documents\images (non-memes)\Project Ages of War\Diverging concepts\Inverted future\F5 Strategist Icon Inverted.png"
   inkscape:export-xdpi="32"
   inkscape:export-ydpi="32">
  <defs
     id="defs2">
    <inkscape:path-effect
       effect="bspline"
       id="path-effect858"
       is_visible="true"
       lpeversion="1"
       weight="33.333333"
       steps="2"
       helper_size="0"
       apply_no_weight="true"
       apply_with_weight="true"
       only_selected="false" />
    <inkscape:path-effect
       only_selected="false"
       apply_with_weight="true"
       apply_no_weight="true"
       helper_size="0"
       steps="2"
       weight="33.333333"
       lpeversion="1"
       is_visible="true"
       id="path-effect844"
       effect="bspline" />
  </defs>
  <sodipodi:namedview
     inkscape:snap-intersection-paths="false"
     inkscape:snap-grids="true"
     inkscape:object-nodes="true"
     inkscape:snap-smooth-nodes="false"
     id="base"
     pagecolor="#ffffff"
     bordercolor="#666666"
     borderopacity="1.0"
     inkscape:pageopacity="0.0"
     inkscape:pageshadow="2"
     inkscape:zoom="1.1581679"
     inkscape:cx="282.25347"
     inkscape:cy="311.06897"
     inkscape:document-units="mm"
     inkscape:current-layer="layer1"
     inkscape:document-rotation="0"
     showgrid="false"
     inkscape:snap-object-midpoints="true"
     inkscape:snap-bbox="true"
     inkscape:snap-others="true"
     inkscape:bbox-nodes="false"
     inkscape:window-width="1920"
     inkscape:window-height="1137"
     inkscape:window-x="-8"
     inkscape:window-y="-8"
     inkscape:window-maximized="1"
     inkscape:object-paths="false">
    <inkscape:grid
       originy="-18.999999"
       originx="-18.999999"
       type="xygrid"
       id="grid62"
       units="mm"
       spacingx="1"
       spacingy="1" />
  </sodipodi:namedview>
  <metadata
     id="metadata5">
    <rdf:RDF>
      <cc:Work
         rdf:about="">
        <dc:format>image/svg+xml</dc:format>
        <dc:type
           rdf:resource="http://purl.org/dc/dcmitype/StillImage" />
        <dc:title />
      </cc:Work>
    </rdf:RDF>
  </metadata>
  <g
     transform="translate(-19,-19)"
     inkscape:label="Calque 1"
     inkscape:groupmode="layer"
     id="layer1">
    <path
       id="path239"
       style="fill:#ea23f0;fill-opacity:1;fill-rule:evenodd;stroke:#f2f2f2;stroke-width:2;stroke-linejoin:round;stroke-miterlimit:4;stroke-dasharray:none;stroke-opacity:1;paint-order:normal"
       sodipodi:type="inkscape:offset"
       inkscape:radius="0"
       inkscape:original="M 49.015625 20 L 20 49.015625 L 20 160 L 130.98242 160 L 160 130.98242 L 160 20 L 49.015625 20 z "
       d="M 49.015625,20 20,49.015625 V 160 H 130.98242 L 160,130.98242 V 20 Z" />
    <path
       inkscape:export-ydpi="96"
       inkscape:export-xdpi="96"
       id="path835"
       style="fill:#cb00d3;fill-opacity:1;fill-rule:evenodd;stroke:none;stroke-width:2;stroke-linejoin:round;stroke-miterlimit:4;stroke-dasharray:none;stroke-opacity:1;paint-order:normal"
       d="m 25.000024,154.99984 103.971946,-0.0579 26.02787,-26.02787 V 25.000024 Z" />
    <path
       id="path1095"
       style="color:#000000;font-style:normal;font-variant:normal;font-weight:normal;font-stretch:normal;font-size:medium;line-height:normal;font-family:sans-serif;font-variant-ligatures:normal;font-variant-position:normal;font-variant-caps:normal;font-variant-numeric:normal;font-variant-alternates:normal;font-variant-east-asian:normal;font-feature-settings:normal;font-variation-settings:normal;text-indent:0;text-align:start;text-decoration:none;text-decoration-line:none;text-decoration-style:solid;text-decoration-color:#000000;letter-spacing:normal;word-spacing:normal;text-transform:none;writing-mode:lr-tb;direction:ltr;text-orientation:mixed;dominant-baseline:auto;baseline-shift:baseline;text-anchor:start;white-space:normal;shape-padding:0;shape-margin:0;inline-size:0;clip-rule:nonzero;display:inline;overflow:visible;visibility:visible;opacity:1;isolation:auto;mix-blend-mode:normal;color-interpolation:sRGB;color-interpolation-filters:linearRGB;solid-color:#000000;solid-opacity:1;vector-effect:none;fill:#f2f2f2;fill-opacity:1;fill-rule:nonzero;stroke:#cb00d3;stroke-width:2;stroke-linecap:butt;stroke-linejoin:miter;stroke-miterlimit:4;stroke-dasharray:none;stroke-dashoffset:0;stroke-opacity:1;color-rendering:auto;image-rendering:auto;shape-rendering:auto;text-rendering:auto;enable-background:accumulate;stop-color:#000000;stop-opacity:1"
       d="m 87.999818,43.84576 v 7.23057 H 61.64432 L 61.111537,51.4763 C 49.521083,60.16736 42.491538,73.59546 41.892556,88.00017 H 34.61548 v 3.99976 h 7.27656 c 0.597233,14.40333 7.623513,27.8293 19.211229,36.52181 l 0.535368,0.39997 h 26.361181 v 7.23262 h 4.000272 v -7.23262 h 26.35911 l 0.5333,-0.39997 c 11.58866,-8.69204 18.61557,-22.11803 19.2133,-36.52181 h 7.27914 V 88.00017 H 138.1058 C 137.50753,73.59583 130.48,60.16785 118.89043,51.4763 l -0.53278,-0.39997 H 92.00009 V 43.84576 Z M 63.039069,55.07609 h 24.960749 v 5.23275 H 76.154546 v 3.99976 h 11.845272 v 5.23069 h -7.230049 v 3.99976 h 7.230049 v 5.23068 h -2.614827 v 3.99976 h 2.614827 v 5.23068 H 52.972499 c 0.362471,-6.34744 2.330502,-12.75911 5.915919,-18.19373 a 2.0001999,2.0001999 0 0 0 0.02739,-0.0429 c 2.881958,-4.61211 7.02256,-8.48841 11.747603,-11.35744 H 64.16975 l -0.910021,0.7581 -0.302824,0.25166 -0.0078,0.008 C 54.547283,66.57435 49.843798,77.18684 49.268287,87.99989 H 45.895884 C 46.484503,75.06073 52.748428,63.02093 63.039024,55.0758 Z m 28.961021,0 h 24.96282 c 10.28979,7.94556 16.55158,19.98524 17.13952,32.92408 h -3.33003 c -0.29915,-7.26123 -2.49721,-14.43286 -6.75876,-20.52743 l -0.0135,-0.0176 -0.0119,-0.0176 c -2.14815,-2.93468 -4.55515,-6.75635 -8.4491,-8.80309 l -0.4377,-0.2284 h -5.67924 c 8.91494,5.59283 15.53572,15.0308 17.12867,25.28529 a 2.0001999,2.0001999 0 0 0 0.01,0.0589 c 0.25886,1.39002 0.42302,2.81125 0.49867,4.24987 H 92.00009 v -5.23068 h 2.615346 V 78.76967 H 92.00009 v -5.23068 h 7.230563 V 69.53923 H 92.00009 v -5.23069 h 11.84579 V 60.30878 H 92.00009 Z M 45.89541,91.99993 h 3.349668 c 0.318921,7.69011 2.751603,15.27852 7.455876,21.59196 l 0.0217,0.0295 0.02326,0.0289 c 1.962875,2.4375 4.093699,5.9319 7.70909,7.73443 l 0.422196,0.20929 h 5.763474 C 62.28865,116.39882 55.900992,107.95137 53.843758,98.30085 a 2.0001999,2.0001999 0 0 0 -0.0098,-0.0429 c -0.478459,-2.02594 -0.771612,-4.12554 -0.879014,-6.258 h 35.044887 v 5.23068 h -2.614827 v 3.99976 h 2.614827 v 5.2307 h -7.230049 v 3.99974 h 7.230049 v 5.2307 H 76.154544 v 3.99976 h 11.845271 v 5.23068 H 63.031314 C 52.743211,116.97559 46.482407,104.93779 45.895408,91.99993 Z m 46.10468,0 h 35.04179 c -0.51513,8.505 -4.02183,17.19455 -10.04177,23.43938 a 2.0001999,2.0001999 0 0 0 -0.0289,0.0315 c -2.20237,2.38517 -4.76933,4.43508 -7.55716,6.12315 h 6.40064 l 0.55036,-0.44752 c 8.79723,-7.1428 13.7814,-18.03739 14.3831,-29.14655 h 3.35432 c -0.58751,12.9382 -6.84854,24.97608 -17.13746,32.92202 H 92.00009 v -5.23068 h 11.84579 v -3.99976 H 92.00009 v -5.2307 h 7.230563 v -3.99974 H 92.00009 v -5.2307 h 2.615346 V 97.23057 H 92.00009 Z" />
  </g>
</svg>
